<?xml version="1.0" encoding="UTF-8" standalone="no"?>
<svg
   xmlns:dc="http://purl.org/dc/elements/1.1/"
   xmlns:cc="http://creativecommons.org/ns#"
   xmlns:rdf="http://www.w3.org/1999/02/22-rdf-syntax-ns#"
   xmlns:svg="http://www.w3.org/2000/svg"
   xmlns="http://www.w3.org/2000/svg"
   xmlns:sodipodi="http://sodipodi.sourceforge.net/DTD/sodipodi-0.dtd"
   xmlns:inkscape="http://www.inkscape.org/namespaces/inkscape"
   version="1.1"
   id="svg2"
   xml:space="preserve"
   width="512"
   height="512"
   viewBox="0 0 511.99999 511.99999"
   sodipodi:docname="favicon.svg"
   inkscape:export-filename="/home/jurf/Stiahnuté/favicon_white.png"
   inkscape:export-xdpi="288"
   inkscape:export-ydpi="288"
   inkscape:version="1.0.1 (3bc2e813f5, 2020-09-07)"><metadata
     id="metadata8"><rdf:RDF><cc:Work
         rdf:about=""><dc:format>image/svg+xml</dc:format><dc:type
           rdf:resource="http://purl.org/dc/dcmitype/StillImage" /><dc:title></dc:title></cc:Work></rdf:RDF></metadata><defs
     id="defs6"><clipPath
       clipPathUnits="userSpaceOnUse"
       id="clipPath18"><path
         d="M 0,128 H 128 V 0 H 0 Z"
         id="path16" /></clipPath></defs><sodipodi:namedview
     pagecolor="#ffffff"
     bordercolor="#666666"
     borderopacity="1"
     objecttolerance="10"
     gridtolerance="10"
     guidetolerance="10"
     inkscape:pageopacity="0"
     inkscape:pageshadow="2"
     inkscape:window-width="1366"
     inkscape:window-height="704"
     id="namedview4"
     showgrid="false"
     inkscape:zoom="0.49925605"
     inkscape:cx="174.60254"
     inkscape:cy="181.87631"
     inkscape:window-x="0"
     inkscape:window-y="0"
     inkscape:window-maximized="1"
     inkscape:current-layer="g10"
     inkscape:snap-bbox="true"
     inkscape:bbox-nodes="true"
     inkscape:bbox-paths="true"
     inkscape:snap-page="true"
     inkscape:document-rotation="0" /><g
     id="g10"
     inkscape:groupmode="layer"
     inkscape:label="monogram"
     transform="matrix(1.3333333,0,0,-1.3333333,0,170.66667)"><path
       id="path889"
       style="fill:#e6e6e6;fill-opacity:1;stroke:none;stroke-width:23.8197;stroke-linecap:round;paint-order:stroke markers fill"
       d="M 384.00001,-63.999994 A 192.00001,192.00001 0 0 0 192,-256 192.00001,192.00001 0 0 0 -3.9000001e-6,-63.999994 192.00001,192.00001 0 0 0 192,128.00001 192.00001,192.00001 0 0 0 384.00001,-63.999994 Z" /><path
       d="m 269.51101,55.8399 c -3.62326,-4.92303 -6.80943,-7.39989 -9.46649,-7.39989 -1.39946,0 -2.8411,1.43397 -4.3019,4.30191 -1.48765,2.87943 -2.72991,5.16075 -3.77663,6.851611 -2.47303,4.06803 -5.3563,6.0963 -8.64216,6.0963 -3.29352,0 -6.10778,-0.70932 -8.36609,-2.15097 -2.28515,-1.39947 -4.14855,-3.22452 -5.62852,-5.417641 -1.46081,-2.21229 -2.75291,-4.83867 -3.83414,-7.95201 -1.11957,-3.0558 -1.92474,-6.0081 -2.51903,-8.787846 -0.54445,-2.783586 -0.99688,-5.743542 -1.31128,-8.876037 -0.47543,-4.48978 -0.70165,-8.665159 -0.70165,-12.552976 v -37.881313 h 32.20679 l -3.1555,-13.822078 h -29.05129 v -64.436573 -16.628667 -17.80958 h -19.91836 l -0.15723,112.696898 v 30.983695 c 0,9.121419 0.43326,15.478425 1.25377,19.067182 0.85501,3.584922 1.71769,6.782595 2.58804,9.604521 0.85501,2.844924 2.00142,5.482824 3.41622,7.971174 1.43781,2.48835 3.06348,4.99206 4.94988,7.57626 3.73828,5.156941 8.97955,9.803911 15.6893,13.952461 6.70208,4.18302 13.97928,6.26496 21.78559,6.26496 7.80631,0 13.82591,-0.9432 18.07414,-2.82576 4.21756,-1.85955 6.34934,-4.24437 6.34934,-7.10082 0,-2.88327 -1.84039,-6.78642 -5.48282,-11.724811 m -87.1615,-205.12269 c 0,-15.47076 -1.09273,-26.02232 -3.33953,-31.58566 -2.1893,-5.61701 -4.24057,-9.56618 -6.04644,-11.92418 -1.84423,-2.381 -3.48908,-4.1217 -4.97672,-5.2451 -1.51449,-1.12724 -2.60338,-1.92857 -3.26286,-2.42318 -0.68631,-0.47543 -2.02826,-1.39179 -4.04501,-2.64939 -2.00526,-1.31127 -3.99901,-2.43468 -5.96209,-3.40855 -5.25661,-2.61872 -9.72722,-3.93766 -13.44633,-3.93766 -3.72296,0 -7.33855,0.6288 -10.92347,1.88639 -3.51591,1.27677 -6.4912,2.78359 -8.83003,4.58947 -2.33116,1.7522 -3.4929,3.74979 -3.4929,5.94292 0,2.20463 1.79438,4.87319 5.34863,8.07854 3.60025,3.17466 6.40685,4.762 8.43894,4.762 2.07043,0 3.85331,-0.64414 5.29495,-1.94391 1.43013,-1.26143 2.79892,-2.6724 4.05269,-4.22906 3.28585,-4.1217 5.90074,-6.1538 7.85232,-6.1538 8.78785,0 13.20478,13.00541 13.20478,39.06607 v 78.92962 33.468217 21.977296 c 9.38981,2.262144 16.13406,3.841809 20.13307,4.758168 z"
       style="fill:#1a1a1a;fill-opacity:1;fill-rule:nonzero;stroke:none;stroke-width:3.83415"
       id="path22"
       sodipodi:nodetypes="csccscccccscccccccccscccccscscsccccccsccscsccssccccs" /></g></svg>
