<svg version="1" xmlns="http://www.w3.org/2000/svg" width="933.333" height="933.333" viewBox="0 0 700.000000 700.000000"><path d="M262 116.3c-30.1 18.4-53.2 40-66 61.6-12.9 21.7-18.6 51.2-15.6 81 5.9 58.1 46.5 98.4 109.6 108.7 1.4.2 3.4.6 4.5.8 1.1.3 6.7.8 12.5 1.2 5.8.3 10.8.8 11.1 1 .7.4.3 103.9-.4 107.4-.3 1.4-.8 4.7-1.2 7.5-1.9 15.1-8.7 35.1-15.7 46-7.7 11.8-12.4 18.4-19.4 27.2-4.6 5.6-8.4 11.1-8.4 12 .1 4.5 4.7 11.7 10.4 16.1 2.7 2 3 2.1 6 .5 4.5-2.3 17.3-11 23.1-15.6 5.2-4.2 24-22.8 28.7-28.4 7.9-9.3 19.5-28.2 23.9-38.8 1.5-3.6 6-17.4 6.4-19.7.3-1.3 1-4.7 1.6-7.6 2.6-12.9 3-20.7 3-66.9.1-36.9.2-40.2 1.7-40.1 2.2.1 16.7-1.2 21.2-1.8 49.5-7.3 85.6-30.2 105-66.7 6.1-11.4 11.9-28.2 13.6-39.7.3-1.9.7-4.2.9-5 .8-2.7 1.8-18.2 1.8-28 .3-42.2-12.9-76.2-37.4-96.6-4.8-3.9-14.8-10.4-16.1-10.4-.8 0-1.8-.4-2.4-1-.5-.5-4-2.1-7.8-3.4-6.2-2.3-10.1-3.3-20.6-5.2-1.9-.4-9.3-.7-16.4-.9-20-.2-28.9 1.6-44.1 9.3-10.6 5.3-18.2 10.8-26 18.6-15 15.2-25.9 35.5-29.1 54.6-.3 1.4-.7 3.2-.9 4-1 3.5-1.8 16.5-1.9 29l-.2 13.5-15.7.3-15.7.3-1.9 3.7c-2.5 4.9-3.9 10.5-4.4 16.9-.3 4.3-.1 5.3 1.2 5.4 1.7 0 66.1.6 113.4 1 16.5.1 27.2-.2 27.8-.8 1.6-1.6 3.8-11.1 4.5-19.1l.6-7.2h-52.4l.5-28.8c.3-15.8.8-29.8 1-31.2.3-1.4.8-4.3 1.2-6.5 1.2-8 2.5-12.3 6.4-20.3 2-4.2 8.6-10.4 13.9-13.1 9.6-4.9 24.4-4.7 34.2.4 5.3 2.7 15.1 13.3 18.7 20.1 3.4 6.3 8.8 21.4 9.8 27.4.3 1.9 1 5.4 1.5 7.6 2.7 11.8 2.9 46.5.5 60.9-5.5 32.6-16.9 54.5-36 69.3-7.7 6-23.7 13.2-32.6 14.7-1.9.3-4.1.8-4.9 1-.8.2-4.1.7-7.2 1l-5.7.7v-16.4-19.9l-.1-3.6-28.7-.1h-28.8v39.3l-4 .1c-14.2.2-33.9-7.2-45.3-17.2-15-13.1-24.3-32.4-29.7-61.3-1.9-10.2-2.5-37.4-1.1-51.1 2.9-29.1 14.5-53.8 37.7-80.2 3.3-3.6 5.9-7.5 5.9-8.5 0-2.8-4.1-9-7.9-11.8-1.9-1.4-3.5-2.5-3.5-2.5-.1.1-3.9 2.4-8.6 5.3z"/><path d="M427.5 390c-9.6 1.4-19.5 9.3-23.8 18.8-3 6.9-3 18.9.2 26 3 6.7 10.4 13.4 17.9 16.2 11.4 4.3 25.2 1.2 33.9-7.7 6-6.2 8.5-12 8.8-20.6.9-21.1-15.9-35.9-37-32.7z"/></svg>