<svg version="1" xmlns="http://www.w3.org/2000/svg" width="682.667" height="682.667" viewBox="0 0 512.000000 512.000000"><path d="M237.9.4c-.2.2-4 .6-8.3 1-4.4.4-8.2.8-8.5 1-.3.2-3.1.7-6.1 1.1-12.8 1.5-37.1 8.2-53.4 14.7-72 28.7-127 88-150 161.8-3.4 11-5.9 21-6.9 27.5-.3 1.6-.8 4.1-1.1 5.5-2.1 9.4-3.1 22.7-3 44 0 18.4.3 24.1 1.9 34.5.3 1.6.7 4.3.9 6 3.1 22.3 14.7 57 25.4 76.5 8.3 15 20.1 33.5 24.4 38.2.7.7 2.9 3.4 4.8 5.8 10.1 13.1 28.7 30.9 45.4 43.4 32 24 73.3 41.5 111.1 47.1 2.2.4 5.1.8 6.5 1.1 14.4 2.6 53 2.6 70.8-.1 7.5-1.2 9-1.4 14.2-2.5 3-.6 6.6-1.3 8-1.6 13-2.5 38.9-11.8 55-19.8 69.4-34.5 119.2-97.4 136.4-172.3 3.1-13.5 3.6-16.5 5.3-31.8 1-9.1 1-40.9.1-50.5-.9-8.5-2.2-17.2-3.7-24.5-.6-2.8-1.3-6.1-1.5-7.5-5.5-27.6-21.7-63.9-40.1-90C424.1 50.7 362.3 12.7 292 2.5c-1.9-.3-5.3-.7-7.5-1.1-4.4-.6-46-1.5-46.6-1zM351.3 69c11.3 2.7 16.3 7.5 14.7 14.3-1.8 8.2-13.5 22.7-18.3 22.7-2.9 0-4.3-1.5-9.5-10.5-6-10.4-8.1-12-15.3-11.9-6.7.1-11.9 2.9-16.3 8.7-2.8 3.6-7.2 13.6-8 18.1-.3 1.4-.7 3.4-1 4.4-.6 1.8-1.2 6-2.2 14.7-.7 5.5-1.2 59.7-.6 63.1.4 2 .9 2 20.4 1.9 10.9 0 20.4.3 21 .6.7.5.5 3.3-.8 9l-1.9 8.4-19 .3c-10.4.1-19.2.6-19.5 1.1-.3.5-.5 30.2-.4 66V345H268l-.1-61.3c-.1-158.1-.3-147.4 3.2-161.7 2.6-10.3 4.8-15.4 11-24.5 9.9-14.8 25.3-25.6 41.1-28.9 7.2-1.5 20.5-1.3 28.1.4zM242.7 307.5c-.2 49.5-.6 91.3-1 93-3.5 14.1-8.4 24.6-14.5 31-4.4 4.6-17.5 13.2-25.2 16.6-7.6 3.3-21.9 3.3-29.9 0-6.6-2.7-12.9-7.5-14.2-10.7-1.6-4.5 2.1-10.4 10.5-16.5 2.8-2.1 5.1-2.9 7.9-2.9 3.7 0 4.7.7 12 8 5.9 5.9 8.7 8 10.6 8 2.8 0 6.6-2.2 9.3-5.5 1.9-2.3 5.6-13.3 6.2-18.5.2-1.9.8-5.8 1.1-8.5.4-2.8.8-48.5.8-101.7V203l3.1-.9c3-.9 7.2-1.9 11.1-2.7 1.1-.2 4.3-1 7-1.6l5-1.3.3 10.5c.2 5.8.1 51-.1 100.5z"/></svg>