<svg xmlns="http://www.w3.org/2000/svg" width="32" height="32" fill="none"><g clip-path="url(#a)"><rect width="30" height="30" x=".998" y="1.002" fill="#FFAE03" stroke="#000" stroke-width="2" rx="7" transform="rotate(.118 .998 1.002)"/><path fill="#000" d="M4.862 22v-2.088h1.656v-8.424H4.862V9.4h5.184q2.538 0 3.852 1.296 1.332 1.278 1.332 3.816v2.376q0 2.538-1.332 3.834Q12.584 22 10.046 22zm4.032-2.16h1.188q1.44 0 2.106-.756t.666-2.124v-2.52q0-1.386-.666-2.124-.666-.756-2.106-.756H8.894zM18.291 22V9.4h5.183q1.188 0 2.089.486a3.4 3.4 0 0 1 1.422 1.332q.522.864.521 2.052v.252q0 1.17-.54 2.052a3.63 3.63 0 0 1-1.44 1.35q-.9.468-2.052.468h-2.808V22zm2.375-6.768h2.575q.846 0 1.367-.468.522-.468.523-1.278v-.18q0-.81-.523-1.278-.522-.468-1.367-.468h-2.575z"/></g><defs><clipPath id="a"><path fill="#fff" d="M0 0h32v32H0z"/></clipPath></defs></svg>