<svg xmlns="http://www.w3.org/2000/svg" width="513" height="241.5" preserveAspectRatio="none" style="width:513px;height:241px" viewBox="0 0 513 241"><path fill="#DEDEDE" d="m115.5 48 15-15H471v151.5l-15 15H115.5z" style="stroke:#000;stroke-width:3"/><path d="m456 48 15-15M115.5 48H456M456 48v151.5" style="stroke:#000;stroke-width:3"/><path d="M237.354 77.964c2.916 0 4.77-1.584 4.77-3.888s-1.782-3.24-4.464-3.816l-.414-.09c-1.512-.324-2.214-.774-2.214-1.71s.666-1.512 2.106-1.512 2.322.576 2.322 2.016v.54h2.34v-.54c0-2.736-1.962-4.104-4.662-4.104s-4.446 1.368-4.446 3.672 1.53 3.186 4.14 3.762l.414.09c1.62.36 2.538.72 2.538 1.764 0 1.008-.81 1.728-2.43 1.728s-2.61-.756-2.61-2.268v-.504h-2.34v.504c0 2.736 2.034 4.356 4.95 4.356m6.638-.252h2.268v-4.536c0-1.656.81-2.628 2.196-2.628 1.224 0 1.908.666 1.908 2.016v5.148h2.268v-5.328c0-2.214-1.386-3.744-3.474-3.744-1.584 0-2.286.666-2.574 1.242h-.324v-4.77h-2.268zm13.893.252c1.872 0 2.43-1.008 2.592-1.458h.342v.018c0 .72.648 1.188 1.53 1.188h1.512V75.84h-.72c-.324 0-.504-.18-.504-.54v-3.33c0-2.232-1.476-3.438-3.816-3.438-2.322 0-3.492 1.17-3.924 2.52l2.088.702c.162-.81.666-1.386 1.8-1.386 1.152 0 1.656.612 1.656 1.44v.504h-2.448c-2.016 0-3.456.954-3.456 2.79s1.44 2.862 3.348 2.862m.396-1.836c-.972 0-1.476-.45-1.476-1.098s.504-1.026 1.35-1.026h2.286v.18c0 1.188-.9 1.944-2.16 1.944m7.268 1.584h2.268v-5.076c0-1.26.828-1.872 1.98-1.872h1.116v-2.016h-1.08c-.828 0-1.476.324-1.728 1.044h-.324v-1.008h-2.232zm10.905.252c2.448 0 3.51-1.386 4.014-2.34l-1.854-.972c-.306.684-.828 1.332-2.088 1.332s-2.214-.846-2.268-2.07h6.498v-.774c0-2.736-1.71-4.608-4.338-4.608-2.664 0-4.464 1.8-4.464 4.608v.216c0 2.808 1.818 4.608 4.5 4.608m-2.178-5.742c.162-1.026.9-1.71 2.124-1.71 1.17 0 1.944.684 2.052 1.71zm12.128 5.742c1.62 0 2.394-.648 2.808-1.332h.324v1.08h2.232v-12.6H289.5v4.698h-.324c-.378-.63-1.152-1.278-2.772-1.278-2.16 0-4.032 1.656-4.032 4.572v.288c0 2.916 1.89 4.572 4.032 4.572m.684-1.98c-1.386 0-2.448-.918-2.448-2.646v-.18c0-1.728 1.044-2.646 2.448-2.646s2.448.918 2.448 2.646v.18c0 1.728-1.062 2.646-2.448 2.646m11.765 1.728h2.34v-10.98h.324l2.502 10.98h4.518v-12.6h-2.34v10.98h-.324l-2.502-10.98h-4.518zm16.412.252c2.664 0 4.68-1.692 4.68-4.572v-.288c0-2.88-2.016-4.572-4.68-4.572s-4.68 1.692-4.68 4.572v.288c0 2.88 2.016 4.572 4.68 4.572m0-2.016c-1.386 0-2.412-.936-2.412-2.61v-.18c0-1.674 1.008-2.61 2.412-2.61s2.412.936 2.412 2.61v.18c0 1.674-1.026 2.61-2.412 2.61m10.4 2.016c1.62 0 2.395-.648 2.809-1.332h.324v1.08h2.232v-12.6h-2.268v4.698h-.324c-.378-.63-1.152-1.278-2.772-1.278-2.16 0-4.032 1.656-4.032 4.572v.288c0 2.916 1.89 4.572 4.032 4.572m.685-1.98c-1.386 0-2.448-.918-2.448-2.646v-.18c0-1.728 1.044-2.646 2.448-2.646s2.448.918 2.448 2.646v.18c0 1.728-1.062 2.646-2.448 2.646m11.3 1.98c2.448 0 3.51-1.386 4.014-2.34l-1.854-.972c-.306.684-.828 1.332-2.088 1.332s-2.214-.846-2.268-2.07h6.498v-.774c0-2.736-1.71-4.608-4.338-4.608-2.664 0-4.464 1.8-4.464 4.608v.216c0 2.808 1.818 4.608 4.5 4.608m-2.178-5.742c.162-1.026.9-1.71 2.124-1.71 1.17 0 1.944.684 2.052 1.71z" aria-label="Shared Node" style="font-weight:700;font-size:18px;font-family:&quot;Space Grotesk&quot;"/><rect width="152.569" height="67.968" x="139.5" y="107.25" fill="#FFAE03" rx="18.75" ry="18.75" style="stroke:#000;stroke-width:3"/><path d="M162.324 147.462h2.448l.684-2.772h4.5l.684 2.772h2.448l-3.312-12.6h-4.14zm3.69-4.968 1.53-6.138h.324l1.53 6.138zm8.694 4.968h2.268v-5.274c0-1.224.576-1.908 1.62-1.908.9 0 1.44.504 1.44 1.476v5.706h2.268v-5.274c0-1.224.576-1.908 1.62-1.908.9 0 1.44.504 1.44 1.476v5.706h2.268v-5.868c0-2.16-1.332-3.204-2.988-3.204-1.368 0-2.052.576-2.448 1.332h-.324c-.414-.792-1.134-1.332-2.412-1.332-1.188 0-1.89.522-2.196 1.116h-.324v-.972h-2.232zm20.772.252c2.142 0 4.032-1.656 4.032-4.572v-.288c0-2.916-1.872-4.572-4.032-4.572-1.62 0-2.394.648-2.772 1.278h-.324v-4.698h-2.268v12.6h2.232v-1.08h.324c.414.684 1.188 1.332 2.808 1.332m-.684-1.98c-1.386 0-2.448-.918-2.448-2.646v-.18c0-1.728 1.044-2.646 2.448-2.646s2.448.918 2.448 2.646v.18c0 1.728-1.062 2.646-2.448 2.646m9.612 1.98c1.872 0 2.43-1.008 2.592-1.458h.342v.018c0 .72.648 1.188 1.53 1.188h1.512v-1.872h-.72c-.324 0-.504-.18-.504-.54v-3.33c0-2.232-1.476-3.438-3.816-3.438-2.322 0-3.492 1.17-3.924 2.52l2.088.702c.162-.81.666-1.386 1.8-1.386 1.152 0 1.656.612 1.656 1.44v.504h-2.448c-2.016 0-3.456.954-3.456 2.79s1.44 2.862 3.348 2.862m.396-1.836c-.972 0-1.476-.45-1.476-1.098s.504-1.026 1.35-1.026h2.286v.18c0 1.188-.9 1.944-2.16 1.944m10.908 1.836c2.268 0 3.744-1.062 3.744-2.934s-1.584-2.448-3.6-2.808l-.504-.09c-.828-.144-1.332-.378-1.332-.954 0-.522.468-.846 1.332-.846s1.476.342 1.674 1.26l2.106-.648c-.414-1.44-1.782-2.412-3.78-2.412-2.124 0-3.528.99-3.528 2.754s1.548 2.466 3.42 2.808l.504.09c1.062.198 1.512.45 1.512 1.008s-.504.972-1.548.972-1.89-.396-2.124-1.656l-2.088.54c.306 1.872 1.872 2.916 4.212 2.916m9.468 0c2.268 0 3.744-1.062 3.744-2.934s-1.584-2.448-3.6-2.808l-.504-.09c-.828-.144-1.332-.378-1.332-.954 0-.522.468-.846 1.332-.846s1.476.342 1.674 1.26l2.106-.648c-.414-1.44-1.782-2.412-3.78-2.412-2.124 0-3.528.99-3.528 2.754s1.548 2.466 3.42 2.808l.504.09c1.062.198 1.512.45 1.512 1.008s-.504.972-1.548.972-1.89-.396-2.124-1.656l-2.088.54c.306 1.872 1.872 2.916 4.212 2.916m8.46 0c1.872 0 2.43-1.008 2.592-1.458h.342v.018c0 .72.648 1.188 1.53 1.188h1.512v-1.872h-.72c-.324 0-.504-.18-.504-.54v-3.33c0-2.232-1.476-3.438-3.816-3.438-2.322 0-3.492 1.17-3.924 2.52l2.088.702c.162-.81.666-1.386 1.8-1.386 1.152 0 1.656.612 1.656 1.44v.504h-2.448c-2.016 0-3.456.954-3.456 2.79s1.44 2.862 3.348 2.862m.396-1.836c-.972 0-1.476-.45-1.476-1.098s.504-1.026 1.35-1.026h2.286v.18c0 1.188-.9 1.944-2.16 1.944m10.693 1.836c1.62 0 2.394-.648 2.808-1.332h.324v1.08h2.232v-12.6h-2.268v4.698h-.324c-.378-.63-1.152-1.278-2.772-1.278-2.16 0-4.032 1.656-4.032 4.572v.288c0 2.916 1.89 4.572 4.032 4.572m.684-1.98c-1.386 0-2.448-.918-2.448-2.646v-.18c0-1.728 1.044-2.646 2.448-2.646s2.448.918 2.448 2.646v.18c0 1.728-1.062 2.646-2.448 2.646m11.484 1.98c2.664 0 4.68-1.692 4.68-4.572v-.288c0-2.88-2.016-4.572-4.68-4.572s-4.68 1.692-4.68 4.572v.288c0 2.88 2.016 4.572 4.68 4.572m0-2.016c-1.386 0-2.412-.936-2.412-2.61v-.18c0-1.674 1.008-2.61 2.412-2.61s2.412.936 2.412 2.61v.18c0 1.674-1.026 2.61-2.412 2.61m6.804 1.764h2.268v-5.076c0-1.26.828-1.872 1.98-1.872h1.116v-2.016h-1.08c-.828 0-1.476.324-1.728 1.044h-.324v-1.008H263.7z" aria-label="Ambassador" style="font-weight:700;font-size:18px;font-family:&quot;Space Grotesk&quot;"/><rect width="109.008" height="67.968" x="337.5" y="107.25" fill="#FFF" rx="18.75" ry="18.75" style="stroke:#000;stroke-width:3"/><path d="M365.634 147.714c2.736 0 4.518-1.458 4.518-3.69 0-2.214-1.71-3.042-3.888-3.546l-.936-.234c-1.674-.414-2.664-.864-2.664-2.214s1.08-2.106 2.754-2.106c1.728 0 2.988.756 2.988 2.574v.756h1.494v-.756c0-2.574-1.944-3.888-4.482-3.888s-4.248 1.314-4.248 3.438 1.512 2.988 3.744 3.528l.936.234c1.692.396 2.808.864 2.808 2.25 0 1.35-1.062 2.34-3.024 2.34-1.926 0-3.276-.99-3.276-3.096v-.378h-1.494v.378c0 2.952 2.016 4.41 4.77 4.41m10.926 0c2.358 0 3.402-1.314 3.942-2.43l-1.224-.594c-.432.972-1.17 1.764-2.682 1.764-1.746 0-3.006-1.134-3.06-3.024h7.164v-.648c0-2.682-1.728-4.374-4.23-4.374-2.574 0-4.374 1.836-4.374 4.554v.216c0 2.718 1.782 4.536 4.464 4.536m-3.006-5.454c.216-1.638 1.314-2.592 2.916-2.592 1.584 0 2.682.954 2.79 2.592zm9.63 5.202h1.422v-5.364c0-1.476.846-2.178 2.124-2.178h1.134v-1.296h-1.044c-1.062 0-1.692.342-1.998 1.116h-.252v-1.08h-1.386zm9.018 0h2.268l3.15-8.802h-1.512l-2.646 7.74h-.252l-2.646-7.74h-1.512zm8.172-10.17c.63 0 1.098-.45 1.098-1.08 0-.648-.468-1.098-1.098-1.098-.612 0-1.08.45-1.08 1.098 0 .63.468 1.08 1.08 1.08m-.702 10.17h1.422v-8.802h-1.422zm8.46.252c2.538 0 3.906-1.584 4.284-3.348l-1.404-.306c-.216 1.35-1.116 2.376-2.862 2.376s-3.078-1.242-3.078-3.294v-.162c0-2.052 1.332-3.294 3.078-3.294s2.628 1.08 2.808 2.376l1.386-.288c-.288-1.782-1.674-3.366-4.212-3.366-2.574 0-4.482 1.728-4.482 4.554v.198c0 2.826 1.908 4.554 4.482 4.554m10.746 0c2.358 0 3.402-1.314 3.942-2.43l-1.224-.594c-.432.972-1.17 1.764-2.682 1.764-1.746 0-3.006-1.134-3.06-3.024h7.164v-.648c0-2.682-1.728-4.374-4.23-4.374-2.574 0-4.374 1.836-4.374 4.554v.216c0 2.718 1.782 4.536 4.464 4.536m-3.006-5.454c.216-1.638 1.314-2.592 2.916-2.592 1.584 0 2.682.954 2.79 2.592z" aria-label="Service" style="font-size:18px;font-family:&quot;Space Grotesk&quot;"/><circle cx="58.173" cy="90" r="12" fill="#DEDEDE" style="stroke:#000;stroke-width:3"/><path fill="none" d="M58.173 102v40.5m-19.5-28.5h39m-19.5 28.5-19.5 22.5m19.5-22.5 19.5 22.5" style="stroke:#000;stroke-width:3"/><path d="M38.994 194.964c2.97 0 4.626-1.782 4.626-4.644v-.234h-1.494v.288c0 1.89-.99 3.24-3.132 3.24s-3.402-1.386-3.402-3.726v-2.952c0-2.34 1.26-3.726 3.402-3.726s3.132 1.35 3.132 3.24v.144h1.494v-.09c0-2.862-1.656-4.644-4.626-4.644-2.988 0-4.914 1.782-4.914 5.112v2.88c0 3.33 1.926 5.112 4.914 5.112m7.106-.252h1.422v-12.6H46.1zm5.163-10.17c.63 0 1.098-.45 1.098-1.08 0-.648-.468-1.098-1.098-1.098-.612 0-1.08.45-1.08 1.098 0 .63.468 1.08 1.08 1.08m-.702 10.17h1.422v-8.802H50.56zm8.492.252c2.358 0 3.402-1.314 3.942-2.43l-1.224-.594c-.432.972-1.17 1.764-2.682 1.764-1.746 0-3.006-1.134-3.06-3.024h7.164v-.648c0-2.682-1.728-4.374-4.23-4.374-2.574 0-4.374 1.836-4.374 4.554v.216c0 2.718 1.782 4.536 4.464 4.536m-3.006-5.454c.216-1.638 1.314-2.592 2.916-2.592 1.584 0 2.682.954 2.79 2.592zm9.68 5.202h1.423v-4.428c0-2.178 1.188-3.294 2.88-3.294 1.476 0 2.43.756 2.43 2.502v5.22h1.422v-5.328c0-2.358-1.548-3.636-3.492-3.636-1.8 0-2.646.81-3.024 1.656h-.252v-1.494h-1.386zm14.073 0h2.34v-1.242h-1.962c-.378 0-.522-.18-.522-.54v-5.778h2.88v-1.242h-2.88v-3.132h-1.422v3.132h-2.646v1.242h2.646v6.012c0 .954.558 1.548 1.566 1.548" aria-label="Client" style="font-size:18px;font-family:&quot;Space Grotesk&quot;"/><path fill="none" d="M101.01 141h29.19" style="stroke:#000;stroke-width:3"/><path d="m92.01 141 13.5 6-6-6 6-6zM139.2 141l-13.5-6 6 6-6 6z" style="stroke:#000;stroke-width:3"/><path fill="none" d="M301.98 141h26.4" style="stroke:#000;stroke-width:3"/><path d="m292.98 141 13.5 6-6-6 6-6zM337.38 141l-13.5-6 6 6-6 6z" style="stroke:#000;stroke-width:3"/></svg>