<svg xmlns="http://www.w3.org/2000/svg" width="456" height="481.5" preserveAspectRatio="none" style="width:456px;height:481px" viewBox="0 0 456 481"><path fill="#DEDEDE" d="M139.215 48.193c5.975-10.464 12.184-10.453 19.848-1.75 4.928-8.22 12.323-10.11 18.578-1.461 6.28-7.795 11.81-9.294 17.943.154 4.93-8.746 14.957-12.136 20.927-1.1 5.065-9.518 10.554-8.272 17.278-1.793 7.737-8.97 14.484-8.11 20.153 2.166 6.991-10.134 12.911-8.68 19.093.788 5.437-9.379 12.975-10.21 18.716-.294 6.064-6.385 14.314-5.414 17.96 2.946 6.881-7.257 12.492-8.327 17.716 1.699 16.408 3.65 22.168 11.658 13.407 27.555 8.65 16.05 4.95 25.468-13.104 29.758-3.91 10.523-10.213 11.288-18.138 4.117-5.352 7.626-14.073 9.146-19.115-.347-3.665 9.426-11.376 12.886-18.868 3.927-4.202 10.153-10.272 11.001-17.222 2.543-6.336 12.461-13.374 10.562-22.077 2.553-7.843 8.127-14.38 6.812-18.084-3.96-5.726 8.932-12.308 8.87-17.878-.156-7.834 8.438-17.141 8.089-21.047-4.024-6.11 8.53-14.212 7.325-18.228-2.122-6.617 7.372-13.593 4.868-17.533-3.067-14.878-3.614-20.67-15.934-10.149-28.57-10.485-11.837-8.462-27.287 9.824-29.562" style="stroke:#000;stroke-width:3"/><path d="M161.244 82.53c2.97 0 4.626-1.783 4.626-4.645v-.234h-1.494v.288c0 1.89-.99 3.24-3.132 3.24s-3.402-1.386-3.402-3.726v-2.952c0-2.34 1.26-3.726 3.402-3.726s3.132 1.35 3.132 3.24v.144h1.494v-.09c0-2.862-1.656-4.644-4.626-4.644-2.988 0-4.914 1.782-4.914 5.112v2.88c0 3.33 1.926 5.112 4.914 5.112m11.125 0c2.664 0 4.5-1.783 4.5-4.537v-.234c0-2.754-1.836-4.536-4.5-4.536s-4.5 1.782-4.5 4.536v.234c0 2.754 1.836 4.536 4.5 4.536m0-1.279c-1.854 0-3.078-1.278-3.078-3.294v-.162c0-2.016 1.206-3.294 3.078-3.294 1.854 0 3.078 1.278 3.078 3.294v.162c0 2.016-1.224 3.294-3.078 3.294m7.058 1.026h1.422v-5.292c0-1.584.918-2.448 2.214-2.448 1.224 0 1.944.738 1.944 1.908v5.832h1.422v-5.292c0-1.584.918-2.448 2.214-2.448 1.224 0 1.944.738 1.944 1.908v5.832h1.422V76.32c0-1.872-1.242-3.006-2.988-3.006-1.494 0-2.268.684-2.664 1.548h-.252c-.396-.864-1.224-1.548-2.592-1.548-1.386 0-2.106.63-2.448 1.26h-.252v-1.098h-1.386zm15.481 0h1.422v-5.292c0-1.584.918-2.448 2.214-2.448 1.224 0 1.944.738 1.944 1.908v5.832h1.422v-5.292c0-1.584.918-2.448 2.214-2.448 1.224 0 1.944.738 1.944 1.908v5.832h1.422V76.32c0-1.872-1.242-3.006-2.988-3.006-1.494 0-2.268.684-2.664 1.548h-.252c-.396-.864-1.224-1.548-2.592-1.548-1.386 0-2.106.63-2.448 1.26h-.252v-1.098h-1.386zm19.55.252c2.663 0 4.5-1.782 4.5-4.536v-.234c0-2.754-1.837-4.536-4.5-4.536-2.665 0-4.5 1.782-4.5 4.536v.234c0 2.754 1.835 4.536 4.5 4.536m0-1.278c-1.855 0-3.079-1.278-3.079-3.294v-.162c0-2.016 1.206-3.294 3.078-3.294 1.854 0 3.078 1.278 3.078 3.294v.162c0 2.016-1.224 3.294-3.078 3.294m7.057 1.026h1.422V77.85c0-2.178 1.188-3.294 2.88-3.294 1.476 0 2.43.756 2.43 2.502v5.22h1.422V76.95c0-2.358-1.548-3.636-3.492-3.636-1.8 0-2.646.81-3.024 1.656h-.252v-1.494h-1.386zm19.785.252c2.736 0 4.518-1.458 4.518-3.69 0-2.214-1.71-3.042-3.888-3.546l-.936-.234c-1.674-.414-2.664-.864-2.664-2.214s1.08-2.106 2.754-2.106c1.728 0 2.988.756 2.988 2.574v.756h1.494v-.756c0-2.574-1.944-3.888-4.482-3.888s-4.248 1.314-4.248 3.438 1.512 2.988 3.744 3.528l.936.234c1.692.396 2.808.864 2.808 2.25 0 1.35-1.062 2.34-3.024 2.34-1.926 0-3.276-.99-3.276-3.096v-.378h-1.494v.378c0 2.952 2.016 4.41 4.77 4.41m10.927 0c2.358 0 3.402-1.314 3.942-2.43l-1.224-.594c-.432.972-1.17 1.764-2.682 1.764-1.746 0-3.006-1.134-3.06-3.024h7.164v-.648c0-2.682-1.728-4.374-4.23-4.374-2.574 0-4.374 1.836-4.374 4.554v.216c0 2.718 1.782 4.536 4.464 4.536m-3.006-5.454c.216-1.638 1.314-2.592 2.916-2.592 1.584 0 2.682.954 2.79 2.592zm9.631 5.202h1.422v-5.364c0-1.476.846-2.178 2.124-2.178h1.134V73.44h-1.044c-1.062 0-1.692.342-1.998 1.116h-.252v-1.08h-1.386zm9.02 0h2.268l3.15-8.802h-1.512l-2.646 7.74h-.252l-2.646-7.74h-1.512zm8.173-10.17c.63 0 1.098-.45 1.098-1.08 0-.648-.468-1.098-1.098-1.098-.612 0-1.08.45-1.08 1.098 0 .63.468 1.08 1.08 1.08m-.702 10.17h1.422v-8.802h-1.422zm8.461.252c2.538 0 3.906-1.584 4.284-3.348l-1.404-.306c-.216 1.35-1.116 2.376-2.862 2.376s-3.078-1.242-3.078-3.294v-.162c0-2.052 1.332-3.294 3.078-3.294s2.628 1.08 2.808 2.376l1.386-.288c-.288-1.782-1.674-3.366-4.212-3.366-2.574 0-4.482 1.728-4.482 4.554v.198c0 2.826 1.908 4.554 4.482 4.554m10.748 0c2.358 0 3.402-1.314 3.942-2.43l-1.224-.594c-.432.972-1.17 1.764-2.682 1.764-1.746 0-3.006-1.134-3.06-3.024h7.164v-.648c0-2.682-1.728-4.374-4.23-4.374-2.574 0-4.374 1.836-4.374 4.554v.216c0 2.718 1.782 4.536 4.464 4.536m-3.006-5.454c.216-1.638 1.314-2.592 2.916-2.592 1.584 0 2.682.954 2.79 2.592zm13.177 5.454c2.16 0 3.546-.972 3.546-2.7 0-1.71-1.458-2.286-3.312-2.61l-.738-.126c-1.116-.198-1.818-.522-1.818-1.368s.738-1.314 1.944-1.314c1.188 0 2.07.468 2.286 1.728l1.332-.342c-.36-1.638-1.638-2.574-3.618-2.574-2.016 0-3.348.936-3.348 2.52s1.35 2.286 3.078 2.592l.738.126c1.278.234 2.052.522 2.052 1.422s-.828 1.458-2.142 1.458c-1.332 0-2.52-.54-2.772-2.268l-1.35.306c.306 2.178 1.926 3.15 4.122 3.15" aria-label="Common Services" style="font-size:18px;font-family:&quot;Space Grotesk&quot;"/><rect width="141.193" height="67.968" x="49.5" y="388.565" fill="#FFF" rx="18.75" ry="18.75" style="stroke:#000;stroke-width:3"/><path d="M73.44 428.778h1.512v-5.635h5.616v-1.368h-5.616v-4.23h6.102v-1.368H73.44Zm9.9 0h1.422v-5.365c0-1.476.846-2.178 2.124-2.178h1.134v-1.296h-1.044c-1.062 0-1.692.342-1.998 1.116h-.252v-1.08H83.34zm10.656.251c2.664 0 4.5-1.782 4.5-4.536v-.234c0-2.754-1.836-4.536-4.5-4.536s-4.5 1.782-4.5 4.536v.234c0 2.754 1.836 4.536 4.5 4.536m0-1.278c-1.854 0-3.078-1.278-3.078-3.294v-.162c0-2.016 1.206-3.294 3.078-3.294 1.854 0 3.078 1.279 3.078 3.295v.162c0 2.015-1.224 3.293-3.078 3.293m7.182 1.026h1.422v-4.428c0-2.178 1.188-3.294 2.88-3.294 1.476 0 2.43.756 2.43 2.502v5.22h1.422v-5.327c0-2.358-1.548-3.636-3.492-3.636-1.8 0-2.646.81-3.024 1.656h-.252v-1.494h-1.386zm14.148 0h2.34v-1.242h-1.962c-.378 0-.522-.18-.522-.54v-5.778h2.88v-1.242h-2.88v-3.132h-1.422v3.132h-2.646v1.242h2.646v6.012c0 .954.558 1.548 1.566 1.548m8.874.252c2.358 0 3.402-1.314 3.942-2.43l-1.224-.594c-.432.972-1.17 1.764-2.682 1.764-1.746 0-3.006-1.134-3.06-3.024h7.164v-.648c0-2.682-1.728-4.374-4.23-4.374-2.574 0-4.374 1.836-4.374 4.554v.216c0 2.718 1.782 4.536 4.464 4.536m-3.006-5.454c.216-1.638 1.314-2.592 2.916-2.592 1.584 0 2.682.954 2.79 2.592zm9.756 5.202h1.422v-4.428c0-2.178 1.188-3.294 2.88-3.294 1.476 0 2.43.756 2.43 2.502v5.22h1.422v-5.327c0-2.358-1.548-3.636-3.492-3.636-1.8 0-2.646.81-3.024 1.656h-.252v-1.494h-1.386zm14.887.252c1.836 0 2.754-.828 3.24-1.71h.252v1.458h1.386v-12.6h-1.422v5.184h-.252c-.45-.81-1.368-1.637-3.204-1.637-2.304 0-4.158 1.728-4.158 4.536v.234c0 2.826 1.872 4.536 4.158 4.536m.378-1.26c-1.818 0-3.096-1.224-3.096-3.312v-.162c0-2.088 1.278-3.312 3.096-3.312s3.078 1.224 3.078 3.312v.162c0 2.088-1.278 3.312-3.078 3.312m11.088 1.008h1.566l.972-3.186h5.364l.972 3.186h1.566l-3.888-12.6h-2.664zm2.934-4.554 2.16-7.128h.252l2.16 7.128z" aria-label="Frontend A" style="font-size:18px;font-family:&quot;Space Grotesk&quot;"/><rect width="141.751" height="67.968" x="273.75" y="388.565" fill="#FFF" rx="18.75" ry="18.75" style="stroke:#000;stroke-width:3"/><path d="M297.69 428.778h1.512v-5.635h5.616v-1.368h-5.616v-4.23h6.102v-1.368h-7.614zm9.874 0h1.422v-5.365c0-1.476.846-2.178 2.124-2.178h1.134v-1.296H311.2c-1.062 0-1.692.342-1.998 1.116h-.252v-1.08h-1.386zm10.63.251c2.664 0 4.5-1.782 4.5-4.536v-.234c0-2.754-1.836-4.536-4.5-4.536s-4.5 1.782-4.5 4.536v.234c0 2.754 1.836 4.536 4.5 4.536m0-1.278c-1.854 0-3.078-1.278-3.078-3.294v-.162c0-2.016 1.206-3.294 3.078-3.294 1.854 0 3.078 1.279 3.078 3.295v.162c0 2.015-1.224 3.293-3.078 3.293m7.156 1.026h1.422v-4.428c0-2.178 1.188-3.294 2.88-3.294 1.476 0 2.43.756 2.43 2.502v5.22h1.422v-5.327c0-2.358-1.548-3.636-3.492-3.636-1.8 0-2.646.81-3.024 1.656h-.252v-1.494h-1.386zm14.122 0h2.34v-1.242h-1.962c-.378 0-.522-.18-.522-.54v-5.778h2.88v-1.242h-2.88v-3.132h-1.422v3.132h-2.646v1.242h2.646v6.012c0 .954.558 1.548 1.566 1.548m8.848.252c2.358 0 3.402-1.314 3.942-2.43l-1.224-.594c-.432.972-1.17 1.764-2.682 1.764-1.746 0-3.006-1.134-3.06-3.024h7.164v-.648c0-2.682-1.728-4.374-4.23-4.374-2.574 0-4.374 1.836-4.374 4.554v.216c0 2.718 1.782 4.536 4.464 4.536m-3.006-5.454c.216-1.638 1.314-2.592 2.916-2.592 1.584 0 2.682.954 2.79 2.592zm9.73 5.202h1.422v-4.428c0-2.178 1.188-3.294 2.88-3.294 1.476 0 2.43.756 2.43 2.502v5.22h1.422v-5.327c0-2.358-1.548-3.636-3.492-3.636-1.8 0-2.646.81-3.024 1.656h-.252v-1.494h-1.386zm14.86.252c1.837 0 2.755-.828 3.24-1.71h.253v1.458h1.386v-12.6h-1.422v5.184h-.252c-.45-.81-1.368-1.637-3.204-1.637-2.304 0-4.158 1.728-4.158 4.536v.234c0 2.826 1.872 4.536 4.158 4.536m.379-1.26c-1.818 0-3.096-1.224-3.096-3.312v-.162c0-2.088 1.278-3.312 3.096-3.312s3.078 1.224 3.078 3.312v.162c0 2.088-1.278 3.312-3.078 3.312m11.666 1.008h6.3c2.178 0 3.798-1.224 3.798-3.294v-.18c0-1.764-1.188-2.556-2.088-2.772v-.252c.882-.27 2.07-1.026 2.07-2.79v-.144c0-1.908-1.548-3.168-3.762-3.168h-6.318v1.35h1.764v9.9h-1.764zm3.276-7.038v-4.194h2.916c1.458 0 2.376.792 2.376 2.016v.18c0 1.206-.918 1.998-2.376 1.998zm0 5.67v-4.302h2.862c1.584 0 2.448.792 2.448 2.07v.162c0 1.278-.864 2.07-2.448 2.07z" aria-label="Frontend B" style="font-size:18px;font-family:&quot;Space Grotesk&quot;"/><rect width="171.559" height="90.936" x="34.5" y="207.065" fill="#FFAE03" rx="18.75" ry="18.75" style="stroke:#000;stroke-width:3"/><path d="M83.1 247.278h6.552c2.25 0 3.816-1.224 3.816-3.33v-.18c0-1.8-1.206-2.503-1.998-2.719v-.324c.774-.234 1.926-.936 1.926-2.682v-.18c0-1.962-1.512-3.186-3.816-3.186H83.1v2.088h1.656v8.424H83.1zm4.032-7.416v-3.024h2.196c1.008 0 1.692.522 1.692 1.422v.18c0 .9-.702 1.422-1.692 1.422zm0 5.256v-3.096h2.232c1.044 0 1.728.522 1.728 1.458v.18c0 .936-.702 1.458-1.728 1.458zm11.244 2.412c1.872 0 2.43-1.008 2.592-1.458h.342v.018c0 .72.648 1.188 1.53 1.188h1.512v-1.872h-.72c-.324 0-.504-.18-.504-.54v-3.33c0-2.233-1.476-3.439-3.816-3.439-2.322 0-3.492 1.17-3.924 2.52l2.088.703c.162-.81.666-1.386 1.8-1.386 1.152 0 1.656.612 1.656 1.44v.504h-2.448c-2.016 0-3.456.954-3.456 2.79 0 1.835 1.44 2.861 3.348 2.861m.396-1.836c-.972 0-1.476-.45-1.476-1.098s.504-1.027 1.35-1.027h2.286v.18c0 1.188-.9 1.944-2.16 1.944m11.37 1.836c2.556 0 4.014-1.494 4.482-3.42l-2.196-.522c-.198 1.152-.864 1.926-2.232 1.926s-2.412-.918-2.412-2.61v-.18c0-1.692 1.044-2.61 2.412-2.61s2.034.827 2.178 1.907l2.196-.468c-.378-1.98-1.872-3.456-4.428-3.456-2.592 0-4.626 1.674-4.626 4.59v.252c0 2.917 2.034 4.59 4.626 4.59m6.474-.252h2.268v-3.546h.324l3.132 3.546h2.916l-4.266-4.608 4.122-4.32h-2.952l-2.952 3.294h-.324v-6.966h-2.268zm13.8.252c2.449 0 3.51-1.386 4.015-2.34l-1.854-.972c-.306.684-.828 1.332-2.088 1.332s-2.214-.847-2.268-2.07h6.498v-.774c0-2.736-1.71-4.608-4.338-4.608-2.664 0-4.464 1.8-4.464 4.607v.216c0 2.809 1.818 4.609 4.5 4.609m-2.177-5.742c.162-1.026.9-1.71 2.124-1.71 1.17 0 1.944.684 2.052 1.71zm8.616 5.49h2.268v-4.536c0-1.656.81-2.628 2.196-2.628 1.224 0 1.908.666 1.908 2.016v5.148h2.268v-5.328c0-2.214-1.386-3.744-3.474-3.744-1.602 0-2.322.702-2.61 1.314h-.324v-1.17h-2.232zm14.808.252c1.62 0 2.394-.648 2.808-1.332h.324v1.08h2.232v-12.6h-2.268v4.698h-.324c-.378-.63-1.152-1.278-2.772-1.278-2.16 0-4.032 1.656-4.032 4.572v.288c0 2.916 1.89 4.572 4.032 4.572m.684-1.98c-1.386 0-2.448-.918-2.448-2.646v-.18c0-1.728 1.044-2.646 2.448-2.646s2.448.918 2.448 2.646v.18c0 1.728-1.062 2.646-2.448 2.646" aria-label="Backend" style="font-weight:700;font-size:18px;font-family:&quot;Space Grotesk&quot;"/><path d="M59.736 270.246h2.268v-7.056h2.34v-1.872h-2.34v-1.26c0-.36.18-.54.504-.54h1.548v-1.872h-2.34c-1.188 0-1.98.792-1.98 2.016v1.656h-2.268v1.872h2.268zm10.44.252c2.664 0 4.68-1.692 4.68-4.572v-.288c0-2.88-2.016-4.572-4.68-4.572s-4.68 1.692-4.68 4.572v.288c0 2.88 2.016 4.572 4.68 4.572m0-2.016c-1.386 0-2.412-.936-2.412-2.61v-.18c0-1.674 1.008-2.61 2.412-2.61s2.412.936 2.412 2.61v.18c0 1.674-1.026 2.61-2.412 2.61m6.876 1.764h2.268v-5.076c0-1.26.828-1.872 1.98-1.872h1.116v-2.016h-1.08c-.828 0-1.476.324-1.728 1.044h-.324v-1.008h-2.232zm11.844 0h2.376v-5.238h5.112v-2.16h-5.112v-3.042h5.544v-2.16h-7.92zm9.792 0h2.268v-5.076c0-1.26.828-1.872 1.98-1.872h1.116v-2.016h-1.08c-.828 0-1.476.324-1.728 1.044h-.324v-1.008h-2.232zm11.16.252c2.664 0 4.68-1.692 4.68-4.572v-.288c0-2.88-2.016-4.572-4.68-4.572s-4.68 1.692-4.68 4.572v.288c0 2.88 2.016 4.572 4.68 4.572m0-2.016c-1.386 0-2.412-.936-2.412-2.61v-.18c0-1.674 1.008-2.61 2.412-2.61s2.412.936 2.412 2.61v.18c0 1.674-1.026 2.61-2.412 2.61m6.876 1.764h2.268v-4.536c0-1.656.81-2.628 2.196-2.628 1.224 0 1.908.666 1.908 2.016v5.148h2.268v-5.328c0-2.214-1.386-3.744-3.474-3.744-1.602 0-2.322.702-2.61 1.314h-.324v-1.17h-2.232zm14.365 0h2.52v-1.872h-1.728c-.324 0-.504-.18-.504-.54v-4.644h2.448v-1.872h-2.448v-2.772h-2.268v2.772h-2.232v1.872h2.232v5.04c0 1.224.792 2.016 1.98 2.016m8.64.252c2.448 0 3.51-1.386 4.014-2.34l-1.854-.972c-.306.684-.828 1.332-2.088 1.332s-2.214-.846-2.268-2.07h6.498v-.774c0-2.736-1.71-4.608-4.338-4.608-2.664 0-4.464 1.8-4.464 4.608v.216c0 2.808 1.818 4.608 4.5 4.608m-2.178-5.742c.162-1.026.9-1.71 2.124-1.71 1.17 0 1.944.684 2.052 1.71zm8.604 5.49h2.268v-4.536c0-1.656.81-2.628 2.196-2.628 1.224 0 1.908.666 1.908 2.016v5.148h2.268v-5.328c0-2.214-1.386-3.744-3.474-3.744-1.602 0-2.322.702-2.61 1.314h-.324v-1.17h-2.232zm14.796.252c1.62 0 2.394-.648 2.808-1.332h.324v1.08h2.232v-12.6h-2.268v4.698h-.324c-.378-.63-1.152-1.278-2.772-1.278-2.16 0-4.032 1.656-4.032 4.572v.288c0 2.916 1.89 4.572 4.032 4.572m.684-1.98c-1.386 0-2.448-.918-2.448-2.646v-.18c0-1.728 1.044-2.646 2.448-2.646s2.448.918 2.448 2.646v.18c0 1.728-1.062 2.646-2.448 2.646m10.836 1.728h2.448l.684-2.772h4.5l.684 2.772h2.448l-3.312-12.6h-4.14zm3.69-4.968 1.53-6.138h.324l1.53 6.138z" aria-label="for Frontend A" style="font-weight:700;font-size:18px;font-family:&quot;Space Grotesk&quot;"/><rect width="172.099" height="90.936" x="258.75" y="207.065" fill="#FFAE03" rx="18.75" ry="18.75" style="stroke:#000;stroke-width:3"/><path d="M307.62 247.278h6.552c2.25 0 3.816-1.224 3.816-3.33v-.18c0-1.8-1.206-2.503-1.998-2.719v-.324c.774-.234 1.926-.936 1.926-2.682v-.18c0-1.962-1.512-3.186-3.816-3.186h-6.48v2.088h1.656v8.424h-1.656zm4.032-7.416v-3.024h2.196c1.008 0 1.692.522 1.692 1.422v.18c0 .9-.702 1.422-1.692 1.422zm0 5.256v-3.096h2.232c1.044 0 1.728.522 1.728 1.458v.18c0 .936-.702 1.458-1.728 1.458zm11.244 2.412c1.872 0 2.43-1.008 2.592-1.458h.342v.018c0 .72.648 1.188 1.53 1.188h1.512v-1.872h-.72c-.324 0-.504-.18-.504-.54v-3.33c0-2.233-1.476-3.439-3.816-3.439-2.322 0-3.492 1.17-3.924 2.52l2.088.703c.162-.81.666-1.386 1.8-1.386 1.152 0 1.656.612 1.656 1.44v.504h-2.448c-2.016 0-3.456.954-3.456 2.79 0 1.835 1.44 2.861 3.348 2.861m.396-1.836c-.972 0-1.476-.45-1.476-1.098s.504-1.027 1.35-1.027h2.286v.18c0 1.188-.9 1.944-2.16 1.944m11.37 1.836c2.556 0 4.014-1.494 4.482-3.42l-2.196-.522c-.198 1.152-.864 1.926-2.232 1.926s-2.412-.918-2.412-2.61v-.18c0-1.692 1.044-2.61 2.412-2.61s2.034.827 2.178 1.907l2.196-.468c-.378-1.98-1.872-3.456-4.428-3.456-2.592 0-4.626 1.674-4.626 4.59v.252c0 2.917 2.034 4.59 4.626 4.59m6.474-.252h2.268v-3.546h.324l3.132 3.546h2.916l-4.266-4.608 4.122-4.32h-2.952l-2.952 3.294h-.324v-6.966h-2.268zm13.8.252c2.449 0 3.51-1.386 4.015-2.34l-1.854-.972c-.306.684-.828 1.332-2.088 1.332s-2.214-.847-2.268-2.07h6.498v-.774c0-2.736-1.71-4.608-4.338-4.608-2.664 0-4.464 1.8-4.464 4.607v.216c0 2.809 1.818 4.609 4.5 4.609m-2.177-5.742c.162-1.026.9-1.71 2.124-1.71 1.17 0 1.944.684 2.052 1.71zm8.616 5.49h2.268v-4.536c0-1.656.81-2.628 2.196-2.628 1.224 0 1.908.666 1.908 2.016v5.148h2.268v-5.328c0-2.214-1.386-3.744-3.474-3.744-1.602 0-2.322.702-2.61 1.314h-.324v-1.17h-2.232zm14.808.252c1.62 0 2.394-.648 2.808-1.332h.324v1.08h2.232v-12.6h-2.268v4.698h-.324c-.378-.63-1.152-1.278-2.772-1.278-2.16 0-4.032 1.656-4.032 4.572v.288c0 2.916 1.89 4.572 4.032 4.572m.684-1.98c-1.386 0-2.448-.918-2.448-2.646v-.18c0-1.728 1.044-2.646 2.448-2.646s2.448.918 2.448 2.646v.18c0 1.728-1.062 2.646-2.448 2.646" aria-label="Backend" style="font-weight:700;font-size:18px;font-family:&quot;Space Grotesk&quot;"/><path d="M283.986 270.246h2.268v-7.056h2.34v-1.872h-2.34v-1.26c0-.36.18-.54.504-.54h1.548v-1.872h-2.34c-1.188 0-1.98.792-1.98 2.016v1.656h-2.268v1.872h2.268zm10.423.252c2.664 0 4.68-1.692 4.68-4.572v-.288c0-2.88-2.016-4.572-4.68-4.572s-4.68 1.692-4.68 4.572v.288c0 2.88 2.016 4.572 4.68 4.572m0-2.016c-1.386 0-2.412-.936-2.412-2.61v-.18c0-1.674 1.008-2.61 2.412-2.61s2.412.936 2.412 2.61v.18c0 1.674-1.026 2.61-2.412 2.61m6.86 1.764h2.268v-5.076c0-1.26.828-1.872 1.98-1.872h1.116v-2.016h-1.08c-.828 0-1.476.324-1.728 1.044h-.324v-1.008h-2.232zm11.81 0h2.377v-5.238h5.112v-2.16h-5.112v-3.042H321v-2.16h-7.92zm9.776 0h2.268v-5.076c0-1.26.828-1.872 1.98-1.872h1.116v-2.016h-1.08c-.828 0-1.476.324-1.728 1.044h-.324v-1.008h-2.232zm11.144.252c2.664 0 4.68-1.692 4.68-4.572v-.288c0-2.88-2.016-4.572-4.68-4.572s-4.68 1.692-4.68 4.572v.288c0 2.88 2.016 4.572 4.68 4.572m0-2.016c-1.386 0-2.412-.936-2.412-2.61v-.18c0-1.674 1.008-2.61 2.412-2.61s2.412.936 2.412 2.61v.18c0 1.674-1.026 2.61-2.412 2.61m6.86 1.764h2.267v-4.536c0-1.656.81-2.628 2.196-2.628 1.224 0 1.908.666 1.908 2.016v5.148h2.268v-5.328c0-2.214-1.386-3.744-3.474-3.744-1.602 0-2.322.702-2.61 1.314h-.324v-1.17h-2.232zm14.347 0h2.52v-1.872h-1.728c-.324 0-.504-.18-.504-.54v-4.644h2.448v-1.872h-2.448v-2.772h-2.268v2.772h-2.232v1.872h2.232v5.04c0 1.224.792 2.016 1.98 2.016m8.623.252c2.448 0 3.51-1.386 4.014-2.34l-1.854-.972c-.306.684-.828 1.332-2.088 1.332s-2.214-.846-2.268-2.07h6.498v-.774c0-2.736-1.71-4.608-4.338-4.608-2.664 0-4.464 1.8-4.464 4.608v.216c0 2.808 1.818 4.608 4.5 4.608m-2.178-5.742c.162-1.026.9-1.71 2.124-1.71 1.17 0 1.944.684 2.052 1.71zm8.588 5.49h2.268v-4.536c0-1.656.81-2.628 2.196-2.628 1.224 0 1.908.666 1.908 2.016v5.148h2.268v-5.328c0-2.214-1.386-3.744-3.474-3.744-1.602 0-2.322.702-2.61 1.314h-.324v-1.17h-2.232zm14.779.252c1.62 0 2.394-.648 2.808-1.332h.324v1.08h2.232v-12.6h-2.268v4.698h-.324c-.378-.63-1.152-1.278-2.772-1.278-2.16 0-4.032 1.656-4.032 4.572v.288c0 2.916 1.89 4.572 4.032 4.572m.684-1.98c-1.386 0-2.448-.918-2.448-2.646v-.18c0-1.728 1.044-2.646 2.448-2.646s2.448.918 2.448 2.646v.18c0 1.728-1.062 2.646-2.448 2.646m11.523 1.728h6.552c2.25 0 3.816-1.224 3.816-3.33v-.18c0-1.8-1.206-2.502-1.998-2.718v-.324c.774-.234 1.926-.936 1.926-2.682v-.18c0-1.962-1.512-3.186-3.816-3.186h-6.48v2.088h1.656v8.424h-1.656zm4.032-7.416v-3.024h2.196c1.008 0 1.692.522 1.692 1.422v.18c0 .9-.702 1.422-1.692 1.422zm0 5.256v-3.096h2.232c1.044 0 1.728.522 1.728 1.458v.18c0 .936-.702 1.458-1.728 1.458z" aria-label="for Frontend B" style="font-weight:700;font-size:18px;font-family:&quot;Space Grotesk&quot;"/><path fill="none" d="M120 307.94v80.28" style="stroke:#000;stroke-width:3"/><path d="m120 298.94-6 13.5 6-6 6 6z" style="stroke:#000;stroke-width:3"/><path fill="none" d="M345 307.94v80.28" style="stroke:#000;stroke-width:3"/><path d="m345 298.94-6 13.5 6-6 6 6z" style="stroke:#000;stroke-width:3"/><path fill="none" d="M263.199 124.79c17.25 26.7 35.091 54.285 52.941 81.9" style="stroke:#000;stroke-width:3"/><path d="m258.315 117.23 2.286 14.596 1.784-8.296 8.296 1.784z" style="stroke:#000;stroke-width:3"/><path fill="none" d="M201.801 124.79c-17.25 26.7-35.091 54.285-52.941 81.9" style="stroke:#000;stroke-width:3"/><path d="m206.685 117.23-12.366 8.084 8.296-1.784 1.784 8.296z" style="stroke:#000;stroke-width:3"/></svg>