<svg xmlns="http://www.w3.org/2000/svg" width="523.5" height="436.5" preserveAspectRatio="none" style="width:523px;height:436px" viewBox="0 0 523 436"><path fill="#FFF" d="M265.5 34.5H498v159H265.5z" style="stroke:#000;stroke-width:3;stroke-dasharray:10,10"/><path d="M338.505 62.712h6.552c2.25 0 3.816-1.224 3.816-3.33v-.18c0-1.8-1.206-2.502-1.998-2.718v-.324c.774-.234 1.926-.936 1.926-2.682v-.18c0-1.962-1.512-3.186-3.816-3.186h-6.48V52.2h1.656v8.424h-1.656zm4.032-7.416v-3.024h2.196c1.008 0 1.692.522 1.692 1.422v.18c0 .9-.702 1.422-1.692 1.422zm0 5.256v-3.096h2.232c1.044 0 1.728.522 1.728 1.458v.18c0 .936-.702 1.458-1.728 1.458zm11.118 2.304c1.602 0 2.322-.702 2.61-1.314h.324v1.17h2.232v-8.928h-2.268v4.536c0 1.656-.81 2.628-2.196 2.628-1.224 0-1.908-.666-1.908-2.016v-5.148h-2.268v5.328c0 2.214 1.386 3.744 3.474 3.744m7.05-.144h2.268v-12.6h-2.268zm4.152 0h2.268v-3.546h.324l3.132 3.546h2.916l-4.266-4.608 4.122-4.32H370.4l-2.952 3.294h-.324v-6.966h-2.268zm9.516 0h2.268v-4.536c0-1.656.81-2.628 2.196-2.628 1.224 0 1.908.666 1.908 2.016v5.148h2.268v-5.328c0-2.214-1.386-3.744-3.474-3.744-1.584 0-2.286.666-2.574 1.242h-.324v-4.77h-2.268zm14.52.252c2.448 0 3.51-1.386 4.014-2.34l-1.854-.972c-.306.684-.828 1.332-2.088 1.332s-2.214-.846-2.268-2.07h6.498v-.774c0-2.736-1.71-4.608-4.338-4.608-2.664 0-4.464 1.8-4.464 4.608v.216c0 2.808 1.818 4.608 4.5 4.608m-2.178-5.742c.162-1.026.9-1.71 2.124-1.71 1.17 0 1.944.684 2.052 1.71zm10.632 5.742c1.872 0 2.43-1.008 2.592-1.458h.342v.018c0 .72.648 1.188 1.53 1.188h1.512V60.84h-.72c-.324 0-.504-.18-.504-.54v-3.33c0-2.232-1.476-3.438-3.816-3.438-2.322 0-3.492 1.17-3.924 2.52l2.088.702c.162-.81.666-1.386 1.8-1.386 1.152 0 1.656.612 1.656 1.44v.504h-2.448c-2.016 0-3.456.954-3.456 2.79s1.44 2.862 3.348 2.862m.396-1.836c-.972 0-1.476-.45-1.476-1.098s.504-1.026 1.35-1.026h2.286v.18c0 1.188-.9 1.944-2.16 1.944m10.02 1.836c1.62 0 2.394-.648 2.808-1.332h.324v1.08h2.232v-12.6h-2.268v4.698h-.324c-.378-.63-1.152-1.278-2.772-1.278-2.16 0-4.032 1.656-4.032 4.572v.288c0 2.916 1.89 4.572 4.032 4.572m.684-1.98c-1.386 0-2.448-.918-2.448-2.646v-.18c0-1.728 1.044-2.646 2.448-2.646s2.448.918 2.448 2.646v.18c0 1.728-1.062 2.646-2.448 2.646m13.884 1.728h2.304v-12.6h-4.158l-2.574 5.688h2.412l1.692-3.996h.324z" aria-label="Bulkhead 1" style="font-weight:700;font-size:18px;font-family:&quot;Space Grotesk&quot;"/><path fill="#FFF" d="M266.25 243h232.5v159h-232.5z" style="stroke:#000;stroke-width:3;stroke-dasharray:10,10"/><path d="M337.977 271.212h6.552c2.25 0 3.816-1.224 3.816-3.33v-.18c0-1.8-1.206-2.502-1.998-2.718v-.324c.774-.234 1.926-.936 1.926-2.682v-.18c0-1.962-1.512-3.186-3.816-3.186h-6.48v2.088h1.656v8.424h-1.656zm4.032-7.416v-3.024h2.196c1.008 0 1.692.522 1.692 1.422v.18c0 .9-.702 1.422-1.692 1.422zm0 5.256v-3.096h2.232c1.044 0 1.728.522 1.728 1.458v.18c0 .936-.702 1.458-1.728 1.458zm11.118 2.304c1.602 0 2.322-.702 2.61-1.314h.324v1.17h2.232v-8.928h-2.268v4.536c0 1.656-.81 2.628-2.196 2.628-1.224 0-1.908-.666-1.908-2.016v-5.148h-2.268v5.328c0 2.214 1.386 3.744 3.474 3.744m7.05-.144h2.268v-12.6h-2.268zm4.152 0h2.268v-3.546h.324l3.132 3.546h2.916l-4.266-4.608 4.122-4.32h-2.952l-2.952 3.294h-.324v-6.966h-2.268zm9.516 0h2.268v-4.536c0-1.656.81-2.628 2.196-2.628 1.224 0 1.908.666 1.908 2.016v5.148h2.268v-5.328c0-2.214-1.386-3.744-3.474-3.744-1.584 0-2.286.666-2.574 1.242h-.324v-4.77h-2.268zm14.52.252c2.448 0 3.51-1.386 4.014-2.34l-1.854-.972c-.306.684-.828 1.332-2.088 1.332s-2.214-.846-2.268-2.07h6.498v-.774c0-2.736-1.71-4.608-4.338-4.608-2.664 0-4.464 1.8-4.464 4.608v.216c0 2.808 1.818 4.608 4.5 4.608m-2.178-5.742c.162-1.026.9-1.71 2.124-1.71 1.17 0 1.944.684 2.052 1.71zm10.632 5.742c1.872 0 2.43-1.008 2.592-1.458h.342v.018c0 .72.648 1.188 1.53 1.188h1.512v-1.872h-.72c-.324 0-.504-.18-.504-.54v-3.33c0-2.232-1.476-3.438-3.816-3.438-2.322 0-3.492 1.17-3.924 2.52l2.088.702c.162-.81.666-1.386 1.8-1.386 1.152 0 1.656.612 1.656 1.44v.504h-2.448c-2.016 0-3.456.954-3.456 2.79s1.44 2.862 3.348 2.862m.396-1.836c-.972 0-1.476-.45-1.476-1.098s.504-1.026 1.35-1.026h2.286v.18c0 1.188-.9 1.944-2.16 1.944m10.02 1.836c1.62 0 2.394-.648 2.808-1.332h.324v1.08h2.232v-12.6h-2.268v4.698h-.324c-.378-.63-1.152-1.278-2.772-1.278-2.16 0-4.032 1.656-4.032 4.572v.288c0 2.916 1.89 4.572 4.032 4.572m.684-1.98c-1.386 0-2.448-.918-2.448-2.646v-.18c0-1.728 1.044-2.646 2.448-2.646s2.448.918 2.448 2.646v.18c0 1.728-1.062 2.646-2.448 2.646m9.996 1.728h9.144v-2.052h-6.786v-.072c0-.918.432-1.44 1.98-1.926l1.152-.36c2.142-.666 3.762-1.854 3.762-4.284v-.18c0-2.412-1.998-3.978-4.59-3.978s-4.626 1.566-4.626 4.284v.288h2.304v-.324c0-1.422.918-2.196 2.322-2.196s2.286.774 2.286 1.962v.072c0 1.152-.738 1.908-2.052 2.322l-1.206.378c-2.376.738-3.69 1.926-3.69 4.554z" aria-label="Bulkhead 2" style="font-weight:700;font-size:18px;font-family:&quot;Space Grotesk&quot;"/><rect width="183.979" height="67.968" x="289.5" y="101.25" fill="#DEDEDE" rx="18.75" ry="18.75" style="stroke:#000;stroke-width:3"/><path d="M314.718 141.462h2.718l2.322-11.7h.252l2.322 11.7h2.7l2.052-12.6h-1.512l-1.782 11.628h-.252l-2.304-11.628h-2.7l-2.322 11.628h-.252l-1.782-11.628h-1.512zm18.361.252c2.664 0 4.5-1.782 4.5-4.536v-.234c0-2.754-1.836-4.536-4.5-4.536s-4.5 1.782-4.5 4.536v.234c0 2.754 1.836 4.536 4.5 4.536m0-1.278c-1.854 0-3.078-1.278-3.078-3.294v-.162c0-2.016 1.206-3.294 3.078-3.294 1.854 0 3.078 1.278 3.078 3.294v.162c0 2.016-1.224 3.294-3.078 3.294m7.076 1.026h1.422v-5.364c0-1.476.846-2.178 2.124-2.178h1.134v-1.296h-1.044c-1.062 0-1.692.342-1.998 1.116h-.252v-1.08h-1.386zm6.805 0h1.422v-3.834h.252l4.194 3.834h1.962l-5.022-4.518 4.878-4.284h-1.98l-4.032 3.618h-.252v-7.416h-1.422zm10.405-10.17c.63 0 1.098-.45 1.098-1.08 0-.648-.468-1.098-1.098-1.098-.612 0-1.08.45-1.08 1.098 0 .63.468 1.08 1.08 1.08m-.702 10.17h1.422v-8.802h-1.422zm4.43 0h1.422v-4.428c0-2.178 1.188-3.294 2.88-3.294 1.476 0 2.43.756 2.43 2.502v5.22h1.422v-5.328c0-2.358-1.548-3.636-3.492-3.636-1.8 0-2.646.81-3.024 1.656h-.252v-1.494h-1.386zm10.621-4.356c0 2.754 1.854 4.446 4.158 4.446 1.854 0 2.772-.846 3.204-1.638h.252v3.348q0 .54-.54.54h-5.598v1.26h5.976c1.008 0 1.548-.594 1.548-1.548V132.66h-1.35v1.458h-.252c-.468-.864-1.386-1.71-3.24-1.71-2.304 0-4.158 1.692-4.158 4.446zm4.536 3.186c-1.818 0-3.096-1.206-3.096-3.24v-.144c0-2.034 1.278-3.24 3.096-3.24s3.078 1.206 3.078 3.24v.144c0 2.034-1.278 3.24-3.078 3.24m16.239 1.422c2.736 0 4.518-1.458 4.518-3.69 0-2.214-1.71-3.042-3.888-3.546l-.936-.234c-1.674-.414-2.664-.864-2.664-2.214s1.08-2.106 2.754-2.106c1.728 0 2.988.756 2.988 2.574v.756h1.494v-.756c0-2.574-1.944-3.888-4.482-3.888s-4.248 1.314-4.248 3.438 1.512 2.988 3.744 3.528l.936.234c1.692.396 2.808.864 2.808 2.25 0 1.35-1.062 2.34-3.024 2.34-1.926 0-3.276-.99-3.276-3.096v-.378h-1.494v.378c0 2.952 2.016 4.41 4.77 4.41m10.945 0c2.358 0 3.402-1.314 3.942-2.43l-1.224-.594c-.432.972-1.17 1.764-2.682 1.764-1.746 0-3.006-1.134-3.06-3.024h7.164v-.648c0-2.682-1.728-4.374-4.23-4.374-2.574 0-4.374 1.836-4.374 4.554v.216c0 2.718 1.782 4.536 4.464 4.536m-3.006-5.454c.216-1.638 1.314-2.592 2.916-2.592 1.584 0 2.682.954 2.79 2.592zm9.65 5.202h1.422v-5.364c0-1.476.846-2.178 2.124-2.178h1.134v-1.296h-1.044c-1.062 0-1.692.342-1.998 1.116h-.252v-1.08h-1.386zm9.037 0h2.268l3.15-8.802h-1.512l-2.646 7.74h-.252l-2.646-7.74h-1.512zm8.191-10.17c.63 0 1.098-.45 1.098-1.08 0-.648-.468-1.098-1.098-1.098-.612 0-1.08.45-1.08 1.098 0 .63.468 1.08 1.08 1.08m-.702 10.17h1.422v-8.802h-1.422zm8.48.252c2.538 0 3.906-1.584 4.284-3.348l-1.404-.306c-.216 1.35-1.116 2.376-2.862 2.376s-3.078-1.242-3.078-3.294v-.162c0-2.052 1.332-3.294 3.078-3.294s2.628 1.08 2.808 2.376l1.386-.288c-.288-1.782-1.674-3.366-4.212-3.366-2.574 0-4.482 1.728-4.482 4.554v.198c0 2.826 1.908 4.554 4.482 4.554m10.765 0c2.358 0 3.402-1.314 3.942-2.43l-1.224-.594c-.432.972-1.17 1.764-2.682 1.764-1.746 0-3.006-1.134-3.06-3.024h7.164v-.648c0-2.682-1.728-4.374-4.23-4.374-2.574 0-4.374 1.836-4.374 4.554v.216c0 2.718 1.782 4.536 4.464 4.536m-3.006-5.454c.216-1.638 1.314-2.592 2.916-2.592 1.584 0 2.682.954 2.79 2.592z" aria-label="Working Service" style="font-size:18px;font-family:&quot;Space Grotesk&quot;"/><path fill="#FF6153" d="M299.25 309.75h165.043v67.968H299.25z" style="stroke:#000;stroke-width:3"/><path d="M322.938 349.962h2.376v-5.238h5.112v-2.16h-5.112v-3.042h5.544v-2.16h-7.92zm12.323.252c1.872 0 2.43-1.008 2.592-1.458h.342v.018c0 .72.648 1.188 1.53 1.188h1.512v-1.872h-.72c-.324 0-.504-.18-.504-.54v-3.33c0-2.232-1.476-3.438-3.816-3.438-2.322 0-3.492 1.17-3.924 2.52l2.088.702c.162-.81.666-1.386 1.8-1.386 1.152 0 1.656.612 1.656 1.44v.504h-2.448c-2.016 0-3.456.954-3.456 2.79s1.44 2.862 3.348 2.862m.396-1.836c-.972 0-1.476-.45-1.476-1.098s.504-1.026 1.35-1.026h2.286v.18c0 1.188-.9 1.944-2.16 1.944m8.381-8.388c.828 0 1.458-.576 1.458-1.44s-.63-1.44-1.458-1.44-1.458.576-1.458 1.44.63 1.44 1.458 1.44m-1.134 9.972h2.268v-8.928h-2.268zm4.8 0h2.267v-12.6h-2.268zm8.867.252c2.448 0 3.51-1.386 4.014-2.34l-1.854-.972c-.306.684-.828 1.332-2.088 1.332s-2.214-.846-2.268-2.07h6.498v-.774c0-2.736-1.71-4.608-4.338-4.608-2.664 0-4.464 1.8-4.464 4.608v.216c0 2.808 1.818 4.608 4.5 4.608m-2.178-5.742c.162-1.026.9-1.71 2.124-1.71 1.17 0 1.944.684 2.052 1.71zm12.107 5.742c1.62 0 2.394-.648 2.808-1.332h.324v1.08h2.232v-12.6h-2.268v4.698h-.324c-.378-.63-1.152-1.278-2.772-1.278-2.16 0-4.032 1.656-4.032 4.572v.288c0 2.916 1.89 4.572 4.032 4.572m.684-1.98c-1.386 0-2.448-.918-2.448-2.646v-.18c0-1.728 1.044-2.646 2.448-2.646s2.448.918 2.448 2.646v.18c0 1.728-1.062 2.646-2.448 2.646m16.096 1.98c2.916 0 4.77-1.584 4.77-3.888s-1.782-3.24-4.464-3.816l-.414-.09c-1.512-.324-2.214-.774-2.214-1.71s.666-1.512 2.106-1.512 2.322.576 2.322 2.016v.54h2.34v-.54c0-2.736-1.962-4.104-4.662-4.104s-4.446 1.368-4.446 3.672 1.53 3.186 4.14 3.762l.414.09c1.62.36 2.538.72 2.538 1.764 0 1.008-.81 1.728-2.43 1.728s-2.61-.756-2.61-2.268v-.504h-2.34v.504c0 2.736 2.034 4.356 4.95 4.356m10.685 0c2.448 0 3.51-1.386 4.014-2.34l-1.854-.972c-.306.684-.828 1.332-2.088 1.332s-2.214-.846-2.268-2.07h6.498v-.774c0-2.736-1.71-4.608-4.338-4.608-2.664 0-4.464 1.8-4.464 4.608v.216c0 2.808 1.818 4.608 4.5 4.608m-2.178-5.742c.162-1.026.9-1.71 2.124-1.71 1.17 0 1.944.684 2.052 1.71zm8.507 5.49h2.268v-5.076c0-1.26.828-1.872 1.98-1.872h1.116v-2.016h-1.08c-.828 0-1.476.324-1.728 1.044h-.324v-1.008h-2.232zm9.011 0h3.6l2.844-8.928h-2.412l-2.07 7.272h-.324l-2.07-7.272h-2.412zm9.138-9.972c.828 0 1.458-.576 1.458-1.44s-.63-1.44-1.458-1.44-1.458.576-1.458 1.44.63 1.44 1.458 1.44m-1.134 9.972h2.268v-8.928h-2.268zm8.993.252c2.556 0 4.014-1.494 4.482-3.42l-2.196-.522c-.198 1.152-.864 1.926-2.232 1.926s-2.412-.918-2.412-2.61v-.18c0-1.692 1.044-2.61 2.412-2.61s2.034.828 2.178 1.908l2.196-.468c-.378-1.98-1.872-3.456-4.428-3.456-2.592 0-4.626 1.674-4.626 4.59v.252c0 2.916 2.034 4.59 4.626 4.59m10.433 0c2.448 0 3.51-1.386 4.014-2.34l-1.854-.972c-.306.684-.828 1.332-2.088 1.332s-2.214-.846-2.268-2.07h6.498v-.774c0-2.736-1.71-4.608-4.338-4.608-2.664 0-4.464 1.8-4.464 4.608v.216c0 2.808 1.818 4.608 4.5 4.608m-2.178-5.742c.162-1.026.9-1.71 2.124-1.71 1.17 0 1.944.684 2.052 1.71z" aria-label="Failed Service" style="font-weight:700;font-size:18px;font-family:&quot;Space Grotesk&quot;"/><circle cx="112.183" cy="72" r="12" fill="#FFAE03" style="stroke:#000;stroke-width:3"/><path fill="none" d="M112.183 84v40.5M92.683 96h39m-19.5 28.5-19.5 22.5m19.5-22.5 19.5 22.5" style="stroke:#000;stroke-width:3"/><path d="M34.188 176.712h2.376v-4.608h2.808c2.304 0 4.032-1.512 4.032-3.87v-.252c0-2.358-1.656-3.87-4.032-3.87h-5.184zm2.376-6.768v-3.672h2.574c1.134 0 1.89.666 1.89 1.746v.18c0 1.08-.774 1.746-1.89 1.746zm11.376 7.02c1.872 0 2.43-1.008 2.592-1.458h.342v.018c0 .72.648 1.188 1.53 1.188h1.512v-1.872h-.72c-.324 0-.504-.18-.504-.54v-3.33c0-2.232-1.476-3.438-3.816-3.438-2.322 0-3.492 1.17-3.924 2.52l2.088.702c.162-.81.666-1.386 1.8-1.386 1.152 0 1.656.612 1.656 1.44v.504h-2.448c-2.016 0-3.456.954-3.456 2.79s1.44 2.862 3.348 2.862m.396-1.836c-.972 0-1.476-.45-1.476-1.098s.504-1.026 1.35-1.026h2.286v.18c0 1.188-.9 1.944-2.16 1.944m7.452 1.584h2.268v-5.076c0-1.26.828-1.872 1.98-1.872h1.116v-2.016h-1.08c-.828 0-1.476.324-1.728 1.044h-.324v-1.008h-2.232zm10.764 0h2.52v-1.872h-1.728c-.324 0-.504-.18-.504-.54v-4.644h2.448v-1.872H66.84v-2.772h-2.268v2.772H62.34v1.872h2.232v5.04c0 1.224.792 2.016 1.98 2.016m6.138-9.972c.828 0 1.458-.576 1.458-1.44s-.63-1.44-1.458-1.44-1.458.576-1.458 1.44.63 1.44 1.458 1.44m-1.134 9.972h2.268v-8.928h-2.268zm7.776.252c1.872 0 2.43-1.008 2.592-1.458h.342v.018c0 .72.648 1.188 1.53 1.188h1.512v-1.872h-.72c-.324 0-.504-.18-.504-.54v-3.33c0-2.232-1.476-3.438-3.816-3.438-2.322 0-3.492 1.17-3.924 2.52l2.088.702c.162-.81.666-1.386 1.8-1.386 1.152 0 1.656.612 1.656 1.44v.504H79.44c-2.016 0-3.456.954-3.456 2.79s1.44 2.862 3.348 2.862m.396-1.836c-.972 0-1.476-.45-1.476-1.098s.504-1.026 1.35-1.026h2.286v.18c0 1.188-.9 1.944-2.16 1.944m7.452 1.584h2.268v-12.6H87.18zm5.004 0h2.268v-12.6h-2.268zm5.977 3.6h5.616c1.188 0 1.98-.792 1.98-2.016v-10.512h-2.268v4.536c0 1.656-.81 2.628-2.196 2.628-1.224 0-1.908-.666-1.908-2.016v-5.148h-2.268v5.328c0 2.214 1.386 3.744 3.474 3.744 1.602 0 2.322-.702 2.61-1.314h.324v2.25c0 .36-.18.54-.504.54h-4.86zm10.296-7.164h5.328v-2.052h-5.328zm6.948 3.564h2.448l.684-2.772h4.5l.684 2.772h2.448l-3.312-12.6h-4.14zm3.69-4.968 1.53-6.138h.324l1.53 6.138zm9.882 4.968h2.268v-7.056h3.6v7.056h2.268v-7.056h2.34v-1.872h-2.34v-1.26c0-.36.18-.54.504-.54h1.548v-1.872h-2.34c-1.188 0-1.98.792-1.98 2.016v1.656h-3.6v-1.26c0-.36.18-.54.504-.54h1.548v-1.872h-2.34c-1.188 0-1.98.792-1.98 2.016v1.656h-2.268v1.872h2.268zm16.452.252c2.448 0 3.51-1.386 4.014-2.34l-1.854-.972c-.306.684-.828 1.332-2.088 1.332s-2.214-.846-2.268-2.07h6.498v-.774c0-2.736-1.71-4.608-4.338-4.608-2.664 0-4.464 1.8-4.464 4.608v.216c0 2.808 1.818 4.608 4.5 4.608m-2.178-5.742c.162-1.026.9-1.71 2.124-1.71 1.17 0 1.944.684 2.052 1.71zm12.906 5.742c2.556 0 4.014-1.494 4.482-3.42l-2.196-.522c-.198 1.152-.864 1.926-2.232 1.926s-2.412-.918-2.412-2.61v-.18c0-1.692 1.044-2.61 2.412-2.61s2.034.828 2.178 1.908l2.196-.468c-.378-1.98-1.872-3.456-4.428-3.456-2.592 0-4.626 1.674-4.626 4.59v.252c0 2.916 2.034 4.59 4.626 4.59m9.702-.252h2.52v-1.872h-1.728c-.324 0-.504-.18-.504-.54v-4.644h2.448v-1.872h-2.448v-2.772h-2.268v2.772h-2.232v1.872h2.232v5.04c0 1.224.792 2.016 1.98 2.016m8.748.252c2.448 0 3.51-1.386 4.014-2.34l-1.854-.972c-.306.684-.828 1.332-2.088 1.332s-2.214-.846-2.268-2.07h6.498v-.774c0-2.736-1.71-4.608-4.338-4.608-2.664 0-4.464 1.8-4.464 4.608v.216c0 2.808 1.818 4.608 4.5 4.608m-2.178-5.742c.162-1.026.9-1.71 2.124-1.71 1.17 0 1.944.684 2.052 1.71zm12.312 5.742c1.62 0 2.394-.648 2.808-1.332h.324v1.08h2.232v-12.6h-2.268v4.698h-.324c-.378-.63-1.152-1.278-2.772-1.278-2.16 0-4.032 1.656-4.032 4.572v.288c0 2.916 1.89 4.572 4.032 4.572m.684-1.98c-1.386 0-2.448-.918-2.448-2.646v-.18c0-1.728 1.044-2.646 2.448-2.646s2.448.918 2.448 2.646v.18c0 1.728-1.062 2.646-2.448 2.646" aria-label="Partially-Affected" style="font-weight:700;font-size:18px;font-family:&quot;Space Grotesk&quot;"/><path d="M92.733 199.932c3.096 0 4.86-1.8 4.86-4.752v-.252h-2.34v.324c0 1.476-.828 2.556-2.52 2.556s-2.7-1.116-2.7-2.88v-3.096c0-1.764 1.008-2.88 2.7-2.88s2.52 1.08 2.52 2.556v.18h2.34v-.108c0-2.952-1.764-4.752-4.86-4.752-3.132 0-5.076 1.8-5.076 5.04v3.024c0 3.24 1.944 5.04 5.076 5.04m6.927-.252h2.268v-12.6H99.66zm5.972-9.972c.828 0 1.458-.576 1.458-1.44s-.63-1.44-1.458-1.44-1.458.576-1.458 1.44.63 1.44 1.458 1.44m-1.134 9.972h2.268v-8.928h-2.268zm8.907.252c2.448 0 3.51-1.386 4.014-2.34l-1.854-.972c-.306.684-.828 1.332-2.088 1.332s-2.214-.846-2.268-2.07h6.498v-.774c0-2.736-1.71-4.608-4.338-4.608-2.664 0-4.464 1.8-4.464 4.608v.216c0 2.808 1.818 4.608 4.5 4.608m-2.178-5.742c.162-1.026.9-1.71 2.124-1.71 1.17 0 1.944.684 2.052 1.71zm8.546 5.49h2.268v-4.536c0-1.656.81-2.628 2.196-2.628 1.224 0 1.908.666 1.908 2.016v5.148h2.268v-5.328c0-2.214-1.386-3.744-3.474-3.744-1.602 0-2.322.702-2.61 1.314h-.324v-1.17h-2.232zm14.307 0h2.52v-1.872h-1.728c-.324 0-.504-.18-.504-.54v-4.644h2.448v-1.872h-2.448v-2.772H132.1v2.772h-2.232v1.872h2.232v5.04c0 1.224.792 2.016 1.98 2.016" aria-label="Client" style="font-weight:700;font-size:18px;font-family:&quot;Space Grotesk&quot;"/><circle cx="112.38" cy="280.5" r="12" fill="#FF6153" style="stroke:#000;stroke-width:3"/><path fill="none" d="M112.38 292.5V333m-19.5-28.5h39m-19.5 28.5-19.5 22.5m19.5-22.5 19.5 22.5" style="stroke:#000;stroke-width:3"/><path d="M49.938 385.212h2.376v-5.238h5.112v-2.16h-5.112v-3.042h5.544v-2.16h-7.92zm13.355.144c1.602 0 2.322-.702 2.61-1.314h.324v1.17h2.232v-8.928H66.19v4.536c0 1.656-.81 2.628-2.196 2.628-1.224 0-1.908-.666-1.908-2.016v-5.148h-2.268v5.328c0 2.214 1.386 3.744 3.474 3.744m7.954-.144h2.268v-12.6h-2.268zm5.057 0h2.268v-12.6h-2.268zm6.029 3.6h5.616c1.188 0 1.98-.792 1.98-2.016v-10.512H87.66v4.536c0 1.656-.81 2.628-2.196 2.628-1.224 0-1.908-.666-1.908-2.016v-5.148h-2.268v5.328c0 2.214 1.386 3.744 3.474 3.744 1.602 0 2.322-.702 2.61-1.314h.324v2.25c0 .36-.18.54-.504.54h-4.86zm10.348-7.164h5.328v-2.052h-5.328zm7.001 3.564h2.448l.684-2.772h4.5l.684 2.772h2.448l-3.312-12.6h-4.14zm3.69-4.968 1.53-6.138h.324l1.53 6.138zm9.935 4.968h2.268v-7.056h3.6v7.056h2.268v-7.056h2.34v-1.872h-2.34v-1.26c0-.36.18-.54.504-.54h1.548v-1.872h-2.34c-1.188 0-1.98.792-1.98 2.016v1.656h-3.6v-1.26c0-.36.18-.54.504-.54h1.548v-1.872h-2.34c-1.188 0-1.98.792-1.98 2.016v1.656h-2.268v1.872h2.268zm16.557.252c2.448 0 3.51-1.386 4.014-2.34l-1.854-.972c-.306.684-.828 1.332-2.088 1.332s-2.214-.846-2.268-2.07h6.498v-.774c0-2.736-1.71-4.608-4.338-4.608-2.664 0-4.464 1.8-4.464 4.608v.216c0 2.808 1.818 4.608 4.5 4.608m-2.178-5.742c.162-1.026.9-1.71 2.124-1.71 1.17 0 1.944.684 2.052 1.71zm12.959 5.742c2.556 0 4.014-1.494 4.482-3.42l-2.196-.522c-.198 1.152-.864 1.926-2.232 1.926s-2.412-.918-2.412-2.61v-.18c0-1.692 1.044-2.61 2.412-2.61s2.034.828 2.178 1.908l2.196-.468c-.378-1.98-1.872-3.456-4.428-3.456-2.592 0-4.626 1.674-4.626 4.59v.252c0 2.916 2.034 4.59 4.626 4.59m9.755-.252h2.52v-1.872h-1.728c-.324 0-.504-.18-.504-.54v-4.644h2.448v-1.872h-2.448v-2.772h-2.268v2.772h-2.232v1.872h2.232v5.04c0 1.224.792 2.016 1.98 2.016m8.8.252c2.448 0 3.51-1.386 4.014-2.34l-1.854-.972c-.306.684-.828 1.332-2.088 1.332s-2.214-.846-2.268-2.07h6.498v-.774c0-2.736-1.71-4.608-4.338-4.608-2.664 0-4.464 1.8-4.464 4.608v.216c0 2.808 1.818 4.608 4.5 4.608m-2.178-5.742c.162-1.026.9-1.71 2.124-1.71 1.17 0 1.944.684 2.052 1.71zm12.365 5.742c1.62 0 2.394-.648 2.808-1.332h.324v1.08h2.232v-12.6h-2.268v4.698h-.324c-.378-.63-1.152-1.278-2.772-1.278-2.16 0-4.032 1.656-4.032 4.572v.288c0 2.916 1.89 4.572 4.032 4.572m.684-1.98c-1.386 0-2.448-.918-2.448-2.646v-.18c0-1.728 1.044-2.646 2.448-2.646s2.448.918 2.448 2.646v.18c0 1.728-1.062 2.646-2.448 2.646" aria-label="Fully-Affected" style="font-weight:700;font-size:18px;font-family:&quot;Space Grotesk&quot;"/><path d="M92.931 408.432c3.096 0 4.86-1.8 4.86-4.752v-.252h-2.34v.324c0 1.476-.828 2.556-2.52 2.556s-2.7-1.116-2.7-2.88v-3.096c0-1.764 1.008-2.88 2.7-2.88s2.52 1.08 2.52 2.556v.18h2.34v-.108c0-2.952-1.764-4.752-4.86-4.752-3.132 0-5.076 1.8-5.076 5.04v3.024c0 3.24 1.944 5.04 5.076 5.04m6.927-.252h2.268v-12.6h-2.268zm5.972-9.972c.828 0 1.458-.576 1.458-1.44s-.63-1.44-1.458-1.44-1.458.576-1.458 1.44.63 1.44 1.458 1.44m-1.134 9.972h2.268v-8.928h-2.268zm8.907.252c2.448 0 3.51-1.386 4.014-2.34l-1.854-.972c-.306.684-.828 1.332-2.088 1.332s-2.214-.846-2.268-2.07h6.498v-.774c0-2.736-1.71-4.608-4.338-4.608-2.664 0-4.464 1.8-4.464 4.608v.216c0 2.808 1.818 4.608 4.5 4.608m-2.178-5.742c.162-1.026.9-1.71 2.124-1.71 1.17 0 1.944.684 2.052 1.71zm8.546 5.49h2.268v-4.536c0-1.656.81-2.628 2.196-2.628 1.224 0 1.908.666 1.908 2.016v5.148h2.268v-5.328c0-2.214-1.386-3.744-3.474-3.744-1.602 0-2.322.702-2.61 1.314h-.324v-1.17h-2.232zm14.307 0h2.52v-1.872h-1.728c-.324 0-.504-.18-.504-.54v-4.644h2.448v-1.872h-2.448v-2.772h-2.268v2.772h-2.232v1.872h2.232v5.04c0 1.224.792 2.016 1.98 2.016" aria-label="Client" style="font-weight:700;font-size:18px;font-family:&quot;Space Grotesk&quot;"/><path fill="none" d="M183.96 343.5h106.005" style="stroke:#000;stroke-width:3"/><path d="m298.965 343.5-13.5-6 6 6-6 6z" style="stroke:#000;stroke-width:3"/><path fill="none" d="M199.71 202.125c45.6 35.7 92.665 72.556 129.685 101.55" style="stroke:#000;stroke-width:3"/><path d="m336.48 309.225-6.929-13.048 1.024 8.423-8.423 1.024z" style="stroke:#000;stroke-width:3"/><path fill="none" d="M199.71 135h80.475" style="stroke:#000;stroke-width:3"/><path d="m289.185 135-13.5-6 6 6-6 6z" style="stroke:#000;stroke-width:3"/></svg>