<svg xmlns="http://www.w3.org/2000/svg" width="820.5" height="720" preserveAspectRatio="none" style="width:820px;height:720px" viewBox="0 0 820 720"><path fill="#2D4E44" d="M96.771 145.968h15v298.309h-15zM302.596 317.341h15v45h-15zM302.596 608.15h15v58.968h-15zM505.853 444.277h15v81.936h-15zM726.913 526.213h15v154.405h-15z" style="stroke:#000;stroke-width:1.5"/><path d="M103.5 130.968v563.15M308.884 130.968v563.15M512.309 130.968v563.15M734.343 130.968v563.15" style="stroke:#000;stroke-width:3;stroke-dasharray:5,5"/><rect width="115.543" height="58.968" x="46.5" y="70.5" fill="#FFF" rx="18.75" ry="18.75" style="stroke:#000;stroke-width:3"/><path d="M65.94 106.212h1.512v-5.076h3.312c2.214 0 3.96-1.35 3.96-3.636v-.234c0-2.304-1.71-3.654-3.96-3.654H65.94Zm1.512-6.444V94.98h3.15c1.638 0 2.61.846 2.61 2.304v.18c0 1.476-1.008 2.304-2.61 2.304zm9.406 6.444h1.422v-5.364c0-1.476.846-2.178 2.124-2.178h1.134v-1.296h-1.044c-1.062 0-1.692.342-1.998 1.116h-.252v-1.08h-1.386zm10.577.252c2.664 0 4.5-1.782 4.5-4.536v-.234c0-2.754-1.836-4.536-4.5-4.536s-4.5 1.782-4.5 4.536v.234c0 2.754 1.836 4.536 4.5 4.536m0-1.278c-1.854 0-3.078-1.278-3.078-3.294v-.162c0-2.016 1.206-3.294 3.078-3.294 1.854 0 3.078 1.278 3.078 3.294v.162c0 2.016-1.224 3.294-3.078 3.294m10.828 1.278c1.836 0 2.754-.828 3.24-1.71h.252v1.458h1.386v-12.6h-1.422v5.184h-.252c-.45-.81-1.368-1.638-3.204-1.638-2.304 0-4.158 1.728-4.158 4.536v.234c0 2.826 1.872 4.536 4.158 4.536m.378-1.26c-1.818 0-3.096-1.224-3.096-3.312v-.162c0-2.088 1.278-3.312 3.096-3.312s3.078 1.224 3.078 3.312v.162c0 2.088-1.278 3.312-3.078 3.312m10.9 1.17c1.8 0 2.646-.81 3.042-1.656h.252v1.494h1.386V97.41H112.8v4.428c0 2.178-1.206 3.294-2.88 3.294-1.494 0-2.43-.756-2.43-2.502v-5.22h-1.422v5.328c0 2.358 1.53 3.636 3.474 3.636m11.747.09c2.538 0 3.906-1.584 4.284-3.348l-1.404-.306c-.216 1.35-1.116 2.376-2.862 2.376s-3.078-1.242-3.078-3.294v-.162c0-2.052 1.332-3.294 3.078-3.294s2.628 1.08 2.808 2.376l1.386-.288c-.288-1.782-1.674-3.366-4.212-3.366-2.574 0-4.482 1.728-4.482 4.554v.198c0 2.826 1.908 4.554 4.482 4.554m10.792 0c2.358 0 3.402-1.314 3.942-2.43l-1.224-.594c-.432.972-1.17 1.764-2.682 1.764-1.746 0-3.006-1.134-3.06-3.024h7.164v-.648c0-2.682-1.728-4.374-4.23-4.374-2.574 0-4.374 1.836-4.374 4.554v.216c0 2.718 1.782 4.536 4.464 4.536m-3.006-5.454c.216-1.638 1.314-2.592 2.916-2.592 1.584 0 2.682.954 2.79 2.592zm9.677 5.202h1.422v-5.364c0-1.476.846-2.178 2.124-2.178h1.134v-1.296h-1.044c-1.062 0-1.692.342-1.998 1.116h-.252v-1.08h-1.386z" aria-label="Producer" style="font-size:18px;font-family:&quot;Space Grotesk&quot;"/><path d="M221.572 118.212h8.208v-2.16h-5.832v-3.114h5.22v-2.16h-5.22v-3.006h5.724v-2.16h-8.1zm9.342 0h2.664l2.034-3.006h.324l2.034 3.006h2.664l-3.24-4.5 3.204-4.428h-2.628l-2.034 2.97h-.324l-2.034-2.97h-2.628l3.204 4.428zm14.958 0h2.52v-1.872h-1.728c-.324 0-.504-.18-.504-.54v-4.644h2.448v-1.872h-2.448v-2.772h-2.268v2.772h-2.232v1.872h2.232v5.04c0 1.224.792 2.016 1.98 2.016m8.622.252c2.448 0 3.51-1.386 4.014-2.34l-1.854-.972c-.306.684-.828 1.332-2.088 1.332s-2.214-.846-2.268-2.07h6.498v-.774c0-2.736-1.71-4.608-4.338-4.608-2.664 0-4.464 1.8-4.464 4.608v.216c0 2.808 1.818 4.608 4.5 4.608m-2.178-5.742c.162-1.026.9-1.71 2.124-1.71 1.17 0 1.944.684 2.052 1.71zm8.586 5.49h2.268v-5.076c0-1.26.828-1.872 1.98-1.872h1.116v-2.016h-1.08c-.828 0-1.476.324-1.728 1.044h-.324v-1.008h-2.232zm7.218 0h2.268v-4.536c0-1.656.81-2.628 2.196-2.628 1.224 0 1.908.666 1.908 2.016v5.148h2.268v-5.328c0-2.214-1.386-3.744-3.474-3.744-1.602 0-2.322.702-2.61 1.314h-.324v-1.17h-2.232zm13.95.252c1.872 0 2.43-1.008 2.592-1.458h.342v.018c0 .72.648 1.188 1.53 1.188h1.512v-1.872h-.72c-.324 0-.504-.18-.504-.54v-3.33c0-2.232-1.476-3.438-3.816-3.438-2.322 0-3.492 1.17-3.924 2.52l2.088.702c.162-.81.666-1.386 1.8-1.386 1.152 0 1.656.612 1.656 1.44v.504h-2.448c-2.016 0-3.456.954-3.456 2.79s1.44 2.862 3.348 2.862m.396-1.836c-.972 0-1.476-.45-1.476-1.098s.504-1.026 1.35-1.026h2.286v.18c0 1.188-.9 1.944-2.16 1.944m7.326 1.584h2.268v-12.6h-2.268zm9.108 0h5.184c3.384 0 5.184-1.728 5.184-5.112v-2.376c0-3.384-1.8-5.112-5.184-5.112H298.9v2.088h1.656v8.424H298.9zm4.032-2.16v-8.28h1.188c1.908 0 2.772 1.044 2.772 2.88v2.52c0 1.836-.864 2.88-2.772 2.88zm11.25 2.412c1.872 0 2.43-1.008 2.592-1.458h.342v.018c0 .72.648 1.188 1.53 1.188h1.512v-1.872h-.72c-.324 0-.504-.18-.504-.54v-3.33c0-2.232-1.476-3.438-3.816-3.438-2.322 0-3.492 1.17-3.924 2.52l2.088.702c.162-.81.666-1.386 1.8-1.386 1.152 0 1.656.612 1.656 1.44v.504h-2.448c-2.016 0-3.456.954-3.456 2.79s1.44 2.862 3.348 2.862m.396-1.836c-.972 0-1.476-.45-1.476-1.098s.504-1.026 1.35-1.026h2.286v.18c0 1.188-.9 1.944-2.16 1.944m10.098 1.584h2.52v-1.872h-1.728c-.324 0-.504-.18-.504-.54v-4.644h2.448v-1.872h-2.448v-2.772h-2.268v2.772h-2.232v1.872h2.232v5.04c0 1.224.792 2.016 1.98 2.016m7.65.252c1.873 0 2.43-1.008 2.593-1.458h.342v.018c0 .72.648 1.188 1.53 1.188h1.512v-1.872h-.72c-.324 0-.504-.18-.504-.54v-3.33c0-2.232-1.476-3.438-3.816-3.438-2.322 0-3.492 1.17-3.924 2.52l2.088.702c.162-.81.666-1.386 1.8-1.386 1.152 0 1.656.612 1.656 1.44v.504h-2.448c-2.016 0-3.456.954-3.456 2.79s1.44 2.862 3.348 2.862m.397-1.836c-.972 0-1.476-.45-1.476-1.098s.504-1.026 1.35-1.026h2.286v.18c0 1.188-.9 1.944-2.16 1.944m16.29 1.836c2.916 0 4.77-1.584 4.77-3.888s-1.782-3.24-4.464-3.816l-.414-.09c-1.512-.324-2.214-.774-2.214-1.71s.666-1.512 2.106-1.512 2.322.576 2.322 2.016v.54h2.34v-.54c0-2.736-1.962-4.104-4.662-4.104s-4.446 1.368-4.446 3.672 1.53 3.186 4.14 3.762l.414.09c1.62.36 2.538.72 2.538 1.764 0 1.008-.81 1.728-2.43 1.728s-2.61-.756-2.61-2.268v-.504h-2.34v.504c0 2.736 2.034 4.356 4.95 4.356m10.116-.252h2.52v-1.872h-1.728c-.324 0-.504-.18-.504-.54v-4.644h2.448v-1.872h-2.448v-2.772h-2.268v2.772h-2.232v1.872h2.232v5.04c0 1.224.792 2.016 1.98 2.016m8.802.252c2.664 0 4.68-1.692 4.68-4.572v-.288c0-2.88-2.016-4.572-4.68-4.572s-4.68 1.692-4.68 4.572v.288c0 2.88 2.016 4.572 4.68 4.572m0-2.016c-1.386 0-2.412-.936-2.412-2.61v-.18c0-1.674 1.008-2.61 2.412-2.61s2.412.936 2.412 2.61v.18c0 1.674-1.026 2.61-2.412 2.61m6.858 1.764h2.268v-5.076c0-1.26.828-1.872 1.98-1.872h1.116v-2.016h-1.08c-.828 0-1.476.324-1.728 1.044h-.324v-1.008h-2.232zm10.962.252c2.448 0 3.51-1.386 4.014-2.34l-1.854-.972c-.306.684-.828 1.332-2.088 1.332s-2.214-.846-2.268-2.07h6.498v-.774c0-2.736-1.71-4.608-4.338-4.608-2.664 0-4.464 1.8-4.464 4.608v.216c0 2.808 1.818 4.608 4.5 4.608m-2.178-5.742c.162-1.026.9-1.71 2.124-1.71 1.17 0 1.944.684 2.052 1.71z" aria-label="External Data Store" style="font-weight:700;font-size:18px;font-family:&quot;Space Grotesk&quot;"/><path fill="#FFAE03" d="M283.096 39c0-15 27-15 27-15s27 0 27 15v39c0 15-27 15-27 15s-27 0-27-15V39" style="stroke:#000;stroke-width:2.25"/><path fill="none" d="M283.096 39c0 15 27 15 27 15s27 0 27-15" style="stroke:#000;stroke-width:2.25"/><path fill="#FFAE03" d="M429.809 78h167.089c7.5 0 7.5 26.484 7.5 26.484s0 26.484-7.5 26.484h-167.09c-7.5 0-7.5-26.484-7.5-26.484s0-26.484 7.5-26.484" style="stroke:#000;stroke-width:3"/><path fill="none" d="M596.898 78c-7.5 0-7.5 26.484-7.5 26.484 0 26.484 7.5 26.484 7.5 26.484" style="stroke:#000;stroke-width:3"/><path d="M438.497 110.712h2.304V99.858h.324l2.16 10.854h3.924l2.16-10.854h.324v10.854h2.304v-12.6h-4.41l-2.178 10.98h-.324l-2.178-10.98h-4.41zm20.037.252c2.448 0 3.51-1.386 4.014-2.34l-1.854-.972c-.306.684-.828 1.332-2.088 1.332s-2.214-.846-2.268-2.07h6.498v-.774c0-2.736-1.71-4.608-4.338-4.608-2.664 0-4.464 1.8-4.464 4.608v.216c0 2.808 1.818 4.608 4.5 4.608m-2.178-5.742c.162-1.026.9-1.71 2.124-1.71 1.17 0 1.944.684 2.052 1.71zm12.225 5.742c2.268 0 3.744-1.062 3.744-2.934s-1.584-2.448-3.6-2.808l-.504-.09c-.828-.144-1.332-.378-1.332-.954 0-.522.468-.846 1.332-.846s1.476.342 1.674 1.26l2.106-.648c-.414-1.44-1.782-2.412-3.78-2.412-2.124 0-3.528.99-3.528 2.754s1.548 2.466 3.42 2.808l.504.09c1.062.198 1.512.45 1.512 1.008s-.504.972-1.548.972-1.89-.396-2.124-1.656l-2.088.54c.306 1.872 1.872 2.916 4.212 2.916m9.453 0c2.268 0 3.744-1.062 3.744-2.934s-1.584-2.448-3.6-2.808l-.504-.09c-.828-.144-1.332-.378-1.332-.954 0-.522.468-.846 1.332-.846s1.476.342 1.674 1.26l2.106-.648c-.414-1.44-1.782-2.412-3.78-2.412-2.124 0-3.528.99-3.528 2.754s1.548 2.466 3.42 2.808l.504.09c1.062.198 1.512.45 1.512 1.008s-.504.972-1.548.972-1.89-.396-2.124-1.656l-2.088.54c.306 1.872 1.872 2.916 4.212 2.916m8.445 0c1.872 0 2.43-1.008 2.592-1.458h.342v.018c0 .72.648 1.188 1.53 1.188h1.512v-1.872h-.72c-.324 0-.504-.18-.504-.54v-3.33c0-2.232-1.476-3.438-3.816-3.438-2.322 0-3.492 1.17-3.924 2.52l2.088.702c.162-.81.666-1.386 1.8-1.386 1.152 0 1.656.612 1.656 1.44v.504h-2.448c-2.016 0-3.456.954-3.456 2.79s1.44 2.862 3.348 2.862m.396-1.836c-.972 0-1.476-.45-1.476-1.098s.504-1.026 1.35-1.026h2.286v.18c0 1.188-.9 1.944-2.16 1.944m6.645-2.844c0 2.808 1.872 4.464 4.068 4.464 1.638 0 2.376-.684 2.736-1.278h.324v2.322c0 .36-.18.54-.504.54h-5.184v1.98h5.976c1.188 0 1.98-.792 1.98-2.016v-10.512h-2.232v1.08h-.324c-.396-.612-1.152-1.332-2.772-1.332-2.214 0-4.068 1.656-4.068 4.464zm4.716 2.484c-1.386 0-2.448-.918-2.448-2.538v-.18c0-1.62 1.044-2.538 2.448-2.538s2.448.918 2.448 2.538v.18c0 1.62-1.062 2.538-2.448 2.538m11.29 2.196c2.447 0 3.51-1.386 4.013-2.34l-1.854-.972c-.306.684-.828 1.332-2.088 1.332s-2.214-.846-2.268-2.07h6.498v-.774c0-2.736-1.71-4.608-4.338-4.608-2.664 0-4.464 1.8-4.464 4.608v.216c0 2.808 1.818 4.608 4.5 4.608m-2.179-5.742c.162-1.026.9-1.71 2.124-1.71 1.17 0 1.944.684 2.052 1.71zm18.763 8.73H528v-1.836h-1.062c-.324 0-.504-.18-.504-.54v-.702c2.502-.396 4.032-2.124 4.032-4.95V102.9c0-3.24-2.016-5.04-5.184-5.04s-5.184 1.8-5.184 5.04v3.024c0 2.826 1.53 4.554 4.032 4.95v1.062c0 1.224.792 2.016 1.98 2.016m-.828-5.112c-1.764 0-2.808-1.116-2.808-2.844v-3.168c0-1.728 1.044-2.844 2.808-2.844s2.808 1.116 2.808 2.844v3.168c0 1.728-1.044 2.844-2.808 2.844m10.767 2.016c1.602 0 2.322-.702 2.61-1.314h.324v1.17h2.232v-8.928h-2.268v4.536c0 1.656-.81 2.628-2.196 2.628-1.224 0-1.908-.666-1.908-2.016v-5.148h-2.268v5.328c0 2.214 1.386 3.744 3.474 3.744m11.775.108c2.448 0 3.51-1.386 4.014-2.34l-1.854-.972c-.306.684-.828 1.332-2.088 1.332s-2.214-.846-2.268-2.07h6.498v-.774c0-2.736-1.71-4.608-4.338-4.608-2.664 0-4.464 1.8-4.464 4.608v.216c0 2.808 1.818 4.608 4.5 4.608m-2.178-5.742c.162-1.026.9-1.71 2.124-1.71 1.17 0 1.944.684 2.052 1.71zm11.919 5.634c1.602 0 2.322-.702 2.61-1.314h.324v1.17h2.232v-8.928h-2.268v4.536c0 1.656-.81 2.628-2.196 2.628-1.224 0-1.908-.666-1.908-2.016v-5.148h-2.268v5.328c0 2.214 1.386 3.744 3.474 3.744m11.775.108c2.448 0 3.51-1.386 4.014-2.34l-1.854-.972c-.306.684-.828 1.332-2.088 1.332s-2.214-.846-2.268-2.07h6.498v-.774c0-2.736-1.71-4.608-4.338-4.608-2.664 0-4.464 1.8-4.464 4.608v.216c0 2.808 1.818 4.608 4.5 4.608m-2.178-5.742c.162-1.026.9-1.71 2.124-1.71 1.17 0 1.944.684 2.052 1.71z" aria-label="Message Queue" style="font-weight:700;font-size:18px;font-family:&quot;Space Grotesk&quot;"/><rect width="123.139" height="58.968" x="672.843" y="70.5" fill="#FFF" rx="18.75" ry="18.75" style="stroke:#000;stroke-width:3"/><path d="M696.837 106.464c2.97 0 4.626-1.782 4.626-4.644v-.234h-1.494v.288c0 1.89-.99 3.24-3.132 3.24s-3.402-1.386-3.402-3.726v-2.952c0-2.34 1.26-3.726 3.402-3.726s3.132 1.35 3.132 3.24v.144h1.494v-.09c0-2.862-1.656-4.644-4.626-4.644-2.988 0-4.914 1.782-4.914 5.112v2.88c0 3.33 1.926 5.112 4.914 5.112m11.124 0c2.664 0 4.5-1.782 4.5-4.536v-.234c0-2.754-1.836-4.536-4.5-4.536s-4.5 1.782-4.5 4.536v.234c0 2.754 1.836 4.536 4.5 4.536m0-1.278c-1.854 0-3.078-1.278-3.078-3.294v-.162c0-2.016 1.206-3.294 3.078-3.294 1.854 0 3.078 1.278 3.078 3.294v.162c0 2.016-1.224 3.294-3.078 3.294m7.056 1.026h1.422v-4.428c0-2.178 1.188-3.294 2.88-3.294 1.476 0 2.43.756 2.43 2.502v5.22h1.422v-5.328c0-2.358-1.548-3.636-3.492-3.636-1.8 0-2.646.81-3.024 1.656h-.252V97.41h-1.386zm14.58.252c2.16 0 3.546-.972 3.546-2.7 0-1.71-1.458-2.286-3.312-2.61l-.738-.126c-1.116-.198-1.818-.522-1.818-1.368s.738-1.314 1.944-1.314c1.188 0 2.07.468 2.286 1.728l1.332-.342c-.36-1.638-1.638-2.574-3.618-2.574-2.016 0-3.348.936-3.348 2.52s1.35 2.286 3.078 2.592l.738.126c1.278.234 2.052.522 2.052 1.422s-.828 1.458-2.142 1.458c-1.332 0-2.52-.54-2.772-2.268l-1.35.306c.306 2.178 1.926 3.15 4.122 3.15m9.307-.09c1.8 0 2.646-.81 3.042-1.656h.252v1.494h1.386V97.41h-1.422v4.428c0 2.178-1.206 3.294-2.88 3.294-1.494 0-2.43-.756-2.43-2.502v-5.22h-1.422v5.328c0 2.358 1.53 3.636 3.474 3.636m7.65-.162h1.422v-5.292c0-1.584.918-2.448 2.214-2.448 1.224 0 1.944.738 1.944 1.908v5.832h1.422v-5.292c0-1.584.918-2.448 2.214-2.448 1.224 0 1.944.738 1.944 1.908v5.832h1.422v-5.958c0-1.872-1.242-3.006-2.988-3.006-1.494 0-2.268.684-2.664 1.548h-.252c-.396-.864-1.224-1.548-2.592-1.548-1.386 0-2.106.63-2.448 1.26h-.252V97.41h-1.386zm19.512.252c2.358 0 3.402-1.314 3.942-2.43l-1.224-.594c-.432.972-1.17 1.764-2.682 1.764-1.746 0-3.006-1.134-3.06-3.024h7.164v-.648c0-2.682-1.728-4.374-4.23-4.374-2.574 0-4.374 1.836-4.374 4.554v.216c0 2.718 1.782 4.536 4.464 4.536m-3.006-5.454c.216-1.638 1.314-2.592 2.916-2.592 1.584 0 2.682.954 2.79 2.592zm9.63 5.202h1.422v-5.364c0-1.476.846-2.178 2.124-2.178h1.134v-1.296h-1.044c-1.062 0-1.692.342-1.998 1.116h-.252v-1.08h-1.386z" aria-label="Consumer" style="font-size:18px;font-family:&quot;Space Grotesk&quot;"/><path fill="#2D4E44" d="M96.771 145.968h15v298.309h-15zM302.596 317.341h15v45h-15zM302.596 608.15h15v58.968h-15zM505.853 444.277h15v81.936h-15zM726.913 526.213h15v154.405h-15z" style="stroke:#000;stroke-width:1.5"/><path d="M111.771 215.905h63M174.771 215.905v19.5M113.271 235.405h61.5" style="stroke:#000;stroke-width:3"/><path d="m128.271 229.405-15 6 15 6z" style="stroke:#000;stroke-width:1.5"/><path d="M135.603 177.432c1.944 0 2.736-.81 3.114-1.62h.252v1.368h1.368v-5.994h-5.292v1.296h3.816v.306c0 1.998-.972 3.294-3.078 3.294-2.16 0-3.42-1.386-3.42-3.726v-2.952c0-2.34 1.26-3.726 3.402-3.726s3.078 1.332 3.078 3.114v.126h1.494v-.09c0-2.736-1.602-4.5-4.572-4.5-2.988 0-4.914 1.782-4.914 5.112v2.88c0 3.33 1.944 5.112 4.752 5.112m11.66 0c2.358 0 3.402-1.314 3.942-2.43l-1.224-.594c-.431.972-1.17 1.764-2.681 1.764-1.746 0-3.006-1.134-3.06-3.024h7.164v-.648c0-2.682-1.728-4.374-4.23-4.374-2.574 0-4.374 1.836-4.374 4.554v.216c0 2.718 1.782 4.536 4.464 4.536m-3.006-5.454c.216-1.638 1.314-2.592 2.916-2.592 1.584 0 2.682.954 2.79 2.592zm9.717 5.202h1.422v-4.428c0-2.178 1.188-3.294 2.88-3.294 1.476 0 2.43.756 2.43 2.502v5.22h1.422v-5.328c0-2.358-1.548-3.636-3.492-3.636-1.8 0-2.646.81-3.024 1.656h-.252v-1.494h-1.386zm15.152.252c2.358 0 3.402-1.314 3.942-2.43l-1.224-.594c-.432.972-1.17 1.764-2.682 1.764-1.746 0-3.006-1.134-3.06-3.024h7.164v-.648c0-2.682-1.728-4.374-4.23-4.374-2.574 0-4.374 1.836-4.374 4.554v.216c0 2.718 1.782 4.536 4.464 4.536m-3.006-5.454c.216-1.638 1.314-2.592 2.916-2.592 1.584 0 2.682.954 2.79 2.592zm9.716 5.202h1.422v-5.364c0-1.476.846-2.178 2.124-2.178h1.134v-1.296h-1.044c-1.062 0-1.692.342-1.998 1.116h-.252v-1.08h-1.386zm9.266.252c1.818 0 2.556-.864 2.934-1.566h.216v.09c0 .756.522 1.224 1.314 1.224h1.242v-1.206h-.81c-.324 0-.504-.18-.504-.54v-3.978c0-2.106-1.332-3.33-3.564-3.33-2.214 0-3.402 1.206-3.816 2.682l1.332.432c.27-1.134 1.044-1.89 2.466-1.89 1.458 0 2.178.774 2.178 2.016v.648h-2.97c-1.89 0-3.312.882-3.312 2.664 0 1.764 1.422 2.754 3.294 2.754m.162-1.224c-1.224 0-2.034-.576-2.034-1.566s.81-1.476 1.944-1.476h2.916v.198c0 1.8-1.134 2.844-2.826 2.844m10.239.972h2.34v-1.242h-1.962c-.378 0-.522-.18-.522-.54v-5.778h2.88v-1.242h-2.88v-3.132h-1.422v3.132h-2.646v1.242h2.646v6.012c0 .954.558 1.548 1.566 1.548m8.834.252c2.358 0 3.402-1.314 3.942-2.43l-1.224-.594c-.432.972-1.17 1.764-2.682 1.764-1.746 0-3.006-1.134-3.06-3.024h7.164v-.648c0-2.682-1.728-4.374-4.23-4.374-2.574 0-4.374 1.836-4.374 4.554v.216c0 2.718 1.782 4.536 4.464 4.536m-3.006-5.454c.216-1.638 1.314-2.592 2.916-2.592 1.584 0 2.682.954 2.79 2.592zm13.262 5.454c2.16 0 3.546-.972 3.546-2.7 0-1.71-1.458-2.286-3.312-2.61l-.738-.126c-1.116-.198-1.818-.522-1.818-1.368s.738-1.314 1.944-1.314c1.188 0 2.07.468 2.286 1.728l1.332-.342c-.36-1.638-1.638-2.574-3.618-2.574-2.016 0-3.348.936-3.348 2.52s1.35 2.286 3.078 2.592l.738.126c1.278.234 2.052.522 2.052 1.422s-.828 1.458-2.142 1.458c-1.332 0-2.52-.54-2.772-2.268l-1.35.306c.306 2.178 1.926 3.15 4.122 3.15m14.788 0c2.538 0 3.906-1.584 4.284-3.348l-1.404-.306c-.216 1.35-1.116 2.376-2.862 2.376s-3.078-1.242-3.078-3.294v-.162c0-2.052 1.332-3.294 3.078-3.294s2.628 1.08 2.808 2.376l1.386-.288c-.288-1.782-1.674-3.366-4.212-3.366-2.574 0-4.482 1.728-4.482 4.554v.198c0 2.826 1.908 4.554 4.482 4.554m6.8-.252h1.423v-12.6h-1.422zm7.197.252c1.818 0 2.556-.864 2.934-1.566h.216v.09c0 .756.522 1.224 1.314 1.224h1.242v-1.206h-.81c-.324 0-.504-.18-.504-.54v-3.978c0-2.106-1.332-3.33-3.564-3.33-2.214 0-3.402 1.206-3.816 2.682l1.332.432c.27-1.134 1.044-1.89 2.466-1.89 1.458 0 2.178.774 2.178 2.016v.648h-2.97c-1.89 0-3.312.882-3.312 2.664 0 1.764 1.422 2.754 3.294 2.754m.162-1.224c-1.224 0-2.034-.576-2.034-1.566s.81-1.476 1.944-1.476h2.916v.198c0 1.8-1.134 2.844-2.826 2.844m8.276-9.198c.63 0 1.098-.45 1.098-1.08 0-.648-.468-1.098-1.098-1.098-.612 0-1.08.45-1.08 1.098 0 .63.468 1.08 1.08 1.08m-.702 10.17h1.422v-8.802h-1.422zm4.496 0h1.422v-5.292c0-1.584.918-2.448 2.214-2.448 1.224 0 1.944.738 1.944 1.908v5.832h1.422v-5.292c0-1.584.918-2.448 2.214-2.448 1.224 0 1.944.738 1.944 1.908v5.832h1.422v-5.958c0-1.872-1.242-3.006-2.988-3.006-1.494 0-2.268.684-2.664 1.548h-.252c-.396-.864-1.224-1.548-2.592-1.548-1.386 0-2.106.63-2.448 1.26h-.252v-1.098h-1.386z" aria-label="Generates claim" style="font-size:18px;font-family:&quot;Space Grotesk&quot;"/><path d="M135.315 200.4c2.538 0 3.906-1.584 4.284-3.348l-1.404-.306c-.216 1.35-1.116 2.376-2.862 2.376s-3.078-1.242-3.078-3.294v-.162c0-2.052 1.332-3.294 3.078-3.294s2.628 1.08 2.808 2.376l1.386-.288c-.288-1.782-1.674-3.366-4.212-3.366-2.574 0-4.482 1.728-4.482 4.554v.198c0 2.826 1.908 4.554 4.482 4.554m6.794-.252h1.422v-4.428c0-2.178 1.188-3.294 2.88-3.294 1.476 0 2.43.756 2.43 2.502v5.22h1.422v-5.328c0-2.358-1.548-3.636-3.492-3.636-1.782 0-2.61.792-2.988 1.566h-.252v-5.202h-1.422zm15.145.252c2.358 0 3.402-1.314 3.942-2.43l-1.224-.594c-.432.972-1.17 1.764-2.682 1.764-1.746 0-3.006-1.134-3.06-3.024h7.164v-.648c0-2.682-1.728-4.374-4.23-4.374-2.574 0-4.374 1.836-4.374 4.554v.216c0 2.718 1.782 4.536 4.464 4.536m-3.006-5.454c.216-1.638 1.314-2.592 2.916-2.592 1.584 0 2.682.954 2.79 2.592zm13.76 5.454c2.537 0 3.905-1.584 4.283-3.348l-1.404-.306c-.216 1.35-1.116 2.376-2.862 2.376s-3.078-1.242-3.078-3.294v-.162c0-2.052 1.332-3.294 3.078-3.294s2.628 1.08 2.808 2.376l1.386-.288c-.288-1.782-1.674-3.366-4.212-3.366-2.574 0-4.482 1.728-4.482 4.554v.198c0 2.826 1.908 4.554 4.482 4.554m6.792-.252h1.422v-3.834h.252l4.194 3.834h1.962l-5.022-4.518 4.878-4.284h-1.98l-4.032 3.618h-.252v-7.416H174.8zm17.709 0h2.34v-1.242h-1.962c-.378 0-.522-.18-.522-.54v-5.778h2.88v-1.242h-2.88v-3.132h-1.422v3.132h-2.646v1.242h2.646v6.012c0 .954.558 1.548 1.566 1.548m8.863.252c2.664 0 4.5-1.782 4.5-4.536v-.234c0-2.754-1.836-4.536-4.5-4.536s-4.5 1.782-4.5 4.536v.234c0 2.754 1.836 4.536 4.5 4.536m0-1.278c-1.854 0-3.078-1.278-3.078-3.294v-.162c0-2.016 1.206-3.294 3.078-3.294 1.854 0 3.078 1.278 3.078 3.294v.162c0 2.016-1.224 3.294-3.078 3.294m7.135 1.026h1.422v-3.834h.252l4.194 3.834h1.962l-5.022-4.518 4.878-4.284h-1.98l-4.032 3.618h-.252v-7.416h-1.422zm13.328.252c2.358 0 3.402-1.314 3.942-2.43l-1.224-.594c-.432.972-1.17 1.764-2.682 1.764-1.746 0-3.006-1.134-3.06-3.024h7.164v-.648c0-2.682-1.728-4.374-4.23-4.374-2.574 0-4.374 1.836-4.374 4.554v.216c0 2.718 1.782 4.536 4.464 4.536m-3.006-5.454c.216-1.638 1.314-2.592 2.916-2.592 1.584 0 2.682.954 2.79 2.592zm9.709 5.202h1.422v-4.428c0-2.178 1.188-3.294 2.88-3.294 1.476 0 2.43.756 2.43 2.502v5.22h1.422v-5.328c0-2.358-1.548-3.636-3.492-3.636-1.8 0-2.646.81-3.024 1.656h-.252v-1.494h-1.386z" aria-label="check token" style="font-size:18px;font-family:&quot;Space Grotesk&quot;"/><path d="m284.596 311.34 15 6-15 6z" style="stroke:#000;stroke-width:1.5"/><path d="M111.771 317.341h181.825" style="stroke:#000;stroke-width:3"/><path d="M135.405 278.869c2.736 0 4.518-1.458 4.518-3.69 0-2.214-1.71-3.042-3.888-3.546l-.936-.234c-1.674-.414-2.664-.864-2.664-2.214s1.08-2.106 2.754-2.106c1.728 0 2.988.756 2.988 2.574v.756h1.494v-.756c0-2.574-1.944-3.888-4.482-3.888s-4.248 1.314-4.248 3.438 1.512 2.988 3.744 3.528l.936.234c1.692.396 2.808.864 2.808 2.25 0 1.35-1.062 2.34-3.024 2.34-1.926 0-3.276-.99-3.276-3.096v-.378h-1.494v.378c0 2.952 2.016 4.41 4.77 4.41m10.222-.252h2.34v-1.242h-1.962c-.378 0-.522-.18-.522-.54v-5.778h2.88v-1.242h-2.88v-3.132h-1.422v3.132h-2.646v1.242h2.646v6.012c0 .954.558 1.548 1.566 1.548m8.87.252c2.665 0 4.5-1.782 4.5-4.536v-.234c0-2.754-1.835-4.536-4.5-4.536-2.663 0-4.5 1.782-4.5 4.536v.234c0 2.754 1.837 4.536 4.5 4.536m0-1.278c-1.853 0-3.077-1.278-3.077-3.294v-.162c0-2.016 1.206-3.294 3.078-3.294 1.854 0 3.078 1.278 3.078 3.294v.162c0 2.016-1.224 3.294-3.078 3.294m7.144 1.026h1.422v-5.364c0-1.476.846-2.178 2.124-2.178h1.134v-1.296h-1.044c-1.062 0-1.692.342-1.998 1.116h-.252v-1.08h-1.386zm10.582.252c2.358 0 3.402-1.314 3.942-2.43l-1.224-.594c-.432.972-1.17 1.764-2.682 1.764-1.746 0-3.006-1.134-3.06-3.024h7.164v-.648c0-2.682-1.728-4.374-4.23-4.374-2.574 0-4.374 1.836-4.374 4.554v.216c0 2.718 1.782 4.536 4.464 4.536m-3.006-5.454c.216-1.638 1.314-2.592 2.916-2.592 1.584 0 2.682.954 2.79 2.592zm13.263 5.454c2.16 0 3.546-.972 3.546-2.7 0-1.71-1.458-2.286-3.312-2.61l-.738-.126c-1.116-.198-1.818-.522-1.818-1.368s.738-1.314 1.944-1.314c1.188 0 2.07.468 2.286 1.728l1.332-.342c-.36-1.638-1.638-2.574-3.618-2.574-2.016 0-3.348.936-3.348 2.52s1.35 2.286 3.078 2.592l.738.126c1.278.234 2.052.522 2.052 1.422s-.828 1.458-2.142 1.458c-1.332 0-2.52-.54-2.772-2.268l-1.35.306c.306 2.178 1.926 3.15 4.122 3.15m10.74 3.348h1.422v-4.986h.252c.432.81 1.368 1.638 3.204 1.638 2.304 0 4.158-1.728 4.158-4.536v-.234c0-2.826-1.872-4.536-4.158-4.536-1.836 0-2.772.828-3.24 1.71h-.252v-1.458h-1.386zm4.5-4.608c-1.818 0-3.096-1.224-3.096-3.312v-.162c0-2.088 1.278-3.312 3.096-3.312 1.8 0 3.078 1.224 3.078 3.312v.162c0 2.088-1.26 3.312-3.078 3.312m9.88 1.26c1.818 0 2.556-.864 2.934-1.566h.216v.09c0 .756.522 1.224 1.314 1.224h1.242v-1.206h-.81c-.324 0-.504-.18-.504-.54v-3.978c0-2.106-1.332-3.33-3.564-3.33-2.214 0-3.402 1.206-3.816 2.682l1.332.432c.27-1.134 1.044-1.89 2.466-1.89 1.458 0 2.178.774 2.178 2.016v.648h-2.97c-1.89 0-3.312.882-3.312 2.664 0 1.764 1.422 2.754 3.294 2.754m.162-1.224c-1.224 0-2.034-.576-2.034-1.566s.81-1.476 1.944-1.476h2.916v.198c0 1.8-1.134 2.844-2.826 2.844m8.403 4.572h5.4c1.008 0 1.584-.594 1.584-1.548v-10.854h-1.422v4.428c0 2.196-1.206 3.294-2.88 3.294-1.494 0-2.43-.738-2.43-2.484v-5.238h-1.422v5.346c0 2.358 1.53 3.618 3.474 3.618 1.8 0 2.628-.792 3.006-1.566h.252v3.204c0 .36-.144.54-.522.54h-5.04zm10.041-3.6h1.422v-12.6h-1.422zm8.566.252c2.664 0 4.5-1.782 4.5-4.536v-.234c0-2.754-1.836-4.536-4.5-4.536s-4.5 1.782-4.5 4.536v.234c0 2.754 1.836 4.536 4.5 4.536m0-1.278c-1.854 0-3.078-1.278-3.078-3.294v-.162c0-2.016 1.206-3.294 3.078-3.294 1.854 0 3.078 1.278 3.078 3.294v.162c0 2.016-1.224 3.294-3.078 3.294m9.843 1.278c1.818 0 2.556-.864 2.934-1.566h.216v.09c0 .756.522 1.224 1.314 1.224h1.242v-1.206h-.81c-.324 0-.504-.18-.504-.54v-3.978c0-2.106-1.332-3.33-3.564-3.33-2.214 0-3.402 1.206-3.816 2.682l1.332.432c.27-1.134 1.044-1.89 2.466-1.89 1.458 0 2.178.774 2.178 2.016v.648h-2.97c-1.89 0-3.312.882-3.312 2.664 0 1.764 1.422 2.754 3.294 2.754m.162-1.224c-1.224 0-2.034-.576-2.034-1.566s.81-1.476 1.944-1.476h2.916v.198c0 1.8-1.134 2.844-2.826 2.844m11.05 1.224c1.835 0 2.753-.828 3.24-1.71h.251v1.458h1.386v-12.6h-1.422v5.184h-.252c-.45-.81-1.368-1.638-3.204-1.638-2.304 0-4.158 1.728-4.158 4.536v.234c0 2.826 1.872 4.536 4.158 4.536m.377-1.26c-1.818 0-3.096-1.224-3.096-3.312v-.162c0-2.088 1.278-3.312 3.096-3.312s3.078 1.224 3.078 3.312v.162c0 2.088-1.278 3.312-3.078 3.312" aria-label="Stores payload" style="font-size:18px;font-family:&quot;Space Grotesk&quot;"/><path d="M132.49 301.585h2.43l1.943-7.848h.234l1.944 7.848h2.43l1.764-8.802h-1.44l-1.458 7.848h-.252l-1.926-7.848h-2.358l-1.926 7.848h-.252l-1.458-7.848h-1.44zm13.983-10.17c.63 0 1.098-.45 1.098-1.08 0-.648-.468-1.098-1.098-1.098-.612 0-1.08.45-1.08 1.098 0 .63.468 1.08 1.08 1.08m-.702 10.17h1.422v-8.802h-1.422zm7.738 0h2.34v-1.242h-1.962c-.378 0-.522-.18-.522-.54v-5.778h2.88v-1.242h-2.88v-3.132h-1.422v3.132h-2.646v1.242h2.646v6.012c0 .954.558 1.548 1.566 1.548m5.128 0h1.422v-4.428c0-2.178 1.188-3.294 2.88-3.294 1.476 0 2.43.756 2.43 2.502v5.22h1.422v-5.328c0-2.358-1.548-3.636-3.492-3.636-1.782 0-2.61.792-2.988 1.566h-.252v-5.202h-1.422zm19.077 0h2.34v-1.242h-1.962c-.378 0-.522-.18-.522-.54v-5.778h2.88v-1.242h-2.88v-3.132h-1.422v3.132h-2.646v1.242h2.646v6.012c0 .954.558 1.548 1.566 1.548m8.872.252c2.664 0 4.5-1.782 4.5-4.536v-.234c0-2.754-1.836-4.536-4.5-4.536s-4.5 1.782-4.5 4.536v.234c0 2.754 1.836 4.536 4.5 4.536m0-1.278c-1.854 0-3.078-1.278-3.078-3.294v-.162c0-2.016 1.206-3.294 3.078-3.294 1.854 0 3.078 1.278 3.078 3.294v.162c0 2.016-1.224 3.294-3.078 3.294m7.144 1.026h1.422v-3.834h.252l4.194 3.834h1.962l-5.022-4.518 4.878-4.284h-1.98l-4.032 3.618h-.252v-7.416h-1.422zm13.336.252c2.358 0 3.402-1.314 3.942-2.43l-1.224-.594c-.432.972-1.17 1.764-2.682 1.764-1.746 0-3.006-1.134-3.06-3.024h7.164v-.648c0-2.682-1.728-4.374-4.23-4.374-2.574 0-4.374 1.836-4.374 4.554v.216c0 2.718 1.782 4.536 4.464 4.536m-3.006-5.454c.216-1.638 1.314-2.592 2.916-2.592 1.584 0 2.682.954 2.79 2.592zm9.718 5.202h1.422v-4.428c0-2.178 1.188-3.294 2.88-3.294 1.476 0 2.43.756 2.43 2.502v5.22h1.422v-5.328c0-2.358-1.548-3.636-3.492-3.636-1.8 0-2.646.81-3.024 1.656h-.252v-1.494h-1.386z" aria-label="with token" style="font-size:18px;font-family:&quot;Space Grotesk&quot;"/><path d="m487.853 438.277 15 6-15 6z" style="stroke:#000;stroke-width:1.5"/><path d="M104.271 444.277h392.582" style="stroke:#000;stroke-width:3"/><path d="M127.905 405.805c2.736 0 4.518-1.458 4.518-3.69 0-2.214-1.71-3.042-3.888-3.546l-.936-.234c-1.674-.414-2.664-.864-2.664-2.214s1.08-2.106 2.754-2.106c1.728 0 2.988.756 2.988 2.574v.756h1.494v-.756c0-2.574-1.944-3.888-4.482-3.888s-4.248 1.314-4.248 3.438 1.512 2.988 3.744 3.528l.936.234c1.692.396 2.808.864 2.808 2.25 0 1.35-1.062 2.34-3.024 2.34-1.926 0-3.276-.99-3.276-3.096v-.378h-1.494v.378c0 2.952 2.016 4.41 4.77 4.41m10.953 0c2.358 0 3.402-1.314 3.942-2.43l-1.224-.594c-.432.972-1.17 1.764-2.682 1.764-1.746 0-3.006-1.134-3.06-3.024h7.164v-.648c0-2.682-1.728-4.374-4.23-4.374-2.574 0-4.374 1.836-4.374 4.554v.216c0 2.718 1.782 4.536 4.464 4.536m-3.006-5.454c.216-1.638 1.314-2.592 2.916-2.592 1.584 0 2.682.954 2.79 2.592zm9.657 5.202h1.422v-4.428c0-2.178 1.188-3.294 2.88-3.294 1.476 0 2.43.756 2.43 2.502v5.22h1.422v-5.328c0-2.358-1.548-3.636-3.492-3.636-1.8 0-2.646.81-3.024 1.656h-.252v-1.494h-1.386zm14.788.252c1.836 0 2.754-.828 3.24-1.71h.252v1.458h1.386v-12.6h-1.422v5.184h-.252c-.45-.81-1.368-1.638-3.204-1.638-2.304 0-4.158 1.728-4.158 4.536v.234c0 2.826 1.872 4.536 4.158 4.536m.378-1.26c-1.818 0-3.096-1.224-3.096-3.312v-.162c0-2.088 1.278-3.312 3.096-3.312s3.078 1.224 3.078 3.312v.162c0 2.088-1.278 3.312-3.078 3.312m11.06 1.26c2.16 0 3.547-.972 3.547-2.7 0-1.71-1.458-2.286-3.312-2.61l-.738-.126c-1.116-.198-1.818-.522-1.818-1.368s.738-1.314 1.944-1.314c1.188 0 2.07.468 2.286 1.728l1.332-.342c-.36-1.638-1.638-2.574-3.618-2.574-2.016 0-3.348.936-3.348 2.52s1.35 2.286 3.078 2.592l.738.126c1.278.234 2.052.522 2.052 1.422s-.828 1.458-2.142 1.458c-1.332 0-2.52-.54-2.772-2.268l-1.35.306c.306 2.178 1.926 3.15 4.122 3.15m10.62-.252h1.423v-5.292c0-1.584.918-2.448 2.214-2.448 1.224 0 1.944.738 1.944 1.908v5.832h1.422v-5.292c0-1.584.918-2.448 2.214-2.448 1.224 0 1.944.738 1.944 1.908v5.832h1.422v-5.958c0-1.872-1.242-3.006-2.988-3.006-1.494 0-2.268.684-2.664 1.548h-.252c-.396-.864-1.224-1.548-2.592-1.548-1.386 0-2.106.63-2.448 1.26h-.252v-1.098h-1.386zm19.54.252c2.358 0 3.402-1.314 3.942-2.43l-1.224-.594c-.432.972-1.17 1.764-2.682 1.764-1.746 0-3.006-1.134-3.06-3.024h7.164v-.648c0-2.682-1.728-4.374-4.23-4.374-2.574 0-4.374 1.836-4.374 4.554v.216c0 2.718 1.782 4.536 4.464 4.536m-3.006-5.454c.216-1.638 1.314-2.592 2.916-2.592 1.584 0 2.682.954 2.79 2.592zm13.203 5.454c2.16 0 3.546-.972 3.546-2.7 0-1.71-1.458-2.286-3.312-2.61l-.738-.126c-1.116-.198-1.818-.522-1.818-1.368s.738-1.314 1.944-1.314c1.188 0 2.07.468 2.286 1.728l1.332-.342c-.36-1.638-1.638-2.574-3.618-2.574-2.016 0-3.348.936-3.348 2.52s1.35 2.286 3.078 2.592l.738.126c1.278.234 2.052.522 2.052 1.422s-.828 1.458-2.142 1.458c-1.332 0-2.52-.54-2.772-2.268l-1.35.306c.306 2.178 1.926 3.15 4.122 3.15m9.513 0c2.16 0 3.546-.972 3.546-2.7 0-1.71-1.458-2.286-3.312-2.61l-.738-.126c-1.116-.198-1.818-.522-1.818-1.368s.738-1.314 1.944-1.314c1.188 0 2.07.468 2.286 1.728l1.332-.342c-.36-1.638-1.638-2.574-3.618-2.574-2.016 0-3.348.936-3.348 2.52s1.35 2.286 3.078 2.592l.738.126c1.278.234 2.052.522 2.052 1.422s-.828 1.458-2.142 1.458c-1.332 0-2.52-.54-2.772-2.268l-1.35.306c.306 2.178 1.926 3.15 4.122 3.15m8.595 0c1.818 0 2.556-.864 2.934-1.566h.216v.09c0 .756.522 1.224 1.314 1.224h1.242v-1.206h-.81c-.324 0-.504-.18-.504-.54v-3.978c0-2.106-1.332-3.33-3.564-3.33-2.214 0-3.402 1.206-3.816 2.682l1.332.432c.27-1.134 1.044-1.89 2.466-1.89 1.458 0 2.178.774 2.178 2.016v.648h-2.97c-1.89 0-3.312.882-3.312 2.664 0 1.764 1.422 2.754 3.294 2.754m.162-1.224c-1.224 0-2.034-.576-2.034-1.566s.81-1.476 1.944-1.476h2.916v.198c0 1.8-1.134 2.844-2.826 2.844m6.831-3.384c0 2.754 1.854 4.446 4.158 4.446 1.854 0 2.772-.846 3.204-1.638h.252v3.348q0 .54-.54.54h-5.598v1.26h5.976c1.008 0 1.548-.594 1.548-1.548V396.75h-1.35v1.458h-.252c-.468-.864-1.386-1.71-3.24-1.71-2.304 0-4.158 1.692-4.158 4.446zm4.536 3.186c-1.818 0-3.096-1.206-3.096-3.24v-.144c0-2.034 1.278-3.24 3.096-3.24s3.078 1.206 3.078 3.24v.144c0 2.034-1.278 3.24-3.078 3.24m11.511 1.422c2.358 0 3.402-1.314 3.942-2.43l-1.224-.594c-.432.972-1.17 1.764-2.682 1.764-1.746 0-3.006-1.134-3.06-3.024h7.164v-.648c0-2.682-1.728-4.374-4.23-4.374-2.574 0-4.374 1.836-4.374 4.554v.216c0 2.718 1.782 4.536 4.464 4.536m-3.006-5.454c.216-1.638 1.314-2.592 2.916-2.592 1.584 0 2.682.954 2.79 2.592z" aria-label="Sends message" style="font-size:18px;font-family:&quot;Space Grotesk&quot;"/><path d="M124.99 428.521h2.43l1.943-7.848h.234l1.944 7.848h2.43l1.764-8.802h-1.44l-1.458 7.848h-.252l-1.926-7.848h-2.358l-1.926 7.848h-.252l-1.458-7.848h-1.44zm13.983-10.17c.63 0 1.098-.45 1.098-1.08 0-.648-.468-1.098-1.098-1.098-.612 0-1.08.45-1.08 1.098 0 .63.468 1.08 1.08 1.08m-.702 10.17h1.422v-8.802h-1.422zm7.738 0h2.34v-1.242h-1.962c-.378 0-.522-.18-.522-.54v-5.778h2.88v-1.242h-2.88v-3.132h-1.422v3.132h-2.646v1.242h2.646v6.012c0 .954.558 1.548 1.566 1.548m5.128 0h1.422v-4.428c0-2.178 1.188-3.294 2.88-3.294 1.476 0 2.43.756 2.43 2.502v5.22h1.422v-5.328c0-2.358-1.548-3.636-3.492-3.636-1.782 0-2.61.792-2.988 1.566h-.252v-5.202h-1.422zm19.077 0h2.34v-1.242h-1.962c-.378 0-.522-.18-.522-.54v-5.778h2.88v-1.242h-2.88v-3.132h-1.422v3.132h-2.646v1.242h2.646v6.012c0 .954.558 1.548 1.566 1.548m8.872.252c2.664 0 4.5-1.782 4.5-4.536v-.234c0-2.754-1.836-4.536-4.5-4.536s-4.5 1.782-4.5 4.536v.234c0 2.754 1.836 4.536 4.5 4.536m0-1.278c-1.854 0-3.078-1.278-3.078-3.294v-.162c0-2.016 1.206-3.294 3.078-3.294 1.854 0 3.078 1.278 3.078 3.294v.162c0 2.016-1.224 3.294-3.078 3.294m7.144 1.026h1.422v-3.834h.252l4.194 3.834h1.962l-5.022-4.518 4.878-4.284h-1.98l-4.032 3.618h-.252v-7.416h-1.422zm13.336.252c2.358 0 3.402-1.314 3.942-2.43l-1.224-.594c-.432.972-1.17 1.764-2.682 1.764-1.746 0-3.006-1.134-3.06-3.024h7.164v-.648c0-2.682-1.728-4.374-4.23-4.374-2.574 0-4.374 1.836-4.374 4.554v.216c0 2.718 1.782 4.536 4.464 4.536m-3.006-5.454c.216-1.638 1.314-2.592 2.916-2.592 1.584 0 2.682.954 2.79 2.592zm9.718 5.202h1.422v-4.428c0-2.178 1.188-3.294 2.88-3.294 1.476 0 2.43.756 2.43 2.502v5.22h1.422v-5.328c0-2.358-1.548-3.636-3.492-3.636-1.8 0-2.646.81-3.024 1.656h-.252v-1.494h-1.386z" aria-label="with token" style="font-size:18px;font-family:&quot;Space Grotesk&quot;"/><path d="m708.913 520.213 15 6-15 6z" style="stroke:#000;stroke-width:1.5"/><path d="M513.353 526.213h204.56" style="stroke:#000;stroke-width:3"/><path d="M532.793 487.49h1.512v-5.635h5.616v-1.368h-5.616v-4.23h6.102v-1.368h-7.614zm13.796.251c2.664 0 4.5-1.782 4.5-4.536v-.234c0-2.754-1.836-4.536-4.5-4.536s-4.5 1.782-4.5 4.536v.234c0 2.754 1.836 4.536 4.5 4.536m0-1.278c-1.854 0-3.078-1.278-3.078-3.294v-.162c0-2.016 1.206-3.294 3.078-3.294 1.854 0 3.078 1.278 3.078 3.294v.162c0 2.016-1.224 3.294-3.078 3.294m7.117 1.026h1.422v-5.364c0-1.476.846-2.178 2.124-2.178h1.134v-1.296h-1.044c-1.062 0-1.692.342-1.998 1.116h-.252v-1.08h-1.386zm8.071 0h2.43l1.944-7.848h.234l1.944 7.848h2.43l1.764-8.802h-1.44l-1.458 7.848h-.252l-1.926-7.848h-2.358l-1.926 7.848h-.252l-1.458-7.848h-1.44zm15.793.252c1.818 0 2.556-.864 2.934-1.566h.216v.09c0 .756.522 1.224 1.314 1.224h1.242v-1.206h-.81c-.324 0-.504-.18-.504-.54v-3.978c0-2.106-1.332-3.33-3.564-3.33-2.214 0-3.402 1.206-3.816 2.682l1.332.432c.27-1.134 1.044-1.89 2.466-1.89 1.458 0 2.178.774 2.178 2.016v.648h-2.97c-1.89 0-3.312.882-3.312 2.664 0 1.764 1.422 2.754 3.294 2.754m.162-1.224c-1.224 0-2.034-.576-2.034-1.566s.81-1.476 1.944-1.476h2.916v.198c0 1.8-1.134 2.844-2.826 2.844m7.55.972h1.422v-5.364c0-1.476.846-2.178 2.124-2.178h1.134v-1.296h-1.044c-1.062 0-1.692.342-1.998 1.116h-.252v-1.08h-1.386zm10.249.252c1.836 0 2.754-.828 3.24-1.71h.252v1.458h1.386v-12.6h-1.422v5.184h-.252c-.45-.81-1.368-1.638-3.204-1.638-2.304 0-4.158 1.728-4.158 4.536v.234c0 2.826 1.872 4.536 4.158 4.536m.378-1.26c-1.818 0-3.096-1.224-3.096-3.312v-.162c0-2.088 1.278-3.312 3.096-3.312s3.078 1.224 3.078 3.312v.162c0 2.088-1.278 3.312-3.078 3.312m11.095 1.26c2.16 0 3.546-.972 3.546-2.7 0-1.71-1.458-2.286-3.312-2.61l-.738-.126c-1.116-.198-1.818-.522-1.818-1.368s.738-1.314 1.944-1.314c1.188 0 2.07.468 2.286 1.728l1.332-.342c-.36-1.638-1.638-2.574-3.618-2.574-2.016 0-3.348.936-3.348 2.52s1.35 2.286 3.078 2.592l.738.126c1.278.234 2.052.522 2.052 1.422s-.828 1.458-2.142 1.458c-1.332 0-2.52-.54-2.772-2.268l-1.35.306c.306 2.178 1.926 3.15 4.122 3.15m10.689-.252h1.422v-5.292c0-1.584.918-2.448 2.214-2.448 1.224 0 1.944.738 1.944 1.908v5.832h1.422v-5.292c0-1.584.918-2.448 2.214-2.448 1.224 0 1.944.738 1.944 1.908v5.832h1.422v-5.958c0-1.872-1.242-3.006-2.988-3.006-1.494 0-2.268.684-2.664 1.548h-.252c-.396-.864-1.224-1.548-2.592-1.548-1.386 0-2.106.63-2.448 1.26h-.252v-1.098h-1.386zm19.573.252c2.358 0 3.402-1.314 3.942-2.43l-1.224-.594c-.432.972-1.17 1.764-2.682 1.764-1.746 0-3.006-1.134-3.06-3.024h7.164v-.648c0-2.682-1.728-4.374-4.23-4.374-2.574 0-4.374 1.836-4.374 4.554v.216c0 2.718 1.782 4.536 4.464 4.536m-3.006-5.454c.216-1.638 1.314-2.592 2.916-2.592 1.584 0 2.682.954 2.79 2.592zm13.237 5.454c2.16 0 3.546-.972 3.546-2.7 0-1.71-1.458-2.286-3.312-2.61l-.738-.126c-1.116-.198-1.818-.522-1.818-1.368s.738-1.314 1.944-1.314c1.188 0 2.07.468 2.286 1.728l1.332-.342c-.36-1.638-1.638-2.574-3.618-2.574-2.016 0-3.348.936-3.348 2.52s1.35 2.286 3.078 2.592l.738.126c1.278.234 2.052.522 2.052 1.422s-.828 1.458-2.142 1.458c-1.332 0-2.52-.54-2.772-2.268l-1.35.306c.306 2.178 1.926 3.15 4.122 3.15m9.548 0c2.16 0 3.546-.972 3.546-2.7 0-1.71-1.458-2.286-3.312-2.61l-.738-.126c-1.116-.198-1.818-.522-1.818-1.368s.738-1.314 1.944-1.314c1.188 0 2.07.468 2.286 1.728l1.332-.342c-.36-1.638-1.638-2.574-3.618-2.574-2.016 0-3.348.936-3.348 2.52s1.35 2.286 3.078 2.592l.738.126c1.278.234 2.052.522 2.052 1.422s-.828 1.458-2.142 1.458c-1.332 0-2.52-.54-2.772-2.268l-1.35.306c.306 2.178 1.926 3.15 4.122 3.15m8.629 0c1.818 0 2.556-.864 2.934-1.566h.216v.09c0 .756.522 1.224 1.314 1.224h1.242v-1.206h-.81c-.324 0-.504-.18-.504-.54v-3.978c0-2.106-1.332-3.33-3.564-3.33-2.214 0-3.402 1.206-3.816 2.682l1.332.432c.27-1.134 1.044-1.89 2.466-1.89 1.458 0 2.178.774 2.178 2.016v.648h-2.97c-1.89 0-3.312.882-3.312 2.664 0 1.764 1.422 2.754 3.294 2.754m.162-1.224c-1.224 0-2.034-.576-2.034-1.566s.81-1.476 1.944-1.476h2.916v.198c0 1.8-1.134 2.844-2.826 2.844m6.865-3.384c0 2.754 1.854 4.446 4.158 4.446 1.854 0 2.772-.846 3.204-1.638h.252v3.348q0 .54-.54.54h-5.598v1.26h5.976c1.008 0 1.548-.594 1.548-1.548v-10.854h-1.35v1.458h-.252c-.468-.864-1.386-1.71-3.24-1.71-2.304 0-4.158 1.692-4.158 4.446zm4.536 3.186c-1.818 0-3.096-1.206-3.096-3.24v-.144c0-2.034 1.278-3.24 3.096-3.24s3.078 1.206 3.078 3.24v.144c0 2.034-1.278 3.24-3.078 3.24m11.545 1.422c2.358 0 3.402-1.314 3.942-2.43l-1.224-.594c-.432.972-1.17 1.764-2.682 1.764-1.746 0-3.006-1.134-3.06-3.024h7.164v-.648c0-2.682-1.728-4.374-4.23-4.374-2.574 0-4.374 1.836-4.374 4.554v.216c0 2.718 1.782 4.536 4.464 4.536m-3.006-5.454c.216-1.638 1.314-2.592 2.916-2.592 1.584 0 2.682.954 2.79 2.592z" aria-label="Forwards message" style="font-size:18px;font-family:&quot;Space Grotesk&quot;"/><path d="M534.071 510.457h2.43l1.944-7.848h.234l1.944 7.848h2.43l1.764-8.802h-1.44l-1.458 7.848h-.252l-1.926-7.848h-2.358l-1.926 7.848h-.252l-1.458-7.848h-1.44zm13.984-10.17c.63 0 1.098-.45 1.098-1.08 0-.648-.468-1.098-1.098-1.098-.612 0-1.08.45-1.08 1.098 0 .63.468 1.08 1.08 1.08m-.702 10.17h1.422v-8.802h-1.422zm7.738 0h2.34v-1.242h-1.962c-.378 0-.522-.18-.522-.54v-5.778h2.88v-1.242h-2.88v-3.132h-1.422v3.132h-2.646v1.242h2.646v6.012c0 .954.558 1.548 1.566 1.548m5.128 0h1.422v-4.428c0-2.178 1.188-3.294 2.88-3.294 1.476 0 2.43.756 2.43 2.502v5.22h1.422v-5.328c0-2.358-1.548-3.636-3.492-3.636-1.782 0-2.61.792-2.988 1.566h-.252v-5.202h-1.422zm19.077 0h2.34v-1.242h-1.962c-.378 0-.522-.18-.522-.54v-5.778h2.88v-1.242h-2.88v-3.132h-1.422v3.132h-2.646v1.242h2.646v6.012c0 .954.558 1.548 1.566 1.548m8.872.252c2.664 0 4.5-1.782 4.5-4.536v-.234c0-2.754-1.836-4.536-4.5-4.536s-4.5 1.782-4.5 4.536v.234c0 2.754 1.836 4.536 4.5 4.536m0-1.278c-1.854 0-3.078-1.278-3.078-3.294v-.162c0-2.016 1.206-3.294 3.078-3.294 1.854 0 3.078 1.278 3.078 3.294v.162c0 2.016-1.224 3.294-3.078 3.294m7.144 1.026h1.422v-3.834h.252l4.194 3.834h1.962l-5.022-4.518 4.878-4.284h-1.98l-4.032 3.618h-.252v-7.416h-1.422zm13.336.252c2.358 0 3.402-1.314 3.942-2.43l-1.224-.594c-.432.972-1.17 1.764-2.682 1.764-1.746 0-3.006-1.134-3.06-3.024h7.164v-.648c0-2.682-1.728-4.374-4.23-4.374-2.574 0-4.374 1.836-4.374 4.554v.216c0 2.718 1.782 4.536 4.464 4.536m-3.006-5.454c.216-1.638 1.314-2.592 2.916-2.592 1.584 0 2.682.954 2.79 2.592zm9.718 5.202h1.422v-4.428c0-2.178 1.188-3.294 2.88-3.294 1.476 0 2.43.756 2.43 2.502v5.22h1.422v-5.328c0-2.358-1.548-3.636-3.492-3.636-1.8 0-2.646.81-3.024 1.656h-.252v-1.494h-1.386z" aria-label="with token" style="font-size:18px;font-family:&quot;Space Grotesk&quot;"/><path d="m334.096 602.15-15 6 15 6z" style="stroke:#000;stroke-width:1.5"/><path d="M325.096 608.15h400.317" style="stroke:#000;stroke-width:3"/><path d="M352.036 569.426h1.512v-5.166h4.356c.81 0 1.188.396 1.188 1.116v4.05h1.494v-4.23c0-1.08-.63-1.602-1.494-1.638v-.252c1.08-.342 1.998-1.278 1.998-2.934v-.198c0-2.088-1.638-3.348-3.96-3.348h-5.094zm1.512-6.534v-4.698h3.438c1.674 0 2.592.828 2.592 2.286v.126c0 1.44-.954 2.286-2.592 2.286zm14.03 6.786c2.358 0 3.402-1.314 3.942-2.43l-1.224-.594c-.432.972-1.17 1.764-2.682 1.764-1.746 0-3.006-1.134-3.06-3.024h7.164v-.648c0-2.682-1.728-4.374-4.23-4.374-2.574 0-4.374 1.836-4.374 4.554v.216c0 2.718 1.782 4.536 4.464 4.536m-3.006-5.454c.216-1.638 1.314-2.592 2.916-2.592 1.584 0 2.682.954 2.79 2.592zm12.608 5.202h2.34v-1.242h-1.962c-.378 0-.522-.18-.522-.54v-5.778h2.88v-1.242h-2.88v-3.132h-1.422v3.132h-2.646v1.242h2.646v6.012c0 .954.558 1.548 1.566 1.548m5.138 0h1.422v-5.364c0-1.476.846-2.178 2.124-2.178h1.134v-1.296h-1.044c-1.062 0-1.692.342-1.998 1.116h-.252v-1.08h-1.386zm7.586-10.17c.63 0 1.098-.45 1.098-1.08 0-.648-.468-1.098-1.098-1.098-.612 0-1.08.45-1.08 1.098 0 .63.468 1.08 1.08 1.08m-.702 10.17h1.422v-8.802h-1.422zm8.54.252c2.358 0 3.402-1.314 3.942-2.43l-1.224-.594c-.432.972-1.17 1.764-2.682 1.764-1.746 0-3.006-1.134-3.06-3.024h7.164v-.648c0-2.682-1.728-4.374-4.23-4.374-2.574 0-4.374 1.836-4.374 4.554v.216c0 2.718 1.782 4.536 4.464 4.536m-3.006-5.454c.216-1.638 1.314-2.592 2.916-2.592 1.584 0 2.682.954 2.79 2.592zm11.6 5.202h2.268l3.15-8.802h-1.512l-2.646 7.74h-.252l-2.646-7.74h-1.512zm11.24.252c2.358 0 3.402-1.314 3.942-2.43l-1.224-.594c-.432.972-1.17 1.764-2.682 1.764-1.746 0-3.006-1.134-3.06-3.024h7.164v-.648c0-2.682-1.728-4.374-4.23-4.374-2.574 0-4.374 1.836-4.374 4.554v.216c0 2.718 1.782 4.536 4.464 4.536m-3.006-5.454c.216-1.638 1.314-2.592 2.916-2.592 1.584 0 2.682.954 2.79 2.592zm13.274 5.454c2.16 0 3.546-.972 3.546-2.7 0-1.71-1.458-2.286-3.312-2.61l-.738-.126c-1.116-.198-1.818-.522-1.818-1.368s.738-1.314 1.944-1.314c1.188 0 2.07.468 2.286 1.728l1.332-.342c-.36-1.638-1.638-2.574-3.618-2.574-2.016 0-3.348.936-3.348 2.52s1.35 2.286 3.078 2.592l.738.126c1.278.234 2.052.522 2.052 1.422s-.828 1.458-2.142 1.458c-1.332 0-2.52-.54-2.772-2.268l-1.35.306c.306 2.178 1.926 3.15 4.122 3.15m10.762 3.348h1.422v-4.986h.252c.432.81 1.368 1.638 3.204 1.638 2.304 0 4.158-1.728 4.158-4.536v-.234c0-2.826-1.872-4.536-4.158-4.536-1.836 0-2.772.828-3.24 1.71h-.252v-1.458h-1.386zm4.5-4.608c-1.818 0-3.096-1.224-3.096-3.312v-.162c0-2.088 1.278-3.312 3.096-3.312 1.8 0 3.078 1.224 3.078 3.312v.162c0 2.088-1.26 3.312-3.078 3.312m9.89 1.26c1.818 0 2.556-.864 2.934-1.566h.216v.09c0 .756.522 1.224 1.314 1.224h1.242v-1.206h-.81c-.324 0-.504-.18-.504-.54v-3.978c0-2.106-1.332-3.33-3.564-3.33-2.214 0-3.402 1.206-3.816 2.682l1.332.432c.27-1.134 1.044-1.89 2.466-1.89 1.458 0 2.178.774 2.178 2.016v.648h-2.97c-1.89 0-3.312.882-3.312 2.664 0 1.764 1.422 2.754 3.294 2.754m.162-1.224c-1.224 0-2.034-.576-2.034-1.566s.81-1.476 1.944-1.476h2.916v.198c0 1.8-1.134 2.844-2.826 2.844m8.414 4.572h5.4c1.008 0 1.584-.594 1.584-1.548v-10.854h-1.422v4.428c0 2.196-1.206 3.294-2.88 3.294-1.494 0-2.43-.738-2.43-2.484v-5.238h-1.422v5.346c0 2.358 1.53 3.618 3.474 3.618 1.8 0 2.628-.792 3.006-1.566h.252v3.204c0 .36-.144.54-.522.54h-5.04zm10.052-3.6h1.422v-12.6h-1.422zm8.576.252c2.664 0 4.5-1.782 4.5-4.536v-.234c0-2.754-1.836-4.536-4.5-4.536s-4.5 1.782-4.5 4.536v.234c0 2.754 1.836 4.536 4.5 4.536m0-1.278c-1.854 0-3.078-1.278-3.078-3.294v-.162c0-2.016 1.206-3.294 3.078-3.294 1.854 0 3.078 1.278 3.078 3.294v.162c0 2.016-1.224 3.294-3.078 3.294m9.853 1.278c1.818 0 2.556-.864 2.934-1.566h.216v.09c0 .756.522 1.224 1.314 1.224h1.242v-1.206h-.81c-.324 0-.504-.18-.504-.54v-3.978c0-2.106-1.332-3.33-3.564-3.33-2.214 0-3.402 1.206-3.816 2.682l1.332.432c.27-1.134 1.044-1.89 2.466-1.89 1.458 0 2.178.774 2.178 2.016v.648h-2.97c-1.89 0-3.312.882-3.312 2.664 0 1.764 1.422 2.754 3.294 2.754m.162-1.224c-1.224 0-2.034-.576-2.034-1.566s.81-1.476 1.944-1.476h2.916v.198c0 1.8-1.134 2.844-2.826 2.844m11.06 1.224c1.836 0 2.754-.828 3.24-1.71h.252v1.458h1.386v-12.6h-1.422v5.184h-.252c-.45-.81-1.368-1.638-3.204-1.638-2.304 0-4.158 1.728-4.158 4.536v.234c0 2.826 1.872 4.536 4.158 4.536m.378-1.26c-1.818 0-3.096-1.224-3.096-3.312v-.162c0-2.088 1.278-3.312 3.096-3.312s3.078 1.224 3.078 3.312v.162c0 2.088-1.278 3.312-3.078 3.312" aria-label="Retrieves payload" style="font-size:18px;font-family:&quot;Space Grotesk&quot;"/><path d="M353.314 592.394h2.43l1.944-7.848h.234l1.944 7.848h2.43l1.764-8.802h-1.44l-1.458 7.848h-.252l-1.926-7.848h-2.358l-1.926 7.848h-.252l-1.458-7.848h-1.44zm13.984-10.17c.63 0 1.098-.45 1.098-1.08 0-.648-.468-1.098-1.098-1.098-.612 0-1.08.45-1.08 1.098 0 .63.468 1.08 1.08 1.08m-.702 10.17h1.422v-8.802h-1.422zm7.738 0h2.34v-1.242h-1.962c-.378 0-.522-.18-.522-.54v-5.778h2.88v-1.242h-2.88v-3.132h-1.422v3.132h-2.646v1.242h2.646v6.012c0 .954.558 1.548 1.566 1.548m5.128 0h1.422v-4.428c0-2.178 1.188-3.294 2.88-3.294 1.476 0 2.43.756 2.43 2.502v5.22h1.422v-5.328c0-2.358-1.547-3.636-3.491-3.636-1.782 0-2.61.792-2.988 1.566h-.252v-5.202h-1.422zm19.077 0h2.34v-1.242h-1.962c-.378 0-.522-.18-.522-.54v-5.778h2.88v-1.242h-2.88v-3.132h-1.422v3.132h-2.646v1.242h2.646v6.012c0 .954.558 1.548 1.566 1.548m8.872.252c2.664 0 4.5-1.782 4.5-4.536v-.234c0-2.754-1.836-4.536-4.5-4.536s-4.5 1.782-4.5 4.536v.234c0 2.754 1.836 4.536 4.5 4.536m0-1.278c-1.854 0-3.078-1.278-3.078-3.294v-.162c0-2.016 1.206-3.294 3.078-3.294 1.854 0 3.078 1.278 3.078 3.294v.162c0 2.016-1.224 3.294-3.078 3.294m7.144 1.026h1.422v-3.834h.252l4.194 3.834h1.962l-5.022-4.518 4.878-4.284h-1.98l-4.032 3.618h-.252v-7.416h-1.422zm13.336.252c2.358 0 3.402-1.314 3.942-2.43l-1.224-.594c-.432.972-1.17 1.764-2.682 1.764-1.746 0-3.006-1.134-3.06-3.024h7.164v-.648c0-2.682-1.728-4.374-4.23-4.374-2.574 0-4.374 1.836-4.374 4.554v.216c0 2.718 1.782 4.536 4.464 4.536m-3.006-5.454c.216-1.638 1.314-2.592 2.916-2.592 1.584 0 2.682.954 2.79 2.592zm9.718 5.202h1.422v-4.428c0-2.178 1.188-3.294 2.88-3.294 1.476 0 2.43.756 2.43 2.502v5.22h1.422v-5.328c0-2.358-1.548-3.636-3.492-3.636-1.8 0-2.646.81-3.024 1.656h-.252v-1.494h-1.386z" aria-label="with token" style="font-size:18px;font-family:&quot;Space Grotesk&quot;"/><path d="m708.913 661.118 15 6-15 6z" style="stroke:#000;stroke-width:1.5"/><path d="M310.096 667.118h407.817" style="stroke:#000;stroke-width:3;stroke-dasharray:2,2"/><path d="M329.536 651.362h1.512v-5.076h3.312c2.214 0 3.96-1.35 3.96-3.636v-.234c0-2.304-1.71-3.654-3.96-3.654h-4.824zm1.512-6.444v-4.788h3.15c1.638 0 2.61.846 2.61 2.304v.18c0 1.476-1.008 2.304-2.61 2.304zm11.976 6.696c1.818 0 2.556-.864 2.934-1.566h.216v.09c0 .756.522 1.224 1.314 1.224h1.242v-1.206h-.81c-.324 0-.504-.18-.504-.54v-3.978c0-2.106-1.332-3.33-3.564-3.33-2.214 0-3.402 1.206-3.816 2.682l1.332.432c.27-1.134 1.044-1.89 2.466-1.89 1.458 0 2.178.774 2.178 2.016v.648h-2.97c-1.89 0-3.312.882-3.312 2.664 0 1.764 1.422 2.754 3.294 2.754m.162-1.224c-1.224 0-2.034-.576-2.034-1.566s.81-1.476 1.944-1.476h2.916v.198c0 1.8-1.134 2.844-2.826 2.844m8.43 4.572h5.4c1.008 0 1.584-.594 1.584-1.548V642.56h-1.422v4.428c0 2.196-1.206 3.294-2.88 3.294-1.494 0-2.43-.738-2.43-2.484v-5.238h-1.422v5.346c0 2.358 1.53 3.618 3.474 3.618 1.8 0 2.628-.792 3.006-1.566h.252v3.204c0 .36-.144.54-.522.54h-5.04zm10.069-3.6h1.422v-12.6h-1.422zm8.592.252c2.664 0 4.5-1.782 4.5-4.536v-.234c0-2.754-1.836-4.536-4.5-4.536s-4.5 1.782-4.5 4.536v.234c0 2.754 1.836 4.536 4.5 4.536m0-1.278c-1.854 0-3.078-1.278-3.078-3.294v-.162c0-2.016 1.206-3.294 3.078-3.294 1.854 0 3.078 1.278 3.078 3.294v.162c0 2.016-1.224 3.294-3.078 3.294m9.87 1.278c1.818 0 2.556-.864 2.934-1.566h.216v.09c0 .756.522 1.224 1.314 1.224h1.242v-1.206h-.81c-.324 0-.504-.18-.504-.54v-3.978c0-2.106-1.332-3.33-3.564-3.33-2.214 0-3.402 1.206-3.816 2.682l1.332.432c.27-1.134 1.044-1.89 2.466-1.89 1.458 0 2.178.774 2.178 2.016v.648h-2.97c-1.89 0-3.312.882-3.312 2.664 0 1.764 1.422 2.754 3.294 2.754m.162-1.224c-1.224 0-2.034-.576-2.034-1.566s.81-1.476 1.944-1.476h2.916v.198c0 1.8-1.134 2.844-2.826 2.844m11.076 1.224c1.836 0 2.754-.828 3.24-1.71h.252v1.458h1.386v-12.6h-1.422v5.184h-.252c-.45-.81-1.368-1.638-3.204-1.638-2.304 0-4.158 1.728-4.158 4.536v.234c0 2.826 1.872 4.536 4.158 4.536m.378-1.26c-1.818 0-3.096-1.224-3.096-3.312v-.162c0-2.088 1.278-3.312 3.096-3.312s3.078 1.224 3.078 3.312v.162c0 2.088-1.278 3.312-3.078 3.312" aria-label="Payload" style="font-size:18px;font-family:&quot;Space Grotesk&quot;"/></svg>