<svg xmlns="http://www.w3.org/2000/svg" width="1030.5" height="253.5" preserveAspectRatio="none" style="width:1030px;height:253px" viewBox="0 0 1030 253"><path fill="#DEDEDE" d="m48 54.75 15-15h232.5v150l-15 15H48z" style="stroke:#000;stroke-width:3"/><path d="m280.5 54.75 15-15M48 54.75h232.5M280.5 54.75v150" style="stroke:#000;stroke-width:3"/><path d="M106.764 84.462h5.184c3.384 0 5.184-1.728 5.184-5.112v-2.376c0-3.384-1.8-5.112-5.184-5.112h-5.184v2.088h1.656v8.424h-1.656zm4.032-2.16v-8.28h1.188c1.908 0 2.772 1.044 2.772 2.88v2.52c0 1.836-.864 2.88-2.772 2.88zm11.262 2.412c1.872 0 2.43-1.008 2.592-1.458h.342v.018c0 .72.648 1.188 1.53 1.188h1.512V82.59h-.72c-.324 0-.504-.18-.504-.54v-3.33c0-2.232-1.476-3.438-3.816-3.438-2.322 0-3.492 1.17-3.924 2.52l2.088.702c.162-.81.666-1.386 1.8-1.386 1.152 0 1.656.612 1.656 1.44v.504h-2.448c-2.016 0-3.456.954-3.456 2.79s1.44 2.862 3.348 2.862m.396-1.836c-.972 0-1.476-.45-1.476-1.098s.504-1.026 1.35-1.026h2.286v.18c0 1.188-.9 1.944-2.16 1.944m10.11 1.584h2.52V82.59h-1.728c-.324 0-.504-.18-.504-.54v-4.644h2.448v-1.872h-2.448v-2.772h-2.268v2.772h-2.232v1.872h2.232v5.04c0 1.224.792 2.016 1.98 2.016m7.662.252c1.872 0 2.43-1.008 2.592-1.458h.342v.018c0 .72.648 1.188 1.53 1.188h1.512V82.59h-.72c-.324 0-.504-.18-.504-.54v-3.33c0-2.232-1.476-3.438-3.816-3.438-2.322 0-3.492 1.17-3.924 2.52l2.088.702c.162-.81.666-1.386 1.8-1.386 1.152 0 1.656.612 1.656 1.44v.504h-2.448c-2.016 0-3.456.954-3.456 2.79s1.44 2.862 3.348 2.862m.396-1.836c-.972 0-1.476-.45-1.476-1.098s.504-1.026 1.35-1.026h2.286v.18c0 1.188-.9 1.944-2.16 1.944m16.728 1.836c3.096 0 4.86-1.8 4.86-4.752v-.252h-2.34v.324c0 1.476-.828 2.556-2.52 2.556s-2.7-1.116-2.7-2.88v-3.096c0-1.764 1.008-2.88 2.7-2.88s2.52 1.08 2.52 2.556v.18h2.34v-.108c0-2.952-1.764-4.752-4.86-4.752-3.132 0-5.076 1.8-5.076 5.04v3.024c0 3.24 1.944 5.04 5.076 5.04m11.046 0c2.448 0 3.51-1.386 4.014-2.34l-1.854-.972c-.306.684-.828 1.332-2.088 1.332s-2.214-.846-2.268-2.07h6.498v-.774c0-2.736-1.71-4.608-4.338-4.608-2.664 0-4.464 1.8-4.464 4.608v.216c0 2.808 1.818 4.608 4.5 4.608m-2.178-5.742c.162-1.026.9-1.71 2.124-1.71 1.17 0 1.944.684 2.052 1.71zm8.598 5.49h2.268v-4.536c0-1.656.81-2.628 2.196-2.628 1.224 0 1.908.666 1.908 2.016v5.148h2.268v-5.328c0-2.214-1.386-3.744-3.474-3.744-1.602 0-2.322.702-2.61 1.314h-.324v-1.17h-2.232zm14.358 0h2.52V82.59h-1.728c-.324 0-.504-.18-.504-.54v-4.644h2.448v-1.872h-2.448v-2.772h-2.268v2.772h-2.232v1.872h2.232v5.04c0 1.224.792 2.016 1.98 2.016m4.89 0h2.268v-5.076c0-1.26.828-1.872 1.98-1.872h1.116v-2.016h-1.08c-.828 0-1.476.324-1.728 1.044h-.324v-1.008h-2.232zm10.974.252c2.448 0 3.51-1.386 4.014-2.34l-1.854-.972c-.306.684-.828 1.332-2.088 1.332s-2.214-.846-2.268-2.07h6.498v-.774c0-2.736-1.71-4.608-4.338-4.608-2.664 0-4.464 1.8-4.464 4.608v.216c0 2.808 1.818 4.608 4.5 4.608m-2.178-5.742c.162-1.026.9-1.71 2.124-1.71 1.17 0 1.944.684 2.052 1.71zm12.768 5.49h9.144V82.41h-6.786v-.072c0-.918.432-1.44 1.98-1.926l1.152-.36c2.142-.666 3.762-1.854 3.762-4.284v-.18c0-2.412-1.998-3.978-4.59-3.978s-4.626 1.566-4.626 4.284v.288h2.304v-.324c0-1.422.918-2.196 2.322-2.196s2.286.774 2.286 1.962v.072c0 1.152-.738 1.908-2.052 2.322l-1.206.378c-2.376.738-3.69 1.926-3.69 4.554z" aria-label="Data Centre 2" style="font-weight:700;font-size:18px;font-family:&quot;Space Grotesk&quot;"/><path fill="#DEDEDE" d="m484.5 48 15-15h489v163.5l-15 15h-489z" style="stroke:#000;stroke-width:3"/><path d="m973.5 48 15-15M484.5 48h489M973.5 48v163.5" style="stroke:#000;stroke-width:3"/><path d="M672.792 77.712h5.184c3.384 0 5.184-1.728 5.184-5.112v-2.376c0-3.384-1.8-5.112-5.184-5.112h-5.184V67.2h1.656v8.424h-1.656zm4.032-2.16v-8.28h1.188c1.908 0 2.772 1.044 2.772 2.88v2.52c0 1.836-.864 2.88-2.772 2.88zm11.262 2.412c1.872 0 2.43-1.008 2.592-1.458h.342v.018c0 .72.648 1.188 1.53 1.188h1.512V75.84h-.72c-.324 0-.504-.18-.504-.54v-3.33c0-2.232-1.476-3.438-3.816-3.438-2.322 0-3.492 1.17-3.924 2.52l2.088.702c.162-.81.666-1.386 1.8-1.386 1.152 0 1.656.612 1.656 1.44v.504h-2.448c-2.016 0-3.456.954-3.456 2.79s1.44 2.862 3.348 2.862m.396-1.836c-.972 0-1.476-.45-1.476-1.098s.504-1.026 1.35-1.026h2.286v.18c0 1.188-.9 1.944-2.16 1.944m10.11 1.584h2.52V75.84h-1.728c-.324 0-.504-.18-.504-.54v-4.644h2.448v-1.872h-2.448v-2.772h-2.268v2.772h-2.232v1.872h2.232v5.04c0 1.224.792 2.016 1.98 2.016m7.662.252c1.872 0 2.43-1.008 2.592-1.458h.342v.018c0 .72.648 1.188 1.53 1.188h1.512V75.84h-.72c-.324 0-.504-.18-.504-.54v-3.33c0-2.232-1.476-3.438-3.816-3.438-2.322 0-3.492 1.17-3.924 2.52l2.088.702c.162-.81.666-1.386 1.8-1.386 1.152 0 1.656.612 1.656 1.44v.504h-2.448c-2.016 0-3.456.954-3.456 2.79s1.44 2.862 3.348 2.862m.396-1.836c-.972 0-1.476-.45-1.476-1.098s.504-1.026 1.35-1.026h2.286v.18c0 1.188-.9 1.944-2.16 1.944m16.728 1.836c3.096 0 4.86-1.8 4.86-4.752v-.252h-2.34v.324c0 1.476-.828 2.556-2.52 2.556s-2.7-1.116-2.7-2.88v-3.096c0-1.764 1.008-2.88 2.7-2.88s2.52 1.08 2.52 2.556v.18h2.34v-.108c0-2.952-1.764-4.752-4.86-4.752-3.132 0-5.076 1.8-5.076 5.04v3.024c0 3.24 1.944 5.04 5.076 5.04m11.046 0c2.448 0 3.51-1.386 4.014-2.34l-1.854-.972c-.306.684-.828 1.332-2.088 1.332s-2.214-.846-2.268-2.07h6.498v-.774c0-2.736-1.71-4.608-4.338-4.608-2.664 0-4.464 1.8-4.464 4.608v.216c0 2.808 1.818 4.608 4.5 4.608m-2.178-5.742c.162-1.026.9-1.71 2.124-1.71 1.17 0 1.944.684 2.052 1.71zm8.598 5.49h2.268v-4.536c0-1.656.81-2.628 2.196-2.628 1.224 0 1.908.666 1.908 2.016v5.148h2.268v-5.328c0-2.214-1.386-3.744-3.474-3.744-1.602 0-2.322.702-2.61 1.314h-.324v-1.17h-2.232zm14.358 0h2.52V75.84h-1.728c-.324 0-.504-.18-.504-.54v-4.644h2.448v-1.872h-2.448v-2.772h-2.268v2.772h-2.232v1.872h2.232v5.04c0 1.224.792 2.016 1.98 2.016m4.89 0h2.268v-5.076c0-1.26.828-1.872 1.98-1.872h1.116v-2.016h-1.08c-.828 0-1.476.324-1.728 1.044h-.324v-1.008h-2.232zm10.974.252c2.448 0 3.51-1.386 4.014-2.34l-1.854-.972c-.306.684-.828 1.332-2.088 1.332s-2.214-.846-2.268-2.07h6.498v-.774c0-2.736-1.71-4.608-4.338-4.608-2.664 0-4.464 1.8-4.464 4.608v.216c0 2.808 1.818 4.608 4.5 4.608m-2.178-5.742c.162-1.026.9-1.71 2.124-1.71 1.17 0 1.944.684 2.052 1.71zm16.656 5.49h2.304v-12.6h-4.158l-2.574 5.688h2.412l1.692-3.996h.324z" aria-label="Data Centre 1" style="font-weight:700;font-size:18px;font-family:&quot;Space Grotesk&quot;"/><path fill="#FF6153" d="M93.75 113.25h154.405v67.968H93.75z" style="stroke:#000;stroke-width:3"/><path d="M121.812 153.714c2.916 0 4.77-1.584 4.77-3.888s-1.782-3.24-4.464-3.816l-.414-.09c-1.512-.324-2.214-.774-2.214-1.71s.666-1.512 2.106-1.512 2.322.576 2.322 2.016v.54h2.34v-.54c0-2.736-1.962-4.104-4.662-4.104s-4.446 1.368-4.446 3.672 1.53 3.186 4.14 3.762l.414.09c1.62.36 2.538.72 2.538 1.764 0 1.008-.81 1.728-2.43 1.728s-2.61-.756-2.61-2.268v-.504h-2.34v.504c0 2.736 2.034 4.356 4.95 4.356m6.61-.252h2.267v-12.6h-2.268zm9.039.252c2.664 0 4.68-1.692 4.68-4.572v-.288c0-2.88-2.016-4.572-4.68-4.572s-4.68 1.692-4.68 4.572v.288c0 2.88 2.016 4.572 4.68 4.572m0-2.016c-1.386 0-2.412-.936-2.412-2.61v-.18c0-1.674 1.008-2.61 2.412-2.61s2.412.936 2.412 2.61v.18c0 1.674-1.026 2.61-2.412 2.61m7.455 1.764h3.762l1.152-7.398h.324l1.152 7.398h3.762l1.26-8.928h-2.25l-.792 7.398h-.324l-1.152-7.398h-3.636l-1.152 7.398h-.324l-.792-7.398h-2.25zm22.273.252c2.916 0 4.77-1.584 4.77-3.888s-1.782-3.24-4.464-3.816l-.414-.09c-1.512-.324-2.214-.774-2.214-1.71s.666-1.512 2.106-1.512 2.322.576 2.322 2.016v.54h2.34v-.54c0-2.736-1.962-4.104-4.662-4.104s-4.446 1.368-4.446 3.672 1.53 3.186 4.14 3.762l.414.09c1.62.36 2.538.72 2.538 1.764 0 1.008-.81 1.728-2.43 1.728s-2.61-.756-2.61-2.268v-.504h-2.34v.504c0 2.736 2.034 4.356 4.95 4.356m10.677 0c2.448 0 3.51-1.386 4.014-2.34l-1.854-.972c-.306.684-.828 1.332-2.088 1.332s-2.214-.846-2.268-2.07h6.498v-.774c0-2.736-1.71-4.608-4.338-4.608-2.664 0-4.464 1.8-4.464 4.608v.216c0 2.808 1.818 4.608 4.5 4.608m-2.178-5.742c.162-1.026.9-1.71 2.124-1.71 1.17 0 1.944.684 2.052 1.71zm8.5 5.49h2.267v-5.076c0-1.26.828-1.872 1.98-1.872h1.116v-2.016h-1.08c-.828 0-1.476.324-1.728 1.044h-.324v-1.008h-2.232zm9.003 0h3.6l2.844-8.928h-2.412l-2.07 7.272h-.324l-2.07-7.272h-2.412zm9.129-9.972c.828 0 1.458-.576 1.458-1.44s-.63-1.44-1.458-1.44-1.458.576-1.458 1.44.63 1.44 1.458 1.44m-1.134 9.972h2.268v-8.928h-2.268zm8.985.252c2.556 0 4.014-1.494 4.482-3.42l-2.196-.522c-.198 1.152-.864 1.926-2.232 1.926s-2.412-.918-2.412-2.61v-.18c0-1.692 1.044-2.61 2.412-2.61s2.034.828 2.178 1.908l2.196-.468c-.378-1.98-1.872-3.456-4.428-3.456-2.592 0-4.626 1.674-4.626 4.59v.252c0 2.916 2.034 4.59 4.626 4.59m10.426 0c2.448 0 3.51-1.386 4.014-2.34l-1.854-.972c-.306.684-.828 1.332-2.088 1.332s-2.214-.846-2.268-2.07h6.498v-.774c0-2.736-1.71-4.608-4.338-4.608-2.664 0-4.464 1.8-4.464 4.608v.216c0 2.808 1.818 4.608 4.5 4.608m-2.178-5.742c.162-1.026.9-1.71 2.124-1.71 1.17 0 1.944.684 2.052 1.71z" aria-label="Slow Service" style="font-weight:700;font-size:18px;font-family:&quot;Space Grotesk&quot;"/><path fill="#FFF" d="M509.25 121.5c0-15 64-15 64-15s63.999 0 63.999 15v51.468c0 15-64 15-64 15s-63.999 0-63.999-15V121.5" style="stroke:#000;stroke-width:3"/><path fill="none" d="M509.25 121.5c0 15 64 15 64 15s63.999 0 63.999-15" style="stroke:#000;stroke-width:3"/><path d="M532.596 167.712h4.914c3.312 0 5.202-1.638 5.202-5.13v-2.34c0-3.474-1.89-5.13-5.202-5.13h-4.914v1.35h1.764v9.9h-1.764zm3.276-1.368v-9.846h1.638c2.43 0 3.708 1.134 3.708 3.69v2.466c0 2.538-1.278 3.69-3.708 3.69zm12.106 1.62c1.818 0 2.556-.864 2.934-1.566h.216v.09c0 .756.522 1.224 1.314 1.224h1.242v-1.206h-.81c-.324 0-.504-.18-.504-.54v-3.978c0-2.106-1.332-3.33-3.564-3.33-2.214 0-3.402 1.206-3.816 2.682l1.332.432c.27-1.134 1.044-1.89 2.466-1.89 1.458 0 2.178.774 2.178 2.016v.648h-2.97c-1.89 0-3.312.882-3.312 2.664 0 1.764 1.422 2.754 3.294 2.754m.162-1.224c-1.224 0-2.034-.576-2.034-1.566s.81-1.476 1.944-1.476h2.916v.198c0 1.8-1.134 2.844-2.826 2.844m10.253.972h2.34v-1.242h-1.962c-.378 0-.522-.18-.522-.54v-5.778h2.88v-1.242h-2.88v-3.132h-1.422v3.132h-2.646v1.242h2.646v6.012c0 .954.558 1.548 1.566 1.548m7.786.252c1.818 0 2.556-.864 2.934-1.566h.216v.09c0 .756.522 1.224 1.314 1.224h1.242v-1.206h-.81c-.324 0-.504-.18-.504-.54v-3.978c0-2.106-1.332-3.33-3.564-3.33-2.214 0-3.402 1.206-3.816 2.682l1.332.432c.27-1.134 1.044-1.89 2.466-1.89 1.458 0 2.178.774 2.178 2.016v.648h-2.97c-1.89 0-3.312.882-3.312 2.664 0 1.764 1.422 2.754 3.294 2.754m.162-1.224c-1.224 0-2.034-.576-2.034-1.566s.81-1.476 1.944-1.476h2.916v.198c0 1.8-1.134 2.844-2.826 2.844m12.466 1.224c2.286 0 4.158-1.71 4.158-4.536v-.234c0-2.808-1.854-4.536-4.158-4.536-1.836 0-2.772.828-3.204 1.638h-.252v-5.184h-1.422v12.6h1.386v-1.458h.252c.468.882 1.404 1.71 3.24 1.71m-.378-1.26c-1.818 0-3.096-1.224-3.096-3.312v-.162c0-2.088 1.278-3.312 3.096-3.312s3.078 1.224 3.078 3.312v.162c0 2.088-1.278 3.312-3.078 3.312m9.893 1.26c1.818 0 2.556-.864 2.934-1.566h.216v.09c0 .756.522 1.224 1.314 1.224h1.242v-1.206h-.81c-.324 0-.504-.18-.504-.54v-3.978c0-2.106-1.332-3.33-3.564-3.33-2.214 0-3.402 1.206-3.816 2.682l1.332.432c.27-1.134 1.044-1.89 2.466-1.89 1.458 0 2.178.774 2.178 2.016v.648h-2.97c-1.89 0-3.312.882-3.312 2.664 0 1.764 1.422 2.754 3.294 2.754m.162-1.224c-1.224 0-2.034-.576-2.034-1.566s.81-1.476 1.944-1.476h2.916v.198c0 1.8-1.134 2.844-2.826 2.844m11.062 1.224c2.16 0 3.546-.972 3.546-2.7 0-1.71-1.458-2.286-3.312-2.61l-.738-.126c-1.116-.198-1.818-.522-1.818-1.368s.738-1.314 1.944-1.314c1.188 0 2.07.468 2.286 1.728l1.332-.342c-.36-1.638-1.638-2.574-3.618-2.574-2.016 0-3.348.936-3.348 2.52s1.35 2.286 3.078 2.592l.738.126c1.278.234 2.052.522 2.052 1.422s-.828 1.458-2.142 1.458c-1.332 0-2.52-.54-2.772-2.268l-1.35.306c.306 2.178 1.926 3.15 4.122 3.15m10.073 0c2.358 0 3.402-1.314 3.942-2.43l-1.224-.594c-.432.972-1.17 1.764-2.682 1.764-1.746 0-3.006-1.134-3.06-3.024h7.164v-.648c0-2.682-1.728-4.374-4.23-4.374-2.574 0-4.374 1.836-4.374 4.554v.216c0 2.718 1.782 4.536 4.464 4.536m-3.006-5.454c.216-1.638 1.314-2.592 2.916-2.592 1.584 0 2.682.954 2.79 2.592z" aria-label="Database" style="font-size:18px;font-family:&quot;Space Grotesk&quot;"/><rect width="151.237" height="67.968" x="812.25" y="113.25" fill="#FFAE03" rx="18.75" ry="18.75" style="stroke:#000;stroke-width:3"/><path d="M835.938 153.462h2.376v-5.238h5.112v-2.16h-5.112v-3.042h5.544v-2.16h-7.92zm12.348.252c1.872 0 2.43-1.008 2.592-1.458h.342v.018c0 .72.648 1.188 1.53 1.188h1.512v-1.872h-.72c-.324 0-.504-.18-.504-.54v-3.33c0-2.232-1.476-3.438-3.816-3.438-2.322 0-3.492 1.17-3.924 2.52l2.088.702c.162-.81.666-1.386 1.8-1.386 1.152 0 1.656.612 1.656 1.44v.504h-2.448c-2.016 0-3.456.954-3.456 2.79s1.44 2.862 3.348 2.862m.396-1.836c-.972 0-1.476-.45-1.476-1.098s.504-1.026 1.35-1.026h2.286v.18c0 1.188-.9 1.944-2.16 1.944m10.908 1.836c2.268 0 3.744-1.062 3.744-2.934s-1.584-2.448-3.6-2.808l-.504-.09c-.828-.144-1.332-.378-1.332-.954 0-.522.468-.846 1.332-.846s1.476.342 1.674 1.26l2.106-.648c-.414-1.44-1.782-2.412-3.78-2.412-2.124 0-3.528.99-3.528 2.754s1.548 2.466 3.42 2.808l.504.09c1.062.198 1.512.45 1.512 1.008s-.504.972-1.548.972-1.89-.396-2.124-1.656l-2.088.54c.306 1.872 1.872 2.916 4.212 2.916m9-.252h2.52v-1.872h-1.728c-.324 0-.504-.18-.504-.54v-4.644h2.448v-1.872h-2.448v-2.772h-2.268v2.772h-2.232v1.872h2.232v5.04c0 1.224.792 2.016 1.98 2.016m13.734.252c2.916 0 4.77-1.584 4.77-3.888s-1.782-3.24-4.464-3.816l-.414-.09c-1.512-.324-2.214-.774-2.214-1.71s.666-1.512 2.106-1.512 2.322.576 2.322 2.016v.54h2.34v-.54c0-2.736-1.962-4.104-4.662-4.104s-4.446 1.368-4.446 3.672 1.53 3.186 4.14 3.762l.414.09c1.62.36 2.538.72 2.538 1.764 0 1.008-.81 1.728-2.43 1.728s-2.61-.756-2.61-2.268v-.504h-2.34v.504c0 2.736 2.034 4.356 4.95 4.356m10.71 0c2.448 0 3.51-1.386 4.014-2.34l-1.854-.972c-.306.684-.828 1.332-2.088 1.332s-2.214-.846-2.268-2.07h6.498v-.774c0-2.736-1.71-4.608-4.338-4.608-2.664 0-4.464 1.8-4.464 4.608v.216c0 2.808 1.818 4.608 4.5 4.608m-2.178-5.742c.162-1.026.9-1.71 2.124-1.71 1.17 0 1.944.684 2.052 1.71zm8.532 5.49h2.268v-5.076c0-1.26.828-1.872 1.98-1.872h1.116v-2.016h-1.08c-.828 0-1.476.324-1.728 1.044h-.324v-1.008h-2.232zm9.036 0h3.6l2.844-8.928h-2.412l-2.07 7.272h-.324l-2.07-7.272h-2.412zm9.163-9.972c.828 0 1.458-.576 1.458-1.44s-.63-1.44-1.458-1.44-1.458.576-1.458 1.44.63 1.44 1.458 1.44m-1.134 9.972h2.268v-8.928h-2.268zm9.018.252c2.556 0 4.014-1.494 4.482-3.42l-2.196-.522c-.198 1.152-.864 1.926-2.232 1.926s-2.412-.918-2.412-2.61v-.18c0-1.692 1.044-2.61 2.412-2.61s2.034.828 2.178 1.908l2.196-.468c-.378-1.98-1.872-3.456-4.428-3.456-2.592 0-4.626 1.674-4.626 4.59v.252c0 2.916 2.034 4.59 4.626 4.59m10.458 0c2.448 0 3.51-1.386 4.014-2.34l-1.854-.972c-.306.684-.828 1.332-2.088 1.332s-2.214-.846-2.268-2.07h6.498v-.774c0-2.736-1.71-4.608-4.338-4.608-2.664 0-4.464 1.8-4.464 4.608v.216c0 2.808 1.818 4.608 4.5 4.608m-2.178-5.742c.162-1.026.9-1.71 2.124-1.71 1.17 0 1.944.684 2.052 1.71z" aria-label="Fast Service" style="font-weight:700;font-size:18px;font-family:&quot;Space Grotesk&quot;"/><path fill="none" d="M248.505 147h260.46" style="stroke:#000;stroke-width:3"/><path d="M328.366 128.712h1.512v-5.634h5.904v5.634h1.512v-12.6h-1.512v5.598h-5.904v-5.598h-1.512zm12.107-10.17c.63 0 1.098-.45 1.098-1.08 0-.648-.468-1.098-1.098-1.098-.612 0-1.08.45-1.08 1.098 0 .63.468 1.08 1.08 1.08m-.702 10.17h1.422v-8.802h-1.422zm3.522-4.356c0 2.754 1.854 4.446 4.158 4.446 1.854 0 2.772-.846 3.204-1.638h.252v3.348q0 .54-.54.54h-5.598v1.26h5.976c1.008 0 1.548-.594 1.548-1.548V119.91h-1.35v1.458h-.252c-.468-.864-1.386-1.71-3.24-1.71-2.304 0-4.158 1.692-4.158 4.446zm4.536 3.186c-1.818 0-3.096-1.206-3.096-3.24v-.144c0-2.034 1.278-3.24 3.096-3.24s3.078 1.206 3.078 3.24v.144c0 2.034-1.278 3.24-3.078 3.24m6.995 1.17h1.422v-4.428c0-2.178 1.188-3.294 2.88-3.294 1.476 0 2.43.756 2.43 2.502v5.22h1.422v-5.328c0-2.358-1.548-3.636-3.492-3.636-1.782 0-2.61.792-2.988 1.566h-.252v-5.202h-1.422zm14.747 0h1.422v-12.6h-1.422zm6.653.252c1.818 0 2.556-.864 2.934-1.566h.216v.09c0 .756.522 1.224 1.314 1.224h1.242v-1.206h-.81c-.324 0-.504-.18-.504-.54v-3.978c0-2.106-1.332-3.33-3.564-3.33-2.214 0-3.402 1.206-3.816 2.682l1.332.432c.27-1.134 1.044-1.89 2.466-1.89 1.458 0 2.178.774 2.178 2.016v.648h-2.97c-1.89 0-3.312.882-3.312 2.664 0 1.764 1.422 2.754 3.294 2.754m.162-1.224c-1.224 0-2.034-.576-2.034-1.566s.81-1.476 1.944-1.476h2.916v.198c0 1.8-1.134 2.844-2.826 2.844m9.696.972h2.34v-1.242h-1.962c-.378 0-.522-.18-.522-.54v-5.778h2.88v-1.242h-2.88v-3.132h-1.422v3.132h-2.646v1.242h2.646v6.012c0 .954.558 1.548 1.566 1.548m8.291.252c2.358 0 3.402-1.314 3.942-2.43l-1.224-.594c-.432.972-1.17 1.764-2.682 1.764-1.746 0-3.006-1.134-3.06-3.024h7.164v-.648c0-2.682-1.728-4.374-4.23-4.374-2.574 0-4.374 1.836-4.374 4.554v.216c0 2.718 1.782 4.536 4.464 4.536m-3.006-5.454c.216-1.638 1.314-2.592 2.916-2.592 1.584 0 2.682.954 2.79 2.592zm9.174 5.202h1.422v-4.428c0-2.178 1.188-3.294 2.88-3.294 1.476 0 2.43.756 2.43 2.502v5.22h1.422v-5.328c0-2.358-1.548-3.636-3.492-3.636-1.8 0-2.646.81-3.024 1.656h-.252v-1.494h-1.386zm14.627.252c2.538 0 3.906-1.584 4.284-3.348l-1.404-.306c-.216 1.35-1.116 2.376-2.862 2.376s-3.078-1.242-3.078-3.294v-.162c0-2.052 1.332-3.294 3.078-3.294s2.628 1.08 2.808 2.376l1.386-.288c-.288-1.782-1.674-3.366-4.212-3.366-2.574 0-4.482 1.728-4.482 4.554v.198c0 2.826 1.908 4.554 4.482 4.554m7.32 3.348h5.4c1.008 0 1.584-.594 1.584-1.548V119.91h-1.422v4.428c0 2.196-1.206 3.294-2.88 3.294-1.494 0-2.43-.738-2.43-2.484v-5.238h-1.422v5.346c0 2.358 1.53 3.618 3.474 3.618 1.8 0 2.628-.792 3.006-1.566h.252v3.204c0 .36-.144.54-.522.54h-5.04z" aria-label="High latency" style="font-size:18px;font-family:&quot;Space Grotesk&quot;"/><path fill="none" d="M646.125 147H811.74" style="stroke:#000;stroke-width:3"/><path d="m637.125 147 13.5 6-6-6 6-6z" style="stroke:#000;stroke-width:3"/><path d="M673.188 128.712h8.136v-2.16h-5.76v-10.44h-2.376zm14.177.252c2.664 0 4.68-1.692 4.68-4.572v-.288c0-2.88-2.016-4.572-4.68-4.572s-4.68 1.692-4.68 4.572v.288c0 2.88 2.016 4.572 4.68 4.572m0-2.016c-1.386 0-2.412-.936-2.412-2.61v-.18c0-1.674 1.008-2.61 2.412-2.61s2.412.936 2.412 2.61v.18c0 1.674-1.026 2.61-2.412 2.61m7.553 1.764h3.762l1.152-7.398h.324l1.152 7.398h3.762l1.26-8.928h-2.25l-.792 7.398h-.324l-1.152-7.398h-3.636l-1.152 7.398h-.324l-.792-7.398h-2.25zm18.166 0h2.268v-12.6h-2.268zm7.66.252c1.872 0 2.43-1.008 2.592-1.458h.342v.018c0 .72.648 1.188 1.53 1.188h1.512v-1.872H726c-.324 0-.504-.18-.504-.54v-3.33c0-2.232-1.476-3.438-3.816-3.438-2.322 0-3.492 1.17-3.924 2.52l2.088.702c.162-.81.666-1.386 1.8-1.386 1.152 0 1.656.612 1.656 1.44v.504h-2.448c-2.016 0-3.456.954-3.456 2.79s1.44 2.862 3.348 2.862m.396-1.836c-.972 0-1.476-.45-1.476-1.098s.504-1.026 1.35-1.026h2.286v.18c0 1.188-.9 1.944-2.16 1.944m10.11 1.584h2.52v-1.872h-1.729c-.324 0-.504-.18-.504-.54v-4.644h2.448v-1.872h-2.448v-2.772h-2.268v2.772h-2.232v1.872h2.232v5.04c0 1.224.792 2.016 1.98 2.016m8.632.252c2.448 0 3.51-1.386 4.014-2.34l-1.854-.972c-.306.684-.828 1.332-2.088 1.332s-2.214-.846-2.268-2.07h6.498v-.774c0-2.736-1.71-4.608-4.338-4.608-2.664 0-4.464 1.8-4.464 4.608v.216c0 2.808 1.818 4.608 4.5 4.608m-2.178-5.742c.162-1.026.9-1.71 2.124-1.71 1.17 0 1.944.684 2.052 1.71zm8.597 5.49h2.268v-4.536c0-1.656.81-2.628 2.196-2.628 1.224 0 1.908.666 1.908 2.016v5.148h2.268v-5.328c0-2.214-1.386-3.744-3.474-3.744-1.602 0-2.322.702-2.61 1.314h-.324v-1.17h-2.232zm15.383.252c2.556 0 4.014-1.494 4.482-3.42l-2.196-.522c-.198 1.152-.864 1.926-2.232 1.926s-2.412-.918-2.412-2.61v-.18c0-1.692 1.044-2.61 2.412-2.61s2.034.828 2.178 1.908l2.196-.468c-.378-1.98-1.872-3.456-4.428-3.456-2.592 0-4.626 1.674-4.626 4.59v.252c0 2.916 2.034 4.59 4.626 4.59m7.427 3.348h5.616c1.188 0 1.98-.792 1.98-2.016v-10.512h-2.268v4.536c0 1.656-.81 2.628-2.196 2.628-1.224 0-1.908-.666-1.908-2.016v-5.148h-2.268v5.328c0 2.214 1.386 3.744 3.474 3.744 1.602 0 2.322-.702 2.61-1.314h.324v2.25c0 .36-.18.54-.504.54h-4.86z" aria-label="Low latency" style="font-weight:700;font-size:18px;font-family:&quot;Space Grotesk&quot;"/></svg>