<svg xmlns="http://www.w3.org/2000/svg" width="801" height="247.5" preserveAspectRatio="none" style="width:801px;height:247px" viewBox="0 0 801 247"><path fill="#FFAE03" d="M331.5 90.75c0-15 83.268-15 83.268-15s83.269 0 83.269 15v74.436c0 15-83.269 15-83.269 15s-83.268 0-83.268-15V90.75" style="stroke:#000;stroke-width:3"/><path fill="none" d="M331.5 90.75c0 15 83.268 15 83.268 15s83.269 0 83.269-15" style="stroke:#000;stroke-width:3"/><path d="M359.976 137.214c3.096 0 4.86-1.8 4.86-4.752v-.252h-2.34v.324c0 1.476-.828 2.556-2.52 2.556s-2.7-1.116-2.7-2.88v-3.096c0-1.764 1.008-2.88 2.7-2.88s2.52 1.08 2.52 2.556v.18h2.34v-.108c0-2.952-1.764-4.752-4.86-4.752-3.132 0-5.076 1.8-5.076 5.04v3.024c0 3.24 1.944 5.04 5.076 5.04m11.26 0c2.663 0 4.68-1.692 4.68-4.572v-.288c0-2.88-2.017-4.572-4.68-4.572-2.665 0-4.68 1.692-4.68 4.572v.288c0 2.88 2.015 4.572 4.68 4.572m0-2.016c-1.387 0-2.413-.936-2.413-2.61v-.18c0-1.674 1.008-2.61 2.412-2.61s2.412.936 2.412 2.61v.18c0 1.674-1.026 2.61-2.412 2.61m6.902 1.764h2.268v-4.536c0-1.656.81-2.628 2.196-2.628 1.224 0 1.908.666 1.908 2.016v5.148h2.268v-5.328c0-2.214-1.386-3.744-3.474-3.744-1.602 0-2.322.702-2.61 1.314h-.324v-1.17h-2.232zm19.45-9.9c.827 0 1.457-.576 1.457-1.44s-.63-1.44-1.458-1.44-1.458.576-1.458 1.44.63 1.44 1.458 1.44m-7.003 9.9h2.268v-7.056h3.6v7.056h2.268v-8.928h-5.868v-1.26c0-.36.18-.54.504-.54h1.368v-1.872h-2.16c-1.188 0-1.98.792-1.98 2.016v1.656h-2.268v1.872h2.268zm10.494-4.428c0 2.808 1.872 4.464 4.068 4.464 1.638 0 2.376-.684 2.736-1.278h.324v2.322c0 .36-.18.54-.504.54h-5.184v1.98h5.976c1.188 0 1.98-.792 1.98-2.016v-10.512h-2.232v1.08h-.324c-.396-.612-1.152-1.332-2.772-1.332-2.214 0-4.068 1.656-4.068 4.464zm4.716 2.484c-1.386 0-2.448-.918-2.448-2.538v-.18c0-1.62 1.044-2.538 2.448-2.538s2.448.918 2.448 2.538v.18c0 1.62-1.062 2.538-2.448 2.538m10.737 2.088c1.602 0 2.322-.702 2.61-1.314h.324v1.17h2.232v-8.928h-2.268v4.536c0 1.656-.81 2.628-2.196 2.628-1.224 0-1.908-.666-1.908-2.016v-5.148h-2.268v5.328c0 2.214 1.386 3.744 3.474 3.744m7.822-.144h2.268v-5.076c0-1.26.828-1.872 1.98-1.872h1.116v-2.016h-1.08c-.828 0-1.476.324-1.728 1.044h-.324v-1.008h-2.232zm9.819.252c1.872 0 2.43-1.008 2.592-1.458h.342v.018c0 .72.648 1.188 1.53 1.188h1.512v-1.872h-.72c-.324 0-.504-.18-.504-.54v-3.33c0-2.232-1.476-3.438-3.816-3.438-2.322 0-3.492 1.17-3.924 2.52l2.088.702c.162-.81.666-1.386 1.8-1.386 1.152 0 1.656.612 1.656 1.44v.504h-2.448c-2.016 0-3.456.954-3.456 2.79s1.44 2.862 3.348 2.862m.396-1.836c-.972 0-1.476-.45-1.476-1.098s.504-1.026 1.35-1.026h2.286v.18c0 1.188-.9 1.944-2.16 1.944m10.143 1.584h2.52v-1.872h-1.728c-.324 0-.504-.18-.504-.54v-4.644h2.448v-1.872H445v-2.772h-2.268v2.772H440.5v1.872h2.232v5.04c0 1.224.792 2.016 1.98 2.016m6.057-9.972c.828 0 1.458-.576 1.458-1.44s-.63-1.44-1.458-1.44-1.458.576-1.458 1.44.63 1.44 1.458 1.44m-1.134 9.972h2.268v-8.928h-2.268zm9.17.252c2.665 0 4.68-1.692 4.68-4.572v-.288c0-2.88-2.015-4.572-4.68-4.572-2.663 0-4.68 1.692-4.68 4.572v.288c0 2.88 2.017 4.572 4.68 4.572m0-2.016c-1.385 0-2.411-.936-2.411-2.61v-.18c0-1.674 1.008-2.61 2.412-2.61s2.412.936 2.412 2.61v.18c0 1.674-1.026 2.61-2.412 2.61m6.904 1.764h2.268v-4.536c0-1.656.81-2.628 2.196-2.628 1.224 0 1.908.666 1.908 2.016v5.148h2.268v-5.328c0-2.214-1.386-3.744-3.474-3.744-1.602 0-2.322.702-2.61 1.314h-.324v-1.17h-2.232z" aria-label="Configuration" style="font-weight:700;font-size:18px;font-family:&quot;Space Grotesk&quot;"/><path d="M396.507 160.182c2.916 0 4.77-1.584 4.77-3.888s-1.782-3.24-4.464-3.816l-.414-.09c-1.512-.324-2.214-.774-2.214-1.71s.666-1.512 2.106-1.512 2.322.576 2.322 2.016v.54h2.34v-.54c0-2.736-1.962-4.104-4.662-4.104s-4.446 1.368-4.446 3.672 1.53 3.186 4.14 3.762l.414.09c1.62.36 2.538.72 2.538 1.764 0 1.008-.81 1.728-2.43 1.728s-2.61-.756-2.61-2.268v-.504h-2.34v.504c0 2.736 2.034 4.356 4.95 4.356m10.188-.252h2.52v-1.872h-1.728c-.324 0-.504-.18-.504-.54v-4.644h2.448v-1.872h-2.448v-2.772h-2.268v2.772h-2.232v1.872h2.232v5.04c0 1.224.792 2.016 1.98 2.016m8.874.252c2.664 0 4.68-1.692 4.68-4.572v-.288c0-2.88-2.016-4.572-4.68-4.572s-4.68 1.692-4.68 4.572v.288c0 2.88 2.016 4.572 4.68 4.572m0-2.016c-1.386 0-2.412-.936-2.412-2.61v-.18c0-1.674 1.008-2.61 2.412-2.61s2.412.936 2.412 2.61v.18c0 1.674-1.026 2.61-2.412 2.61m6.93 1.764h2.269v-5.076c0-1.26.828-1.872 1.98-1.872h1.116v-2.016h-1.08c-.828 0-1.476.324-1.728 1.044h-.324v-1.008H422.5zm11.035.252c2.448 0 3.51-1.386 4.014-2.34l-1.854-.972c-.306.684-.828 1.332-2.088 1.332s-2.214-.846-2.268-2.07h6.498v-.774c0-2.736-1.71-4.608-4.338-4.608-2.664 0-4.464 1.8-4.464 4.608v.216c0 2.808 1.818 4.608 4.5 4.608m-2.178-5.742c.162-1.026.9-1.71 2.124-1.71 1.17 0 1.944.684 2.052 1.71z" aria-label="Store" style="font-weight:700;font-size:18px;font-family:&quot;Space Grotesk&quot;"/><rect width="121.159" height="67.968" x="36" y="34.5" fill="#DEDEDE" rx="18.75" ry="18.75" style="stroke:#000;stroke-width:3"/><path d="M64.134 74.964c2.736 0 4.518-1.458 4.518-3.69 0-2.214-1.71-3.042-3.888-3.546l-.936-.234c-1.674-.414-2.664-.864-2.664-2.214s1.08-2.106 2.754-2.106c1.728 0 2.988.756 2.988 2.574v.756H68.4v-.756c0-2.574-1.944-3.888-4.482-3.888s-4.248 1.314-4.248 3.438 1.512 2.988 3.744 3.528l.936.234c1.692.396 2.808.864 2.808 2.25 0 1.35-1.062 2.34-3.024 2.34-1.926 0-3.276-.99-3.276-3.096v-.378h-1.494v.378c0 2.952 2.016 4.41 4.77 4.41m10.926 0c2.358 0 3.402-1.314 3.942-2.43l-1.224-.594c-.432.972-1.17 1.764-2.682 1.764-1.746 0-3.006-1.134-3.06-3.024H79.2v-.648c0-2.682-1.728-4.374-4.23-4.374-2.574 0-4.374 1.836-4.374 4.554v.216c0 2.718 1.782 4.536 4.464 4.536m-3.006-5.454c.216-1.638 1.314-2.592 2.916-2.592 1.584 0 2.682.954 2.79 2.592zm9.63 5.202h1.422v-5.364c0-1.476.846-2.178 2.124-2.178h1.134v-1.296H85.32c-1.062 0-1.692.342-1.998 1.116h-.252v-1.08h-1.386zm9.018 0h2.268l3.15-8.802h-1.512l-2.646 7.74h-.252l-2.646-7.74h-1.512zm8.172-10.17c.63 0 1.098-.45 1.098-1.08 0-.648-.468-1.098-1.098-1.098-.612 0-1.08.45-1.08 1.098 0 .63.468 1.08 1.08 1.08m-.702 10.17h1.422V65.91h-1.422zm8.46.252c2.538 0 3.906-1.584 4.284-3.348l-1.404-.306c-.216 1.35-1.116 2.376-2.862 2.376s-3.078-1.242-3.078-3.294v-.162c0-2.052 1.332-3.294 3.078-3.294s2.628 1.08 2.808 2.376l1.386-.288c-.288-1.782-1.674-3.366-4.212-3.366-2.574 0-4.482 1.728-4.482 4.554v.198c0 2.826 1.908 4.554 4.482 4.554m10.746 0c2.358 0 3.402-1.314 3.942-2.43l-1.224-.594c-.432.972-1.17 1.764-2.682 1.764-1.746 0-3.006-1.134-3.06-3.024h7.164v-.648c0-2.682-1.728-4.374-4.23-4.374-2.574 0-4.374 1.836-4.374 4.554v.216c0 2.718 1.782 4.536 4.464 4.536m-3.006-5.454c.216-1.638 1.314-2.592 2.916-2.592 1.584 0 2.682.954 2.79 2.592zm17.389 5.202h1.458v-12.6h-2.754l-3.006 5.454h1.584l2.448-4.482h.27z" aria-label="Service 1" style="font-size:18px;font-family:&quot;Space Grotesk&quot;"/><rect width="124.489" height="67.968" x="34.5" y="154.5" fill="#DEDEDE" rx="18.75" ry="18.75" style="stroke:#000;stroke-width:3"/><path d="M62.634 194.964c2.736 0 4.518-1.458 4.518-3.69 0-2.214-1.71-3.042-3.888-3.546l-.936-.234c-1.674-.414-2.664-.864-2.664-2.214s1.08-2.106 2.754-2.106c1.728 0 2.988.756 2.988 2.574v.756H66.9v-.756c0-2.574-1.944-3.888-4.482-3.888s-4.248 1.314-4.248 3.438 1.512 2.988 3.744 3.528l.936.234c1.692.396 2.808.864 2.808 2.25 0 1.35-1.062 2.34-3.024 2.34-1.926 0-3.276-.99-3.276-3.096v-.378h-1.494v.378c0 2.952 2.016 4.41 4.77 4.41m10.926 0c2.358 0 3.402-1.314 3.942-2.43l-1.224-.594c-.432.972-1.17 1.764-2.682 1.764-1.746 0-3.006-1.134-3.06-3.024H77.7v-.648c0-2.682-1.728-4.374-4.23-4.374-2.574 0-4.374 1.836-4.374 4.554v.216c0 2.718 1.782 4.536 4.464 4.536m-3.006-5.454c.216-1.638 1.314-2.592 2.916-2.592 1.584 0 2.682.954 2.79 2.592zm9.63 5.202h1.422v-5.364c0-1.476.846-2.178 2.124-2.178h1.134v-1.296H83.82c-1.062 0-1.692.342-1.998 1.116h-.252v-1.08h-1.386zm9.018 0h2.268l3.15-8.802h-1.512l-2.646 7.74h-.252l-2.646-7.74h-1.512zm8.172-10.17c.63 0 1.098-.45 1.098-1.08 0-.648-.468-1.098-1.098-1.098-.612 0-1.08.45-1.08 1.098 0 .63.468 1.08 1.08 1.08m-.702 10.17h1.422v-8.802h-1.422zm8.46.252c2.538 0 3.906-1.584 4.284-3.348l-1.404-.306c-.216 1.35-1.116 2.376-2.862 2.376s-3.078-1.242-3.078-3.294v-.162c0-2.052 1.332-3.294 3.078-3.294s2.628 1.08 2.808 2.376l1.386-.288c-.288-1.782-1.674-3.366-4.212-3.366-2.574 0-4.482 1.728-4.482 4.554v.198c0 2.826 1.908 4.554 4.482 4.554m10.746 0c2.358 0 3.402-1.314 3.942-2.43l-1.224-.594c-.432.972-1.17 1.764-2.682 1.764-1.746 0-3.006-1.134-3.06-3.024h7.164v-.648c0-2.682-1.728-4.374-4.23-4.374-2.574 0-4.374 1.836-4.374 4.554v.216c0 2.718 1.782 4.536 4.464 4.536m-3.006-5.454c.216-1.638 1.314-2.592 2.916-2.592 1.584 0 2.682.954 2.79 2.592zm13.717 5.202h8.91v-1.314h-7.434v-.306c0-1.656.918-2.142 2.736-2.718l.972-.306c2.286-.72 3.834-1.746 3.834-4.194v-.162c0-2.304-1.818-3.852-4.41-3.852s-4.536 1.53-4.536 4.266v.234h1.44v-.252c0-1.962 1.26-2.934 3.096-2.934 1.728 0 2.952.99 2.952 2.574v.072c0 1.674-1.08 2.448-2.718 2.952l-.99.306c-2.376.738-3.852 1.638-3.852 4.32z" aria-label="Service 2" style="font-size:18px;font-family:&quot;Space Grotesk&quot;"/><circle cx="730.758" cy="77.25" r="12" fill="#DEDEDE" style="stroke:#000;stroke-width:3"/><path fill="none" d="M730.758 89.25v40.5m-19.5-28.5h39m-19.5 28.5-19.5 22.5m19.5-22.5 19.5 22.5" style="stroke:#000;stroke-width:3"/><path d="M687.846 181.962h4.914c3.312 0 5.202-1.638 5.202-5.13v-2.34c0-3.474-1.89-5.13-5.202-5.13h-4.914v1.35h1.764v9.9h-1.764zm3.276-1.368v-9.846h1.638c2.43 0 3.708 1.134 3.708 3.69v2.466c0 2.538-1.278 3.69-3.708 3.69zm13.428 1.62c2.358 0 3.402-1.314 3.942-2.43l-1.224-.594c-.432.972-1.17 1.764-2.682 1.764-1.746 0-3.006-1.134-3.06-3.024h7.164v-.648c0-2.682-1.728-4.374-4.23-4.374-2.574 0-4.374 1.836-4.374 4.554v.216c0 2.718 1.782 4.536 4.464 4.536m-3.006-5.454c.216-1.638 1.314-2.592 2.916-2.592 1.584 0 2.682.954 2.79 2.592zm11.592 5.202h2.268l3.15-8.802h-1.512l-2.646 7.74h-.252l-2.646-7.74h-1.512zm11.232.252c2.358 0 3.402-1.314 3.942-2.43l-1.224-.594c-.432.972-1.17 1.764-2.682 1.764-1.746 0-3.006-1.134-3.06-3.024h7.164v-.648c0-2.682-1.728-4.374-4.23-4.374-2.574 0-4.374 1.836-4.374 4.554v.216c0 2.718 1.782 4.536 4.464 4.536m-3.006-5.454c.216-1.638 1.314-2.592 2.916-2.592 1.584 0 2.682.954 2.79 2.592zm9.72 5.202h1.422v-12.6h-1.422zm8.568.252c2.664 0 4.5-1.782 4.5-4.536v-.234c0-2.754-1.836-4.536-4.5-4.536s-4.5 1.782-4.5 4.536v.234c0 2.754 1.836 4.536 4.5 4.536m0-1.278c-1.854 0-3.078-1.278-3.078-3.294v-.162c0-2.016 1.206-3.294 3.078-3.294 1.854 0 3.078 1.278 3.078 3.294v.162c0 2.016-1.224 3.294-3.078 3.294m7.146 4.626h1.422v-4.986h.252c.432.81 1.368 1.638 3.204 1.638 2.304 0 4.158-1.728 4.158-4.536v-.234c0-2.826-1.872-4.536-4.158-4.536-1.836 0-2.772.828-3.24 1.71h-.252v-1.458h-1.386zm4.5-4.608c-1.818 0-3.096-1.224-3.096-3.312v-.162c0-2.088 1.278-3.312 3.096-3.312 1.8 0 3.078 1.224 3.078 3.312v.162c0 2.088-1.26 3.312-3.078 3.312m11.215 1.26c2.358 0 3.402-1.314 3.942-2.43l-1.224-.594c-.432.972-1.17 1.764-2.682 1.764-1.746 0-3.006-1.134-3.06-3.024h7.164v-.648c0-2.682-1.728-4.374-4.23-4.374-2.574 0-4.374 1.836-4.374 4.554v.216c0 2.718 1.782 4.536 4.464 4.536m-3.006-5.454c.216-1.638 1.314-2.592 2.916-2.592 1.584 0 2.682.954 2.79 2.592zm9.72 5.202h1.422v-5.364c0-1.476.846-2.178 2.124-2.178h1.134v-1.296h-1.044c-1.062 0-1.692.342-1.998 1.116h-.252v-1.08h-1.386z" aria-label="Developer" style="font-size:18px;font-family:&quot;Space Grotesk&quot;"/><path fill="none" d="M158.235 79.68a606002 606002 0 0 1 164.394 31.314" style="stroke:#000;stroke-width:3"/><path d="m331.47 112.68-12.138-8.422 4.77 7.017-7.017 4.77z" style="stroke:#000;stroke-width:3"/><path d="M219.75 79.878h1.692v-1.242h-1.188c-.324 0-.504-.18-.504-.54v-.918c2.592-.27 4.212-2.016 4.212-5.076v-2.88c0-3.33-1.926-5.112-4.95-5.112-3.006 0-4.932 1.782-4.932 5.112v2.88c0 3.06 1.62 4.806 4.194 5.076v1.188c0 .936.576 1.512 1.476 1.512m-.738-4.014c-2.16 0-3.42-1.386-3.42-3.708v-2.988c0-2.322 1.26-3.708 3.42-3.708 2.178 0 3.438 1.386 3.438 3.708v2.988c0 2.322-1.26 3.708-3.438 3.708m10.89 1.26c1.8 0 2.646-.81 3.042-1.656h.252v1.494h1.386V68.16h-1.422v4.428c0 2.178-1.206 3.294-2.88 3.294-1.494 0-2.43-.756-2.43-2.502v-5.22h-1.422v5.328c0 2.358 1.53 3.636 3.474 3.636m11.682.09c2.358 0 3.402-1.314 3.942-2.43l-1.224-.594c-.432.972-1.17 1.764-2.682 1.764-1.746 0-3.006-1.134-3.06-3.024h7.164v-.648c0-2.682-1.728-4.374-4.23-4.374-2.574 0-4.374 1.836-4.374 4.554v.216c0 2.718 1.782 4.536 4.464 4.536m-3.006-5.454c.216-1.638 1.314-2.592 2.916-2.592 1.584 0 2.682.954 2.79 2.592zm9.63 5.202h1.422v-5.364c0-1.476.846-2.178 2.124-2.178h1.134v-1.296h-1.044c-1.062 0-1.692.342-1.998 1.116h-.252v-1.08h-1.386zm7.488-10.17c.63 0 1.098-.45 1.098-1.08 0-.648-.468-1.098-1.098-1.098-.612 0-1.08.45-1.08 1.098 0 .63.468 1.08 1.08 1.08m-.702 10.17h1.422V68.16h-1.422zm8.442.252c2.358 0 3.402-1.314 3.942-2.43l-1.224-.594c-.432.972-1.17 1.764-2.682 1.764-1.746 0-3.006-1.134-3.06-3.024h7.164v-.648c0-2.682-1.728-4.374-4.23-4.374-2.574 0-4.374 1.836-4.374 4.554v.216c0 2.718 1.782 4.536 4.464 4.536m-3.006-5.454c.216-1.638 1.314-2.592 2.916-2.592 1.584 0 2.682.954 2.79 2.592zm13.176 5.454c2.16 0 3.546-.972 3.546-2.7 0-1.71-1.458-2.286-3.312-2.61l-.738-.126c-1.116-.198-1.818-.522-1.818-1.368s.738-1.314 1.944-1.314c1.188 0 2.07.468 2.286 1.728l1.332-.342c-.36-1.638-1.638-2.574-3.618-2.574-2.016 0-3.348.936-3.348 2.52s1.35 2.286 3.078 2.592l.738.126c1.278.234 2.052.522 2.052 1.422s-.828 1.458-2.142 1.458c-1.332 0-2.52-.54-2.772-2.268l-1.35.306c.306 2.178 1.926 3.15 4.122 3.15" aria-label="Queries" style="font-size:18px;font-family:&quot;Space Grotesk&quot;"/><path fill="none" d="M159.015 178.95c36.96-5.865 85.05-13.89 127.485-22.2 14.385-2.82 20.85-4.113 35.595-7.353" style="stroke:#000;stroke-width:3"/><path d="m330.885 147.465-14.473-2.963 7.148 4.573-4.573 7.148z" style="stroke:#000;stroke-width:3"/><path d="M219.75 145.878h1.692v-1.242h-1.188c-.324 0-.504-.18-.504-.54v-.918c2.592-.27 4.212-2.016 4.212-5.076v-2.88c0-3.33-1.926-5.112-4.95-5.112-3.006 0-4.932 1.782-4.932 5.112v2.88c0 3.06 1.62 4.806 4.194 5.076v1.188c0 .936.576 1.512 1.476 1.512m-.738-4.014c-2.16 0-3.42-1.386-3.42-3.708v-2.988c0-2.322 1.26-3.708 3.42-3.708 2.178 0 3.438 1.386 3.438 3.708v2.988c0 2.322-1.26 3.708-3.438 3.708m10.89 1.26c1.8 0 2.646-.81 3.042-1.656h.252v1.494h1.386v-8.802h-1.422v4.428c0 2.178-1.206 3.294-2.88 3.294-1.494 0-2.43-.756-2.43-2.502v-5.22h-1.422v5.328c0 2.358 1.53 3.636 3.474 3.636m11.682.09c2.358 0 3.402-1.314 3.942-2.43l-1.224-.594c-.432.972-1.17 1.764-2.682 1.764-1.746 0-3.006-1.134-3.06-3.024h7.164v-.648c0-2.682-1.728-4.374-4.23-4.374-2.574 0-4.374 1.836-4.374 4.554v.216c0 2.718 1.782 4.536 4.464 4.536m-3.006-5.454c.216-1.638 1.314-2.592 2.916-2.592 1.584 0 2.682.954 2.79 2.592zm9.63 5.202h1.422v-5.364c0-1.476.846-2.178 2.124-2.178h1.134v-1.296h-1.044c-1.062 0-1.692.342-1.998 1.116h-.252v-1.08h-1.386zm7.488-10.17c.63 0 1.098-.45 1.098-1.08 0-.648-.468-1.098-1.098-1.098-.612 0-1.08.45-1.08 1.098 0 .63.468 1.08 1.08 1.08m-.702 10.17h1.422v-8.802h-1.422zm8.442.252c2.358 0 3.402-1.314 3.942-2.43l-1.224-.594c-.432.972-1.17 1.764-2.682 1.764-1.746 0-3.006-1.134-3.06-3.024h7.164v-.648c0-2.682-1.728-4.374-4.23-4.374-2.574 0-4.374 1.836-4.374 4.554v.216c0 2.718 1.782 4.536 4.464 4.536m-3.006-5.454c.216-1.638 1.314-2.592 2.916-2.592 1.584 0 2.682.954 2.79 2.592zm13.176 5.454c2.16 0 3.546-.972 3.546-2.7 0-1.71-1.458-2.286-3.312-2.61l-.738-.126c-1.116-.198-1.818-.522-1.818-1.368s.738-1.314 1.944-1.314c1.188 0 2.07.468 2.286 1.728l1.332-.342c-.36-1.638-1.638-2.574-3.618-2.574-2.016 0-3.348.936-3.348 2.52s1.35 2.286 3.078 2.592l.738.126c1.278.234 2.052.522 2.052 1.422s-.828 1.458-2.142 1.458c-1.332 0-2.52-.54-2.772-2.268l-1.35.306c.306 2.178 1.926 3.15 4.122 3.15" aria-label="Queries" style="font-size:18px;font-family:&quot;Space Grotesk&quot;"/><path fill="none" d="M507.015 128.25h172.41" style="stroke:#000;stroke-width:3"/><path d="m498.015 128.25 13.5 6-6-6 6-6z" style="stroke:#000;stroke-width:3"/><path d="M557.994 114.714c2.826 0 4.662-1.53 4.662-4.464v-8.388h-1.512v8.406c0 2.052-1.152 3.096-3.15 3.096s-3.132-1.044-3.132-3.096v-8.406h-1.512v8.388c0 2.934 1.836 4.464 4.644 4.464m7.638 3.348h1.422v-4.986h.252c.432.81 1.368 1.638 3.204 1.638 2.304 0 4.158-1.728 4.158-4.536v-.234c0-2.826-1.872-4.536-4.158-4.536-1.836 0-2.772.828-3.24 1.71h-.252v-1.458h-1.386zm4.5-4.608c-1.818 0-3.096-1.224-3.096-3.312v-.162c0-2.088 1.278-3.312 3.096-3.312 1.8 0 3.078 1.224 3.078 3.312v.162c0 2.088-1.26 3.312-3.078 3.312m10.968 1.26c1.836 0 2.754-.828 3.24-1.71h.252v1.458h1.386v-12.6h-1.422v5.184h-.252c-.45-.81-1.368-1.638-3.204-1.638-2.304 0-4.158 1.728-4.158 4.536v.234c0 2.826 1.872 4.536 4.158 4.536m.378-1.26c-1.818 0-3.096-1.224-3.096-3.312v-.162c0-2.088 1.278-3.312 3.096-3.312s3.078 1.224 3.078 3.312v.162c0 2.088-1.278 3.312-3.078 3.312m10.338 1.26c1.818 0 2.556-.864 2.934-1.566h.216v.09c0 .756.522 1.224 1.314 1.224h1.242v-1.206h-.81c-.324 0-.504-.18-.504-.54v-3.978c0-2.106-1.332-3.33-3.564-3.33-2.214 0-3.402 1.206-3.816 2.682l1.332.432c.27-1.134 1.044-1.89 2.466-1.89 1.458 0 2.178.774 2.178 2.016v.648h-2.97c-1.89 0-3.312.882-3.312 2.664 0 1.764 1.422 2.754 3.294 2.754m.162-1.224c-1.224 0-2.034-.576-2.034-1.566s.81-1.476 1.944-1.476h2.916v.198c0 1.8-1.134 2.844-2.826 2.844m10.302.972h2.34v-1.242h-1.962c-.378 0-.522-.18-.522-.54v-5.778h2.88v-1.242h-2.88v-3.132h-1.422v3.132h-2.646v1.242h2.646v6.012c0 .954.558 1.548 1.566 1.548m8.898.252c2.358 0 3.402-1.314 3.942-2.43l-1.224-.594c-.432.972-1.17 1.764-2.682 1.764-1.746 0-3.006-1.134-3.06-3.024h7.164v-.648c0-2.682-1.728-4.374-4.23-4.374-2.574 0-4.374 1.836-4.374 4.554v.216c0 2.718 1.782 4.536 4.464 4.536m-3.006-5.454c.216-1.638 1.314-2.592 2.916-2.592 1.584 0 2.682.954 2.79 2.592zm13.327 5.454c2.16 0 3.546-.972 3.546-2.7 0-1.71-1.458-2.286-3.312-2.61l-.738-.126c-1.116-.198-1.818-.522-1.818-1.368s.738-1.314 1.944-1.314c1.188 0 2.07.468 2.286 1.728l1.332-.342c-.36-1.638-1.638-2.574-3.618-2.574-2.016 0-3.348.936-3.348 2.52s1.35 2.286 3.078 2.592l.738.126c1.278.234 2.052.522 2.052 1.422s-.828 1.458-2.142 1.458c-1.332 0-2.52-.54-2.772-2.268l-1.35.306c.306 2.178 1.926 3.15 4.122 3.15" aria-label="Updates" style="font-size:18px;font-family:&quot;Space Grotesk&quot;"/></svg>