<svg xmlns="http://www.w3.org/2000/svg" width="852" height="495" fill="none"><path fill="#fff" d="M0 0h852v495H0z"/><path d="M80.984 167.952c9.428 0 15.423-5.122 15.423-12.571 0-7.45-5.762-10.476-14.434-12.339l-1.338-.29c-4.89-1.048-7.159-2.503-7.159-5.53 0-3.026 2.153-4.889 6.81-4.889 4.655 0 7.507 1.863 7.507 6.519v1.746h7.566v-1.746c0-8.847-6.344-13.27-15.074-13.27s-14.375 4.423-14.375 11.873 4.947 10.301 13.386 12.164l1.339.29c5.238 1.165 8.206 2.329 8.206 5.704 0 3.26-2.62 5.588-7.857 5.588-5.238 0-8.44-2.445-8.44-7.334v-1.63H64.98v1.63c0 8.847 6.576 14.085 16.005 14.085m21.36 10.825h7.332V163.82h1.048c1.222 2.037 3.725 4.132 8.963 4.132 6.984 0 13.037-5.355 13.037-14.783v-.931c0-9.429-6.111-14.783-13.037-14.783-5.238 0-7.74 2.095-9.08 4.307h-1.047v-3.492h-7.217zm15.131-17.227c-4.54 0-7.915-2.968-7.915-8.556v-.582c0-5.587 3.434-8.555 7.915-8.555 4.482 0 7.915 2.968 7.915 8.555v.582c0 5.588-3.375 8.556-7.915 8.556m30.963 6.402c6.052 0 7.857-3.26 8.38-4.714h1.106v.058c0 2.328 2.095 3.841 4.947 3.841h4.89v-6.053h-2.329c-1.048 0-1.63-.582-1.63-1.746v-10.767c0-7.217-4.772-11.116-12.338-11.116-7.508 0-11.29 3.783-12.688 8.148l6.752 2.27c.523-2.62 2.153-4.482 5.82-4.482 3.724 0 5.354 1.98 5.354 4.656v1.63h-7.915c-6.519 0-11.175 3.085-11.175 9.021s4.656 9.254 10.826 9.254m1.28-5.937c-3.143 0-4.772-1.455-4.772-3.55s1.63-3.317 4.365-3.317h7.391v.582c0 3.841-2.91 6.285-6.984 6.285m36.375 5.937c8.264 0 12.979-4.83 14.492-11.058l-7.1-1.688c-.64 3.725-2.794 6.227-7.217 6.227-4.424 0-7.8-2.968-7.8-8.439v-.582c0-5.47 3.376-8.439 7.8-8.439s6.576 2.678 7.042 6.17l7.1-1.514c-1.222-6.402-6.053-11.174-14.317-11.174-8.38 0-14.957 5.413-14.957 14.841v.815c0 9.428 6.576 14.84 14.957 14.84m33.698 0c7.915 0 11.349-4.482 12.978-7.566l-5.994-3.143c-.99 2.212-2.677 4.307-6.751 4.307s-7.159-2.736-7.334-6.693h21.01v-2.503c0-8.846-5.528-14.899-14.026-14.899-8.613 0-14.433 5.82-14.433 14.9v.698c0 9.079 5.878 14.899 14.55 14.899m-7.042-18.566c.523-3.317 2.91-5.529 6.867-5.529 3.783 0 6.286 2.212 6.635 5.529zm56.104 18.566c6.286 0 8.148-2.736 8.963-4.714h1.048v3.899h7.1v-20.836h-17.227v6.519h9.661v.582c0 4.54-2.444 7.799-8.031 7.799s-8.847-3.725-8.847-9.429v-10.01c0-5.704 3.26-9.312 8.73-9.312s8.148 3.375 8.148 7.682v.466h7.566v-.233c0-9.08-5.703-14.783-15.714-14.783-10.127 0-16.412 5.82-16.412 16.296v9.778c0 10.476 6.635 16.296 15.015 16.296m24.677-.815h7.333v-16.412c0-4.074 2.678-6.053 6.402-6.053h3.609v-6.519h-3.492c-2.677 0-4.773 1.048-5.587 3.376h-1.048v-3.26h-7.217zm35.735.815c8.614 0 15.132-5.471 15.132-14.783v-.931c0-9.312-6.518-14.783-15.132-14.783s-15.132 5.47-15.132 14.783v.931c0 9.312 6.518 14.783 15.132 14.783m0-6.519c-4.481 0-7.799-3.026-7.799-8.439v-.582c0-5.412 3.26-8.439 7.8-8.439 4.539 0 7.798 3.027 7.798 8.44v.581c0 5.413-3.318 8.44-7.799 8.44m32.01 5.704h8.148v-6.053h-5.587c-1.048 0-1.63-.582-1.63-1.746v-15.015h7.915v-6.053h-7.915v-8.963h-7.333v8.963h-7.217v6.053h7.217v16.296c0 3.957 2.56 6.518 6.402 6.518m27.587.815c7.915 0 11.349-4.482 12.978-7.566l-5.994-3.143c-.99 2.212-2.677 4.307-6.751 4.307s-7.159-2.736-7.334-6.693h21.01v-2.503c0-8.846-5.528-14.899-14.026-14.899-8.613 0-14.433 5.82-14.433 14.9v.698c0 9.079 5.878 14.899 14.55 14.899m-7.042-18.566c.523-3.317 2.91-5.529 6.867-5.529 3.783 0 6.286 2.212 6.635 5.529zm39.46 18.566c7.332 0 12.105-3.434 12.105-9.487s-5.122-7.915-11.64-9.079l-1.63-.291c-2.677-.466-4.307-1.222-4.307-3.085 0-1.687 1.514-2.735 4.307-2.735s4.773 1.106 5.413 4.074l6.81-2.095c-1.34-4.656-5.763-7.799-12.223-7.799-6.867 0-11.407 3.201-11.407 8.905s5.005 7.973 11.058 9.079l1.63.29c3.433.641 4.888 1.456 4.888 3.26s-1.63 3.143-5.005 3.143-6.11-1.28-6.867-5.355l-6.752 1.746c.99 6.053 6.053 9.429 13.62 9.429m18.507-.815h7.333v-11.465h1.048l10.126 11.465h9.429l-13.794-14.9 13.328-13.967h-9.545l-9.544 10.65h-1.048v-22.523h-7.333zm46.21 0h21.185c7.275 0 12.339-3.958 12.339-10.767v-.582c0-5.82-3.9-8.09-6.46-8.788v-1.048c2.502-.756 6.227-3.026 6.227-8.672v-.582c0-6.343-4.889-10.301-12.338-10.301h-20.952v6.751h5.354v27.238h-5.354zm13.037-23.978v-9.778h7.1c3.26 0 5.472 1.688 5.472 4.598v.582c0 2.91-2.27 4.598-5.471 4.598zm0 16.994v-10.01h7.217c3.376 0 5.587 1.687 5.587 4.714v.582c0 3.026-2.27 4.714-5.587 4.714zm40.74 7.799c8.614 0 15.132-5.471 15.132-14.783v-.931c0-9.312-6.518-14.783-15.132-14.783-8.613 0-15.132 5.47-15.132 14.783v.931c0 9.312 6.519 14.783 15.132 14.783m0-6.519c-4.481 0-7.799-3.026-7.799-8.439v-.582c0-5.412 3.26-8.439 7.8-8.439 4.539 0 7.798 3.027 7.798 8.44v.581c0 5.413-3.317 8.44-7.799 8.44m21.883 5.704h7.334v-40.74h-7.334zm27.122.815c5.238 0 7.74-2.095 9.079-4.307h1.048v3.492h7.216v-40.74h-7.333v15.19h-1.047c-1.223-2.037-3.725-4.132-8.963-4.132-6.984 0-13.037 5.354-13.037 14.783v.931c0 9.428 6.11 14.783 13.037 14.783m2.211-6.402c-4.481 0-7.915-2.968-7.915-8.556v-.582c0-5.587 3.376-8.555 7.915-8.555 4.54 0 7.916 2.968 7.916 8.555v.582c0 5.588-3.434 8.556-7.916 8.556" aria-label="Space Grotesk Bold" style="font-weight:700;font-size:58.2px;font-family:&quot;Space Grotesk&quot;;letter-spacing:0;white-space:pre;fill:#2d4e44"/><path d="M81.217 97.952c8.846 0 14.608-4.714 14.608-11.931 0-7.159-5.53-9.836-12.571-11.465l-3.027-.757c-5.412-1.339-8.613-2.794-8.613-7.159s3.492-6.809 8.904-6.809c5.587 0 9.661 2.444 9.661 8.323v2.444h4.831v-2.444c0-8.323-6.286-12.572-14.492-12.572S66.783 59.831 66.783 66.7c0 6.867 4.889 9.66 12.106 11.407l3.026.756c5.47 1.28 9.08 2.794 9.08 7.275 0 4.365-3.435 7.566-9.778 7.566-6.228 0-10.593-3.2-10.593-10.01v-1.222h-4.83v1.222c0 9.545 6.518 14.259 15.423 14.259m22.29 10.825h4.598V92.656h.815c1.397 2.619 4.423 5.296 10.36 5.296 7.45 0 13.444-5.587 13.444-14.666v-.757c0-9.137-6.053-14.666-13.445-14.666-5.936 0-8.962 2.677-10.476 5.529h-.814v-4.715h-4.482zm14.55-14.899c-5.878 0-10.01-3.958-10.01-10.709v-.524c0-6.75 4.132-10.708 10.01-10.708 5.82 0 9.952 3.957 9.952 10.708v.524c0 6.751-4.074 10.709-9.952 10.709m31.661 4.074c5.878 0 8.264-2.794 9.487-5.063h.698v.29c0 2.445 1.688 3.958 4.249 3.958h4.015v-3.9h-2.619c-1.047 0-1.63-.581-1.63-1.745V78.63c0-6.81-4.306-10.767-11.523-10.767-7.158 0-11 3.899-12.338 8.671l4.307 1.397c.873-3.666 3.375-6.11 7.973-6.11 4.714 0 7.042 2.502 7.042 6.518v2.095h-9.603c-6.11 0-10.709 2.852-10.709 8.613 0 5.704 4.598 8.905 10.651 8.905m.524-3.958c-3.958 0-6.577-1.862-6.577-5.063s2.62-4.772 6.286-4.772h9.428v.64c0 5.82-3.666 9.195-9.137 9.195m36.491 3.958c8.206 0 12.63-5.122 13.852-10.825l-4.54-.99c-.698 4.365-3.608 7.683-9.254 7.683s-9.952-4.016-9.952-10.65v-.525c0-6.634 4.307-10.65 9.952-10.65 5.646 0 8.498 3.492 9.08 7.682l4.481-.931c-.931-5.762-5.413-10.883-13.619-10.883-8.322 0-14.492 5.587-14.492 14.724v.64c0 9.138 6.17 14.725 14.492 14.725m34.746 0c7.624 0 11-4.249 12.745-7.857l-3.957-1.92c-1.397 3.142-3.783 5.703-8.672 5.703-5.645 0-9.72-3.667-9.894-9.778h23.164v-2.095c0-8.672-5.588-14.142-13.677-14.142-8.323 0-14.143 5.936-14.143 14.724v.699c0 8.788 5.762 14.666 14.434 14.666m-9.72-17.635c.699-5.296 4.249-8.38 9.429-8.38 5.121 0 8.671 3.084 9.02 8.38zm60.12 17.635c6.286 0 8.847-2.619 10.07-5.238h.814v4.423h4.423v-19.38h-17.11v4.19h12.338v.99c0 6.46-3.143 10.65-9.952 10.65-6.984 0-11.058-4.481-11.058-12.047v-9.545c0-7.566 4.074-12.048 11-12.048 6.925 0 9.952 4.307 9.952 10.069v.407h4.83v-.29c0-8.847-5.18-14.55-14.782-14.55-9.662 0-15.889 5.761-15.889 16.528v9.312c0 10.767 6.286 16.529 15.365 16.529m24.387-.815h4.597V79.794c0-4.773 2.736-7.043 6.868-7.043h3.667v-4.19h-3.376c-3.434 0-5.47 1.106-6.46 3.608h-.815v-3.492h-4.481zm34.047.815c8.613 0 14.55-5.762 14.55-14.666v-.757c0-8.905-5.937-14.666-14.55-14.666-8.614 0-14.55 5.761-14.55 14.666v.757c0 8.904 5.936 14.666 14.55 14.666m0-4.132c-5.995 0-9.952-4.132-9.952-10.65v-.525c0-6.518 3.899-10.65 9.952-10.65 5.994 0 9.952 4.132 9.952 10.65v.524c0 6.519-3.958 10.65-9.952 10.65m32.126 3.317h7.566v-4.016h-6.344c-1.222 0-1.687-.582-1.687-1.746V72.693h9.312v-4.016h-9.312V58.551h-4.598v10.126h-8.556v4.016h8.556v19.439c0 3.085 1.804 5.005 5.063 5.005m28.285.815c7.624 0 11-4.249 12.746-7.857l-3.958-1.92c-1.396 3.142-3.783 5.703-8.671 5.703-5.646 0-9.72-3.667-9.894-9.778h23.163v-2.095c0-8.672-5.587-14.142-13.677-14.142-8.322 0-14.142 5.936-14.142 14.724v.699c0 8.788 5.761 14.666 14.433 14.666m-9.72-17.635c.7-5.296 4.25-8.38 9.43-8.38 5.12 0 8.671 3.084 9.02 8.38zm42.603 17.635c6.984 0 11.466-3.143 11.466-8.73 0-5.529-4.714-7.391-10.71-8.439l-2.385-.407c-3.609-.64-5.878-1.688-5.878-4.424 0-2.735 2.386-4.248 6.285-4.248 3.841 0 6.693 1.513 7.392 5.587l4.306-1.106c-1.164-5.296-5.296-8.322-11.698-8.322-6.518 0-10.825 3.026-10.825 8.148s4.365 7.391 9.952 8.38l2.386.408c4.133.756 6.635 1.688 6.635 4.598s-2.677 4.714-6.926 4.714c-4.306 0-8.148-1.746-8.962-7.333l-4.365.989c.989 7.042 6.227 10.185 13.327 10.185m19.206-.815h4.598V84.741h.815l13.56 12.396h6.344L451.893 82.53l15.772-13.852h-6.402l-13.037 11.699h-.815V56.397h-4.598zm46.095 0h4.889V80.434h14.084c2.619 0 3.841 1.28 3.841 3.608v13.095h4.83V83.46c0-3.492-2.036-5.18-4.83-5.296v-.815c3.492-1.106 6.46-4.132 6.46-9.486v-.64c0-6.752-5.296-10.826-12.804-10.826h-16.47zm4.889-21.126V60.82h11.116c5.412 0 8.38 2.677 8.38 7.39v.408c0 4.656-3.084 7.392-8.38 7.392zm45.046 21.941c7.625 0 11-4.249 12.746-7.857l-3.957-1.92c-1.397 3.142-3.783 5.703-8.672 5.703-5.646 0-9.72-3.667-9.894-9.778h23.163v-2.095c0-8.672-5.587-14.142-13.677-14.142-8.322 0-14.142 5.936-14.142 14.724v.699c0 8.788 5.762 14.666 14.433 14.666m-9.719-17.635c.698-5.296 4.249-8.38 9.428-8.38 5.122 0 8.672 3.084 9.021 8.38zm29.74 2.736c0 8.904 5.995 14.375 13.444 14.375 5.995 0 8.963-2.735 10.36-5.296h.815v10.825q0 1.746-1.746 1.746h-18.1v4.074h19.322c3.26 0 5.005-1.92 5.005-5.005V68.677H583.6v4.715h-.815c-1.513-2.794-4.48-5.53-10.476-5.53-7.45 0-13.444 5.471-13.444 14.376zm14.667 10.301c-5.879 0-10.01-3.9-10.01-10.476v-.465c0-6.577 4.131-10.476 10.01-10.476s9.952 3.899 9.952 10.476v.465c0 6.577-4.132 10.476-9.952 10.476m34.978 4.307c5.82 0 8.555-2.619 9.836-5.354h.814v4.83h4.482v-28.46h-4.598v14.318c0 7.042-3.9 10.65-9.312 10.65-4.83 0-7.857-2.444-7.857-8.09V68.677h-4.598v17.228c0 7.624 4.947 11.756 11.233 11.756m24.735-.524h4.598v-40.74h-4.598zm22.989.815c5.878 0 8.264-2.794 9.486-5.063h.699v.29c0 2.445 1.688 3.958 4.248 3.958h4.016v-3.9h-2.619c-1.047 0-1.63-.581-1.63-1.745V78.63c0-6.81-4.306-10.767-11.523-10.767-7.159 0-11 3.899-12.338 8.671l4.306 1.397c.873-3.666 3.376-6.11 7.974-6.11 4.714 0 7.042 2.502 7.042 6.518v2.095h-9.603c-6.11 0-10.709 2.852-10.709 8.613 0 5.704 4.598 8.905 10.65 8.905m.524-3.958c-3.958 0-6.577-1.862-6.577-5.063s2.62-4.772 6.286-4.772h9.428v.64c0 5.82-3.667 9.195-9.137 9.195m24.21 3.143h4.599V79.794c0-4.773 2.735-7.043 6.867-7.043h3.667v-4.19h-3.376c-3.433 0-5.47 1.106-6.46 3.608h-.815v-3.492h-4.481z" aria-label="Space Grotesk Regular" style="font-size:58.2px;font-family:&quot;Space Grotesk&quot;;letter-spacing:0;white-space:pre;fill:#000"/><path d="M65.04 321.69c2.52 1.68 7.02 2.7 10.62 2.7 8.04 0 13.38-4.56 13.38-11.52 0-3.66-1.5-6.78-8.28-12.06-4.26-3.24-5.88-5.58-5.88-8.76 0-4.44 3.36-6.66 9.24-6.66 1.2 0 2.34.12 3.96.72l.36 7.38h3.54l1.38-8.4c-3.36-1.98-6.72-2.7-9.96-2.7-7.62 0-13.08 4.62-13.08 10.98 0 3.72 1.56 7.14 7.74 11.82 5.34 4.14 6.18 6.3 6.18 9 0 4.14-2.82 7.2-8.82 7.2-1.74 0-3.48-.24-5.1-.72l-.72-7.5h-3.42zm39.96 2.58c8.4 0 15.36-9.06 15.36-19.5 0-6.78-4.08-10.5-9.72-10.5-8.52 0-15.66 8.64-15.66 19.44 0 6.84 4.44 10.56 10.02 10.56m.66-2.4c-3.36 0-5.76-2.58-5.76-8.88 0-8.94 4.38-16.32 10.08-16.32 3.24 0 5.52 2.52 5.52 9 0 8.04-3.96 16.2-9.84 16.2m40.08 2.4c4.32 0 7.5-3.72 10.26-7.32l-1.44-1.14c-2.52 2.88-4.32 4.32-5.94 4.32-.72 0-1.38-.48-1.38-1.32 0-.66.24-1.92.54-3.42l4.26-20.52-.78-.6-3.9 1.2c-.6 3.84-1.38 7.68-2.16 11.52l-1.62 7.98c-4.56 3.6-7.02 5.16-9.54 5.16-1.44 0-2.28-.84-2.28-2.58 0-1.32.36-3.24.9-5.7l3.78-16.98-.78-.6-10.44 3-.24 1.8 5.94.3-2.76 12.96c-.48 2.34-1.26 5.34-1.26 7.56 0 3.3 1.86 4.38 4.14 4.38 3.66 0 7.38-2.58 12-6.84-.42 2.04-.48 2.94-.48 3.72 0 2.1 1.56 3.12 3.18 3.12m14.16-.78.6.48 4.02-.48c.78-4.26 1.5-8.4 2.4-12.6l.72-3.12c2.16-4.2 4.5-7.5 7.38-9.9 1.2.9 2.52 1.56 3.54 1.56 1.98 0 3.12-1.38 3.18-3.36-.84-1.32-2.34-1.8-4.02-1.8-3.18 0-6.48 4.14-9.06 8.64l1.32-8.04-.78-.6-9.9 3.06-.24 1.74 5.94.36zm30.18.78c4.08 0 8.46-3.24 10.86-7.44l-1.38-1.08c-1.68 2.04-4.14 4.38-7.32 4.38-3.96 0-6.66-2.52-6.66-7.74 0-7.38 4.38-14.04 9.54-15.84l1.8 2.04c1.08 1.2 2.22 2.16 3.54 2.16 1.14 0 2.28-.6 2.52-2.1-.66-2.58-2.82-4.38-6.48-4.38-7.56 0-15.42 8.64-15.42 18.78 0 7.5 3.72 11.22 9 11.22m29.16-27.42c1.98 0 3.36 1.32 3.36 3.54 0 3.24-3.54 7.38-13.5 10.26.6-7.5 6.42-13.8 10.14-13.8m-5.28 27.42c4.38 0 8.28-3.36 10.8-7.44l-1.38-1.08c-1.62 2.04-4.32 4.38-8.1 4.38-3.66 0-5.94-2.04-6.18-7.14 13.68-3.96 17.46-9.36 17.46-13.2 0-3.54-2.1-5.52-6-5.52-8.4 0-15.66 9.18-15.66 18.84 0 7.68 3.78 11.16 9.06 11.16m28.2-2.58c2.52 1.68 7.02 2.7 10.62 2.7 8.04 0 13.38-4.56 13.38-11.52 0-3.66-1.5-6.78-8.28-12.06-4.26-3.24-5.88-5.58-5.88-8.76 0-4.44 3.36-6.66 9.24-6.66 1.2 0 2.34.12 3.96.72l.36 7.38h3.54l1.38-8.4c-3.36-1.98-6.72-2.7-9.96-2.7-7.62 0-13.08 4.62-13.08 10.98 0 3.72 1.56 7.14 7.74 11.82 5.34 4.14 6.18 6.3 6.18 9 0 4.14-2.82 7.2-8.82 7.2-1.74 0-3.48-.24-5.1-.72l-.72-7.5h-3.42zm44.28-24.84c1.98 0 3.36 1.32 3.36 3.54 0 3.24-3.54 7.38-13.5 10.26.6-7.5 6.42-13.8 10.14-13.8m-5.28 27.42c4.38 0 8.28-3.36 10.8-7.44l-1.38-1.08c-1.62 2.04-4.32 4.38-8.1 4.38-3.66 0-5.94-2.04-6.18-7.14 13.68-3.96 17.46-9.36 17.46-13.2 0-3.54-2.1-5.52-6-5.52-8.4 0-15.66 9.18-15.66 18.84 0 7.68 3.78 11.16 9.06 11.16m16.68-.78.6.48 4.02-.48c.78-4.26 1.5-8.4 2.4-12.6l.72-3.12c2.16-4.2 4.5-7.5 7.38-9.9 1.2.9 2.52 1.56 3.54 1.56 1.98 0 3.12-1.38 3.18-3.36-.84-1.32-2.34-1.8-4.02-1.8-3.18 0-6.48 4.14-9.06 8.64l1.32-8.04-.78-.6-9.9 3.06-.24 1.74 5.94.36zm24.84-2.28c0 2.04 1.62 3.06 3.24 3.06 4.26 0 7.38-3.72 10.08-7.32l-1.5-1.14q-3.6 4.32-5.76 4.32c-.66 0-1.32-.48-1.32-1.32 0-.66.24-1.92.54-3.42l4.26-20.52-.78-.6-10.2 3.06-.24 1.74 5.94.36-3.6 17.4c-.54 2.46-.66 3.48-.66 4.38m8.82-35.1c1.86 0 3.54-1.86 3.54-3.78 0-2.16-1.32-3.48-3.24-3.48-1.86 0-3.54 1.74-3.54 3.72 0 2.22 1.32 3.54 3.24 3.54m26.28-7.62c-3.9 0-10.8 2.76-12.84 16.02l-.06.54-6.24.54-.48 2.28h6.24c-1.26 8.1-2.46 15.48-3.9 23.52-1.14 6.24-2.16 9.6-3.66 11.82-.84 1.14-1.68 1.98-2.46 2.58l-.72-.72c-1.32-1.32-2.64-2.46-4.38-2.46-1.32 0-2.52.9-2.76 2.16.54 2.28 2.88 3.72 5.58 3.72 1.92 0 3.9-.72 6.36-2.94 3.36-3 4.92-7.74 6.18-14.16 1.5-7.56 2.76-15.78 4.02-23.4l7.74.24.48-3.18h-7.74c.06-.24.06-.42.12-.66 1.5-9.18 4.2-12.54 7.26-13.92l.96 1.14c1.92 2.34 2.94 3.3 4.74 3.3 1.08 0 1.92-.6 2.34-2.04-.48-2.22-3.24-4.38-6.78-4.38m30.06 7.62c5.82 0 8.94 2.88 8.94 8.4 0 6.24-3.78 10.62-11.46 10.62h-3.54l.06-.24 3.54-18.78zm-13.26-.36 5.46.66q-1.26 7.74-2.7 15.48l-3.54 18.6-5.1.6-.48 2.4h16.2l.48-2.4-5.76-.72c.66-4.14 1.38-8.34 2.16-12.48h4.14c10.86 0 16.92-5.94 16.92-14.04 0-6.24-4.5-10.56-13.62-10.56h-13.68zm31.02 37.74.6.48 4.02-.48c.78-4.26 1.5-8.4 2.4-12.6l.72-3.12c2.16-4.2 4.5-7.5 7.38-9.9 1.2.9 2.52 1.56 3.54 1.56 1.98 0 3.12-1.38 3.18-3.36-.84-1.32-2.34-1.8-4.02-1.8-3.18 0-6.48 4.14-9.06 8.64l1.32-8.04-.78-.6-9.9 3.06-.24 1.74 5.94.36zm31.2.78c8.4 0 15.36-9.06 15.36-19.5 0-6.78-4.08-10.5-9.72-10.5-8.52 0-15.66 8.64-15.66 19.44 0 6.84 4.44 10.56 10.02 10.56m.66-2.4c-3.36 0-5.76-2.58-5.76-8.88 0-8.94 4.38-16.32 10.08-16.32 3.24 0 5.52 2.52 5.52 9 0 8.04-3.96 16.2-9.84 16.2m36.72-36.12 5.46.66q-1.26 7.74-2.7 15.48l-3.54 18.6-5.1.6-.48 2.4h15.9l.48-2.4-5.46-.66c.84-5.16 1.74-10.38 2.7-15.54l3.48-18.54 5.16-.6.48-2.46h-15.9zm18.36 31.08c-.48 2.46-.6 3.48-.6 4.38 0 2.04 1.56 3.06 3.3 3.06 4.08 0 7.74-3.72 10.26-7.32l-1.5-1.14c-2.4 2.88-4.26 4.32-5.88 4.32-.72 0-1.44-.48-1.44-1.38 0-.6.18-1.86.54-3.48l3.66-17.22 7.74.24.48-3.24h-7.62l1.74-8.1h-3.06l-2.82 8.04-6.48.6-.42 2.4h6.12zm21.12-2.1c0-5.28 2.28-10.02 5.16-13.02 2.16-2.22 4.68-3.48 6.6-3.48 1.26 0 2.52.48 3.66 1.14l-3.24 15c-3.96 4.32-6.48 5.76-8.58 5.76-2.16 0-3.6-1.74-3.6-5.4m14.4 9.54c4.02 0 7.8-3.84 10.14-7.32l-1.44-1.14c-2.1 2.58-4.38 4.32-5.88 4.32-.78 0-1.44-.48-1.44-1.32 0-.66.18-1.92.54-3.42l4.8-21.18-1.08-.54-2.76 2.22c-.96-1.02-2.04-1.62-3.42-1.62-7.74 0-18.54 12.48-18.54 22.92 0 4.98 2.82 7.08 5.7 7.08 3.24 0 7.02-2.7 10.5-6.66-.18 1.08-.24 2.04-.24 3.18 0 2.4 1.5 3.48 3.12 3.48m17.34 0c4.26 0 7.26-3.78 9.84-7.32l-1.38-1.14c-2.4 2.76-4.44 4.32-5.7 4.32-.78 0-1.5-.48-1.5-1.38 0-.6.18-1.86.54-3.48l7.2-35.7-.66-.48-10.32 3-.24 1.74 5.64.36c-.54 3.6-1.2 7.14-1.92 10.68l-4.32 21.9c-.36 2.1-.54 3.18-.54 4.02 0 2.34 1.5 3.48 3.36 3.48m14.34-3.06c0 2.04 1.62 3.06 3.24 3.06 4.26 0 7.38-3.72 10.08-7.32l-1.5-1.14q-3.6 4.32-5.76 4.32c-.66 0-1.32-.48-1.32-1.32 0-.66.24-1.92.54-3.42l4.26-20.52-.78-.6-10.2 3.06-.24 1.74 5.94.36-3.6 17.4c-.54 2.46-.66 3.48-.66 4.38m8.82-35.1c1.86 0 3.54-1.86 3.54-3.78 0-2.16-1.32-3.48-3.24-3.48-1.86 0-3.54 1.74-3.54 3.72 0 2.22 1.32 3.54 3.24 3.54m16.32 38.16c4.08 0 8.46-3.24 10.86-7.44l-1.38-1.08c-1.68 2.04-4.14 4.38-7.32 4.38-3.96 0-6.66-2.52-6.66-7.74 0-7.38 4.38-14.04 9.54-15.84l1.8 2.04c1.08 1.2 2.22 2.16 3.54 2.16 1.14 0 2.28-.6 2.52-2.1-.66-2.58-2.82-4.38-6.48-4.38-7.56 0-15.42 8.64-15.42 18.78 0 7.5 3.72 11.22 9 11.22" aria-label="Source Serif Pro Italic" style="font-style:italic;font-size:60px;font-family:&quot;Source Serif Pro&quot;;letter-spacing:0;white-space:pre;fill:#2d4e44"/><path d="M77.1 254.39c8.34 0 14.22-4.32 14.22-11.4 0-5.7-3.06-9.18-10.92-12.24l-2.4-.9c-4.32-1.68-6.78-3.9-6.78-7.62 0-4.44 3.54-6.78 8.1-6.78 1.86 0 3.36.36 4.92 1.2l1.26 6.78h3.66l.36-7.86c-2.58-1.92-5.82-3.12-9.84-3.12-7.68 0-13.5 4.2-13.5 11.1 0 6.12 4.14 9.66 10.32 12.06l2.34.96c5.1 1.98 7.38 3.72 7.38 7.56 0 4.62-3.66 7.26-9.3 7.26-2.58 0-4.38-.48-6.24-1.5l-1.2-7.08h-3.72l-.36 8.4c2.76 1.8 7.2 3.18 11.7 3.18m33.06-.12c6.96 0 13.8-4.98 13.8-14.88 0-9.96-6.9-15.18-13.8-15.18-6.96 0-13.74 5.22-13.74 15.18 0 9.9 6.72 14.88 13.74 14.88m0-2.7c-5.22 0-8.04-4.14-8.04-12.18 0-8.1 2.82-12.42 8.04-12.42 5.16 0 8.1 4.32 8.1 12.42 0 8.04-2.94 12.18-8.1 12.18m29.28 2.7c3.66 0 7.44-1.68 10.62-5.64l.6 5.34 8.34-.48v-2.16l-4.08-.84v-16.86l.18-8.4-.6-.6-8.7.84v2.16l4.26.84-.18 17.64c-2.76 2.58-5.64 3.9-8.4 3.9-3.24 0-4.8-1.86-4.8-7.08v-9.3l.3-8.4-.6-.6-8.82.84v2.16l4.26.9-.18 14.94c-.06 7.92 2.94 10.8 7.8 10.8m24.12-.78h14.58v-2.16l-4.92-.9c-.06-3-.12-6.9-.12-9.54v-4.5c1.02-3.42 2.58-5.94 4.98-7.74l.72.66c1.14.96 2.28 1.5 3.66 1.5 2.4 0 3.54-1.56 3.54-4.38-.72-1.32-2.52-2.22-4.32-2.22-3.24 0-6.66 2.88-8.64 7.68l-.66-7.08-.9-.6-8.4 3.66v2.1l4.74.54c.12 2.4.18 4.2.18 7.5v2.88c0 2.7-.06 6.66-.12 9.66l-4.32.78zm38.28.78c5.64 0 9.48-2.7 11.16-7.68l-1.5-.78c-1.86 2.94-4.86 4.56-8.28 4.56-5.64 0-9.6-4.08-9.6-11.64 0-7.68 3.72-11.76 8.82-11.76 1.02 0 2.1.12 3.24.48l1.08 3.96c.42 1.68 1.26 2.88 3.3 2.88 1.5 0 2.46-.72 2.76-2.28-.78-4.44-5.22-7.8-10.62-7.8-7.2 0-13.86 5.64-13.86 15.12 0 9.24 5.28 14.94 13.5 14.94m29.4-27.3c3.72 0 6.54 3.06 6.54 6.48 0 1.74-.66 3.12-3.54 3.12h-10.92c.66-6.96 4.56-9.6 7.92-9.6m-.06 27.3c5.46 0 9.3-2.7 11.52-6.96l-1.44-1.14c-2.16 2.52-4.5 4.2-8.34 4.2-5.76 0-9.6-3.9-9.72-11.28h19.14c.24-.78.42-1.98.42-3.36 0-7.26-4.92-11.52-11.16-11.52-7.5 0-13.8 6.12-13.8 15.3s5.28 14.76 13.38 14.76m42.6.12c8.34 0 14.22-4.32 14.22-11.4 0-5.7-3.06-9.18-10.92-12.24l-2.4-.9c-4.32-1.68-6.78-3.9-6.78-7.62 0-4.44 3.54-6.78 8.1-6.78 1.86 0 3.36.36 4.92 1.2l1.26 6.78h3.66l.36-7.86c-2.58-1.92-5.82-3.12-9.84-3.12-7.68 0-13.5 4.2-13.5 11.1 0 6.12 4.14 9.66 10.32 12.06l2.34.96c5.1 1.98 7.38 3.72 7.38 7.56 0 4.62-3.66 7.26-9.3 7.26-2.58 0-4.38-.48-6.24-1.5l-1.2-7.08h-3.72l-.36 8.4c2.76 1.8 7.2 3.18 11.7 3.18m32.76-27.42c3.72 0 6.54 3.06 6.54 6.48 0 1.74-.66 3.12-3.54 3.12h-10.92c.66-6.96 4.56-9.6 7.92-9.6m-.06 27.3c5.46 0 9.3-2.7 11.52-6.96l-1.44-1.14c-2.16 2.52-4.5 4.2-8.34 4.2-5.76 0-9.6-3.9-9.72-11.28h19.14c.24-.78.42-1.98.42-3.36 0-7.26-4.92-11.52-11.16-11.52-7.5 0-13.8 6.12-13.8 15.3s5.28 14.76 13.38 14.76m17.04-.78h14.58v-2.16l-4.92-.9c-.06-3-.12-6.9-.12-9.54v-4.5c1.02-3.42 2.58-5.94 4.98-7.74l.72.66c1.14.96 2.28 1.5 3.66 1.5 2.4 0 3.54-1.56 3.54-4.38-.72-1.32-2.52-2.22-4.32-2.22-3.24 0-6.66 2.88-8.64 7.68l-.66-7.08-.9-.6-8.4 3.66v2.1l4.74.54c.12 2.4.18 4.2.18 7.5v2.88c0 2.7-.06 6.66-.12 9.66l-4.32.78zm24.96 0h13.92v-2.16l-4.2-.84c-.06-3-.12-6.96-.12-9.6v-7.92l.18-8.16-.9-.6-9.24 3.66v2.1l4.8.54c.12 2.4.18 4.26.18 7.56v2.82c0 2.64-.06 6.6-.12 9.6l-4.5.84zm7.08-35.88c2.22 0 4.02-1.62 4.02-3.84 0-2.34-1.8-3.84-4.02-3.84-2.28 0-4.02 1.5-4.02 3.84 0 2.22 1.74 3.84 4.02 3.84m10.86 35.88h15.48v-2.16l-5.4-.9c-.06-3.18-.12-6.36-.12-9.54v-12.72h8.16v-3.18h-8.28c-.18-6.72.96-10.8 3.06-12.9.24-.24.54-.48.84-.72l1.68 1.32c1.44 1.2 2.82 1.8 4.32 1.8 2.22 0 3.54-1.14 3.66-2.7-.6-2.34-2.94-3.24-5.76-3.24-2.76 0-5.64.84-8.16 3.36-3 3-3.96 6.6-4.5 12.96l-5.1.66v2.64h4.98v12.72c0 3.18-.06 6.42-.12 9.6l-4.74.84zm50.76-37.38c7.2 0 10.38 3.36 10.38 9.18 0 5.64-2.88 9.54-10.14 9.54h-3.96v-2.88c0-5.34 0-10.68.12-15.84zm-15.06-.3 5.52.66c.12 5.16.12 10.32.12 15.48v2.94c0 5.22 0 10.44-.12 15.48l-5.52.66v2.46h17.04v-2.46l-5.58-.66c-.12-4.32-.12-8.4-.12-12.72h3.12c12.3 0 16.92-5.64 16.92-12.36 0-7.02-5.1-11.94-15.24-11.94h-16.14zm34.62 37.68h14.58v-2.16l-4.92-.9c-.06-3-.12-6.9-.12-9.54v-4.5c1.02-3.42 2.58-5.94 4.98-7.74l.72.66c1.14.96 2.28 1.5 3.66 1.5 2.4 0 3.54-1.56 3.54-4.38-.72-1.32-2.52-2.22-4.32-2.22-3.24 0-6.66 2.88-8.64 7.68l-.66-7.08-.9-.6-8.4 3.66v2.1l4.74.54c.12 2.4.18 4.2.18 7.5v2.88c0 2.7-.06 6.66-.12 9.66l-4.32.78zm38.7.78c6.96 0 13.8-4.98 13.8-14.88 0-9.96-6.9-15.18-13.8-15.18-6.96 0-13.74 5.22-13.74 15.18 0 9.9 6.72 14.88 13.74 14.88m0-2.7c-5.22 0-8.04-4.14-8.04-12.18 0-8.1 2.82-12.42 8.04-12.42 5.16 0 8.1 4.32 8.1 12.42 0 8.04-2.94 12.18-8.1 12.18m49.74-35.46c6.18 0 8.82 2.76 8.82 7.8 0 4.8-3 8.28-9.48 8.28h-4.62c0-5.7 0-10.8.12-16.08zm-16.62-.3 5.52.66c.12 5.16.12 10.32.12 15.48v2.94c0 5.22 0 10.44-.12 15.48l-5.52.66v2.46h16.98v-2.46l-5.52-.66c-.12-4.8-.12-9.72-.12-15.48h2.94c4.86 0 7.08.9 8.22 5.76l2.4 9.6c.72 2.88 2.4 3.84 6.18 3.84 1.86 0 3.3-.24 4.5-.6v-2.46l-4.62-.54-2.58-8.88c-1.38-4.74-3.54-6.9-7.08-7.62 6.72-1.2 10.08-5.46 10.08-10.14 0-6.6-5.4-10.5-14.58-10.5h-16.8zm51.96 11.16c3.72 0 6.54 3.06 6.54 6.48 0 1.74-.66 3.12-3.54 3.12H552.6c.66-6.96 4.56-9.6 7.92-9.6m-.06 27.3c5.46 0 9.3-2.7 11.52-6.96l-1.44-1.14c-2.16 2.52-4.5 4.2-8.34 4.2-5.76 0-9.6-3.9-9.72-11.28h19.14c.24-.78.42-1.98.42-3.36 0-7.26-4.92-11.52-11.16-11.52-7.5 0-13.8 6.12-13.8 15.3s5.28 14.76 13.38 14.76m28.74-12.78c-3.72 0-5.82-3-5.82-7.38s2.28-7.44 6.06-7.44c3.72 0 5.88 2.94 5.88 7.2 0 4.44-2.28 7.62-6.12 7.62m.12 2.4c6.24 0 10.86-3.54 10.86-9.84 0-2.16-.48-4.02-1.38-5.46h5.88v-3.78l-.9-.6-6.78 2.34c-1.92-1.56-4.56-2.34-7.62-2.34-6.24 0-10.86 3.54-10.86 9.84 0 4.08 1.74 6.9 4.62 8.46-3 2.82-4.08 4.74-4.08 6.66 0 2.34 1.32 3.84 3.96 4.56-4.44 2.16-5.88 4.26-5.88 6.84 0 4.26 3.72 7.26 12.42 7.26 9.84 0 14.82-5.16 14.82-10.38 0-4.86-3.06-7.74-9.66-7.74h-7.86c-2.82 0-3.48-1.02-3.48-2.64 0-1.38.48-2.52 1.5-3.84 1.32.42 2.82.66 4.44.66m-7.26 15.72c0-1.98.66-3.6 2.34-5.4.78.06 1.62.12 2.46.12h7.02c4.32 0 6 2.04 6 4.68 0 3.36-3.54 6.06-10.08 6.06-4.74 0-7.74-1.56-7.74-5.46m37.38-5.34c3.66 0 7.44-1.68 10.62-5.64l.6 5.34 8.34-.48v-2.16l-4.08-.84v-16.86l.18-8.4-.6-.6-8.7.84v2.16l4.26.84-.18 17.64c-2.76 2.58-5.64 3.9-8.4 3.9-3.24 0-4.8-1.86-4.8-7.08v-9.3l.3-8.4-.6-.6-8.82.84v2.16l4.26.9-.18 14.94c-.06 7.92 2.94 10.8 7.8 10.8m23.1-.78h14.88v-2.16l-4.8-.84c-.06-3.18-.12-6.42-.12-9.6v-22.74l.24-8.52-.84-.48-9.36 2.7v2.1l4.92.6v26.34c0 3.18-.06 6.36-.12 9.6l-4.8.84zm40.74.6c2.1 0 3.78-.78 5.22-3.12l-1.2-1.32c-.66.78-1.32 1.32-2.34 1.32-1.32 0-2.16-.96-2.16-3.54v-12.78c0-7.56-3-10.44-9.3-10.44-6.12 0-10.56 2.88-11.7 7.44.18 1.56 1.14 2.46 2.82 2.46 1.62 0 2.58-1.02 3.12-2.88l1.14-3.9c1.26-.3 2.34-.36 3.24-.36 3.96 0 5.64 1.44 5.64 7.26v1.5c-2.4.54-4.92 1.32-6.78 1.98-8.1 2.94-9.96 5.64-9.96 9.06 0 4.98 3.66 7.5 8.04 7.5 3.54 0 5.52-1.56 8.82-4.8.48 2.82 2.52 4.62 5.4 4.62m-16.92-8.22c0-1.8.66-4.08 5.88-6.12 1.26-.48 3.42-1.2 5.52-1.8v9.18c-3.66 2.64-4.8 3.18-6.6 3.18-2.76 0-4.8-1.26-4.8-4.44m24.72 7.62h14.58v-2.16l-4.92-.9c-.06-3-.12-6.9-.12-9.54v-4.5c1.02-3.42 2.58-5.94 4.98-7.74l.72.66c1.14.96 2.28 1.5 3.66 1.5 2.4 0 3.54-1.56 3.54-4.38-.72-1.32-2.52-2.22-4.32-2.22-3.24 0-6.66 2.88-8.64 7.68l-.66-7.08-.9-.6-8.4 3.66v2.1l4.74.54c.12 2.4.18 4.2.18 7.5v2.88c0 2.7-.06 6.66-.12 9.66l-4.32.78z" aria-label="Source Serif Pro Regular" style="font-size:60px;font-family:&quot;Source Serif Pro&quot;;letter-spacing:0;white-space:pre;fill:#000"/><path d="M67.185 415.925v-3.906h7.589v-33.201h-7.589v-3.906h19.53v3.906h-7.589v33.201h7.589v3.906zm37.665.446q-1.507 0-3.013-.334-1.451-.28-2.79-1.005-1.284-.725-2.344-1.841-1.004-1.172-1.618-2.511-.614-1.395-.837-2.902-.223-1.506-.223-3.013v-6.696q0-1.507.223-3.013t.837-2.846q.614-1.395 1.618-2.511 1.06-1.172 2.344-1.897 1.339-.726 2.79-1.005 1.506-.334 3.013-.334t2.957.334q1.507.28 2.79 1.005 1.34.725 2.344 1.897 1.06 1.116 1.674 2.511.614 1.34.837 2.846t.223 3.013v6.696q0 1.507-.223 3.013t-.837 2.902q-.614 1.339-1.674 2.51-1.004 1.117-2.344 1.842-1.283.726-2.79 1.005-1.45.334-2.957.334m0-3.906q.949 0 1.897-.223t1.73-.725q.781-.558 1.34-1.34.613-.78.948-1.673t.446-1.842q.112-.948.112-1.897v-6.696q0-.949-.112-1.897-.111-.949-.446-1.842-.335-.892-.949-1.674-.558-.78-1.339-1.283-.781-.558-1.73-.781-.948-.223-1.897-.223t-1.897.223q-.949.223-1.73.781-.781.502-1.395 1.283-.558.782-.893 1.674-.335.893-.446 1.842-.112.948-.112 1.897v6.696q0 .949.112 1.897.111.949.446 1.842.335.892.893 1.674.614.78 1.395 1.339.781.502 1.73.725.948.223 1.897.223m27.844 3.906q-1.227 0-2.455-.167-1.172-.112-2.344-.446-1.171-.391-2.232-1.005-1.004-.67-1.785-1.562-.781-.949-1.228-2.12-.39-1.172-.39-2.4v-.279h4.352v.167q0 1.005.614 1.842t1.506 1.339q.949.446 1.953.614 1.005.111 2.01.111t2.008-.167q1.06-.167 1.953-.614t1.507-1.283q.67-.893.67-1.897t-.559-1.786q-.558-.837-1.395-1.34-.781-.557-1.674-.892t-1.841-.614q-.893-.279-1.842-.558l-1.785-.67q-.893-.39-1.73-.836-.837-.447-1.618-1.005-.781-.614-1.451-1.283-.614-.726-1.116-1.507-.502-.837-.781-1.785-.223-.949-.223-1.898 0-1.171.334-2.343.391-1.172 1.116-2.12.726-.95 1.73-1.619 1.005-.67 2.12-1.06 1.117-.446 2.288-.558 1.228-.167 2.4-.167t2.343.167q1.172.112 2.288.502t2.12 1.06q1.005.614 1.73 1.563.726.893 1.116 2.064.391 1.116.391 2.288v.335h-4.352v-.167q0-.949-.558-1.786-.503-.837-1.34-1.283-.837-.503-1.841-.67-.949-.167-1.897-.167t-1.953.167q-.949.167-1.786.67-.837.446-1.395 1.339-.558.837-.558 1.785 0 .949.558 1.786t1.34 1.395q.78.502 1.673.837.949.335 1.842.614.948.279 1.841.614.893.279 1.786.67.893.334 1.73.78.892.447 1.618 1.06.781.559 1.45 1.284.67.67 1.172 1.507.503.78.726 1.73.279.948.279 1.897 0 1.227-.447 2.399-.39 1.172-1.171 2.12-.726.949-1.786 1.619t-2.232 1.06q-1.116.39-2.344.502-1.227.167-2.455.167m27.956 0q-1.507 0-3.013-.334-1.451-.28-2.79-1.005-1.284-.725-2.344-1.841-1.004-1.172-1.618-2.511-.614-1.395-.837-2.902-.223-1.506-.223-3.013v-6.696q0-1.507.223-3.013t.837-2.846q.614-1.395 1.618-2.511 1.06-1.172 2.344-1.897 1.339-.726 2.79-1.005 1.506-.334 3.013-.334t2.957.334q1.507.28 2.79 1.005 1.34.725 2.344 1.897 1.06 1.116 1.674 2.511.614 1.34.837 2.846t.223 3.013v5.301h-17.298v1.395q0 .949.112 1.897.111.949.446 1.842.335.892.893 1.674.614.78 1.395 1.339.781.502 1.73.725.948.223 1.897.223 1.116 0 2.176-.167 1.116-.223 2.065-.781.948-.614 1.506-1.563.614-1.004.614-2.12h4.353q0 1.283-.447 2.511-.39 1.228-1.172 2.288-.725 1.004-1.785 1.785-1.06.726-2.288 1.172-1.172.447-2.455.614t-2.567.167m6.473-16.907v-1.395q0-.949-.112-1.897-.111-.949-.446-1.842-.335-.892-.949-1.674-.558-.78-1.339-1.283-.781-.558-1.73-.781-.948-.223-1.897-.223t-1.897.223q-.949.223-1.73.781-.781.502-1.395 1.283-.558.782-.893 1.674-.335.893-.446 1.842-.112.948-.112 1.897v1.395zm18.916 16.461-8.984-29.016h4.576l5.58 19.363.67 2.343.669 2.344.67-2.344q.334-1.172.67-2.343l5.58-19.363h4.575l-8.984 29.016zm36.158 0-8.146-12.332-2.79 3.516v8.816h-4.297v-41.013h4.297v25.5l10.657-13.503h5.301l-10.434 13.225 10.434 15.791zm20.2.446q-1.73 0-3.46-.446-1.674-.502-2.957-1.674t-1.897-2.846q-.558-1.73-.558-3.46 0-1.394.335-2.79.39-1.394 1.283-2.455.893-1.116 2.12-1.841 1.228-.781 2.567-1.228t2.734-.613 2.846-.168h4.966v-2.734q0-1.172-.39-2.344t-1.284-1.953q-.892-.78-2.064-1.116-1.172-.334-2.344-.334-1.06 0-2.12.223-1.06.167-2.009.781-.893.558-1.45 1.507-.503.948-.503 2.008V395h-4.352v-.167q0-1.284.39-2.456.39-1.227 1.116-2.232.726-1.06 1.73-1.785 1.06-.726 2.232-1.116 1.228-.447 2.455-.614t2.511-.167q1.34 0 2.679.223 1.339.167 2.566.725 1.228.558 2.232 1.451 1.06.893 1.73 2.065t.949 2.51.279 2.679v19.809h-4.353v-4.631q-.446 1.171-1.283 2.176-.781 1.004-1.841 1.674t-2.344.948q-1.228.28-2.511.28m1.73-3.906q1.283 0 2.51-.39 1.284-.447 2.121-1.395.893-.949 1.228-2.232.39-1.284.39-2.567v-3.125h-4.966q-.837 0-1.674.112-.837.056-1.674.279-.781.167-1.562.502t-1.395.893-.949 1.395q-.279.781-.279 1.618 0 1.116.502 2.176.503 1.005 1.395 1.674.949.614 2.065.837t2.288.223m47.43 3.46v-41.013h18.972v3.906h-14.62v13.838h11.495v3.906h-11.495v19.363zm35.712 0v-25.11h-7.589v-3.906h11.885v29.016zm1.785-33.926q-.725 0-1.395-.168-.67-.223-1.171-.725-.503-.502-.726-1.172-.167-.67-.167-1.395t.167-1.395q.223-.67.726-1.172.502-.502 1.171-.725.67-.223 1.395-.223.726 0 1.395.223.67.223 1.172.725t.726 1.172.223 1.395-.223 1.395q-.224.67-.726 1.172t-1.172.725q-.67.168-1.395.168m15.903 33.926 8.594-14.508-8.594-14.508h5.078l5.915 10.379 5.915-10.379h5.078l-8.594 14.508 8.594 14.508h-5.078l-5.915-10.379-5.915 10.379zm38.893.446q-1.507 0-3.013-.334-1.451-.28-2.79-1.005-1.284-.725-2.344-1.841-1.004-1.172-1.618-2.511-.614-1.395-.837-2.902-.223-1.506-.223-3.013v-6.696q0-1.507.223-3.013t.837-2.846q.614-1.395 1.618-2.511 1.06-1.172 2.344-1.897 1.339-.726 2.79-1.005 1.506-.334 3.013-.334t2.957.334q1.507.28 2.79 1.005 1.34.725 2.344 1.897 1.06 1.116 1.674 2.511.614 1.34.837 2.846t.223 3.013v5.301h-17.298v1.395q0 .949.112 1.897.111.949.446 1.842.335.892.893 1.674.614.78 1.395 1.339.781.502 1.73.725.948.223 1.897.223 1.116 0 2.176-.167 1.116-.223 2.065-.781.948-.614 1.506-1.563.614-1.004.614-2.12h4.353q0 1.283-.447 2.511-.39 1.228-1.172 2.288-.725 1.004-1.785 1.785-1.06.726-2.288 1.172-1.172.447-2.455.614t-2.567.167m6.473-16.907v-1.395q0-.949-.112-1.897-.111-.949-.446-1.842-.335-.892-.949-1.674-.558-.78-1.339-1.283-.781-.558-1.73-.781-.948-.223-1.897-.223t-1.897.223q-.949.223-1.73.781-.781.502-1.395 1.283-.558.782-.893 1.674-.335.893-.446 1.842-.112.948-.112 1.897v1.395zm19.53 16.907q-1.395 0-2.79-.39-1.34-.39-2.4-1.228-1.06-.837-1.841-2.009-.725-1.227-1.172-2.51-.39-1.34-.558-2.679-.167-1.395-.167-2.79v-6.696q0-1.395.167-2.734.168-1.395.558-2.679.447-1.339 1.172-2.51.781-1.228 1.841-2.065t2.4-1.228q1.395-.39 2.79-.39 1.283 0 2.567.334 1.283.335 2.343 1.116t1.786 1.842q.781 1.06 1.227 2.288v-17.131h4.353v41.013h-4.353v-5.134q-.446 1.228-1.227 2.288-.726 1.06-1.786 1.842-1.06.78-2.343 1.116-1.284.334-2.567.334m1.674-3.906q.948 0 1.841-.223.949-.223 1.674-.781.781-.558 1.34-1.34.557-.78.836-1.673.335-.893.447-1.786.111-.948.111-1.897v-6.696q0-.949-.111-1.841-.112-.949-.447-1.842-.279-.893-.837-1.674t-1.339-1.339q-.725-.558-1.674-.781-.893-.223-1.841-.223-.949 0-1.897.223-.893.223-1.674.781-.726.558-1.284 1.34-.558.78-.893 1.673-.279.893-.39 1.842-.112.892-.112 1.841v6.696q0 .949.112 1.897.111.893.39 1.786.335.893.893 1.674t1.284 1.339q.78.558 1.674.781.948.223 1.897.223m55.967 3.906q-1.395 0-2.79-.223t-2.678-.781q-1.228-.614-2.288-1.562t-1.786-2.12q-.67-1.228-1.004-2.623-.335-1.395-.335-2.79v-.391h4.353v.279q0 1.283.446 2.511t1.34 2.12q.948.893 2.175 1.284 1.284.39 2.567.39t2.567-.39q1.283-.39 2.176-1.34.949-.948 1.395-2.176.447-1.283.447-2.566 0-1.451-.614-2.79-.558-1.395-1.563-2.4-.948-1.06-2.232-1.785-1.227-.726-2.51-1.395l-2.567-1.34q-1.228-.725-2.344-1.618t-2.065-1.953q-.948-1.116-1.674-2.343-.67-1.284-1.004-2.679-.335-1.45-.335-2.901 0-1.34.28-2.679.334-1.395.948-2.622.67-1.228 1.618-2.232 1.004-1.005 2.232-1.619 1.228-.67 2.567-.892 1.395-.28 2.79-.28t2.734.224 2.567.837 2.232 1.618q1.004.949 1.618 2.176.67 1.172.949 2.511.334 1.34.334 2.734v.391h-4.352v-.279q0-1.228-.39-2.4-.391-1.227-1.228-2.12-.837-.948-2.065-1.339-1.172-.446-2.4-.446t-2.454.446-2.065 1.395q-.837.893-1.228 2.12-.39 1.228-.39 2.511 0 1.451.558 2.79.558 1.34 1.562 2.4t2.232 1.785 2.511 1.395q1.284.614 2.511 1.34 1.284.725 2.4 1.618 1.171.893 2.12 2.009.949 1.06 1.618 2.343.67 1.228 1.005 2.623.39 1.395.39 2.846 0 1.45-.335 2.845-.334 1.34-1.004 2.623-.67 1.228-1.73 2.232-1.06.949-2.343 1.562-1.228.614-2.679.837-1.395.28-2.79.28m27.9 0q-1.395 0-2.79-.223t-2.678-.781q-1.228-.614-2.288-1.562t-1.786-2.12q-.67-1.228-1.004-2.623-.335-1.395-.335-2.79v-.391h4.353v.279q0 1.283.446 2.511t1.34 2.12q.948.893 2.175 1.284 1.284.39 2.567.39t2.567-.39q1.283-.39 2.176-1.34.949-.948 1.395-2.176.447-1.283.447-2.566 0-1.451-.614-2.79-.558-1.395-1.563-2.4-.948-1.06-2.232-1.785-1.227-.726-2.51-1.395l-2.567-1.34q-1.228-.725-2.344-1.618t-2.065-1.953q-.948-1.116-1.674-2.343-.67-1.284-1.004-2.679-.335-1.45-.335-2.901 0-1.34.28-2.679.334-1.395.948-2.622.67-1.228 1.618-2.232 1.004-1.005 2.232-1.619 1.228-.67 2.567-.892 1.395-.28 2.79-.28t2.734.224 2.567.837 2.232 1.618q1.004.949 1.618 2.176.67 1.172.949 2.511.334 1.34.334 2.734v.391h-4.352v-.279q0-1.228-.39-2.4-.391-1.227-1.228-2.12-.837-.948-2.065-1.339-1.172-.446-2.4-.446t-2.454.446-2.065 1.395q-.837.893-1.228 2.12-.39 1.228-.39 2.511 0 1.451.558 2.79.558 1.34 1.562 2.4t2.232 1.785 2.511 1.395q1.284.614 2.511 1.34 1.284.725 2.4 1.618 1.171.893 2.12 2.009.949 1.06 1.618 2.343.67 1.228 1.005 2.623.39 1.395.39 2.846 0 1.45-.335 2.845-.334 1.34-1.004 2.623-.67 1.228-1.73 2.232-1.06.949-2.343 1.562-1.228.614-2.679.837-1.395.28-2.79.28m27.956 0q-1.618 0-3.18-.613-1.563-.67-2.679-1.842t-1.897-2.622-1.34-2.958q-.502-1.562-.836-3.18-.335-1.619-.558-3.237-.168-1.618-.28-3.236-.055-1.618-.055-3.292 0-1.619.056-3.237.111-1.618.279-3.236.223-1.618.558-3.237.334-1.618.837-3.124.558-1.563 1.339-3.014t1.897-2.622 2.678-1.786q1.563-.67 3.181-.67t3.18.67q1.563.614 2.679 1.786t1.897 2.622 1.284 3.014q.558 1.506.892 3.124.335 1.619.503 3.237.223 1.618.279 3.236.111 1.618.111 3.237 0 1.674-.111 3.292-.056 1.618-.28 3.236-.167 1.618-.502 3.237t-.892 3.18q-.503 1.507-1.284 2.958-.781 1.45-1.897 2.622t-2.678 1.842q-1.563.613-3.181.613m0-3.906q1.004 0 1.897-.502t1.451-1.283q.614-.781 1.004-1.674.447-.949.726-1.842.335-.948.502-1.897.223-1.004.39-1.953.168-1.004.224-1.953.111-1.004.167-1.953.056-1.004.056-2.009.056-1.004.056-2.008 0-.949-.056-1.953 0-1.005-.056-1.953-.056-1.005-.167-1.953-.056-1.005-.223-1.953-.168-1.005-.391-1.953-.167-1.005-.502-1.898-.28-.948-.726-1.841-.39-.949-1.004-1.73-.558-.781-1.45-1.283-.894-.502-1.898-.502t-1.897.502-1.507 1.283q-.558.781-1.004 1.73-.39.893-.726 1.841-.279.893-.502 1.898-.167.948-.335 1.953-.167.948-.279 1.953-.055.948-.111 1.953-.056.948-.112 1.953v3.961l.112 2.01q.056.948.111 1.952.112.949.28 1.953.167.949.334 1.953.223.949.502 1.897.335.893.726 1.842.446.893 1.004 1.674.614.781 1.507 1.283t1.897.502m0-13.559q-.67 0-1.283-.223-.614-.28-1.06-.781-.391-.503-.559-1.116-.111-.67-.111-1.34v-.055q0-.67.111-1.284.168-.67.558-1.172.447-.502 1.06-.725.614-.279 1.284-.279t1.283.279q.614.223 1.005.725.446.503.558 1.172.167.614.167 1.284v.055q0 .67-.167 1.34-.112.613-.558 1.116-.39.502-1.005.78-.613.224-1.283.224m27.844 17.465q-1.395 0-2.79-.223t-2.678-.837-2.344-1.562q-1.004-.949-1.73-2.176-.67-1.228-1.004-2.623-.335-1.395-.335-2.79v-.279h4.353v.167q0 1.284.446 2.567.446 1.228 1.34 2.176.892.893 2.175 1.284 1.284.39 2.567.39.949 0 1.897-.223t1.73-.725q.837-.558 1.395-1.34.558-.78.893-1.673.39-.893.502-1.842.112-.948.112-1.897v-10.546q-.447 1.227-1.228 2.343t-1.897 1.898q-1.06.725-2.4 1.06t-2.622.335q-1.395 0-2.79-.335-1.34-.39-2.455-1.228-1.116-.837-1.897-2.009-.782-1.227-1.228-2.51-.446-1.34-.614-2.735t-.167-2.79v-2.176q0-1.507.223-3.013t.837-2.846q.614-1.395 1.618-2.511 1.06-1.172 2.344-1.897 1.339-.726 2.79-1.005 1.506-.334 3.013-.334t2.957.334q1.507.28 2.79 1.005 1.34.725 2.344 1.897 1.06 1.116 1.674 2.511.614 1.34.837 2.846t.223 3.013v18.693q0 1.507-.223 3.013t-.893 2.902q-.614 1.339-1.618 2.51-1.004 1.117-2.344 1.898-1.283.725-2.79 1.004-1.506.28-3.013.28m.056-20.422q.949 0 1.897-.224.949-.223 1.73-.725.781-.558 1.34-1.34.613-.78.948-1.673t.446-1.842q.112-.948.112-1.897v-2.176q0-.949-.112-1.897-.111-.949-.446-1.842-.335-.892-.949-1.674-.558-.78-1.339-1.283-.781-.558-1.73-.781-.948-.223-1.897-.223t-1.897.223-1.73.781q-.781.502-1.395 1.283-.558.782-.893 1.674-.335.893-.446 1.842-.112.948-.112 1.897v2.176q0 .949.112 1.897.111.949.446 1.842t.893 1.674q.614.781 1.395 1.339.781.502 1.73.725.948.224 1.897.224m62.775 19.976-8.203-16.963h-4.798v16.963h-4.353v-41.013h10.714q1.506 0 2.957.335 1.507.335 2.79 1.172 1.284.78 2.232 2.008.949 1.172 1.507 2.567.614 1.395.781 2.902.223 1.506.223 3.013 0 1.897-.335 3.794-.334 1.898-1.283 3.516t-2.511 2.79q-1.507 1.172-3.348 1.674l8.37 17.242zm-6.64-20.87q.948 0 1.897-.278.949-.28 1.674-.837.781-.614 1.283-1.451.503-.837.782-1.73.279-.948.39-1.897.112-.949.112-1.953 0-.949-.112-1.897-.111-.949-.39-1.842-.28-.948-.782-1.785t-1.283-1.395q-.725-.614-1.674-.893t-1.897-.279h-6.361v16.238zm27.565 21.316q-1.507 0-3.013-.334-1.451-.28-2.79-1.005-1.284-.725-2.344-1.841-1.004-1.172-1.618-2.511-.614-1.395-.837-2.902-.223-1.506-.223-3.013v-6.696q0-1.507.223-3.013t.837-2.846q.614-1.395 1.618-2.511 1.06-1.172 2.344-1.897 1.339-.726 2.79-1.005 1.506-.334 3.013-.334t2.957.334q1.507.28 2.79 1.005 1.34.725 2.344 1.897 1.06 1.116 1.674 2.511.614 1.34.837 2.846t.223 3.013v5.301h-17.298v1.395q0 .949.112 1.897.111.949.446 1.842.335.892.893 1.674.614.78 1.395 1.339.781.502 1.73.725.948.223 1.897.223 1.116 0 2.176-.167 1.116-.223 2.065-.781.948-.614 1.506-1.563.614-1.004.614-2.12h4.353q0 1.283-.447 2.511-.39 1.228-1.172 2.288-.725 1.004-1.785 1.785-1.06.726-2.288 1.172-1.172.447-2.455.614t-2.567.167m6.473-16.907v-1.395q0-.949-.112-1.897-.111-.949-.446-1.842-.335-.892-.949-1.674-.558-.78-1.339-1.283-.781-.558-1.73-.781-.948-.223-1.897-.223t-1.897.223-1.73.781q-.781.502-1.395 1.283-.558.782-.893 1.674-.335.893-.446 1.842-.112.948-.112 1.897v1.395zm21.483 28.904q-1.395 0-2.79-.167t-2.734-.67q-1.284-.502-2.456-1.339-1.171-.781-1.953-1.953-.78-1.172-1.171-2.567-.335-1.339-.335-2.734 0-.948.167-1.953.168-.948.558-1.785.447-.893 1.06-1.619.614-.725 1.395-1.283-.725-.837-1.171-1.841-.391-1.06-.391-2.177 0-1.395.614-2.678.614-1.34 1.674-2.232-.837-.67-1.507-1.507t-1.116-1.785q-.39-1.005-.558-2.065-.167-1.06-.167-2.12 0-1.34.279-2.623.279-1.339.893-2.455.67-1.172 1.674-2.009 1.06-.893 2.287-1.395 1.228-.558 2.511-.725 1.34-.223 2.623-.223 1.004 0 1.953.111.949.112 1.897.335h8.426v3.906l-3.236-.112q.725 1.172 1.004 2.511t.279 2.679q0 1.283-.279 2.622-.279 1.284-.949 2.456-.67 1.116-1.674 2.008-1.004.893-2.232 1.451-1.227.502-2.566.726-1.284.167-2.623.167-.949 0-1.897-.112-.949-.111-1.842-.334-.67.39-1.116 1.116-.446.67-.446 1.506 0 .67.279 1.284.335.558.893.948t1.172.558q.67.168 1.339.223h3.515q1.284 0 2.511.168 1.284.111 2.4.614 1.171.446 2.176 1.171 1.06.726 1.73 1.786.725 1.06 1.004 2.288t.279 2.51q0 1.396-.39 2.735-.335 1.395-1.172 2.511-.782 1.116-1.953 1.953-1.116.837-2.456 1.283-1.283.503-2.678.67-1.34.167-2.734.167m-.614-26.951q1.172 0 2.288-.279 1.172-.335 2.009-1.116.892-.781 1.283-1.897t.39-2.232q0-1.06-.334-2.065-.28-1.06-1.005-1.785-.725-.782-1.73-1.172t-2.064-.447l-.837-.055q-1.116 0-2.288.334-1.116.28-2.009 1.06-.837.726-1.227 1.842t-.39 2.288q0 1.116.39 2.232t1.227 1.897q.893.781 2.01 1.116 1.171.279 2.287.279m.614 23.045q1.227 0 2.455-.279 1.283-.223 2.344-.892 1.06-.67 1.674-1.842.613-1.116.613-2.4 0-1.06-.446-2.064-.446-.948-1.34-1.506-.892-.614-1.952-.837-1.005-.224-2.065-.224h-3.292q-.949.056-1.897.335-.949.28-1.73.893-.725.558-1.116 1.45-.335.894-.335 1.842 0 1.284.558 2.455.614 1.172 1.674 1.842 1.06.725 2.288.948 1.283.28 2.567.28m26.17-8.09q-1.395 0-2.734-.391-1.34-.39-2.4-1.228-1.004-.893-1.73-2.064-.725-1.228-1.171-2.511-.39-1.34-.558-2.679-.112-1.395-.112-2.734v-17.856h4.353v17.856q0 .949.111 1.897.112.893.39 1.786.28.837.782 1.618.558.781 1.283 1.34.726.557 1.619.836.892.223 1.841.223t1.841-.223q.893-.279 1.619-.837.725-.558 1.227-1.339.558-.781.837-1.618.28-.893.39-1.786.112-.948.112-1.897v-17.856h4.353v29.016h-4.353v-5.078q-.446 1.172-1.171 2.288-.726 1.06-1.786 1.841-1.004.726-2.288 1.06-1.227.335-2.455.335m38.167 0q-1.45 0-2.846-.224-1.395-.223-2.678-.837-1.283-.67-2.344-1.674t-1.73-2.232q-.669-1.283-.948-2.678-.223-1.395-.223-2.846v-27.063h-7.589v-3.906h11.941v30.969q0 1.283.335 2.567.39 1.283 1.283 2.232.949.948 2.177 1.395 1.283.39 2.622.39.781 0 1.563-.223.78-.223 1.45-.67v3.907q-.67.446-1.45.67-.782.222-1.563.222m17.354 0q-1.73 0-3.46-.447-1.674-.502-2.957-1.674t-1.897-2.846q-.558-1.73-.558-3.46 0-1.394.335-2.79.39-1.394 1.283-2.455.893-1.116 2.12-1.841 1.228-.781 2.567-1.228t2.734-.613 2.846-.168h4.966v-2.734q0-1.172-.39-2.344t-1.284-1.953q-.892-.78-2.064-1.116-1.172-.334-2.344-.334-1.06 0-2.12.223-1.06.167-2.009.781-.893.558-1.45 1.507-.503.948-.503 2.008V395h-4.352v-.167q0-1.284.39-2.456.39-1.227 1.116-2.232.726-1.06 1.73-1.785 1.06-.726 2.232-1.116 1.228-.447 2.455-.614t2.511-.167q1.34 0 2.679.223 1.339.167 2.566.725 1.228.558 2.232 1.451 1.06.893 1.73 2.065t.949 2.51.279 2.679v19.809h-4.353v-4.631q-.446 1.171-1.283 2.176-.781 1.004-1.841 1.674t-2.344.948q-1.228.28-2.511.28m1.73-3.907q1.283 0 2.51-.39 1.284-.447 2.121-1.395.893-.949 1.228-2.232.39-1.284.39-2.567v-3.125h-4.966q-.837 0-1.674.112-.837.056-1.674.279-.781.167-1.562.502t-1.395.893-.949 1.395q-.279.781-.279 1.618 0 1.116.502 2.176.503 1.005 1.395 1.674.949.614 2.065.837t2.288.223m21.092 3.46v-29.016h4.353v7.589q.502-1.284 1.227-2.455.781-1.172 1.786-2.12 1.004-.95 2.176-1.619 1.228-.67 2.511-1.116 1.34-.446 2.734-.558 1.395-.167 2.79-.167v4.352q-1.172 0-2.343.112-1.172.055-2.288.279-1.116.223-2.232.613-1.116.391-2.12 1.005-.95.614-1.786 1.45-.837.782-1.451 1.842-.558 1.004-.781 2.176-.223 1.116-.223 2.232v15.401z" aria-label="Iosevka Fixed SS09 Regular" style="font-size:55.8px;font-family:&quot;Iosevka Fixed SS09&quot;;letter-spacing:0;white-space:pre;fill:#000"/></svg>