<svg xmlns="http://www.w3.org/2000/svg" width="1042.5" height="241.5" preserveAspectRatio="none" style="width:1042px;height:241px" viewBox="0 0 1042 241"><path fill="#DEDEDE" d="m250.5 48 15-15H585v151.5l-15 15H250.5z" style="stroke:#000;stroke-width:3"/><path d="m570 48 15-15M250.5 48H570M570 48v151.5" style="stroke:#000;stroke-width:3"/><path d="M309.68 77.712h2.376V72.96h3.312c.702 0 .972.396.972.972v3.78h2.376V73.59c0-1.008-.558-1.656-1.512-1.71v-.324c1.062-.432 1.872-1.35 1.872-2.862v-.216c0-2.034-1.566-3.366-3.924-3.366h-5.472zm2.376-6.912v-3.528h2.844c1.152 0 1.8.666 1.8 1.674v.18c0 1.008-.684 1.674-1.8 1.674zm13.218 7.164c2.448 0 3.51-1.386 4.014-2.34l-1.854-.972c-.306.684-.828 1.332-2.088 1.332s-2.214-.846-2.268-2.07h6.498v-.774c0-2.736-1.71-4.608-4.338-4.608-2.664 0-4.464 1.8-4.464 4.608v.216c0 2.808 1.818 4.608 4.5 4.608m-2.178-5.742c.162-1.026.9-1.71 2.124-1.71 1.17 0 1.944.684 2.052 1.71zm12.28 5.742c2.269 0 3.745-1.062 3.745-2.934s-1.584-2.448-3.6-2.808l-.504-.09c-.828-.144-1.332-.378-1.332-.954 0-.522.468-.846 1.332-.846s1.476.342 1.674 1.26l2.106-.648c-.414-1.44-1.782-2.412-3.78-2.412-2.124 0-3.528.99-3.528 2.754s1.548 2.466 3.42 2.808l.504.09c1.062.198 1.512.45 1.512 1.008s-.504.972-1.548.972-1.89-.396-2.124-1.656l-2.088.54c.306 1.872 1.872 2.916 4.212 2.916m9.042-.252h2.52V75.84h-1.728c-.324 0-.504-.18-.504-.54v-4.644h2.448v-1.872h-2.448v-2.772h-2.268v2.772h-2.232v1.872h2.232v5.04c0 1.224.792 2.016 1.98 2.016m4.865 0h2.268v-5.076c0-1.26.828-1.872 1.98-1.872h1.116v-2.016h-1.08c-.828 0-1.476.324-1.728 1.044h-.324v-1.008h-2.232zm8.34-9.972c.827 0 1.457-.576 1.457-1.44s-.63-1.44-1.458-1.44-1.458.576-1.458 1.44.63 1.44 1.458 1.44m-1.135 9.972h2.268v-8.928h-2.268zm9.06.252c2.556 0 4.014-1.494 4.482-3.42l-2.196-.522c-.198 1.152-.864 1.926-2.232 1.926s-2.412-.918-2.412-2.61v-.18c0-1.692 1.044-2.61 2.412-2.61s2.034.828 2.178 1.908l2.196-.468c-.378-1.98-1.872-3.456-4.428-3.456-2.592 0-4.626 1.674-4.626 4.59v.252c0 2.916 2.034 4.59 4.626 4.59m9.563-.252h2.52V75.84h-1.728c-.324 0-.504-.18-.504-.54v-4.644h2.448v-1.872h-2.448v-2.772h-2.268v2.772h-2.232v1.872h2.232v5.04c0 1.224.792 2.016 1.98 2.016m8.609.252c2.448 0 3.51-1.386 4.014-2.34l-1.854-.972c-.306.684-.828 1.332-2.088 1.332s-2.214-.846-2.268-2.07h6.498v-.774c0-2.736-1.71-4.608-4.338-4.608-2.664 0-4.464 1.8-4.464 4.608v.216c0 2.808 1.818 4.608 4.5 4.608m-2.178-5.742c.162-1.026.9-1.71 2.124-1.71 1.17 0 1.944.684 2.052 1.71zm12.173 5.742c1.62 0 2.394-.648 2.808-1.332h.324v1.08h2.232v-12.6h-2.268v4.698h-.324c-.378-.63-1.152-1.278-2.772-1.278-2.16 0-4.032 1.656-4.032 4.572v.288c0 2.916 1.89 4.572 4.032 4.572m.684-1.98c-1.386 0-2.448-.918-2.448-2.646v-.18c0-1.728 1.044-2.646 2.448-2.646s2.448.918 2.448 2.646v.18c0 1.728-1.062 2.646-2.448 2.646m11.855 1.728h8.208v-2.16h-5.832v-3.114h5.22v-2.16h-5.22v-3.006h5.724v-2.16h-8.1zm10.12 0h2.269v-4.536c0-1.656.81-2.628 2.196-2.628 1.224 0 1.908.666 1.908 2.016v5.148h2.268v-5.328c0-2.214-1.386-3.744-3.474-3.744-1.602 0-2.322.702-2.61 1.314h-.324v-1.17h-2.232zm12.786 0h3.6l2.844-8.928h-2.412l-2.07 7.272h-.324l-2.07-7.272h-2.412zm9.203-9.972c.828 0 1.458-.576 1.458-1.44s-.63-1.44-1.458-1.44-1.458.576-1.458 1.44.63 1.44 1.458 1.44m-1.134 9.972h2.268v-8.928h-2.268zm4.866 0h2.268v-5.076c0-1.26.828-1.872 1.98-1.872h1.116v-2.016h-1.08c-.828 0-1.476.324-1.728 1.044h-.324v-1.008h-2.232zm11.129.252c2.664 0 4.68-1.692 4.68-4.572v-.288c0-2.88-2.016-4.572-4.68-4.572s-4.68 1.692-4.68 4.572v.288c0 2.88 2.016 4.572 4.68 4.572m0-2.016c-1.386 0-2.412-.936-2.412-2.61v-.18c0-1.674 1.008-2.61 2.412-2.61s2.412.936 2.412 2.61v.18c0 1.674-1.026 2.61-2.412 2.61m6.845 1.764h2.268v-4.536c0-1.656.81-2.628 2.196-2.628 1.224 0 1.908.666 1.908 2.016v5.148h2.268v-5.328c0-2.214-1.386-3.744-3.474-3.744-1.602 0-2.322.702-2.61 1.314h-.324v-1.17h-2.232zm11.165 0h2.268v-5.274c0-1.224.576-1.908 1.62-1.908.9 0 1.44.504 1.44 1.476v5.706h2.268v-5.274c0-1.224.576-1.908 1.62-1.908.9 0 1.44.504 1.44 1.476v5.706h2.268v-5.868c0-2.16-1.332-3.204-2.988-3.204-1.368 0-2.052.576-2.448 1.332h-.324c-.414-.792-1.134-1.332-2.412-1.332-1.188 0-1.89.522-2.196 1.116h-.324v-.972h-2.232zm19.517.252c2.448 0 3.51-1.386 4.014-2.34l-1.854-.972c-.306.684-.828 1.332-2.088 1.332s-2.214-.846-2.268-2.07h6.498v-.774c0-2.736-1.71-4.608-4.338-4.608-2.664 0-4.464 1.8-4.464 4.608v.216c0 2.808 1.818 4.608 4.5 4.608m-2.178-5.742c.162-1.026.9-1.71 2.124-1.71 1.17 0 1.944.684 2.052 1.71zm8.574 5.49h2.268v-4.536c0-1.656.81-2.628 2.196-2.628 1.224 0 1.908.666 1.908 2.016v5.148h2.268v-5.328c0-2.214-1.386-3.744-3.474-3.744-1.602 0-2.322.702-2.61 1.314h-.324v-1.17h-2.232zm14.333 0H514V75.84h-1.728c-.324 0-.504-.18-.504-.54v-4.644h2.448v-1.872h-2.448v-2.772H509.5v2.772h-2.232v1.872h2.232v5.04c0 1.224.792 2.016 1.98 2.016" aria-label="Restricted Environment" style="font-weight:700;font-size:18px;font-family:&quot;Space Grotesk&quot;"/><path fill="#FFF" d="M832.5 40.5H1017v159H832.5z" style="stroke:#000;stroke-width:3;stroke-dasharray:10,10"/><path d="M853.01 68.712h2.377v-12.6h-2.376zm4.86 0h2.269v-4.536c0-1.656.81-2.628 2.196-2.628 1.224 0 1.908.666 1.908 2.016v5.148h2.268v-5.328c0-2.214-1.386-3.744-3.474-3.744-1.602 0-2.322.702-2.61 1.314h-.324v-1.17h-2.232zm14.293 0h2.52V66.84h-1.728c-.324 0-.504-.18-.504-.54v-4.644h2.448v-1.872h-2.448v-2.772h-2.268v2.772h-2.232v1.872h2.232v5.04c0 1.224.792 2.016 1.98 2.016m8.568.252c2.448 0 3.51-1.386 4.014-2.34l-1.854-.972c-.306.684-.828 1.332-2.088 1.332s-2.214-.846-2.268-2.07h6.498v-.774c0-2.736-1.71-4.608-4.338-4.608-2.664 0-4.464 1.8-4.464 4.608v.216c0 2.808 1.818 4.608 4.5 4.608m-2.178-5.742c.162-1.026.9-1.71 2.124-1.71 1.17 0 1.944.684 2.052 1.71zm8.532 5.49h2.268v-5.076c0-1.26.828-1.872 1.98-1.872h1.116v-2.016h-1.08c-.828 0-1.476.324-1.728 1.044h-.324v-1.008h-2.232zm7.164 0h2.268v-4.536c0-1.656.81-2.628 2.196-2.628 1.224 0 1.908.666 1.908 2.016v5.148h2.268v-5.328c0-2.214-1.386-3.744-3.474-3.744-1.602 0-2.322.702-2.61 1.314h-.324v-1.17h-2.232zm13.896.252c1.872 0 2.43-1.008 2.592-1.458h.342v.018c0 .72.648 1.188 1.53 1.188h1.512V66.84h-.72c-.324 0-.504-.18-.504-.54v-3.33c0-2.232-1.476-3.438-3.816-3.438-2.322 0-3.492 1.17-3.924 2.52l2.088.702c.162-.81.666-1.386 1.8-1.386 1.152 0 1.656.612 1.656 1.44v.504h-2.448c-2.016 0-3.456.954-3.456 2.79s1.44 2.862 3.348 2.862m.396-1.836c-.972 0-1.476-.45-1.476-1.098s.504-1.026 1.35-1.026h2.286v.18c0 1.188-.9 1.944-2.16 1.944m7.272 1.584h2.268v-12.6h-2.268zm13.734.252c2.916 0 4.77-1.584 4.77-3.888s-1.782-3.24-4.464-3.816l-.414-.09c-1.512-.324-2.214-.774-2.214-1.71s.666-1.512 2.106-1.512 2.322.576 2.322 2.016v.54h2.34v-.54c0-2.736-1.962-4.104-4.662-4.104s-4.446 1.368-4.446 3.672 1.53 3.186 4.14 3.762l.414.09c1.62.36 2.538.72 2.538 1.764 0 1.008-.81 1.728-2.43 1.728s-2.61-.756-2.61-2.268v-.504h-2.34v.504c0 2.736 2.034 4.356 4.95 4.356m10.71 0c2.448 0 3.51-1.386 4.014-2.34l-1.854-.972c-.306.684-.828 1.332-2.088 1.332s-2.214-.846-2.268-2.07h6.498v-.774c0-2.736-1.71-4.608-4.338-4.608-2.664 0-4.464 1.8-4.464 4.608v.216c0 2.808 1.818 4.608 4.5 4.608m-2.178-5.742c.162-1.026.9-1.71 2.124-1.71 1.17 0 1.944.684 2.052 1.71zm8.532 5.49h2.268v-5.076c0-1.26.828-1.872 1.98-1.872h1.116v-2.016h-1.08c-.828 0-1.476.324-1.728 1.044h-.324v-1.008h-2.232zm9.036 0h3.6l2.844-8.928h-2.412l-2.07 7.272h-.324l-2.07-7.272h-2.412zm9.162-9.972c.828 0 1.458-.576 1.458-1.44s-.63-1.44-1.458-1.44-1.458.576-1.458 1.44.63 1.44 1.458 1.44m-1.134 9.972h2.268v-8.928h-2.268zm9.018.252c2.556 0 4.014-1.494 4.482-3.42l-2.196-.522c-.198 1.152-.864 1.926-2.232 1.926s-2.412-.918-2.412-2.61v-.18c0-1.692 1.044-2.61 2.412-2.61s2.034.828 2.178 1.908l2.196-.468c-.378-1.98-1.872-3.456-4.428-3.456-2.592 0-4.626 1.674-4.626 4.59v.252c0 2.916 2.034 4.59 4.626 4.59m10.458 0c2.448 0 3.51-1.386 4.014-2.34l-1.854-.972c-.306.684-.828 1.332-2.088 1.332s-2.214-.846-2.268-2.07h6.498v-.774c0-2.736-1.71-4.608-4.338-4.608-2.664 0-4.464 1.8-4.464 4.608v.216c0 2.808 1.818 4.608 4.5 4.608m-2.178-5.742c.162-1.026.9-1.71 2.124-1.71 1.17 0 1.944.684 2.052 1.71zm12.24 5.742c2.268 0 3.744-1.062 3.744-2.934s-1.584-2.448-3.6-2.808l-.504-.09c-.828-.144-1.332-.378-1.332-.954 0-.522.468-.846 1.332-.846s1.476.342 1.674 1.26l2.106-.648c-.414-1.44-1.782-2.412-3.78-2.412-2.124 0-3.528.99-3.528 2.754s1.548 2.466 3.42 2.808l.504.09c1.062.198 1.512.45 1.512 1.008s-.504.972-1.548.972-1.89-.396-2.124-1.656l-2.088.54c.306 1.872 1.872 2.916 4.212 2.916" aria-label="Internal Services" style="font-weight:700;font-size:18px;font-family:&quot;Space Grotesk&quot;"/><rect width="145.837" height="67.968" x="345" y="107.25" fill="#FFAE03" rx="18.75" ry="18.75" style="stroke:#000;stroke-width:3"/><path d="M373.044 147.714c1.944 0 2.52-.846 2.772-1.458h.324v1.206h2.196v-6.444h-5.328v2.016h2.988v.18c0 1.404-.756 2.412-2.484 2.412s-2.736-1.152-2.736-2.916v-3.096c0-1.764 1.008-2.88 2.7-2.88s2.52 1.044 2.52 2.376v.144h2.34v-.072c0-2.808-1.764-4.572-4.86-4.572-3.132 0-5.076 1.8-5.076 5.04v3.024c0 3.24 2.052 5.04 4.644 5.04m10.572 0c1.872 0 2.43-1.008 2.592-1.458h.342v.018c0 .72.648 1.188 1.53 1.188h1.512v-1.872h-.72c-.324 0-.504-.18-.504-.54v-3.33c0-2.232-1.476-3.438-3.816-3.438-2.322 0-3.492 1.17-3.924 2.52l2.088.702c.162-.81.666-1.386 1.8-1.386 1.152 0 1.656.612 1.656 1.44v.504h-2.448c-2.016 0-3.456.954-3.456 2.79s1.44 2.862 3.348 2.862m.396-1.836c-.972 0-1.476-.45-1.476-1.098s.504-1.026 1.35-1.026h2.286v.18c0 1.188-.9 1.944-2.16 1.944m10.176 1.584h2.52v-1.872h-1.728c-.324 0-.504-.18-.504-.54v-4.644h2.448v-1.872h-2.448v-2.772h-2.268v2.772h-2.232v1.872h2.232v5.04c0 1.224.792 2.016 1.98 2.016m8.7.252c2.448 0 3.51-1.386 4.014-2.34l-1.854-.972c-.306.684-.828 1.332-2.088 1.332s-2.214-.846-2.268-2.07h6.498v-.774c0-2.736-1.71-4.608-4.338-4.608-2.664 0-4.464 1.8-4.464 4.608v.216c0 2.808 1.818 4.608 4.5 4.608m-2.178-5.742c.162-1.026.9-1.71 2.124-1.71 1.17 0 1.944.684 2.052 1.71zm8.664 5.49h2.268v-3.546h.324l3.132 3.546h2.916l-4.266-4.608 4.122-4.32h-2.952l-2.952 3.294h-.324v-6.966h-2.268zm13.848.252c2.448 0 3.51-1.386 4.014-2.34l-1.854-.972c-.306.684-.828 1.332-2.088 1.332s-2.214-.846-2.268-2.07h6.498v-.774c0-2.736-1.71-4.608-4.338-4.608-2.664 0-4.464 1.8-4.464 4.608v.216c0 2.808 1.818 4.608 4.5 4.608m-2.178-5.742c.162-1.026.9-1.71 2.124-1.71 1.17 0 1.944.684 2.052 1.71zm12.732 5.742c2.448 0 3.51-1.386 4.014-2.34l-1.854-.972c-.306.684-.828 1.332-2.088 1.332s-2.214-.846-2.268-2.07h6.498v-.774c0-2.736-1.71-4.608-4.338-4.608-2.664 0-4.464 1.8-4.464 4.608v.216c0 2.808 1.818 4.608 4.5 4.608m-2.178-5.742c.162-1.026.9-1.71 2.124-1.71 1.17 0 1.944.684 2.052 1.71zm8.665 9.09h2.268v-4.626h.324c.378.63 1.152 1.278 2.772 1.278 2.16 0 4.032-1.656 4.032-4.572v-.288c0-2.916-1.89-4.572-4.032-4.572-1.62 0-2.394.648-2.808 1.332h-.324v-1.08h-2.232zm4.68-5.328c-1.404 0-2.448-.918-2.448-2.646v-.18c0-1.728 1.062-2.646 2.448-2.646s2.448.918 2.448 2.646v.18c0 1.728-1.044 2.646-2.448 2.646m11.04 1.98c2.448 0 3.51-1.386 4.014-2.34l-1.854-.972c-.306.684-.828 1.332-2.088 1.332s-2.214-.846-2.268-2.07h6.498v-.774c0-2.736-1.71-4.608-4.338-4.608-2.664 0-4.464 1.8-4.464 4.608v.216c0 2.808 1.818 4.608 4.5 4.608m-2.178-5.742c.162-1.026.9-1.71 2.124-1.71 1.17 0 1.944.684 2.052 1.71zm8.664 5.49h2.268v-5.076c0-1.26.828-1.872 1.98-1.872h1.116v-2.016h-1.08c-.828 0-1.476.324-1.728 1.044h-.324v-1.008h-2.232z" aria-label="Gatekeeper" style="font-weight:700;font-size:18px;font-family:&quot;Space Grotesk&quot;"/><rect width="109.008" height="67.968" x="870" y="107.25" fill="#FFF" rx="18.75" ry="18.75" style="stroke:#000;stroke-width:3"/><path d="M898.134 147.714c2.736 0 4.518-1.458 4.518-3.69 0-2.214-1.71-3.042-3.888-3.546l-.936-.234c-1.674-.414-2.664-.864-2.664-2.214s1.08-2.106 2.754-2.106c1.728 0 2.988.756 2.988 2.574v.756h1.494v-.756c0-2.574-1.944-3.888-4.482-3.888s-4.248 1.314-4.248 3.438 1.512 2.988 3.744 3.528l.936.234c1.692.396 2.808.864 2.808 2.25 0 1.35-1.062 2.34-3.024 2.34-1.926 0-3.276-.99-3.276-3.096v-.378h-1.494v.378c0 2.952 2.016 4.41 4.77 4.41m10.926 0c2.358 0 3.402-1.314 3.942-2.43l-1.224-.594c-.432.972-1.17 1.764-2.682 1.764-1.746 0-3.006-1.134-3.06-3.024h7.164v-.648c0-2.682-1.728-4.374-4.23-4.374-2.574 0-4.374 1.836-4.374 4.554v.216c0 2.718 1.782 4.536 4.464 4.536m-3.006-5.454c.216-1.638 1.314-2.592 2.916-2.592 1.584 0 2.682.954 2.79 2.592zm9.63 5.202h1.422v-5.364c0-1.476.846-2.178 2.124-2.178h1.134v-1.296h-1.044c-1.062 0-1.692.342-1.998 1.116h-.252v-1.08h-1.386zm9.018 0h2.268l3.15-8.802h-1.512l-2.646 7.74h-.252l-2.646-7.74h-1.512zm8.172-10.17c.63 0 1.098-.45 1.098-1.08 0-.648-.468-1.098-1.098-1.098-.612 0-1.08.45-1.08 1.098 0 .63.468 1.08 1.08 1.08m-.702 10.17h1.422v-8.802h-1.422zm8.46.252c2.538 0 3.906-1.584 4.284-3.348l-1.404-.306c-.216 1.35-1.116 2.376-2.862 2.376s-3.078-1.242-3.078-3.294v-.162c0-2.052 1.332-3.294 3.078-3.294s2.628 1.08 2.808 2.376l1.386-.288c-.288-1.782-1.674-3.366-4.212-3.366-2.574 0-4.482 1.728-4.482 4.554v.198c0 2.826 1.908 4.554 4.482 4.554m10.746 0c2.358 0 3.402-1.314 3.942-2.43l-1.224-.594c-.432.972-1.17 1.764-2.682 1.764-1.746 0-3.006-1.134-3.06-3.024h7.164v-.648c0-2.682-1.728-4.374-4.23-4.374-2.574 0-4.374 1.836-4.374 4.554v.216c0 2.718 1.782 4.536 4.464 4.536m-3.006-5.454c.216-1.638 1.314-2.592 2.916-2.592 1.584 0 2.682.954 2.79 2.592z" aria-label="Service" style="font-size:18px;font-family:&quot;Space Grotesk&quot;"/><circle cx="58.173" cy="90" r="12" fill="#DEDEDE" style="stroke:#000;stroke-width:3"/><path fill="none" d="M58.173 102v40.5m-19.5-28.5h39m-19.5 28.5-19.5 22.5m19.5-22.5 19.5 22.5" style="stroke:#000;stroke-width:3"/><path d="M38.994 194.964c2.97 0 4.626-1.782 4.626-4.644v-.234h-1.494v.288c0 1.89-.99 3.24-3.132 3.24s-3.402-1.386-3.402-3.726v-2.952c0-2.34 1.26-3.726 3.402-3.726s3.132 1.35 3.132 3.24v.144h1.494v-.09c0-2.862-1.656-4.644-4.626-4.644-2.988 0-4.914 1.782-4.914 5.112v2.88c0 3.33 1.926 5.112 4.914 5.112m7.106-.252h1.422v-12.6H46.1zm5.163-10.17c.63 0 1.098-.45 1.098-1.08 0-.648-.468-1.098-1.098-1.098-.612 0-1.08.45-1.08 1.098 0 .63.468 1.08 1.08 1.08m-.702 10.17h1.422v-8.802H50.56zm8.492.252c2.358 0 3.402-1.314 3.942-2.43l-1.224-.594c-.432.972-1.17 1.764-2.682 1.764-1.746 0-3.006-1.134-3.06-3.024h7.164v-.648c0-2.682-1.728-4.374-4.23-4.374-2.574 0-4.374 1.836-4.374 4.554v.216c0 2.718 1.782 4.536 4.464 4.536m-3.006-5.454c.216-1.638 1.314-2.592 2.916-2.592 1.584 0 2.682.954 2.79 2.592zm9.68 5.202h1.423v-4.428c0-2.178 1.188-3.294 2.88-3.294 1.476 0 2.43.756 2.43 2.502v5.22h1.422v-5.328c0-2.358-1.548-3.636-3.492-3.636-1.8 0-2.646.81-3.024 1.656h-.252v-1.494h-1.386zm14.073 0h2.34v-1.242h-1.962c-.378 0-.522-.18-.522-.54v-5.778h2.88v-1.242h-2.88v-3.132h-1.422v3.132h-2.646v1.242h2.646v6.012c0 .954.558 1.548 1.566 1.548" aria-label="Client" style="font-size:18px;font-family:&quot;Space Grotesk&quot;"/><path fill="none" d="M91.62 141h243.735" style="stroke:#000;stroke-width:3"/><path d="m344.355 141-13.5-6 6 6-6 6z" style="stroke:#000;stroke-width:3"/><path d="M146.94 127.212h1.512v-5.166h4.356c.81 0 1.188.396 1.188 1.116v4.05h1.494v-4.23c0-1.08-.63-1.602-1.494-1.638v-.252c1.08-.342 1.998-1.278 1.998-2.934v-.198c0-2.088-1.638-3.348-3.96-3.348h-5.094zm1.512-6.534v-4.698h3.438c1.674 0 2.592.828 2.592 2.286v.126c0 1.44-.954 2.286-2.592 2.286zm13.965 6.786c2.358 0 3.402-1.314 3.942-2.43l-1.224-.594c-.432.972-1.17 1.764-2.682 1.764-1.746 0-3.006-1.134-3.06-3.024h7.164v-.648c0-2.682-1.728-4.374-4.23-4.374-2.574 0-4.374 1.836-4.374 4.554v.216c0 2.718 1.782 4.536 4.464 4.536m-3.006-5.454c.216-1.638 1.314-2.592 2.916-2.592 1.584 0 2.682.954 2.79 2.592zm16.845 8.802h1.422V118.41h-1.386v1.458h-.252c-.486-.882-1.404-1.71-3.24-1.71-2.286 0-4.158 1.71-4.158 4.536v.234c0 2.808 1.854 4.536 4.158 4.536 1.836 0 2.754-.828 3.204-1.638h.252zm-3.078-4.608c-1.818 0-3.096-1.224-3.096-3.312v-.162c0-2.088 1.278-3.312 3.096-3.312 1.8 0 3.078 1.224 3.078 3.312v.162c0 2.088-1.26 3.312-3.078 3.312m10.887 1.17c1.8 0 2.646-.81 3.042-1.656h.252v1.494h1.386v-8.802h-1.422v4.428c0 2.178-1.206 3.294-2.88 3.294-1.494 0-2.43-.756-2.43-2.502v-5.22h-1.422v5.328c0 2.358 1.53 3.636 3.474 3.636m11.715.09c2.358 0 3.402-1.314 3.942-2.43l-1.224-.594c-.432.972-1.17 1.764-2.682 1.764-1.746 0-3.006-1.134-3.06-3.024h7.164v-.648c0-2.682-1.728-4.374-4.23-4.374-2.574 0-4.374 1.836-4.374 4.554v.216c0 2.718 1.782 4.536 4.464 4.536m-3.006-5.454c.216-1.638 1.314-2.592 2.916-2.592 1.584 0 2.682.954 2.79 2.592zm13.21 5.454c2.16 0 3.545-.972 3.545-2.7 0-1.71-1.458-2.286-3.312-2.61l-.738-.126c-1.116-.198-1.818-.522-1.818-1.368s.738-1.314 1.944-1.314c1.188 0 2.07.468 2.286 1.728l1.332-.342c-.36-1.638-1.638-2.574-3.618-2.574-2.016 0-3.348.936-3.348 2.52s1.35 2.286 3.078 2.592l.738.126c1.278.234 2.052.522 2.052 1.422s-.828 1.458-2.142 1.458c-1.332 0-2.52-.54-2.772-2.268l-1.35.306c.306 2.178 1.926 3.15 4.122 3.15m9.015-.252h2.34v-1.242h-1.962c-.378 0-.522-.18-.522-.54v-5.778h2.88v-1.242h-2.88v-3.132h-1.422v3.132h-2.646v1.242h2.646v6.012c0 .954.558 1.548 1.566 1.548" aria-label="Request" style="font-size:18px;font-family:&quot;Space Grotesk&quot;"/><path fill="none" d="M490.92 141h369.66" style="stroke:#000;stroke-width:3"/><path d="m869.58 141-13.5-6 6 6-6 6z" style="stroke:#000;stroke-width:3"/><path d="M622.248 104.712h2.646l3.798-12.6h-1.566l-3.438 11.682h-.234l-3.438-11.682h-1.566zm10.538.252c1.818 0 2.556-.864 2.934-1.566h.216v.09c0 .756.522 1.224 1.314 1.224h1.242v-1.206h-.81c-.324 0-.504-.18-.504-.54v-3.978c0-2.106-1.332-3.33-3.564-3.33-2.214 0-3.402 1.206-3.816 2.682l1.332.432c.27-1.134 1.044-1.89 2.466-1.89 1.458 0 2.178.774 2.178 2.016v.648h-2.97c-1.89 0-3.312.882-3.312 2.664 0 1.764 1.422 2.754 3.294 2.754m.162-1.224c-1.224 0-2.034-.576-2.034-1.566s.81-1.476 1.944-1.476h2.916v.198c0 1.8-1.134 2.844-2.826 2.844m7.586.972h1.422v-12.6h-1.422zm5.21-10.17c.63 0 1.099-.45 1.099-1.08 0-.648-.468-1.098-1.098-1.098-.612 0-1.08.45-1.08 1.098 0 .63.468 1.08 1.08 1.08m-.701 10.17h1.422V95.91h-1.422zm8.234.252c1.836 0 2.754-.828 3.24-1.71h.252v1.458h1.386v-12.6h-1.422v5.184h-.252c-.45-.81-1.368-1.638-3.204-1.638-2.304 0-4.158 1.728-4.158 4.536v.234c0 2.826 1.872 4.536 4.158 4.536m.378-1.26c-1.818 0-3.096-1.224-3.096-3.312v-.162c0-2.088 1.278-3.312 3.096-3.312s3.078 1.224 3.078 3.312v.162c0 2.088-1.278 3.312-3.078 3.312m10.286 1.26c1.818 0 2.556-.864 2.934-1.566h.216v.09c0 .756.522 1.224 1.314 1.224h1.242v-1.206h-.81c-.324 0-.504-.18-.504-.54v-3.978c0-2.106-1.332-3.33-3.564-3.33-2.214 0-3.402 1.206-3.816 2.682l1.332.432c.27-1.134 1.044-1.89 2.466-1.89 1.458 0 2.178.774 2.178 2.016v.648h-2.97c-1.89 0-3.312.882-3.312 2.664 0 1.764 1.422 2.754 3.294 2.754m.162-1.224c-1.224 0-2.034-.576-2.034-1.566s.81-1.476 1.944-1.476h2.916v.198c0 1.8-1.134 2.844-2.826 2.844m10.25.972h2.34v-1.242h-1.962c-.378 0-.522-.18-.522-.54v-5.778h2.88V95.91h-2.88v-3.132h-1.422v3.132h-2.646v1.242h2.646v6.012c0 .954.558 1.548 1.566 1.548m8.846.252c2.358 0 3.402-1.314 3.942-2.43l-1.224-.594c-.432.972-1.17 1.764-2.682 1.764-1.746 0-3.006-1.134-3.06-3.024h7.164v-.648c0-2.682-1.728-4.374-4.23-4.374-2.574 0-4.374 1.836-4.374 4.554v.216c0 2.718 1.782 4.536 4.464 4.536m-3.006-5.454c.216-1.638 1.314-2.592 2.916-2.592 1.584 0 2.682.954 2.79 2.592zm13.454 5.454c1.836 0 2.754-.828 3.24-1.71h.252v1.458h1.386v-12.6h-1.422v5.184h-.252c-.45-.81-1.368-1.638-3.204-1.638-2.304 0-4.158 1.728-4.158 4.536v.234c0 2.826 1.872 4.536 4.158 4.536m.378-1.26c-1.818 0-3.096-1.224-3.096-3.312v-.162c0-2.088 1.278-3.312 3.096-3.312s3.078 1.224 3.078 3.312v.162c0 2.088-1.278 3.312-3.078 3.312m15.317 1.008h4.158V98.97h1.764v-1.242H713.5v-1.926h-1.422v1.926h-2.484c-1.296 0-2.394-.648-2.394-2.178 0-1.494 1.062-2.214 2.394-2.214h2.088v-1.224h-2.268c-2.016 0-3.672 1.17-3.672 3.348 0 1.566.936 2.43 2.052 2.772v.198c-1.116.396-2.16 1.368-2.16 2.952 0 2.124 1.62 3.33 3.708 3.33m.18-1.242c-1.332 0-2.448-.702-2.448-2.25 0-1.53 1.08-2.25 2.448-2.25h2.556v4.5zm16.054 1.494c2.16 0 3.546-.972 3.546-2.7 0-1.71-1.458-2.286-3.312-2.61l-.738-.126c-1.116-.198-1.818-.522-1.818-1.368s.738-1.314 1.944-1.314c1.188 0 2.07.468 2.286 1.728l1.332-.342c-.36-1.638-1.638-2.574-3.618-2.574-2.016 0-3.348.936-3.348 2.52s1.35 2.286 3.078 2.592l.738.126c1.278.234 2.052.522 2.052 1.422s-.828 1.458-2.142 1.458c-1.332 0-2.52-.54-2.772-2.268l-1.35.306c.306 2.178 1.926 3.15 4.122 3.15m8.666 0c1.818 0 2.556-.864 2.934-1.566h.216v.09c0 .756.522 1.224 1.314 1.224h1.242v-1.206h-.81c-.324 0-.504-.18-.504-.54v-3.978c0-2.106-1.332-3.33-3.564-3.33-2.214 0-3.402 1.206-3.816 2.682l1.332.432c.27-1.134 1.044-1.89 2.466-1.89 1.458 0 2.178.774 2.178 2.016v.648h-2.97c-1.89 0-3.312.882-3.312 2.664 0 1.764 1.422 2.754 3.294 2.754m.162-1.224c-1.224 0-2.034-.576-2.034-1.566s.81-1.476 1.944-1.476h2.916v.198c0 1.8-1.134 2.844-2.826 2.844m7.586.972h1.422v-4.428c0-2.178 1.188-3.294 2.88-3.294 1.476 0 2.43.756 2.43 2.502v5.22h1.422v-5.328c0-2.358-1.548-3.636-3.492-3.636-1.8 0-2.646.81-3.024 1.656h-.252V95.91h-1.386zm11.834-10.17c.63 0 1.098-.45 1.098-1.08 0-.648-.468-1.098-1.098-1.098-.612 0-1.08.45-1.08 1.098 0 .63.468 1.08 1.08 1.08m-.702 10.17h1.422V95.91h-1.422zm7.749 0h2.34v-1.242h-1.962c-.378 0-.522-.18-.522-.54v-5.778h2.88V95.91h-2.88v-3.132h-1.422v3.132h-2.646v1.242h2.646v6.012c0 .954.558 1.548 1.566 1.548m5.84-10.17c.63 0 1.098-.45 1.098-1.08 0-.648-.468-1.098-1.098-1.098-.612 0-1.08.45-1.08 1.098 0 .63.468 1.08 1.08 1.08m-.702 10.17h1.422V95.91h-1.422zm4.112 0h7.236v-1.242h-5.76v-.198l5.616-5.526V95.91h-6.912v1.242h5.418v.198l-5.598 5.526zm13.562.252c2.358 0 3.402-1.314 3.942-2.43l-1.224-.594c-.432.972-1.17 1.764-2.682 1.764-1.746 0-3.006-1.134-3.06-3.024h7.164v-.648c0-2.682-1.728-4.374-4.23-4.374-2.574 0-4.374 1.836-4.374 4.554v.216c0 2.718 1.782 4.536 4.464 4.536m-3.006-5.454c.216-1.638 1.314-2.592 2.916-2.592 1.584 0 2.682.954 2.79 2.592zm13.454 5.454c1.836 0 2.754-.828 3.24-1.71h.252v1.458h1.386v-12.6h-1.422v5.184h-.252c-.45-.81-1.368-1.638-3.204-1.638-2.304 0-4.158 1.728-4.158 4.536v.234c0 2.826 1.872 4.536 4.158 4.536m.378-1.26c-1.818 0-3.096-1.224-3.096-3.312v-.162c0-2.088 1.278-3.312 3.096-3.312s3.078 1.224 3.078 3.312v.162c0 2.088-1.278 3.312-3.078 3.312" aria-label="Validated &amp; sanitized" style="font-size:18px;font-family:&quot;Space Grotesk&quot;"/><path d="M676.51 127.68h1.421v-5.364c0-1.476.846-2.178 2.124-2.178h1.134v-1.296h-1.044c-1.062 0-1.692.342-1.998 1.116h-.252v-1.08h-1.386zm10.58.252c2.358 0 3.402-1.314 3.942-2.43l-1.224-.594c-.432.972-1.17 1.764-2.682 1.764-1.746 0-3.006-1.134-3.06-3.024h7.164V123c0-2.682-1.728-4.374-4.23-4.374-2.574 0-4.374 1.836-4.374 4.554v.216c0 2.718 1.782 4.536 4.464 4.536m-3.006-5.454c.216-1.638 1.314-2.592 2.916-2.592 1.584 0 2.682.954 2.79 2.592zm16.9 8.802h1.422v-12.402h-1.386v1.458h-.252c-.486-.882-1.404-1.71-3.24-1.71-2.286 0-4.158 1.71-4.158 4.536v.234c0 2.808 1.854 4.536 4.158 4.536 1.836 0 2.754-.828 3.204-1.638h.252zm-3.078-4.608c-1.818 0-3.096-1.224-3.096-3.312v-.162c0-2.088 1.278-3.312 3.096-3.312 1.8 0 3.078 1.224 3.078 3.312v.162c0 2.088-1.26 3.312-3.078 3.312m10.94 1.17c1.8 0 2.647-.81 3.043-1.656h.252v1.494h1.386v-8.802h-1.422v4.428c0 2.178-1.206 3.294-2.88 3.294-1.494 0-2.43-.756-2.43-2.502v-5.22h-1.422v5.328c0 2.358 1.53 3.636 3.474 3.636m11.77.09c2.358 0 3.402-1.314 3.942-2.43l-1.224-.594c-.432.972-1.17 1.764-2.682 1.764-1.746 0-3.006-1.134-3.06-3.024h7.164V123c0-2.682-1.728-4.374-4.23-4.374-2.574 0-4.374 1.836-4.374 4.554v.216c0 2.718 1.782 4.536 4.464 4.536m-3.006-5.454c.216-1.638 1.314-2.592 2.916-2.592 1.584 0 2.682.954 2.79 2.592zm13.263 5.454c2.16 0 3.546-.972 3.546-2.7 0-1.71-1.458-2.286-3.312-2.61l-.738-.126c-1.116-.198-1.818-.522-1.818-1.368s.738-1.314 1.944-1.314c1.188 0 2.07.468 2.286 1.728l1.332-.342c-.36-1.638-1.638-2.574-3.618-2.574-2.016 0-3.348.936-3.348 2.52s1.35 2.286 3.078 2.592l.738.126c1.278.234 2.052.522 2.052 1.422s-.828 1.458-2.142 1.458c-1.332 0-2.52-.54-2.772-2.268l-1.35.306c.306 2.178 1.926 3.15 4.122 3.15m9.069-.252h2.34v-1.242h-1.962c-.378 0-.522-.18-.522-.54v-5.778h2.88v-1.242h-2.88v-3.132h-1.422v3.132h-2.646v1.242h2.646v6.012c0 .954.558 1.548 1.566 1.548" aria-label="request" style="font-size:18px;font-family:&quot;Space Grotesk&quot;"/></svg>