<svg xmlns="http://www.w3.org/2000/svg" width="622.5" height="394.5" preserveAspectRatio="none" style="width:622px;height:394px" viewBox="0 0 622 394"><rect width="189.073" height="90.936" x="221.25" y="34.5" fill="#FFAE03" rx="18.75" ry="18.75" style="stroke:#000;stroke-width:3"/><path d="M272.667 74.712h2.376v-12.6h-2.376zm4.844 0h2.268v-4.536c0-1.656.81-2.628 2.196-2.628 1.224 0 1.908.666 1.908 2.016v5.148h2.268v-5.328c0-2.214-1.386-3.744-3.474-3.744-1.602 0-2.322.702-2.61 1.314h-.324v-1.17h-2.232zm14.816.252c2.268 0 3.744-1.062 3.744-2.934s-1.584-2.448-3.6-2.808l-.504-.09c-.828-.144-1.332-.378-1.332-.954 0-.522.468-.846 1.332-.846s1.476.342 1.674 1.26l2.106-.648c-.414-1.44-1.782-2.412-3.78-2.412-2.124 0-3.528.99-3.528 2.754s1.548 2.466 3.42 2.808l.504.09c1.062.198 1.512.45 1.512 1.008s-.504.972-1.548.972-1.89-.396-2.124-1.656l-2.088.54c.306 1.872 1.872 2.916 4.212 2.916m8.984-.252h2.52V72.84h-1.728c-.324 0-.504-.18-.504-.54v-4.644h2.448v-1.872H301.6v-2.772h-2.268v2.772H297.1v1.872h2.232v5.04c0 1.224.792 2.016 1.98 2.016m7.58.252c1.872 0 2.43-1.008 2.592-1.458h.342v.018c0 .72.648 1.188 1.53 1.188h1.512V72.84h-.72c-.324 0-.504-.18-.504-.54v-3.33c0-2.232-1.476-3.438-3.816-3.438-2.322 0-3.492 1.17-3.924 2.52l2.088.702c.162-.81.666-1.386 1.8-1.386 1.152 0 1.656.612 1.656 1.44v.504H309c-2.016 0-3.456.954-3.456 2.79s1.44 2.862 3.348 2.862m.396-1.836c-.972 0-1.476-.45-1.476-1.098s.504-1.026 1.35-1.026h2.286v.18c0 1.188-.9 1.944-2.16 1.944m7.256 1.584h2.268v-4.536c0-1.656.81-2.628 2.196-2.628 1.224 0 1.908.666 1.908 2.016v5.148h2.268v-5.328c0-2.214-1.386-3.744-3.474-3.744-1.602 0-2.322.702-2.61 1.314h-.324v-1.17h-2.232zm15.302.252c2.556 0 4.014-1.494 4.482-3.42l-2.196-.522c-.198 1.152-.864 1.926-2.232 1.926s-2.412-.918-2.412-2.61v-.18c0-1.692 1.044-2.61 2.412-2.61s2.034.828 2.178 1.908l2.196-.468c-.378-1.98-1.872-3.456-4.428-3.456-2.592 0-4.626 1.674-4.626 4.59v.252c0 2.916 2.034 4.59 4.626 4.59m10.443 0c2.448 0 3.51-1.386 4.014-2.34l-1.854-.972c-.306.684-.828 1.332-2.088 1.332s-2.214-.846-2.268-2.07h6.498v-.774c0-2.736-1.71-4.608-4.338-4.608-2.664 0-4.464 1.8-4.464 4.608v.216c0 2.808 1.818 4.608 4.5 4.608m-2.178-5.742c.162-1.026.9-1.71 2.124-1.71 1.17 0 1.944.684 2.052 1.71zm16.492 5.49h2.304v-12.6h-4.158l-2.574 5.688h2.412l1.692-3.996h.324z" aria-label="Instance 1" style="font-weight:700;font-size:18px;font-family:&quot;Space Grotesk&quot;"/><path d="M250.77 102.108v-1.944c-2.628 0-3.924-1.458-3.924-4.644v-4.86c0-3.186 1.296-4.644 3.924-4.644v-1.944c-4.014 0-6.12 2.052-6.12 6.516v5.004c0 4.464 2.106 6.516 6.12 6.516m1.385-4.428h8.208v-2.16h-5.832v-3.114h5.22v-2.16h-5.22V87.24h5.724v-2.16h-8.1zm10.097 0h2.268v-12.6h-2.268zm8.909.252c2.448 0 3.51-1.386 4.014-2.34l-1.854-.972c-.306.684-.828 1.332-2.088 1.332s-2.214-.846-2.268-2.07h6.498v-.774c0-2.736-1.71-4.608-4.338-4.608-2.664 0-4.464 1.8-4.464 4.608v.216c0 2.808 1.818 4.608 4.5 4.608m-2.178-5.742c.162-1.026.9-1.71 2.124-1.71 1.17 0 1.944.684 2.052 1.71zm12.742 5.742c2.556 0 4.014-1.494 4.482-3.42l-2.196-.522c-.198 1.152-.864 1.926-2.232 1.926s-2.412-.918-2.412-2.61v-.18c0-1.692 1.044-2.61 2.412-2.61s2.034.828 2.178 1.908l2.196-.468c-.378-1.98-1.872-3.456-4.428-3.456-2.592 0-4.626 1.674-4.626 4.59v.252c0 2.916 2.034 4.59 4.626 4.59m9.54-.252h2.52v-1.872h-1.729c-.324 0-.504-.18-.504-.54v-4.644H294v-1.872h-2.448V85.98h-2.268v2.772h-2.232v1.872h2.232v5.04c0 1.224.792 2.016 1.98 2.016m8.584.252c2.448 0 3.51-1.386 4.014-2.34l-1.854-.972c-.306.684-.828 1.332-2.088 1.332s-2.214-.846-2.268-2.07h6.498v-.774c0-2.736-1.71-4.608-4.338-4.608-2.664 0-4.464 1.8-4.464 4.608v.216c0 2.808 1.818 4.608 4.5 4.608m-2.178-5.742c.162-1.026.9-1.71 2.124-1.71 1.17 0 1.944.684 2.052 1.71zm12.15 5.742c1.62 0 2.393-.648 2.807-1.332h.324v1.08h2.232v-12.6h-2.268v4.698h-.324c-.378-.63-1.152-1.278-2.772-1.278-2.16 0-4.032 1.656-4.032 4.572v.288c0 2.916 1.89 4.572 4.032 4.572m.683-1.98c-1.386 0-2.448-.918-2.448-2.646v-.18c0-1.728 1.044-2.646 2.448-2.646s2.448.918 2.448 2.646v.18c0 1.728-1.062 2.646-2.448 2.646m11.806 1.728h8.136v-2.16h-5.76V85.08h-2.376zm13.949.252c2.448 0 3.51-1.386 4.014-2.34l-1.854-.972c-.306.684-.828 1.332-2.088 1.332s-2.214-.846-2.268-2.07h6.498v-.774c0-2.736-1.71-4.608-4.338-4.608-2.664 0-4.464 1.8-4.464 4.608v.216c0 2.808 1.818 4.608 4.5 4.608m-2.178-5.742c.162-1.026.9-1.71 2.124-1.71 1.17 0 1.944.684 2.052 1.71zm11.32 5.742c1.872 0 2.43-1.008 2.592-1.458h.342v.018c0 .72.648 1.188 1.53 1.188h1.512v-1.872h-.72c-.324 0-.504-.18-.504-.54v-3.33c0-2.232-1.476-3.438-3.816-3.438-2.322 0-3.492 1.17-3.924 2.52l2.088.702c.162-.81.666-1.386 1.8-1.386 1.152 0 1.656.612 1.656 1.44v.504h-2.448c-2.016 0-3.456.954-3.456 2.79s1.44 2.862 3.348 2.862m.396-1.836c-.972 0-1.476-.45-1.476-1.098s.504-1.026 1.35-1.026h2.286v.18c0 1.188-.9 1.944-2.16 1.944m10.71 1.836c1.62 0 2.393-.648 2.807-1.332h.324v1.08h2.232v-12.6h-2.268v4.698h-.324c-.378-.63-1.152-1.278-2.772-1.278-2.16 0-4.032 1.656-4.032 4.572v.288c0 2.916 1.89 4.572 4.032 4.572m.683-1.98c-1.386 0-2.448-.918-2.448-2.646v-.18c0-1.728 1.044-2.646 2.448-2.646s2.448.918 2.448 2.646v.18c0 1.728-1.062 2.646-2.448 2.646m11.321 1.98c2.448 0 3.51-1.386 4.014-2.34l-1.854-.972c-.306.684-.828 1.332-2.088 1.332s-2.214-.846-2.268-2.07h6.498v-.774c0-2.736-1.71-4.608-4.338-4.608-2.664 0-4.464 1.8-4.464 4.608v.216c0 2.808 1.818 4.608 4.5 4.608m-2.178-5.742c.162-1.026.9-1.71 2.124-1.71 1.17 0 1.944.684 2.052 1.71zm8.55 5.49h2.267v-5.076c0-1.26.828-1.872 1.98-1.872h1.116v-2.016h-1.08c-.828 0-1.476.324-1.728 1.044h-.324v-1.008h-2.232zm5.92 4.428c4.014 0 6.12-2.052 6.12-6.516v-5.004c0-4.464-2.106-6.516-6.12-6.516v1.944c2.628 0 3.924 1.458 3.924 4.644v4.86c0 3.186-1.296 4.644-3.924 4.644z" aria-label="(Elected Leader)" style="font-weight:700;font-size:18px;font-family:&quot;Space Grotesk&quot;"/><rect width="136.477" height="90.936" x="34.5" y="279" fill="#FFF" rx="18.75" ry="18.75" style="stroke:#000;stroke-width:3"/><path d="M58.44 319.212h1.512v-12.6H58.44Zm4.474 0h1.422v-4.428c0-2.178 1.188-3.294 2.88-3.294 1.476 0 2.43.756 2.43 2.502v5.22h1.422v-5.328c0-2.358-1.548-3.636-3.492-3.636-1.8 0-2.646.81-3.024 1.656H64.3v-1.494h-1.386zm14.608.252c2.16 0 3.546-.972 3.546-2.7 0-1.71-1.458-2.286-3.312-2.61l-.738-.126c-1.116-.198-1.818-.522-1.818-1.368s.738-1.314 1.944-1.314c1.188 0 2.07.468 2.286 1.728l1.332-.342c-.36-1.638-1.638-2.574-3.618-2.574-2.016 0-3.348.936-3.348 2.52s1.35 2.286 3.078 2.592l.738.126c1.278.234 2.052.522 2.052 1.422s-.828 1.458-2.142 1.458c-1.332 0-2.52-.54-2.772-2.268l-1.35.306c.306 2.178 1.926 3.15 4.122 3.15m9.01-.252h2.34v-1.242H86.91c-.378 0-.522-.18-.522-.54v-5.778h2.88v-1.242h-2.88v-3.132h-1.422v3.132H82.32v1.242h2.646v6.012c0 .954.558 1.548 1.566 1.548m7.714.252c1.818 0 2.556-.864 2.934-1.566h.216v.09c0 .756.522 1.224 1.314 1.224h1.242v-1.206h-.81c-.324 0-.504-.18-.504-.54v-3.978c0-2.106-1.332-3.33-3.564-3.33-2.214 0-3.402 1.206-3.816 2.682l1.332.432c.27-1.134 1.044-1.89 2.466-1.89 1.458 0 2.178.774 2.178 2.016v.648h-2.97c-1.89 0-3.312.882-3.312 2.664 0 1.764 1.422 2.754 3.294 2.754m.162-1.224c-1.224 0-2.034-.576-2.034-1.566s.81-1.476 1.944-1.476h2.916v.198c0 1.8-1.134 2.844-2.826 2.844m7.516.972h1.422v-4.428c0-2.178 1.188-3.294 2.88-3.294 1.476 0 2.43.756 2.43 2.502v5.22h1.422v-5.328c0-2.358-1.548-3.636-3.492-3.636-1.8 0-2.646.81-3.024 1.656h-.252v-1.494h-1.386zm15.112.252c2.538 0 3.906-1.584 4.284-3.348l-1.404-.306c-.216 1.35-1.116 2.376-2.862 2.376s-3.078-1.242-3.078-3.294v-.162c0-2.052 1.332-3.294 3.078-3.294s2.628 1.08 2.808 2.376l1.386-.288c-.288-1.782-1.674-3.366-4.212-3.366-2.574 0-4.482 1.728-4.482 4.554v.198c0 2.826 1.908 4.554 4.482 4.554m10.775 0c2.358 0 3.402-1.314 3.942-2.43l-1.224-.594c-.432.972-1.17 1.764-2.682 1.764-1.746 0-3.006-1.134-3.06-3.024h7.164v-.648c0-2.682-1.728-4.374-4.23-4.374-2.574 0-4.374 1.836-4.374 4.554v.216c0 2.718 1.782 4.536 4.464 4.536m-3.006-5.454c.216-1.638 1.314-2.592 2.916-2.592 1.584 0 2.682.954 2.79 2.592zm13.772 5.202h8.91v-1.314h-7.434v-.306c0-1.656.918-2.142 2.736-2.718l.972-.306c2.286-.72 3.834-1.746 3.834-4.194v-.162c0-2.304-1.818-3.852-4.41-3.852s-4.536 1.53-4.536 4.266v.234h1.44v-.252c0-1.962 1.26-2.934 3.096-2.934 1.728 0 2.952.99 2.952 2.574v.072c0 1.674-1.08 2.448-2.718 2.952l-.99.306c-2.376.738-3.852 1.638-3.852 4.32z" aria-label="Instance 2" style="font-size:18px;font-family:&quot;Space Grotesk&quot;"/><path d="M66.252 346.41v-1.242c-2.88-.036-4.176-1.548-4.176-4.752v-5.652c0-3.204 1.296-4.716 4.176-4.752v-1.242c-3.474 0-5.562 1.746-5.562 5.904v5.832c0 4.158 2.088 5.904 5.562 5.904m1.672-4.23h1.512v-5.634h5.616v-1.368h-5.616v-4.23h6.102v-1.368h-7.614zm13.786.252c2.664 0 4.5-1.782 4.5-4.536v-.234c0-2.754-1.836-4.536-4.5-4.536s-4.5 1.782-4.5 4.536v.234c0 2.754 1.836 4.536 4.5 4.536m0-1.278c-1.854 0-3.078-1.278-3.078-3.294v-.162c0-2.016 1.206-3.294 3.078-3.294 1.854 0 3.078 1.278 3.078 3.294v.162c0 2.016-1.224 3.294-3.078 3.294m7.108 1.026h1.422v-12.6h-1.422zm4.462 0h1.422v-12.6H93.28zm8.53.252c2.664 0 4.5-1.782 4.5-4.536v-.234c0-2.754-1.836-4.536-4.5-4.536s-4.5 1.782-4.5 4.536v.234c0 2.754 1.836 4.536 4.5 4.536m0-1.278c-1.854 0-3.078-1.278-3.078-3.294v-.162c0-2.016 1.206-3.294 3.078-3.294 1.854 0 3.078 1.278 3.078 3.294v.162c0 2.016-1.224 3.294-3.078 3.294m8.152 1.026h2.43l1.944-7.848h.234l1.944 7.848h2.43l1.764-8.802h-1.44l-1.458 7.848h-.252l-1.926-7.848h-2.358l-1.926 7.848h-.252l-1.458-7.848h-1.44zm17.098.252c2.358 0 3.402-1.314 3.942-2.43l-1.224-.594c-.432.972-1.17 1.764-2.682 1.764-1.746 0-3.006-1.134-3.06-3.024h7.164v-.648c0-2.682-1.728-4.374-4.23-4.374-2.574 0-4.374 1.836-4.374 4.554v.216c0 2.718 1.782 4.536 4.464 4.536m-3.006-5.454c.216-1.638 1.314-2.592 2.916-2.592 1.584 0 2.682.954 2.79 2.592zm9.683 5.202h1.422v-5.364c0-1.476.846-2.178 2.124-2.178h1.134v-1.296h-1.044c-1.062 0-1.692.342-1.998 1.116h-.252v-1.08h-1.386zm5.47 4.23c3.492 0 5.58-1.746 5.58-5.904v-5.832c0-4.158-2.088-5.904-5.58-5.904v1.242c2.88.036 4.194 1.548 4.194 4.752v5.652c0 3.204-1.314 4.716-4.194 4.752z" aria-label="(Follower)" style="font-size:18px;font-family:&quot;Space Grotesk&quot;"/><rect width="136.495" height="90.936" x="462" y="279" fill="#FFF" rx="18.75" ry="18.75" style="stroke:#000;stroke-width:3"/><path d="M485.94 319.212h1.512v-12.6h-1.512zm4.474 0h1.422v-4.428c0-2.178 1.188-3.294 2.88-3.294 1.476 0 2.43.756 2.43 2.502v5.22h1.422v-5.328c0-2.358-1.548-3.636-3.492-3.636-1.8 0-2.646.81-3.024 1.656h-.252v-1.494h-1.386zm14.608.252c2.16 0 3.546-.972 3.546-2.7 0-1.71-1.458-2.286-3.312-2.61l-.738-.126c-1.116-.198-1.818-.522-1.818-1.368s.738-1.314 1.944-1.314c1.188 0 2.07.468 2.286 1.728l1.332-.342c-.36-1.638-1.638-2.574-3.618-2.574-2.016 0-3.348.936-3.348 2.52s1.35 2.286 3.078 2.592l.738.126c1.278.234 2.052.522 2.052 1.422s-.828 1.458-2.142 1.458c-1.332 0-2.52-.54-2.772-2.268l-1.35.306c.306 2.178 1.926 3.15 4.122 3.15m9.01-.252h2.34v-1.242h-1.962c-.378 0-.522-.18-.522-.54v-5.778h2.88v-1.242h-2.88v-3.132h-1.422v3.132h-2.646v1.242h2.646v6.012c0 .954.558 1.548 1.566 1.548m7.714.252c1.818 0 2.556-.864 2.934-1.566h.216v.09c0 .756.522 1.224 1.314 1.224h1.242v-1.206h-.81c-.324 0-.504-.18-.504-.54v-3.978c0-2.106-1.332-3.33-3.564-3.33-2.214 0-3.402 1.206-3.816 2.682l1.332.432c.27-1.134 1.044-1.89 2.466-1.89 1.458 0 2.178.774 2.178 2.016v.648h-2.97c-1.89 0-3.312.882-3.312 2.664 0 1.764 1.422 2.754 3.294 2.754m.162-1.224c-1.224 0-2.034-.576-2.034-1.566s.81-1.476 1.944-1.476h2.916v.198c0 1.8-1.134 2.844-2.826 2.844m7.516.972h1.422v-4.428c0-2.178 1.188-3.294 2.88-3.294 1.476 0 2.43.756 2.43 2.502v5.22h1.422v-5.328c0-2.358-1.548-3.636-3.492-3.636-1.8 0-2.646.81-3.024 1.656h-.252v-1.494h-1.386zm15.112.252c2.538 0 3.906-1.584 4.284-3.348l-1.404-.306c-.216 1.35-1.116 2.376-2.862 2.376s-3.078-1.242-3.078-3.294v-.162c0-2.052 1.332-3.294 3.078-3.294s2.628 1.08 2.808 2.376l1.386-.288c-.288-1.782-1.674-3.366-4.212-3.366-2.574 0-4.482 1.728-4.482 4.554v.198c0 2.826 1.908 4.554 4.482 4.554m10.774 0c2.358 0 3.402-1.314 3.942-2.43l-1.224-.594c-.432.972-1.17 1.764-2.682 1.764-1.746 0-3.006-1.134-3.06-3.024h7.164v-.648c0-2.682-1.728-4.374-4.23-4.374-2.574 0-4.374 1.836-4.374 4.554v.216c0 2.718 1.782 4.536 4.464 4.536m-3.006-5.454c.216-1.638 1.314-2.592 2.916-2.592 1.584 0 2.682.954 2.79 2.592zm18.273 5.454c2.718 0 4.5-1.548 4.5-3.924v-.198c0-2.304-1.782-3.456-3.906-3.456h-.9v-.216l4.698-3.024v-2.034h-8.73v1.314h7.182v.216l-4.806 3.078v1.818h2.052c1.638 0 2.952.702 2.952 2.34v.144c0 1.512-1.134 2.628-3.042 2.628s-3.168-1.134-3.168-2.97v-.324h-1.476v.342c0 2.7 1.944 4.266 4.644 4.266" aria-label="Instance 3" style="font-size:18px;font-family:&quot;Space Grotesk&quot;"/><path d="M493.761 346.41v-1.242c-2.88-.036-4.176-1.548-4.176-4.752v-5.652c0-3.204 1.296-4.716 4.176-4.752v-1.242c-3.474 0-5.562 1.746-5.562 5.904v5.832c0 4.158 2.088 5.904 5.562 5.904m1.672-4.23h1.512v-5.634h5.616v-1.368h-5.616v-4.23h6.102v-1.368h-7.614zm13.786.252c2.664 0 4.5-1.782 4.5-4.536v-.234c0-2.754-1.836-4.536-4.5-4.536s-4.5 1.782-4.5 4.536v.234c0 2.754 1.836 4.536 4.5 4.536m0-1.278c-1.854 0-3.078-1.278-3.078-3.294v-.162c0-2.016 1.206-3.294 3.078-3.294 1.854 0 3.078 1.278 3.078 3.294v.162c0 2.016-1.224 3.294-3.078 3.294m7.108 1.026h1.422v-12.6h-1.422zm4.462 0h1.422v-12.6h-1.422zm8.53.252c2.664 0 4.5-1.782 4.5-4.536v-.234c0-2.754-1.836-4.536-4.5-4.536s-4.5 1.782-4.5 4.536v.234c0 2.754 1.836 4.536 4.5 4.536m0-1.278c-1.854 0-3.078-1.278-3.078-3.294v-.162c0-2.016 1.206-3.294 3.078-3.294 1.854 0 3.078 1.278 3.078 3.294v.162c0 2.016-1.224 3.294-3.078 3.294m8.152 1.026h2.43l1.944-7.848h.234l1.944 7.848h2.43l1.764-8.802h-1.44l-1.458 7.848h-.252l-1.926-7.848h-2.358l-1.926 7.848h-.252l-1.458-7.848h-1.44zm17.098.252c2.358 0 3.402-1.314 3.942-2.43l-1.224-.594c-.432.972-1.17 1.764-2.682 1.764-1.746 0-3.006-1.134-3.06-3.024h7.164v-.648c0-2.682-1.728-4.374-4.23-4.374-2.574 0-4.374 1.836-4.374 4.554v.216c0 2.718 1.782 4.536 4.464 4.536m-3.006-5.454c.216-1.638 1.314-2.592 2.916-2.592 1.584 0 2.682.954 2.79 2.592zm9.683 5.202h1.422v-5.364c0-1.476.846-2.178 2.124-2.178h1.134v-1.296h-1.044c-1.062 0-1.692.342-1.998 1.116h-.252v-1.08h-1.386zm5.47 4.23c3.492 0 5.58-1.746 5.58-5.904v-5.832c0-4.158-2.088-5.904-5.58-5.904v1.242c2.88.036 4.194 1.548 4.194 4.752v5.652c0 3.204-1.314 4.716-4.194 4.752z" aria-label="(Follower)" style="font-size:18px;font-family:&quot;Space Grotesk&quot;"/><path fill="none" d="M276.69 126.045c-38.325 43.44-90.452 102.555-128.807 146.04" style="stroke:#000;stroke-width:3"/><path d="m141.93 278.835 13.43-6.155-8.469.53-.53-8.468z" style="stroke:#000;stroke-width:3"/><path d="M271.218 197.964c2.736 0 4.518-1.458 4.518-3.69 0-2.214-1.71-3.042-3.888-3.546l-.936-.234c-1.674-.414-2.664-.864-2.664-2.214s1.08-2.106 2.754-2.106c1.728 0 2.988.756 2.988 2.574v.756h1.494v-.756c0-2.574-1.944-3.888-4.482-3.888s-4.248 1.314-4.248 3.438 1.512 2.988 3.744 3.528l.936.234c1.692.396 2.808.864 2.808 2.25 0 1.35-1.062 2.34-3.024 2.34-1.926 0-3.276-.99-3.276-3.096v-.378h-1.494v.378c0 2.952 2.016 4.41 4.77 4.41m10.926 0c2.358 0 3.402-1.314 3.942-2.43l-1.224-.594c-.432.972-1.17 1.764-2.682 1.764-1.746 0-3.006-1.134-3.06-3.024h7.164v-.648c0-2.682-1.728-4.374-4.23-4.374-2.574 0-4.374 1.836-4.374 4.554v.216c0 2.718 1.782 4.536 4.464 4.536m-3.006-5.454c.216-1.638 1.314-2.592 2.916-2.592 1.584 0 2.682.954 2.79 2.592zm9.63 5.202h1.422v-4.428c0-2.178 1.188-3.294 2.88-3.294 1.476 0 2.43.756 2.43 2.502v5.22h1.422v-5.328c0-2.358-1.548-3.636-3.492-3.636-1.8 0-2.646.81-3.024 1.656h-.252v-1.494h-1.386zm14.76.252c1.837 0 2.755-.828 3.24-1.71h.253v1.458h1.386v-12.6h-1.422v5.184h-.252c-.45-.81-1.368-1.638-3.204-1.638-2.304 0-4.158 1.728-4.158 4.536v.234c0 2.826 1.872 4.536 4.158 4.536m.379-1.26c-1.818 0-3.096-1.224-3.096-3.312v-.162c0-2.088 1.278-3.312 3.096-3.312s3.078 1.224 3.078 3.312v.162c0 2.088-1.278 3.312-3.078 3.312m11.034 1.26c2.16 0 3.546-.972 3.546-2.7 0-1.71-1.458-2.286-3.312-2.61l-.738-.126c-1.116-.198-1.818-.522-1.818-1.368s.738-1.314 1.944-1.314c1.188 0 2.07.468 2.286 1.728l1.332-.342c-.36-1.638-1.638-2.574-3.618-2.574-2.016 0-3.348.936-3.348 2.52s1.35 2.286 3.078 2.592l.738.126c1.278.234 2.052.522 2.052 1.422s-.828 1.458-2.142 1.458c-1.332 0-2.52-.54-2.772-2.268l-1.35.306c.306 2.178 1.926 3.15 4.122 3.15" aria-label="Sends" style="font-size:18px;font-family:&quot;Space Grotesk&quot;"/><path d="M245.244 220.68h1.422v-4.428c0-2.178 1.188-3.294 2.88-3.294 1.476 0 2.43.756 2.43 2.502v5.22h1.422v-5.328c0-2.358-1.548-3.636-3.492-3.636-1.782 0-2.61.792-2.988 1.566h-.252v-5.202h-1.422zm15.13.252c2.358 0 3.402-1.314 3.942-2.43l-1.224-.594c-.432.972-1.17 1.764-2.682 1.764-1.746 0-3.006-1.134-3.06-3.024h7.164V216c0-2.682-1.728-4.374-4.23-4.374-2.574 0-4.374 1.836-4.374 4.554v.216c0 2.718 1.782 4.536 4.464 4.536m-3.006-5.454c.216-1.638 1.314-2.592 2.916-2.592 1.584 0 2.682.954 2.79 2.592zm12.394 5.454c1.818 0 2.556-.864 2.934-1.566h.216v.09c0 .756.522 1.224 1.314 1.224h1.242v-1.206h-.81c-.324 0-.504-.18-.504-.54v-3.978c0-2.106-1.332-3.33-3.564-3.33-2.214 0-3.402 1.206-3.816 2.682l1.332.432c.27-1.134 1.044-1.89 2.466-1.89 1.458 0 2.178.774 2.178 2.016v.648h-2.97c-1.89 0-3.312.882-3.312 2.664 0 1.764 1.422 2.754 3.294 2.754m.162-1.224c-1.224 0-2.034-.576-2.034-1.566s.81-1.476 1.944-1.476h2.916v.198c0 1.8-1.134 2.844-2.826 2.844m7.552.972h1.422v-5.364c0-1.476.846-2.178 2.124-2.178h1.134v-1.296h-1.044c-1.062 0-1.692.342-1.998 1.116h-.252v-1.08h-1.386zm10.09 0h2.34v-1.242h-1.962c-.378 0-.522-.18-.522-.54v-5.778h2.88v-1.242h-2.88v-3.132H286v3.132h-2.646v1.242H286v6.012c0 .954.558 1.548 1.566 1.548m9.982.252c2.286 0 4.158-1.71 4.158-4.536v-.234c0-2.808-1.854-4.536-4.158-4.536-1.836 0-2.772.828-3.204 1.638h-.252v-5.184h-1.422v12.6h1.386v-1.458h.252c.468.882 1.404 1.71 3.24 1.71m-.378-1.26c-1.818 0-3.096-1.224-3.096-3.312v-.162c0-2.088 1.278-3.312 3.096-3.312s3.078 1.224 3.078 3.312v.162c0 2.088-1.278 3.312-3.078 3.312m11.188 1.26c2.358 0 3.402-1.314 3.942-2.43l-1.224-.594c-.432.972-1.17 1.764-2.682 1.764-1.746 0-3.006-1.134-3.06-3.024h7.164V216c0-2.682-1.728-4.374-4.23-4.374-2.574 0-4.374 1.836-4.374 4.554v.216c0 2.718 1.782 4.536 4.464 4.536m-3.006-5.454c.216-1.638 1.314-2.592 2.916-2.592 1.584 0 2.682.954 2.79 2.592zm12.395 5.454c1.818 0 2.556-.864 2.934-1.566h.216v.09c0 .756.522 1.224 1.314 1.224h1.242v-1.206h-.81c-.324 0-.504-.18-.504-.54v-3.978c0-2.106-1.332-3.33-3.564-3.33-2.214 0-3.402 1.206-3.816 2.682l1.332.432c.27-1.134 1.044-1.89 2.466-1.89 1.458 0 2.178.774 2.178 2.016v.648h-2.97c-1.89 0-3.312.882-3.312 2.664 0 1.764 1.422 2.754 3.294 2.754m.162-1.224c-1.224 0-2.034-.576-2.034-1.566s.81-1.476 1.944-1.476h2.916v.198c0 1.8-1.134 2.844-2.826 2.844m10.216.972h2.34v-1.242h-1.962c-.378 0-.522-.18-.522-.54v-5.778h2.88v-1.242h-2.88v-3.132h-1.422v3.132h-2.646v1.242h2.646v6.012c0 .954.558 1.548 1.566 1.548m8.65.252c2.16 0 3.546-.972 3.546-2.7 0-1.71-1.458-2.286-3.312-2.61l-.738-.126c-1.116-.198-1.818-.522-1.818-1.368s.738-1.314 1.944-1.314c1.188 0 2.07.468 2.286 1.728l1.332-.342c-.36-1.638-1.638-2.574-3.618-2.574-2.016 0-3.348.936-3.348 2.52s1.35 2.286 3.078 2.592l.738.126c1.278.234 2.052.522 2.052 1.422s-.828 1.458-2.142 1.458c-1.332 0-2.52-.54-2.772-2.268l-1.35.306c.306 2.178 1.926 3.15 4.122 3.15" aria-label="heartbeats" style="font-size:18px;font-family:&quot;Space Grotesk&quot;"/><path fill="none" d="M355.095 126.045c38.58 43.44 91.103 102.576 129.728 146.061" style="stroke:#000;stroke-width:3"/><path d="m490.8 278.835-4.48-14.078-.5 8.47-8.471-.5z" style="stroke:#000;stroke-width:3"/><path d="M484.218 197.964c2.736 0 4.518-1.458 4.518-3.69 0-2.214-1.71-3.042-3.888-3.546l-.936-.234c-1.674-.414-2.664-.864-2.664-2.214s1.08-2.106 2.754-2.106c1.728 0 2.988.756 2.988 2.574v.756h1.494v-.756c0-2.574-1.944-3.888-4.482-3.888s-4.248 1.314-4.248 3.438 1.512 2.988 3.744 3.528l.936.234c1.692.396 2.808.864 2.808 2.25 0 1.35-1.062 2.34-3.024 2.34-1.926 0-3.276-.99-3.276-3.096v-.378h-1.494v.378c0 2.952 2.016 4.41 4.77 4.41m10.926 0c2.358 0 3.402-1.314 3.942-2.43l-1.224-.594c-.432.972-1.17 1.764-2.682 1.764-1.746 0-3.006-1.134-3.06-3.024h7.164v-.648c0-2.682-1.728-4.374-4.23-4.374-2.574 0-4.374 1.836-4.374 4.554v.216c0 2.718 1.782 4.536 4.464 4.536m-3.006-5.454c.216-1.638 1.314-2.592 2.916-2.592 1.584 0 2.682.954 2.79 2.592zm9.63 5.202h1.422v-4.428c0-2.178 1.188-3.294 2.88-3.294 1.476 0 2.43.756 2.43 2.502v5.22h1.422v-5.328c0-2.358-1.548-3.636-3.492-3.636-1.8 0-2.646.81-3.024 1.656h-.252v-1.494h-1.386zm14.76.252c1.837 0 2.755-.828 3.24-1.71h.253v1.458h1.386v-12.6h-1.422v5.184h-.252c-.45-.81-1.368-1.638-3.204-1.638-2.304 0-4.158 1.728-4.158 4.536v.234c0 2.826 1.872 4.536 4.158 4.536m.379-1.26c-1.818 0-3.096-1.224-3.096-3.312v-.162c0-2.088 1.278-3.312 3.096-3.312s3.078 1.224 3.078 3.312v.162c0 2.088-1.278 3.312-3.078 3.312m11.034 1.26c2.16 0 3.546-.972 3.546-2.7 0-1.71-1.458-2.286-3.312-2.61l-.738-.126c-1.116-.198-1.818-.522-1.818-1.368s.738-1.314 1.944-1.314c1.188 0 2.07.468 2.286 1.728l1.332-.342c-.36-1.638-1.638-2.574-3.618-2.574-2.016 0-3.348.936-3.348 2.52s1.35 2.286 3.078 2.592l.738.126c1.278.234 2.052.522 2.052 1.422s-.828 1.458-2.142 1.458c-1.332 0-2.52-.54-2.772-2.268l-1.35.306c.306 2.178 1.926 3.15 4.122 3.15" aria-label="Sends" style="font-size:18px;font-family:&quot;Space Grotesk&quot;"/><path d="M458.244 220.68h1.422v-4.428c0-2.178 1.188-3.294 2.88-3.294 1.476 0 2.43.756 2.43 2.502v5.22h1.422v-5.328c0-2.358-1.548-3.636-3.492-3.636-1.782 0-2.61.792-2.988 1.566h-.252v-5.202h-1.422zm15.13.252c2.358 0 3.402-1.314 3.942-2.43l-1.224-.594c-.432.972-1.17 1.764-2.682 1.764-1.746 0-3.006-1.134-3.06-3.024h7.164V216c0-2.682-1.728-4.374-4.23-4.374-2.574 0-4.374 1.836-4.374 4.554v.216c0 2.718 1.782 4.536 4.464 4.536m-3.006-5.454c.216-1.638 1.314-2.592 2.916-2.592 1.584 0 2.682.954 2.79 2.592zm12.394 5.454c1.818 0 2.556-.864 2.934-1.566h.216v.09c0 .756.522 1.224 1.314 1.224h1.242v-1.206h-.81c-.324 0-.504-.18-.504-.54v-3.978c0-2.106-1.332-3.33-3.564-3.33-2.214 0-3.402 1.206-3.816 2.682l1.332.432c.27-1.134 1.044-1.89 2.466-1.89 1.458 0 2.178.774 2.178 2.016v.648h-2.97c-1.89 0-3.312.882-3.312 2.664 0 1.764 1.422 2.754 3.294 2.754m.162-1.224c-1.224 0-2.034-.576-2.034-1.566s.81-1.476 1.944-1.476h2.916v.198c0 1.8-1.134 2.844-2.826 2.844m7.552.972h1.422v-5.364c0-1.476.846-2.178 2.124-2.178h1.134v-1.296h-1.044c-1.062 0-1.692.342-1.998 1.116h-.252v-1.08h-1.386zm10.09 0h2.34v-1.242h-1.962c-.378 0-.522-.18-.522-.54v-5.778h2.88v-1.242h-2.88v-3.132H499v3.132h-2.646v1.242H499v6.012c0 .954.558 1.548 1.566 1.548m9.982.252c2.286 0 4.158-1.71 4.158-4.536v-.234c0-2.808-1.854-4.536-4.158-4.536-1.836 0-2.772.828-3.204 1.638h-.252v-5.184h-1.422v12.6h1.386v-1.458h.252c.468.882 1.404 1.71 3.24 1.71m-.378-1.26c-1.818 0-3.096-1.224-3.096-3.312v-.162c0-2.088 1.278-3.312 3.096-3.312s3.078 1.224 3.078 3.312v.162c0 2.088-1.278 3.312-3.078 3.312m11.188 1.26c2.358 0 3.402-1.314 3.942-2.43l-1.224-.594c-.432.972-1.17 1.764-2.682 1.764-1.746 0-3.006-1.134-3.06-3.024h7.164V216c0-2.682-1.728-4.374-4.23-4.374-2.574 0-4.374 1.836-4.374 4.554v.216c0 2.718 1.782 4.536 4.464 4.536m-3.006-5.454c.216-1.638 1.314-2.592 2.916-2.592 1.584 0 2.682.954 2.79 2.592zm12.395 5.454c1.818 0 2.556-.864 2.934-1.566h.216v.09c0 .756.522 1.224 1.314 1.224h1.242v-1.206h-.81c-.324 0-.504-.18-.504-.54v-3.978c0-2.106-1.332-3.33-3.564-3.33-2.214 0-3.402 1.206-3.816 2.682l1.332.432c.27-1.134 1.044-1.89 2.466-1.89 1.458 0 2.178.774 2.178 2.016v.648h-2.97c-1.89 0-3.312.882-3.312 2.664 0 1.764 1.422 2.754 3.294 2.754m.162-1.224c-1.224 0-2.034-.576-2.034-1.566s.81-1.476 1.944-1.476h2.916v.198c0 1.8-1.134 2.844-2.826 2.844m10.216.972h2.34v-1.242h-1.962c-.378 0-.522-.18-.522-.54v-5.778h2.88v-1.242h-2.88v-3.132h-1.422v3.132h-2.646v1.242h2.646v6.012c0 .954.558 1.548 1.566 1.548m8.65.252c2.16 0 3.546-.972 3.546-2.7 0-1.71-1.458-2.286-3.312-2.61l-.738-.126c-1.116-.198-1.818-.522-1.818-1.368s.738-1.314 1.944-1.314c1.188 0 2.07.468 2.286 1.728l1.332-.342c-.36-1.638-1.638-2.574-3.618-2.574-2.016 0-3.348.936-3.348 2.52s1.35 2.286 3.078 2.592l.738.126c1.278.234 2.052.522 2.052 1.422s-.828 1.458-2.142 1.458c-1.332 0-2.52-.54-2.772-2.268l-1.35.306c.306 2.178 1.926 3.15 4.122 3.15" aria-label="heartbeats" style="font-size:18px;font-family:&quot;Space Grotesk&quot;"/><path fill="none" d="M180.435 324.75H452.73" style="stroke:#000;stroke-width:3;stroke-dasharray:7,7"/><path d="m171.435 324.75 13.5 6-6-6 6-6zM461.73 324.75l-13.5-6 6 6-6 6z" style="stroke:#000;stroke-width:3"/><path d="M211.884 306.714c2.736 0 4.518-1.458 4.518-3.69 0-2.214-1.71-3.042-3.888-3.546l-.936-.234c-1.674-.414-2.664-.864-2.664-2.214s1.08-2.106 2.754-2.106c1.728 0 2.988.756 2.988 2.574v.756h1.494v-.756c0-2.574-1.944-3.888-4.482-3.888s-4.248 1.314-4.248 3.438 1.512 2.988 3.744 3.528l.936.234c1.692.396 2.808.864 2.808 2.25 0 1.35-1.062 2.34-3.024 2.34-1.926 0-3.276-.99-3.276-3.096v-.378h-1.494v.378c0 2.952 2.016 4.41 4.77 4.41m10.151-.252h2.34v-1.242h-1.962c-.378 0-.522-.18-.522-.54v-5.778h2.88v-1.242h-2.88v-3.132h-1.422v3.132h-2.646v1.242h2.646v6.012c0 .954.558 1.548 1.566 1.548m7.704.252c1.818 0 2.556-.864 2.934-1.566h.216v.09c0 .756.522 1.224 1.314 1.224h1.242v-1.206h-.81c-.324 0-.504-.18-.504-.54v-3.978c0-2.106-1.332-3.33-3.564-3.33-2.214 0-3.402 1.206-3.816 2.682l1.332.432c.27-1.134 1.044-1.89 2.466-1.89 1.458 0 2.178.774 2.178 2.016v.648h-2.97c-1.89 0-3.312.882-3.312 2.664 0 1.764 1.422 2.754 3.294 2.754m.162-1.224c-1.224 0-2.034-.576-2.034-1.566s.81-1.476 1.944-1.476h2.916v.198c0 1.8-1.134 2.844-2.826 2.844m7.505.972h1.422v-5.364c0-1.476.846-2.178 2.124-2.178h1.134v-1.296h-1.044c-1.062 0-1.692.342-1.998 1.116h-.252v-1.08h-1.386zm10.043 0h2.34v-1.242h-1.962c-.378 0-.522-.18-.522-.54v-5.778h2.88v-1.242h-2.88v-3.132h-1.422v3.132h-2.646v1.242h2.646v6.012c0 .954.558 1.548 1.566 1.548m13.733.252c2.358 0 3.402-1.314 3.942-2.43l-1.224-.594c-.432.972-1.17 1.764-2.682 1.764-1.746 0-3.006-1.134-3.06-3.024h7.164v-.648c0-2.682-1.728-4.374-4.23-4.374-2.574 0-4.374 1.836-4.374 4.554v.216c0 2.718 1.782 4.536 4.464 4.536m-3.006-5.454c.216-1.638 1.314-2.592 2.916-2.592 1.584 0 2.682.954 2.79 2.592zm9.647 5.202h1.422v-12.6h-1.422zm8.46.252c2.358 0 3.402-1.314 3.942-2.43L279 303.69c-.432.972-1.17 1.764-2.682 1.764-1.746 0-3.006-1.134-3.06-3.024h7.164v-.648c0-2.682-1.728-4.374-4.23-4.374-2.574 0-4.374 1.836-4.374 4.554v.216c0 2.718 1.782 4.536 4.464 4.536m-3.006-5.454c.216-1.638 1.314-2.592 2.916-2.592 1.584 0 2.682.954 2.79 2.592zm13.697 5.454c2.538 0 3.906-1.584 4.284-3.348l-1.404-.306c-.216 1.35-1.116 2.376-2.862 2.376s-3.078-1.242-3.078-3.294v-.162c0-2.052 1.332-3.294 3.078-3.294s2.628 1.08 2.808 2.376l1.386-.288c-.288-1.782-1.674-3.366-4.212-3.366-2.574 0-4.482 1.728-4.482 4.554v.198c0 2.826 1.908 4.554 4.482 4.554m9.611-.252h2.34v-1.242h-1.962c-.378 0-.522-.18-.522-.54v-5.778h2.88v-1.242h-2.88v-3.132h-1.422v3.132h-2.646v1.242h2.646v6.012c0 .954.558 1.548 1.566 1.548m5.76-10.17c.63 0 1.097-.45 1.097-1.08 0-.648-.468-1.098-1.098-1.098-.612 0-1.08.45-1.08 1.098 0 .63.468 1.08 1.08 1.08m-.703 10.17h1.422v-8.802h-1.422zm8.496.252c2.664 0 4.5-1.782 4.5-4.536v-.234c0-2.754-1.836-4.536-4.5-4.536s-4.5 1.782-4.5 4.536v.234c0 2.754 1.836 4.536 4.5 4.536m0-1.278c-1.854 0-3.078-1.278-3.078-3.294v-.162c0-2.016 1.206-3.294 3.078-3.294 1.854 0 3.078 1.278 3.078 3.294v.162c0 2.016-1.224 3.294-3.078 3.294m7.073 1.026h1.422v-4.428c0-2.178 1.188-3.294 2.88-3.294 1.476 0 2.43.756 2.43 2.502v5.22h1.422v-5.328c0-2.358-1.548-3.636-3.492-3.636-1.8 0-2.646.81-3.024 1.656h-.252v-1.494h-1.386zm19.763.252c2.664 0 4.5-1.782 4.5-4.536v-.234c0-2.754-1.836-4.536-4.5-4.536s-4.5 1.782-4.5 4.536v.234c0 2.754 1.836 4.536 4.5 4.536m0-1.278c-1.854 0-3.078-1.278-3.078-3.294v-.162c0-2.016 1.206-3.294 3.078-3.294 1.854 0 3.078 1.278 3.078 3.294v.162c0 2.016-1.224 3.294-3.078 3.294m7.073 1.026h1.422v-4.428c0-2.178 1.188-3.294 2.88-3.294 1.476 0 2.43.756 2.43 2.502v5.22h1.422v-5.328c0-2.358-1.548-3.636-3.492-3.636-1.8 0-2.646.81-3.024 1.656h-.252v-1.494h-1.386zm18.935 0h2.34v-1.242h-1.962c-.378 0-.522-.18-.522-.54v-5.778h2.88v-1.242h-2.88v-3.132h-1.422v3.132h-2.646v1.242h2.646v6.012c0 .954.558 1.548 1.566 1.548m5.759-10.17c.63 0 1.098-.45 1.098-1.08 0-.648-.468-1.098-1.098-1.098-.612 0-1.08.45-1.08 1.098 0 .63.468 1.08 1.08 1.08m-.702 10.17h1.422v-8.802h-1.422zm4.427 0h1.422v-5.292c0-1.584.918-2.448 2.214-2.448 1.224 0 1.944.738 1.944 1.908v5.832h1.422v-5.292c0-1.584.918-2.448 2.214-2.448 1.224 0 1.944.738 1.944 1.908v5.832h1.422v-5.958c0-1.872-1.242-3.006-2.988-3.006-1.494 0-2.268.684-2.664 1.548h-.252c-.396-.864-1.224-1.548-2.592-1.548-1.386 0-2.106.63-2.448 1.26h-.252v-1.098h-1.386zm19.53.252c2.358 0 3.402-1.314 3.942-2.43l-1.224-.594c-.432.972-1.17 1.764-2.682 1.764-1.746 0-3.006-1.134-3.06-3.024h7.164v-.648c0-2.682-1.728-4.374-4.23-4.374-2.574 0-4.374 1.836-4.374 4.554v.216c0 2.718 1.782 4.536 4.464 4.536m-3.006-5.454c.216-1.638 1.314-2.592 2.916-2.592 1.584 0 2.682.954 2.79 2.592zm13.715 5.454c2.664 0 4.5-1.782 4.5-4.536v-.234c0-2.754-1.836-4.536-4.5-4.536s-4.5 1.782-4.5 4.536v.234c0 2.754 1.836 4.536 4.5 4.536m0-1.278c-1.854 0-3.078-1.278-3.078-3.294v-.162c0-2.016 1.206-3.294 3.078-3.294 1.854 0 3.078 1.278 3.078 3.294v.162c0 2.016-1.224 3.294-3.078 3.294m10.44 1.188c1.8 0 2.645-.81 3.041-1.656h.252v1.494h1.386v-8.802h-1.422v4.428c0 2.178-1.206 3.294-2.88 3.294-1.494 0-2.43-.756-2.43-2.502v-5.22h-1.422v5.328c0 2.358 1.53 3.636 3.474 3.636m10.907-.162h2.34v-1.242h-1.962c-.378 0-.522-.18-.522-.54v-5.778h2.88v-1.242h-2.88v-3.132h-1.422v3.132h-2.646v1.242h2.646v6.012c0 .954.558 1.548 1.566 1.548" aria-label="Start election on timeout" style="font-size:18px;font-family:&quot;Space Grotesk&quot;"/></svg>