<svg xmlns="http://www.w3.org/2000/svg" width="913.5" height="255" preserveAspectRatio="none" style="width:913px;height:255px" viewBox="0 0 913 255"><path fill="#FFAE03" d="M357 42h178.5v144H357z" style="stroke:#000;stroke-width:3"/><path d="M377.57 70.212h2.305V59.358h.324l2.16 10.854h3.924l2.16-10.854h.324v10.854h2.304v-12.6h-4.41l-2.178 10.98h-.324l-2.178-10.98h-4.41zm20.102.252c2.448 0 3.51-1.386 4.014-2.34l-1.854-.972c-.306.684-.828 1.332-2.088 1.332s-2.214-.846-2.268-2.07h6.498v-.774c0-2.736-1.71-4.608-4.338-4.608-2.664 0-4.464 1.8-4.464 4.608v.216c0 2.808 1.818 4.608 4.5 4.608m-2.178-5.742c.162-1.026.9-1.71 2.124-1.71 1.17 0 1.944.684 2.052 1.71zm12.29 5.742c2.268 0 3.744-1.062 3.744-2.934s-1.584-2.448-3.6-2.808l-.504-.09c-.828-.144-1.332-.378-1.332-.954 0-.522.468-.846 1.332-.846s1.476.342 1.674 1.26l2.106-.648c-.414-1.44-1.782-2.412-3.78-2.412-2.124 0-3.528.99-3.528 2.754s1.548 2.466 3.42 2.808l.504.09c1.062.198 1.512.45 1.512 1.008s-.504.972-1.548.972-1.89-.396-2.124-1.656l-2.088.54c.306 1.872 1.872 2.916 4.212 2.916m9.518 0c2.268 0 3.744-1.062 3.744-2.934s-1.584-2.448-3.6-2.808l-.504-.09c-.828-.144-1.332-.378-1.332-.954 0-.522.468-.846 1.332-.846s1.476.342 1.674 1.26l2.106-.648c-.414-1.44-1.782-2.412-3.78-2.412-2.124 0-3.528.99-3.528 2.754s1.548 2.466 3.42 2.808l.504.09c1.062.198 1.512.45 1.512 1.008s-.504.972-1.548.972-1.89-.396-2.124-1.656l-2.088.54c.306 1.872 1.872 2.916 4.212 2.916m8.51 0c1.872 0 2.43-1.008 2.592-1.458h.342v.018c0 .72.648 1.188 1.53 1.188h1.512V68.34h-.72c-.324 0-.504-.18-.504-.54v-3.33c0-2.232-1.476-3.438-3.816-3.438-2.322 0-3.492 1.17-3.924 2.52l2.088.702c.162-.81.666-1.386 1.8-1.386 1.152 0 1.656.612 1.656 1.44v.504h-2.448c-2.016 0-3.456.954-3.456 2.79s1.44 2.862 3.348 2.862m.396-1.836c-.972 0-1.476-.45-1.476-1.098s.504-1.026 1.35-1.026h2.286v.18c0 1.188-.9 1.944-2.16 1.944m6.71-2.844c0 2.808 1.872 4.464 4.068 4.464 1.638 0 2.376-.684 2.736-1.278h.324v2.322c0 .36-.18.54-.504.54h-5.184v1.98h5.976c1.188 0 1.98-.792 1.98-2.016V61.284h-2.232v1.08h-.324c-.396-.612-1.152-1.332-2.772-1.332-2.214 0-4.068 1.656-4.068 4.464zm4.716 2.484c-1.386 0-2.448-.918-2.448-2.538v-.18c0-1.62 1.044-2.538 2.448-2.538s2.448.918 2.448 2.538v.18c0 1.62-1.062 2.538-2.448 2.538m11.354 2.196c2.448 0 3.51-1.386 4.014-2.34l-1.854-.972c-.306.684-.828 1.332-2.088 1.332s-2.214-.846-2.268-2.07h6.498v-.774c0-2.736-1.71-4.608-4.338-4.608-2.664 0-4.464 1.8-4.464 4.608v.216c0 2.808 1.818 4.608 4.5 4.608m-2.178-5.742c.162-1.026.9-1.71 2.124-1.71 1.17 0 1.944.684 2.052 1.71zm12.808 5.49h6.552c2.25 0 3.816-1.224 3.816-3.33v-.18c0-1.8-1.206-2.502-1.998-2.718v-.324c.774-.234 1.926-.936 1.926-2.682v-.18c0-1.962-1.512-3.186-3.816-3.186h-6.48V59.7h1.656v8.424h-1.656zm4.032-7.416v-3.024h2.196c1.008 0 1.692.522 1.692 1.422v.18c0 .9-.702 1.422-1.692 1.422zm0 5.256v-3.096h2.232c1.044 0 1.728.522 1.728 1.458v.18c0 .936-.702 1.458-1.728 1.458zm8.438 2.16h2.268v-5.076c0-1.26.828-1.872 1.98-1.872h1.116v-2.016h-1.08c-.828 0-1.476.324-1.728 1.044h-.324v-1.008h-2.232zm11.138.252c2.664 0 4.68-1.692 4.68-4.572v-.288c0-2.88-2.016-4.572-4.68-4.572s-4.68 1.692-4.68 4.572v.288c0 2.88 2.016 4.572 4.68 4.572m0-2.016c-1.386 0-2.412-.936-2.412-2.61v-.18c0-1.674 1.008-2.61 2.412-2.61s2.412.936 2.412 2.61v.18c0 1.674-1.026 2.61-2.412 2.61m6.854 1.764h2.268v-3.546h.324l3.132 3.546h2.916l-4.266-4.608 4.122-4.32h-2.952l-2.952 3.294h-.324v-6.966h-2.268zm13.765.252c2.448 0 3.51-1.386 4.014-2.34l-1.854-.972c-.306.684-.828 1.332-2.088 1.332s-2.214-.846-2.268-2.07h6.498v-.774c0-2.736-1.71-4.608-4.338-4.608-2.664 0-4.464 1.8-4.464 4.608v.216c0 2.808 1.818 4.608 4.5 4.608m-2.178-5.742c.162-1.026.9-1.71 2.124-1.71 1.17 0 1.944.684 2.052 1.71zm8.582 5.49h2.268v-5.076c0-1.26.828-1.872 1.98-1.872h1.116v-2.016h-1.08c-.828 0-1.476.324-1.728 1.044h-.324v-1.008h-2.232z" aria-label="Message Broker" style="font-weight:700;font-size:18px;font-family:&quot;Space Grotesk&quot;"/><path fill="#FFF" d="M406.5 108.75h78.42c7.5 0 7.5 26.484 7.5 26.484s0 26.484-7.5 26.484H406.5c-7.5 0-7.5-26.484-7.5-26.484s0-26.484 7.5-26.484" style="stroke:#000;stroke-width:3"/><path fill="none" d="M484.92 108.75c-7.5 0-7.5 26.484-7.5 26.484 0 26.484 7.5 26.484 7.5 26.484" style="stroke:#000;stroke-width:3"/><path d="M418.104 141.462h2.376v-10.44h3.672v-2.16h-9.72v2.16h3.672zm10.72.252c2.663 0 4.68-1.692 4.68-4.572v-.288c0-2.88-2.017-4.572-4.68-4.572-2.665 0-4.68 1.692-4.68 4.572v.288c0 2.88 2.015 4.572 4.68 4.572m0-2.016c-1.387 0-2.413-.936-2.413-2.61v-.18c0-1.674 1.008-2.61 2.412-2.61s2.412.936 2.412 2.61v.18c0 1.674-1.026 2.61-2.412 2.61m7.19 5.364h2.268v-4.626h.324c.378.63 1.152 1.278 2.772 1.278 2.16 0 4.032-1.656 4.032-4.572v-.288c0-2.916-1.89-4.572-4.032-4.572-1.62 0-2.394.648-2.808 1.332h-.324v-1.08h-2.232zm4.68-5.328c-1.404 0-2.448-.918-2.448-2.646v-.18c0-1.728 1.062-2.646 2.448-2.646s2.448.918 2.448 2.646v.18c0 1.728-1.044 2.646-2.448 2.646m8.361-8.244c.828 0 1.458-.576 1.458-1.44s-.63-1.44-1.458-1.44-1.458.576-1.458 1.44.63 1.44 1.458 1.44m-1.134 9.972h2.268v-8.928h-2.268zm9.405.252c2.556 0 4.014-1.494 4.482-3.42l-2.196-.522c-.198 1.152-.864 1.926-2.232 1.926s-2.412-.918-2.412-2.61v-.18c0-1.692 1.044-2.61 2.412-2.61s2.034.828 2.178 1.908l2.196-.468c-.378-1.98-1.872-3.456-4.428-3.456-2.592 0-4.626 1.674-4.626 4.59v.252c0 2.916 2.034 4.59 4.626 4.59" aria-label="Topic" style="font-weight:700;font-size:18px;font-family:&quot;Space Grotesk&quot;"/><rect width="125.209" height="67.968" x="34.5" y="101.25" fill="#DEDEDE" rx="18.75" ry="18.75" style="stroke:#000;stroke-width:3"/><path d="M58.44 141.462h1.512v-5.076h3.312c2.214 0 3.96-1.35 3.96-3.636v-.234c0-2.304-1.71-3.654-3.96-3.654H58.44Zm1.512-6.444v-4.788h3.15c1.638 0 2.61.846 2.61 2.304v.18c0 1.476-1.008 2.304-2.61 2.304zm12.726 6.606c1.8 0 2.646-.81 3.042-1.656h.252v1.494h1.386v-8.802h-1.422v4.428c0 2.178-1.206 3.294-2.88 3.294-1.494 0-2.43-.756-2.43-2.502v-5.22h-1.422v5.328c0 2.358 1.53 3.636 3.474 3.636m12.528.09c2.286 0 4.158-1.71 4.158-4.536v-.234c0-2.808-1.854-4.536-4.158-4.536-1.836 0-2.772.828-3.204 1.638h-.252v-5.184h-1.422v12.6h1.386v-1.458h.252c.468.882 1.404 1.71 3.24 1.71m-.378-1.26c-1.818 0-3.096-1.224-3.096-3.312v-.162c0-2.088 1.278-3.312 3.096-3.312s3.078 1.224 3.078 3.312v.162c0 2.088-1.278 3.312-3.078 3.312m7.092 1.008h1.422v-12.6H91.92zm5.112-10.17c.63 0 1.098-.45 1.098-1.08 0-.648-.468-1.098-1.098-1.098-.612 0-1.08.45-1.08 1.098 0 .63.468 1.08 1.08 1.08m-.702 10.17h1.422v-8.802H96.33zm7.956.252c2.16 0 3.546-.972 3.546-2.7 0-1.71-1.458-2.286-3.312-2.61l-.738-.126c-1.116-.198-1.818-.522-1.818-1.368s.738-1.314 1.944-1.314c1.188 0 2.07.468 2.286 1.728l1.332-.342c-.36-1.638-1.638-2.574-3.618-2.574-2.016 0-3.348.936-3.348 2.52s1.35 2.286 3.078 2.592l.738.126c1.278.234 2.052.522 2.052 1.422s-.828 1.458-2.142 1.458c-1.332 0-2.52-.54-2.772-2.268l-1.35.306c.306 2.178 1.926 3.15 4.122 3.15m5.94-.252h1.422v-4.428c0-2.178 1.188-3.294 2.88-3.294 1.476 0 2.43.756 2.43 2.502v5.22h1.422v-5.328c0-2.358-1.548-3.636-3.492-3.636-1.782 0-2.61.792-2.988 1.566h-.252v-5.202h-1.422zm15.067.252c2.358 0 3.402-1.314 3.942-2.43l-1.224-.594c-.432.972-1.17 1.764-2.682 1.764-1.746 0-3.006-1.134-3.06-3.024h7.164v-.648c0-2.682-1.728-4.374-4.23-4.374-2.574 0-4.374 1.836-4.374 4.554v.216c0 2.718 1.782 4.536 4.464 4.536m-3.006-5.454c.216-1.638 1.314-2.592 2.916-2.592 1.584 0 2.682.954 2.79 2.592zm9.63 5.202h1.422v-5.364c0-1.476.846-2.178 2.124-2.178h1.134v-1.296h-1.044c-1.062 0-1.692.342-1.998 1.116h-.252v-1.08h-1.386z" aria-label="Publisher" style="font-size:18px;font-family:&quot;Space Grotesk&quot;"/><rect width="151.273" height="67.968" x="735" y="39.75" fill="#FFF" rx="18.75" ry="18.75" style="stroke:#000;stroke-width:3"/><path d="M763.134 80.214c2.736 0 4.518-1.458 4.518-3.69 0-2.214-1.71-3.042-3.888-3.546l-.936-.234c-1.674-.414-2.664-.864-2.664-2.214s1.08-2.106 2.754-2.106c1.728 0 2.988.756 2.988 2.574v.756h1.494v-.756c0-2.574-1.944-3.888-4.482-3.888s-4.248 1.314-4.248 3.438 1.512 2.988 3.744 3.528l.936.234c1.692.396 2.808.864 2.808 2.25 0 1.35-1.062 2.34-3.024 2.34-1.926 0-3.276-.99-3.276-3.096v-.378h-1.494v.378c0 2.952 2.016 4.41 4.77 4.41m10.26-.09c1.8 0 2.646-.81 3.042-1.656h.252v1.494h1.386V71.16h-1.422v4.428c0 2.178-1.206 3.294-2.88 3.294-1.494 0-2.43-.756-2.43-2.502v-5.22h-1.422v5.328c0 2.358 1.53 3.636 3.474 3.636m12.528.09c2.286 0 4.158-1.71 4.158-4.536v-.234c0-2.808-1.854-4.536-4.158-4.536-1.836 0-2.772.828-3.204 1.638h-.252v-5.184h-1.422v12.6h1.386v-1.458h.252c.468.882 1.404 1.71 3.24 1.71m-.378-1.26c-1.818 0-3.096-1.224-3.096-3.312v-.162c0-2.088 1.278-3.312 3.096-3.312s3.078 1.224 3.078 3.312v.162c0 2.088-1.278 3.312-3.078 3.312m10.638 1.26c2.16 0 3.546-.972 3.546-2.7 0-1.71-1.458-2.286-3.312-2.61l-.738-.126c-1.116-.198-1.818-.522-1.818-1.368s.738-1.314 1.944-1.314c1.188 0 2.07.468 2.286 1.728l1.332-.342c-.36-1.638-1.638-2.574-3.618-2.574-2.016 0-3.348.936-3.348 2.52s1.35 2.286 3.078 2.592l.738.126c1.278.234 2.052.522 2.052 1.422s-.828 1.458-2.142 1.458c-1.332 0-2.52-.54-2.772-2.268l-1.35.306c.306 2.178 1.926 3.15 4.122 3.15m9.99 0c2.538 0 3.906-1.584 4.284-3.348l-1.404-.306c-.216 1.35-1.116 2.376-2.862 2.376s-3.078-1.242-3.078-3.294v-.162c0-2.052 1.332-3.294 3.078-3.294s2.628 1.08 2.808 2.376l1.386-.288c-.288-1.782-1.674-3.366-4.212-3.366-2.574 0-4.482 1.728-4.482 4.554v.198c0 2.826 1.908 4.554 4.482 4.554m6.714-.252h1.422v-5.364c0-1.476.846-2.178 2.124-2.178h1.134v-1.296h-1.044c-1.062 0-1.692.342-1.998 1.116h-.252v-1.08h-1.386zm7.488-10.17c.63 0 1.098-.45 1.098-1.08 0-.648-.468-1.098-1.098-1.098-.612 0-1.08.45-1.08 1.098 0 .63.468 1.08 1.08 1.08m-.702 10.17h1.422V71.16h-1.422zm9.289.252c2.286 0 4.158-1.71 4.158-4.536v-.234c0-2.808-1.854-4.536-4.158-4.536-1.836 0-2.772.828-3.204 1.638h-.252v-5.184h-1.422v12.6h1.386v-1.458h.252c.468.882 1.404 1.71 3.24 1.71m-.378-1.26c-1.818 0-3.096-1.224-3.096-3.312v-.162c0-2.088 1.278-3.312 3.096-3.312s3.078 1.224 3.078 3.312v.162c0 2.088-1.278 3.312-3.078 3.312m11.124 1.26c2.358 0 3.402-1.314 3.942-2.43l-1.224-.594c-.432.972-1.17 1.764-2.682 1.764-1.746 0-3.006-1.134-3.06-3.024h7.164v-.648c0-2.682-1.728-4.374-4.23-4.374-2.574 0-4.374 1.836-4.374 4.554v.216c0 2.718 1.782 4.536 4.464 4.536M836.7 74.76c.216-1.638 1.314-2.592 2.916-2.592 1.584 0 2.682.954 2.79 2.592zm9.63 5.202h1.422v-5.364c0-1.476.846-2.178 2.124-2.178h1.134v-1.296h-1.044c-1.062 0-1.692.342-1.998 1.116h-.252v-1.08h-1.386zm14.544 0h1.458v-12.6h-2.754l-3.006 5.454h1.584l2.448-4.482h.27z" aria-label="Subscriber 1" style="font-size:18px;font-family:&quot;Space Grotesk&quot;"/><rect width="154.603" height="67.968" x="733.5" y="162.75" fill="#FFF" rx="18.75" ry="18.75" style="stroke:#000;stroke-width:3"/><path d="M761.634 203.214c2.736 0 4.518-1.458 4.518-3.69 0-2.214-1.71-3.042-3.888-3.546l-.936-.234c-1.674-.414-2.664-.864-2.664-2.214s1.08-2.106 2.754-2.106c1.728 0 2.988.756 2.988 2.574v.756h1.494v-.756c0-2.574-1.944-3.888-4.482-3.888s-4.248 1.314-4.248 3.438 1.512 2.988 3.744 3.528l.936.234c1.692.396 2.808.864 2.808 2.25 0 1.35-1.062 2.34-3.024 2.34-1.926 0-3.276-.99-3.276-3.096v-.378h-1.494v.378c0 2.952 2.016 4.41 4.77 4.41m10.26-.09c1.8 0 2.646-.81 3.042-1.656h.252v1.494h1.386v-8.802h-1.422v4.428c0 2.178-1.206 3.294-2.88 3.294-1.494 0-2.43-.756-2.43-2.502v-5.22h-1.422v5.328c0 2.358 1.53 3.636 3.474 3.636m12.528.09c2.286 0 4.158-1.71 4.158-4.536v-.234c0-2.808-1.854-4.536-4.158-4.536-1.836 0-2.772.828-3.204 1.638h-.252v-5.184h-1.422v12.6h1.386v-1.458h.252c.468.882 1.404 1.71 3.24 1.71m-.378-1.26c-1.818 0-3.096-1.224-3.096-3.312v-.162c0-2.088 1.278-3.312 3.096-3.312s3.078 1.224 3.078 3.312v.162c0 2.088-1.278 3.312-3.078 3.312m10.638 1.26c2.16 0 3.546-.972 3.546-2.7 0-1.71-1.458-2.286-3.312-2.61l-.738-.126c-1.116-.198-1.818-.522-1.818-1.368s.738-1.314 1.944-1.314c1.188 0 2.07.468 2.286 1.728l1.332-.342c-.36-1.638-1.638-2.574-3.618-2.574-2.016 0-3.348.936-3.348 2.52s1.35 2.286 3.078 2.592l.738.126c1.278.234 2.052.522 2.052 1.422s-.828 1.458-2.142 1.458c-1.332 0-2.52-.54-2.772-2.268l-1.35.306c.306 2.178 1.926 3.15 4.122 3.15m9.99 0c2.538 0 3.906-1.584 4.284-3.348l-1.404-.306c-.216 1.35-1.116 2.376-2.862 2.376s-3.078-1.242-3.078-3.294v-.162c0-2.052 1.332-3.294 3.078-3.294s2.628 1.08 2.808 2.376l1.386-.288c-.288-1.782-1.674-3.366-4.212-3.366-2.574 0-4.482 1.728-4.482 4.554v.198c0 2.826 1.908 4.554 4.482 4.554m6.714-.252h1.422v-5.364c0-1.476.846-2.178 2.124-2.178h1.134v-1.296h-1.044c-1.062 0-1.692.342-1.998 1.116h-.252v-1.08h-1.386zm7.488-10.17c.63 0 1.098-.45 1.098-1.08 0-.648-.468-1.098-1.098-1.098-.612 0-1.08.45-1.08 1.098 0 .63.468 1.08 1.08 1.08m-.702 10.17h1.422v-8.802h-1.422zm9.288.252c2.286 0 4.158-1.71 4.158-4.536v-.234c0-2.808-1.854-4.536-4.158-4.536-1.836 0-2.772.828-3.204 1.638h-.252v-5.184h-1.422v12.6h1.386v-1.458h.252c.468.882 1.404 1.71 3.24 1.71m-.378-1.26c-1.818 0-3.096-1.224-3.096-3.312v-.162c0-2.088 1.278-3.312 3.096-3.312s3.078 1.224 3.078 3.312v.162c0 2.088-1.278 3.312-3.078 3.312m11.125 1.26c2.358 0 3.402-1.314 3.942-2.43l-1.224-.594c-.432.972-1.17 1.764-2.682 1.764-1.746 0-3.006-1.134-3.06-3.024h7.164v-.648c0-2.682-1.728-4.374-4.23-4.374-2.574 0-4.374 1.836-4.374 4.554v.216c0 2.718 1.782 4.536 4.464 4.536m-3.006-5.454c.216-1.638 1.314-2.592 2.916-2.592 1.584 0 2.682.954 2.79 2.592zm9.63 5.202h1.422v-5.364c0-1.476.846-2.178 2.124-2.178h1.134v-1.296h-1.044c-1.062 0-1.692.342-1.998 1.116h-.252v-1.08h-1.386zm10.872 0h8.91v-1.314h-7.434v-.306c0-1.656.918-2.142 2.736-2.718l.972-.306c2.286-.72 3.834-1.746 3.834-4.194v-.162c0-2.304-1.818-3.852-4.41-3.852s-4.536 1.53-4.536 4.266v.234h1.44v-.252c0-1.962 1.26-2.934 3.096-2.934 1.728 0 2.952.99 2.952 2.574v.072c0 1.674-1.08 2.448-2.718 2.952l-.99.306c-2.376.738-3.852 1.638-3.852 4.32z" aria-label="Subscriber 2" style="font-size:18px;font-family:&quot;Space Grotesk&quot;"/><path fill="none" d="M159.27 135H390" style="stroke:#000;stroke-width:3"/><path d="m399 135-13.5-6 6 6-6 6z" style="stroke:#000;stroke-width:3"/><path d="M214.44 98.712h1.512v-5.076h3.312c2.214 0 3.96-1.35 3.96-3.636v-.234c0-2.304-1.71-3.654-3.96-3.654h-4.824zm1.512-6.444V87.48h3.15c1.638 0 2.61.846 2.61 2.304v.18c0 1.476-1.008 2.304-2.61 2.304zm12.726 6.606c1.8 0 2.646-.81 3.042-1.656h.252v1.494h1.386V89.91h-1.422v4.428c0 2.178-1.206 3.294-2.88 3.294-1.494 0-2.43-.756-2.43-2.502v-5.22h-1.422v5.328c0 2.358 1.53 3.636 3.474 3.636m12.528.09c2.286 0 4.158-1.71 4.158-4.536v-.234c0-2.808-1.854-4.536-4.158-4.536-1.836 0-2.772.828-3.204 1.638h-.252v-5.184h-1.422v12.6h1.386v-1.458h.252c.468.882 1.404 1.71 3.24 1.71m-.378-1.26c-1.818 0-3.096-1.224-3.096-3.312v-.162c0-2.088 1.278-3.312 3.096-3.312s3.078 1.224 3.078 3.312v.162c0 2.088-1.278 3.312-3.078 3.312m7.092 1.008h1.422v-12.6h-1.422zm5.112-10.17c.63 0 1.098-.45 1.098-1.08 0-.648-.468-1.098-1.098-1.098-.612 0-1.08.45-1.08 1.098 0 .63.468 1.08 1.08 1.08m-.702 10.17h1.422V89.91h-1.422zm7.956.252c2.16 0 3.546-.972 3.546-2.7 0-1.71-1.458-2.286-3.312-2.61l-.738-.126c-1.116-.198-1.818-.522-1.818-1.368s.738-1.314 1.944-1.314c1.188 0 2.07.468 2.286 1.728l1.332-.342c-.36-1.638-1.638-2.574-3.618-2.574-2.016 0-3.348.936-3.348 2.52s1.35 2.286 3.078 2.592l.738.126c1.278.234 2.052.522 2.052 1.422s-.828 1.458-2.142 1.458c-1.332 0-2.52-.54-2.772-2.268l-1.35.306c.306 2.178 1.926 3.15 4.122 3.15m5.94-.252h1.422v-4.428c0-2.178 1.188-3.294 2.88-3.294 1.476 0 2.43.756 2.43 2.502v5.22h1.422v-5.328c0-2.358-1.548-3.636-3.492-3.636-1.782 0-2.61.792-2.988 1.566h-.252v-5.202h-1.422zm15.067.252c2.358 0 3.402-1.314 3.942-2.43l-1.224-.594c-.432.972-1.17 1.764-2.682 1.764-1.746 0-3.006-1.134-3.06-3.024h7.164v-.648c0-2.682-1.728-4.374-4.23-4.374-2.574 0-4.374 1.836-4.374 4.554v.216c0 2.718 1.782 4.536 4.464 4.536m-3.006-5.454c.216-1.638 1.314-2.592 2.916-2.592 1.584 0 2.682.954 2.79 2.592zm13.176 5.454c2.16 0 3.546-.972 3.546-2.7 0-1.71-1.458-2.286-3.312-2.61l-.738-.126c-1.116-.198-1.818-.522-1.818-1.368s.738-1.314 1.944-1.314c1.188 0 2.07.468 2.286 1.728l1.332-.342c-.36-1.638-1.638-2.574-3.618-2.574-2.016 0-3.348.936-3.348 2.52s1.35 2.286 3.078 2.592l.738.126c1.278.234 2.052.522 2.052 1.422s-.828 1.458-2.142 1.458c-1.332 0-2.52-.54-2.772-2.268l-1.35.306c.306 2.178 1.926 3.15 4.122 3.15" aria-label="Publishes" style="font-size:18px;font-family:&quot;Space Grotesk&quot;"/><path d="M214.494 121.68h1.422v-5.292c0-1.584.918-2.448 2.214-2.448 1.224 0 1.944.738 1.944 1.908v5.832h1.422v-5.292c0-1.584.918-2.448 2.214-2.448 1.224 0 1.944.738 1.944 1.908v5.832h1.422v-5.958c0-1.872-1.242-3.006-2.988-3.006-1.494 0-2.268.684-2.664 1.548h-.252c-.396-.864-1.224-1.548-2.592-1.548-1.386 0-2.106.63-2.448 1.26h-.252v-1.098h-1.386zm19.577.252c2.358 0 3.402-1.314 3.942-2.43l-1.224-.594c-.432.972-1.17 1.764-2.682 1.764-1.746 0-3.006-1.134-3.06-3.024h7.164V117c0-2.682-1.728-4.374-4.23-4.374-2.574 0-4.374 1.836-4.374 4.554v.216c0 2.718 1.782 4.536 4.464 4.536m-3.006-5.454c.216-1.638 1.314-2.592 2.916-2.592 1.584 0 2.682.954 2.79 2.592zm13.24 5.454c2.16 0 3.547-.972 3.547-2.7 0-1.71-1.458-2.286-3.312-2.61l-.738-.126c-1.116-.198-1.818-.522-1.818-1.368s.738-1.314 1.944-1.314c1.188 0 2.07.468 2.286 1.728l1.332-.342c-.36-1.638-1.638-2.574-3.618-2.574-2.016 0-3.348.936-3.348 2.52s1.35 2.286 3.078 2.592l.738.126c1.278.234 2.052.522 2.052 1.422s-.828 1.458-2.142 1.458c-1.332 0-2.52-.54-2.772-2.268l-1.35.306c.306 2.178 1.926 3.15 4.122 3.15m9.552 0c2.16 0 3.546-.972 3.546-2.7 0-1.71-1.458-2.286-3.312-2.61l-.738-.126c-1.116-.198-1.818-.522-1.818-1.368s.738-1.314 1.944-1.314c1.188 0 2.07.468 2.286 1.728l1.332-.342c-.36-1.638-1.638-2.574-3.618-2.574-2.016 0-3.348.936-3.348 2.52s1.35 2.286 3.078 2.592l.738.126c1.278.234 2.052.522 2.052 1.422s-.828 1.458-2.142 1.458c-1.332 0-2.52-.54-2.772-2.268l-1.35.306c.306 2.178 1.926 3.15 4.122 3.15m8.633 0c1.818 0 2.556-.864 2.934-1.566h.216v.09c0 .756.522 1.224 1.314 1.224h1.242v-1.206h-.81c-.324 0-.504-.18-.504-.54v-3.978c0-2.106-1.332-3.33-3.564-3.33-2.214 0-3.402 1.206-3.816 2.682l1.332.432c.27-1.134 1.044-1.89 2.466-1.89 1.458 0 2.178.774 2.178 2.016v.648h-2.97c-1.89 0-3.312.882-3.312 2.664 0 1.764 1.422 2.754 3.294 2.754m.162-1.224c-1.224 0-2.034-.576-2.034-1.566s.81-1.476 1.944-1.476h2.916v.198c0 1.8-1.134 2.844-2.826 2.844m6.868-3.384c0 2.754 1.854 4.446 4.158 4.446 1.854 0 2.772-.846 3.204-1.638h.252v3.348q0 .54-.54.54h-5.598v1.26h5.976c1.008 0 1.548-.594 1.548-1.548v-10.854h-1.35v1.458h-.252c-.468-.864-1.386-1.71-3.24-1.71-2.304 0-4.158 1.692-4.158 4.446zm4.536 3.186c-1.818 0-3.096-1.206-3.096-3.24v-.144c0-2.034 1.278-3.24 3.096-3.24s3.078 1.206 3.078 3.24v.144c0 2.034-1.278 3.24-3.078 3.24m11.55 1.422c2.357 0 3.401-1.314 3.941-2.43l-1.224-.594c-.432.972-1.17 1.764-2.682 1.764-1.746 0-3.006-1.134-3.06-3.024h7.164V117c0-2.682-1.728-4.374-4.23-4.374-2.574 0-4.374 1.836-4.374 4.554v.216c0 2.718 1.782 4.536 4.464 4.536m-3.007-5.454c.216-1.638 1.314-2.592 2.916-2.592 1.584 0 2.682.954 2.79 2.592zm13.241 5.454c2.16 0 3.546-.972 3.546-2.7 0-1.71-1.458-2.286-3.312-2.61l-.738-.126c-1.116-.198-1.818-.522-1.818-1.368s.738-1.314 1.944-1.314c1.188 0 2.07.468 2.286 1.728l1.332-.342c-.36-1.638-1.638-2.574-3.618-2.574-2.016 0-3.348.936-3.348 2.52s1.35 2.286 3.078 2.592l.738.126c1.278.234 2.052.522 2.052 1.422s-.828 1.458-2.142 1.458c-1.332 0-2.52-.54-2.772-2.268l-1.35.306c.306 2.178 1.926 3.15 4.122 3.15m13.936-.252h2.34v-1.242h-1.962c-.378 0-.522-.18-.522-.54v-5.778h2.88v-1.242h-2.88v-3.132h-1.422v3.132h-2.646v1.242h2.646v6.012c0 .954.558 1.548 1.566 1.548m8.849.252c2.664 0 4.5-1.782 4.5-4.536v-.234c0-2.754-1.836-4.536-4.5-4.536s-4.5 1.782-4.5 4.536v.234c0 2.754 1.836 4.536 4.5 4.536m0-1.278c-1.854 0-3.078-1.278-3.078-3.294v-.162c0-2.016 1.206-3.294 3.078-3.294 1.854 0 3.078 1.278 3.078 3.294v.162c0 2.016-1.224 3.294-3.078 3.294" aria-label="messages to" style="font-size:18px;font-family:&quot;Space Grotesk&quot;"/><path fill="none" d="M492.15 127.335c60.69-10.305 160.507-27.249 233.497-39.639" style="stroke:#000;stroke-width:3"/><path d="m734.52 86.19-14.314-3.656 6.92 4.911-4.911 6.92z" style="stroke:#000;stroke-width:3"/><path d="M569.94 59.712h1.512v-5.634h5.616V52.71h-5.616v-4.23h6.102v-1.368h-7.614zm13.819.252c2.664 0 4.5-1.782 4.5-4.536v-.234c0-2.754-1.836-4.536-4.5-4.536s-4.5 1.782-4.5 4.536v.234c0 2.754 1.836 4.536 4.5 4.536m0-1.278c-1.854 0-3.078-1.278-3.078-3.294v-.162c0-2.016 1.206-3.294 3.078-3.294 1.854 0 3.078 1.278 3.078 3.294v.162c0 2.016-1.224 3.294-3.078 3.294m7.14 1.026h1.423v-5.364c0-1.476.846-2.178 2.124-2.178h1.134v-1.296h-1.044c-1.062 0-1.692.342-1.998 1.116h-.252v-1.08H590.9zm8.096 0h2.43l1.944-7.848h.234l1.944 7.848h2.43l1.764-8.802h-1.44l-1.458 7.848h-.252l-1.926-7.848h-2.358l-1.926 7.848h-.252l-1.458-7.848h-1.44zm15.817.252c1.818 0 2.556-.864 2.934-1.566h.216v.09c0 .756.522 1.224 1.314 1.224h1.242v-1.206h-.81c-.324 0-.504-.18-.504-.54v-3.978c0-2.106-1.332-3.33-3.564-3.33-2.214 0-3.402 1.206-3.816 2.682l1.332.432c.27-1.134 1.044-1.89 2.466-1.89 1.458 0 2.178.774 2.178 2.016v.648h-2.97c-1.89 0-3.312.882-3.312 2.664 0 1.764 1.422 2.754 3.294 2.754m.162-1.224c-1.224 0-2.034-.576-2.034-1.566s.81-1.476 1.944-1.476h2.916v.198c0 1.8-1.134 2.844-2.826 2.844m7.573.972h1.422v-5.364c0-1.476.846-2.178 2.124-2.178h1.134v-1.296h-1.044c-1.062 0-1.692.342-1.998 1.116h-.252v-1.08h-1.386zm10.273.252c1.836 0 2.754-.828 3.24-1.71h.252v1.458h1.386v-12.6h-1.422v5.184h-.252c-.45-.81-1.368-1.638-3.204-1.638-2.304 0-4.158 1.728-4.158 4.536v.234c0 2.826 1.872 4.536 4.158 4.536m.378-1.26c-1.818 0-3.096-1.224-3.096-3.312v-.162c0-2.088 1.278-3.312 3.096-3.312s3.078 1.224 3.078 3.312v.162c0 2.088-1.278 3.312-3.078 3.312m11.119 1.26c2.16 0 3.546-.972 3.546-2.7 0-1.71-1.458-2.286-3.312-2.61l-.738-.126c-1.116-.198-1.818-.522-1.818-1.368s.738-1.314 1.944-1.314c1.188 0 2.07.468 2.286 1.728l1.332-.342c-.36-1.638-1.638-2.574-3.618-2.574-2.016 0-3.348.936-3.348 2.52s1.35 2.286 3.078 2.592l.738.126c1.278.234 2.052.522 2.052 1.422s-.828 1.458-2.142 1.458c-1.332 0-2.52-.54-2.772-2.268l-1.35.306c.306 2.178 1.926 3.15 4.122 3.15" aria-label="Forwards" style="font-size:18px;font-family:&quot;Space Grotesk&quot;"/><path d="M569.994 82.68h1.422v-5.292c0-1.584.918-2.448 2.214-2.448 1.224 0 1.944.738 1.944 1.908v5.832h1.422v-5.292c0-1.584.918-2.448 2.214-2.448 1.224 0 1.944.738 1.944 1.908v5.832h1.422v-5.958c0-1.872-1.242-3.006-2.988-3.006-1.494 0-2.268.684-2.664 1.548h-.252c-.396-.864-1.224-1.548-2.592-1.548-1.386 0-2.106.63-2.448 1.26h-.252v-1.098h-1.386zm19.577.252c2.358 0 3.402-1.314 3.942-2.43l-1.224-.594c-.432.972-1.17 1.764-2.682 1.764-1.746 0-3.006-1.134-3.06-3.024h7.164V78c0-2.682-1.728-4.374-4.23-4.374-2.574 0-4.374 1.836-4.374 4.554v.216c0 2.718 1.782 4.536 4.464 4.536m-3.006-5.454c.216-1.638 1.314-2.592 2.916-2.592 1.584 0 2.682.954 2.79 2.592zm13.24 5.454c2.16 0 3.547-.972 3.547-2.7 0-1.71-1.458-2.286-3.312-2.61l-.738-.126c-1.116-.198-1.818-.522-1.818-1.368s.738-1.314 1.944-1.314c1.188 0 2.07.468 2.286 1.728l1.332-.342c-.36-1.638-1.638-2.574-3.618-2.574-2.016 0-3.348.936-3.348 2.52s1.35 2.286 3.078 2.592l.738.126c1.278.234 2.052.522 2.052 1.422s-.828 1.458-2.142 1.458c-1.332 0-2.52-.54-2.772-2.268l-1.35.306c.306 2.178 1.926 3.15 4.122 3.15m9.552 0c2.16 0 3.546-.972 3.546-2.7 0-1.71-1.458-2.286-3.312-2.61l-.738-.126c-1.116-.198-1.818-.522-1.818-1.368s.738-1.314 1.944-1.314c1.188 0 2.07.468 2.286 1.728l1.332-.342c-.36-1.638-1.638-2.574-3.618-2.574-2.016 0-3.348.936-3.348 2.52s1.35 2.286 3.078 2.592l.738.126c1.278.234 2.052.522 2.052 1.422s-.828 1.458-2.142 1.458c-1.332 0-2.52-.54-2.772-2.268l-1.35.306c.306 2.178 1.926 3.15 4.122 3.15m8.633 0c1.818 0 2.556-.864 2.934-1.566h.216v.09c0 .756.522 1.224 1.314 1.224h1.242v-1.206h-.81c-.324 0-.504-.18-.504-.54v-3.978c0-2.106-1.332-3.33-3.564-3.33-2.214 0-3.402 1.206-3.816 2.682l1.332.432c.27-1.134 1.044-1.89 2.466-1.89 1.458 0 2.178.774 2.178 2.016v.648h-2.97c-1.89 0-3.312.882-3.312 2.664 0 1.764 1.422 2.754 3.294 2.754m.162-1.224c-1.224 0-2.034-.576-2.034-1.566s.81-1.476 1.944-1.476h2.916v.198c0 1.8-1.134 2.844-2.826 2.844m6.868-3.384c0 2.754 1.854 4.446 4.158 4.446 1.854 0 2.772-.846 3.204-1.638h.252v3.348q0 .54-.54.54h-5.598v1.26h5.976c1.008 0 1.548-.594 1.548-1.548V73.878h-1.35v1.458h-.252c-.468-.864-1.386-1.71-3.24-1.71-2.304 0-4.158 1.692-4.158 4.446zm4.536 3.186c-1.818 0-3.096-1.206-3.096-3.24v-.144c0-2.034 1.278-3.24 3.096-3.24s3.078 1.206 3.078 3.24v.144c0 2.034-1.278 3.24-3.078 3.24m11.55 1.422c2.357 0 3.401-1.314 3.941-2.43l-1.224-.594c-.432.972-1.17 1.764-2.682 1.764-1.746 0-3.006-1.134-3.06-3.024h7.164V78c0-2.682-1.728-4.374-4.23-4.374-2.574 0-4.374 1.836-4.374 4.554v.216c0 2.718 1.782 4.536 4.464 4.536m-3.007-5.454c.216-1.638 1.314-2.592 2.916-2.592 1.584 0 2.682.954 2.79 2.592zm13.241 5.454c2.16 0 3.546-.972 3.546-2.7 0-1.71-1.458-2.286-3.312-2.61l-.738-.126c-1.116-.198-1.818-.522-1.818-1.368s.738-1.314 1.944-1.314c1.188 0 2.07.468 2.286 1.728l1.332-.342c-.36-1.638-1.638-2.574-3.618-2.574-2.016 0-3.348.936-3.348 2.52s1.35 2.286 3.078 2.592l.738.126c1.278.234 2.052.522 2.052 1.422s-.828 1.458-2.142 1.458c-1.332 0-2.52-.54-2.772-2.268l-1.35.306c.306 2.178 1.926 3.15 4.122 3.15m13.936-.252h2.34v-1.242h-1.962c-.378 0-.522-.18-.522-.54V75.12h2.88v-1.242h-2.88v-3.132h-1.422v3.132h-2.646v1.242h2.646v6.012c0 .954.558 1.548 1.566 1.548m8.849.252c2.664 0 4.5-1.782 4.5-4.536v-.234c0-2.754-1.836-4.536-4.5-4.536s-4.5 1.782-4.5 4.536v.234c0 2.754 1.836 4.536 4.5 4.536m0-1.278c-1.854 0-3.078-1.278-3.078-3.294v-.162c0-2.016 1.206-3.294 3.078-3.294 1.854 0 3.078 1.278 3.078 3.294v.162c0 2.016-1.224 3.294-3.078 3.294" aria-label="messages to" style="font-size:18px;font-family:&quot;Space Grotesk&quot;"/><path fill="none" d="M489.66 161.52c20.34 11.19 45.525 22.995 69.84 28.98 57.075 14.04 114.7 15.307 164.784 13.012" style="stroke:#000;stroke-width:3"/><path d="m733.275 203.1-13.76-5.376 6.268 5.72-5.72 6.268z" style="stroke:#000;stroke-width:3"/><path d="M569.94 154.212h1.512v-5.634h5.616v-1.368h-5.616v-4.23h6.102v-1.368h-7.614zm13.819.252c2.664 0 4.5-1.782 4.5-4.536v-.234c0-2.754-1.836-4.536-4.5-4.536s-4.5 1.782-4.5 4.536v.234c0 2.754 1.836 4.536 4.5 4.536m0-1.278c-1.854 0-3.078-1.278-3.078-3.294v-.162c0-2.016 1.206-3.294 3.078-3.294 1.854 0 3.078 1.278 3.078 3.294v.162c0 2.016-1.224 3.294-3.078 3.294m7.14 1.026h1.423v-5.364c0-1.476.846-2.178 2.124-2.178h1.134v-1.296h-1.044c-1.062 0-1.692.342-1.998 1.116h-.252v-1.08H590.9zm8.096 0h2.43l1.944-7.848h.234l1.944 7.848h2.43l1.764-8.802h-1.44l-1.458 7.848h-.252l-1.926-7.848h-2.358l-1.926 7.848h-.252l-1.458-7.848h-1.44zm15.817.252c1.818 0 2.556-.864 2.934-1.566h.216v.09c0 .756.522 1.224 1.314 1.224h1.242v-1.206h-.81c-.324 0-.504-.18-.504-.54v-3.978c0-2.106-1.332-3.33-3.564-3.33-2.214 0-3.402 1.206-3.816 2.682l1.332.432c.27-1.134 1.044-1.89 2.466-1.89 1.458 0 2.178.774 2.178 2.016v.648h-2.97c-1.89 0-3.312.882-3.312 2.664 0 1.764 1.422 2.754 3.294 2.754m.162-1.224c-1.224 0-2.034-.576-2.034-1.566s.81-1.476 1.944-1.476h2.916v.198c0 1.8-1.134 2.844-2.826 2.844m7.573.972h1.422v-5.364c0-1.476.846-2.178 2.124-2.178h1.134v-1.296h-1.044c-1.062 0-1.692.342-1.998 1.116h-.252v-1.08h-1.386zm10.273.252c1.836 0 2.754-.828 3.24-1.71h.252v1.458h1.386v-12.6h-1.422v5.184h-.252c-.45-.81-1.368-1.638-3.204-1.638-2.304 0-4.158 1.728-4.158 4.536v.234c0 2.826 1.872 4.536 4.158 4.536m.378-1.26c-1.818 0-3.096-1.224-3.096-3.312v-.162c0-2.088 1.278-3.312 3.096-3.312s3.078 1.224 3.078 3.312v.162c0 2.088-1.278 3.312-3.078 3.312m11.119 1.26c2.16 0 3.546-.972 3.546-2.7 0-1.71-1.458-2.286-3.312-2.61l-.738-.126c-1.116-.198-1.818-.522-1.818-1.368s.738-1.314 1.944-1.314c1.188 0 2.07.468 2.286 1.728l1.332-.342c-.36-1.638-1.638-2.574-3.618-2.574-2.016 0-3.348.936-3.348 2.52s1.35 2.286 3.078 2.592l.738.126c1.278.234 2.052.522 2.052 1.422s-.828 1.458-2.142 1.458c-1.332 0-2.52-.54-2.772-2.268l-1.35.306c.306 2.178 1.926 3.15 4.122 3.15" aria-label="Forwards" style="font-size:18px;font-family:&quot;Space Grotesk&quot;"/><path d="M569.994 177.18h1.422v-5.292c0-1.584.918-2.448 2.214-2.448 1.224 0 1.944.738 1.944 1.908v5.832h1.422v-5.292c0-1.584.918-2.448 2.214-2.448 1.224 0 1.944.738 1.944 1.908v5.832h1.422v-5.958c0-1.872-1.242-3.006-2.988-3.006-1.494 0-2.268.684-2.664 1.548h-.252c-.396-.864-1.224-1.548-2.592-1.548-1.386 0-2.106.63-2.448 1.26h-.252v-1.098h-1.386zm19.577.252c2.358 0 3.402-1.314 3.942-2.43l-1.224-.594c-.432.972-1.17 1.764-2.682 1.764-1.746 0-3.006-1.134-3.06-3.024h7.164v-.648c0-2.682-1.728-4.374-4.23-4.374-2.574 0-4.374 1.836-4.374 4.554v.216c0 2.718 1.782 4.536 4.464 4.536m-3.006-5.454c.216-1.638 1.314-2.592 2.916-2.592 1.584 0 2.682.954 2.79 2.592zm13.24 5.454c2.16 0 3.547-.972 3.547-2.7 0-1.71-1.458-2.286-3.312-2.61l-.738-.126c-1.116-.198-1.818-.522-1.818-1.368s.738-1.314 1.944-1.314c1.188 0 2.07.468 2.286 1.728l1.332-.342c-.36-1.638-1.638-2.574-3.618-2.574-2.016 0-3.348.936-3.348 2.52s1.35 2.286 3.078 2.592l.738.126c1.278.234 2.052.522 2.052 1.422s-.828 1.458-2.142 1.458c-1.332 0-2.52-.54-2.772-2.268l-1.35.306c.306 2.178 1.926 3.15 4.122 3.15m9.552 0c2.16 0 3.546-.972 3.546-2.7 0-1.71-1.458-2.286-3.312-2.61l-.738-.126c-1.116-.198-1.818-.522-1.818-1.368s.738-1.314 1.944-1.314c1.188 0 2.07.468 2.286 1.728l1.332-.342c-.36-1.638-1.638-2.574-3.618-2.574-2.016 0-3.348.936-3.348 2.52s1.35 2.286 3.078 2.592l.738.126c1.278.234 2.052.522 2.052 1.422s-.828 1.458-2.142 1.458c-1.332 0-2.52-.54-2.772-2.268l-1.35.306c.306 2.178 1.926 3.15 4.122 3.15m8.633 0c1.818 0 2.556-.864 2.934-1.566h.216v.09c0 .756.522 1.224 1.314 1.224h1.242v-1.206h-.81c-.324 0-.504-.18-.504-.54v-3.978c0-2.106-1.332-3.33-3.564-3.33-2.214 0-3.402 1.206-3.816 2.682l1.332.432c.27-1.134 1.044-1.89 2.466-1.89 1.458 0 2.178.774 2.178 2.016v.648h-2.97c-1.89 0-3.312.882-3.312 2.664 0 1.764 1.422 2.754 3.294 2.754m.162-1.224c-1.224 0-2.034-.576-2.034-1.566s.81-1.476 1.944-1.476h2.916v.198c0 1.8-1.134 2.844-2.826 2.844m6.868-3.384c0 2.754 1.854 4.446 4.158 4.446 1.854 0 2.772-.846 3.204-1.638h.252v3.348q0 .54-.54.54h-5.598v1.26h5.976c1.008 0 1.548-.594 1.548-1.548v-10.854h-1.35v1.458h-.252c-.468-.864-1.386-1.71-3.24-1.71-2.304 0-4.158 1.692-4.158 4.446zm4.536 3.186c-1.818 0-3.096-1.206-3.096-3.24v-.144c0-2.034 1.278-3.24 3.096-3.24s3.078 1.206 3.078 3.24v.144c0 2.034-1.278 3.24-3.078 3.24m11.55 1.422c2.357 0 3.401-1.314 3.941-2.43l-1.224-.594c-.432.972-1.17 1.764-2.682 1.764-1.746 0-3.006-1.134-3.06-3.024h7.164v-.648c0-2.682-1.728-4.374-4.23-4.374-2.574 0-4.374 1.836-4.374 4.554v.216c0 2.718 1.782 4.536 4.464 4.536m-3.007-5.454c.216-1.638 1.314-2.592 2.916-2.592 1.584 0 2.682.954 2.79 2.592zm13.241 5.454c2.16 0 3.546-.972 3.546-2.7 0-1.71-1.458-2.286-3.312-2.61l-.738-.126c-1.116-.198-1.818-.522-1.818-1.368s.738-1.314 1.944-1.314c1.188 0 2.07.468 2.286 1.728l1.332-.342c-.36-1.638-1.638-2.574-3.618-2.574-2.016 0-3.348.936-3.348 2.52s1.35 2.286 3.078 2.592l.738.126c1.278.234 2.052.522 2.052 1.422s-.828 1.458-2.142 1.458c-1.332 0-2.52-.54-2.772-2.268l-1.35.306c.306 2.178 1.926 3.15 4.122 3.15m13.936-.252h2.34v-1.242h-1.962c-.378 0-.522-.18-.522-.54v-5.778h2.88v-1.242h-2.88v-3.132h-1.422v3.132h-2.646v1.242h2.646v6.012c0 .954.558 1.548 1.566 1.548m8.849.252c2.664 0 4.5-1.782 4.5-4.536v-.234c0-2.754-1.836-4.536-4.5-4.536s-4.5 1.782-4.5 4.536v.234c0 2.754 1.836 4.536 4.5 4.536m0-1.278c-1.854 0-3.078-1.278-3.078-3.294v-.162c0-2.016 1.206-3.294 3.078-3.294 1.854 0 3.078 1.278 3.078 3.294v.162c0 2.016-1.224 3.294-3.078 3.294" aria-label="messages to" style="font-size:18px;font-family:&quot;Space Grotesk&quot;"/></svg>