<svg xmlns="http://www.w3.org/2000/svg" width="661.5" height="183" preserveAspectRatio="none" style="width:661px;height:183px" viewBox="0 0 661 183"><circle cx="58.173" cy="49.5" r="12" fill="#DEDEDE" style="stroke:#000;stroke-width:3"/><path fill="none" d="M58.173 61.5V102m-19.5-28.5h39m-19.5 28.5-19.5 22.5m19.5-22.5 19.5 22.5" style="stroke:#000;stroke-width:3"/><path d="M38.994 154.464c2.97 0 4.626-1.782 4.626-4.644v-.234h-1.494v.288c0 1.89-.99 3.24-3.132 3.24s-3.402-1.386-3.402-3.726v-2.952c0-2.34 1.26-3.726 3.402-3.726s3.132 1.35 3.132 3.24v.144h1.494v-.09c0-2.862-1.656-4.644-4.626-4.644-2.988 0-4.914 1.782-4.914 5.112v2.88c0 3.33 1.926 5.112 4.914 5.112m7.106-.252h1.422v-12.6H46.1zm5.163-10.17c.63 0 1.098-.45 1.098-1.08 0-.648-.468-1.098-1.098-1.098-.612 0-1.08.45-1.08 1.098 0 .63.468 1.08 1.08 1.08m-.702 10.17h1.422v-8.802H50.56zm8.492.252c2.358 0 3.402-1.314 3.942-2.43l-1.224-.594c-.432.972-1.17 1.764-2.682 1.764-1.746 0-3.006-1.134-3.06-3.024h7.164v-.648c0-2.682-1.728-4.374-4.23-4.374-2.574 0-4.374 1.836-4.374 4.554v.216c0 2.718 1.782 4.536 4.464 4.536m-3.006-5.454c.216-1.638 1.314-2.592 2.916-2.592 1.584 0 2.682.954 2.79 2.592zm9.68 5.202h1.423v-4.428c0-2.178 1.188-3.294 2.88-3.294 1.476 0 2.43.756 2.43 2.502v5.22h1.422v-5.328c0-2.358-1.548-3.636-3.492-3.636-1.8 0-2.646.81-3.024 1.656h-.252v-1.494h-1.386zm14.073 0h2.34v-1.242h-1.962c-.378 0-.522-.18-.522-.54v-5.778h2.88v-1.242h-2.88v-3.132h-1.422v3.132h-2.646v1.242h2.646v6.012c0 .954.558 1.548 1.566 1.548" aria-label="Client" style="font-size:18px;font-family:&quot;Space Grotesk&quot;"/><path fill="#FFAE03" d="M250.5 74.25h135.373c7.5 0 7.5 26.484 7.5 26.484s0 26.484-7.5 26.484H250.5c-7.5 0-7.5-26.484-7.5-26.484s0-26.484 7.5-26.484" style="stroke:#000;stroke-width:3"/><path fill="none" d="M385.873 74.25c-7.5 0-7.5 26.484-7.5 26.484 0 26.484 7.5 26.484 7.5 26.484" style="stroke:#000;stroke-width:3"/><path d="M259.188 106.962h2.376v-4.752h3.312c.702 0 .972.396.972.972v3.78h2.376v-4.122c0-1.008-.558-1.656-1.512-1.71v-.324c1.062-.432 1.872-1.35 1.872-2.862v-.216c0-2.034-1.566-3.366-3.924-3.366h-5.472zm2.376-6.912v-3.528h2.844c1.152 0 1.8.666 1.8 1.674v.18c0 1.008-.684 1.674-1.8 1.674zm11.962 7.164c1.872 0 2.43-1.008 2.592-1.458h.342v.018c0 .72.648 1.188 1.53 1.188h1.512v-1.872h-.72c-.324 0-.504-.18-.504-.54v-3.33c0-2.232-1.476-3.438-3.816-3.438-2.322 0-3.492 1.17-3.924 2.52l2.088.702c.162-.81.666-1.386 1.8-1.386 1.152 0 1.656.612 1.656 1.44v.504h-2.448c-2.016 0-3.456.954-3.456 2.79s1.44 2.862 3.348 2.862m.396-1.836c-.972 0-1.476-.45-1.476-1.098s.504-1.026 1.35-1.026h2.286v.18c0 1.188-.9 1.944-2.16 1.944m10.126 1.584h2.52v-1.872h-1.728c-.324 0-.504-.18-.504-.54v-4.644h2.448v-1.872h-2.448v-2.772h-2.268v2.772h-2.232v1.872h2.232v5.04c0 1.224.792 2.016 1.98 2.016m8.65.252c2.448 0 3.51-1.386 4.014-2.34l-1.854-.972c-.306.684-.828 1.332-2.088 1.332s-2.214-.846-2.268-2.07H297v-.774c0-2.736-1.71-4.608-4.338-4.608-2.664 0-4.464 1.8-4.464 4.608v.216c0 2.808 1.818 4.608 4.5 4.608m-2.178-5.742c.162-1.026.9-1.71 2.124-1.71 1.17 0 1.944.684 2.052 1.71zm13.231 5.49h8.136v-2.16h-5.76v-10.44h-2.376zm11.08-9.972c.828 0 1.458-.576 1.458-1.44s-.63-1.44-1.458-1.44-1.458.576-1.458 1.44.63 1.44 1.458 1.44m-1.134 9.972h2.268v-8.928h-2.268zm4.906 0h2.268v-5.274c0-1.224.576-1.908 1.62-1.908.9 0 1.44.504 1.44 1.476v5.706h2.268v-5.274c0-1.224.576-1.908 1.62-1.908.9 0 1.44.504 1.44 1.476v5.706h2.268v-5.868c0-2.16-1.332-3.204-2.988-3.204-1.368 0-2.052.576-2.448 1.332h-.324c-.414-.792-1.134-1.332-2.412-1.332-1.188 0-1.89.522-2.196 1.116h-.324v-.972h-2.232zm16.624-9.972c.828 0 1.458-.576 1.458-1.44s-.63-1.44-1.458-1.44-1.458.576-1.458 1.44.63 1.44 1.458 1.44m-1.134 9.972h2.268v-8.928h-2.268zm8.326 0h2.52v-1.872h-1.728c-.324 0-.504-.18-.504-.54v-4.644h2.448v-1.872h-2.448v-2.772h-2.268v2.772h-2.232v1.872h2.232v5.04c0 1.224.792 2.016 1.98 2.016m8.65.252c2.448 0 3.51-1.386 4.014-2.34l-1.854-.972c-.306.684-.828 1.332-2.088 1.332s-2.214-.846-2.268-2.07h6.498v-.774c0-2.736-1.71-4.608-4.338-4.608-2.664 0-4.464 1.8-4.464 4.608v.216c0 2.808 1.818 4.608 4.5 4.608m-2.178-5.742c.162-1.026.9-1.71 2.124-1.71 1.17 0 1.944.684 2.052 1.71zm8.614 5.49h2.268v-5.076c0-1.26.828-1.872 1.98-1.872h1.116v-2.016h-1.08c-.828 0-1.476.324-1.728 1.044h-.324v-1.008h-2.232z" aria-label="Rate Limiter" style="font-weight:700;font-size:18px;font-family:&quot;Space Grotesk&quot;"/><rect width="109.008" height="67.968" x="527.25" y="66.75" fill="#FFF" rx="18.75" ry="18.75" style="stroke:#000;stroke-width:3"/><path d="M555.384 107.214c2.736 0 4.518-1.458 4.518-3.69 0-2.214-1.71-3.042-3.888-3.546l-.936-.234c-1.674-.414-2.664-.864-2.664-2.214s1.08-2.106 2.754-2.106c1.728 0 2.988.756 2.988 2.574v.756h1.494v-.756c0-2.574-1.944-3.888-4.482-3.888s-4.248 1.314-4.248 3.438 1.512 2.988 3.744 3.528l.936.234c1.692.396 2.808.864 2.808 2.25 0 1.35-1.062 2.34-3.024 2.34-1.926 0-3.276-.99-3.276-3.096v-.378h-1.494v.378c0 2.952 2.016 4.41 4.77 4.41m10.926 0c2.358 0 3.402-1.314 3.942-2.43l-1.224-.594c-.432.972-1.17 1.764-2.682 1.764-1.746 0-3.006-1.134-3.06-3.024h7.164v-.648c0-2.682-1.728-4.374-4.23-4.374-2.574 0-4.374 1.836-4.374 4.554v.216c0 2.718 1.782 4.536 4.464 4.536m-3.006-5.454c.216-1.638 1.314-2.592 2.916-2.592 1.584 0 2.682.954 2.79 2.592zm9.63 5.202h1.422v-5.364c0-1.476.846-2.178 2.124-2.178h1.134v-1.296h-1.044c-1.062 0-1.692.342-1.998 1.116h-.252v-1.08h-1.386zm9.018 0h2.268l3.15-8.802h-1.512l-2.646 7.74h-.252l-2.646-7.74h-1.512zm8.172-10.17c.63 0 1.098-.45 1.098-1.08 0-.648-.468-1.098-1.098-1.098-.612 0-1.08.45-1.08 1.098 0 .63.468 1.08 1.08 1.08m-.702 10.17h1.422V98.16h-1.422zm8.46.252c2.538 0 3.906-1.584 4.284-3.348l-1.404-.306c-.216 1.35-1.116 2.376-2.862 2.376s-3.078-1.242-3.078-3.294v-.162c0-2.052 1.332-3.294 3.078-3.294s2.628 1.08 2.808 2.376l1.386-.288c-.288-1.782-1.674-3.366-4.212-3.366-2.574 0-4.482 1.728-4.482 4.554v.198c0 2.826 1.908 4.554 4.482 4.554m10.746 0c2.358 0 3.402-1.314 3.942-2.43l-1.224-.594c-.432.972-1.17 1.764-2.682 1.764-1.746 0-3.006-1.134-3.06-3.024h7.164v-.648c0-2.682-1.728-4.374-4.23-4.374-2.574 0-4.374 1.836-4.374 4.554v.216c0 2.718 1.782 4.536 4.464 4.536m-3.006-5.454c.216-1.638 1.314-2.592 2.916-2.592 1.584 0 2.682.954 2.79 2.592z" aria-label="Service" style="font-size:18px;font-family:&quot;Space Grotesk&quot;"/><path fill="none" d="M91.89 100.5h141.9" style="stroke:#000;stroke-width:3"/><path d="m242.79 100.5-13.5-6 6 6-6 6z" style="stroke:#000;stroke-width:3"/><path d="M132.744 59.964c2.826 0 4.662-1.53 4.662-4.464v-8.388h-1.512v8.406c0 2.052-1.152 3.096-3.15 3.096s-3.132-1.044-3.132-3.096v-8.406H128.1V55.5c0 2.934 1.836 4.464 4.644 4.464m7.529-.252h1.422v-4.428c0-2.178 1.188-3.294 2.88-3.294 1.476 0 2.43.756 2.43 2.502v5.22h1.422v-5.328c0-2.358-1.548-3.636-3.492-3.636-1.8 0-2.646.81-3.024 1.656h-.252V50.91h-1.386zm11.074 0h1.422v-12.6h-1.422zm5.153-10.17c.63 0 1.098-.45 1.098-1.08 0-.648-.468-1.098-1.098-1.098-.612 0-1.08.45-1.08 1.098 0 .63.468 1.08 1.08 1.08m-.702 10.17h1.422V50.91h-1.422zm4.45 0h1.422V54.42c0-1.584.918-2.448 2.214-2.448 1.224 0 1.944.738 1.944 1.908v5.832h1.422V54.42c0-1.584.918-2.448 2.214-2.448 1.224 0 1.944.738 1.944 1.908v5.832h1.422v-5.958c0-1.872-1.242-3.006-2.988-3.006-1.494 0-2.268.684-2.664 1.548h-.252c-.396-.864-1.224-1.548-2.592-1.548-1.386 0-2.106.63-2.448 1.26h-.252V50.91h-1.386zm16.223-10.17c.63 0 1.098-.45 1.098-1.08 0-.648-.468-1.098-1.098-1.098-.612 0-1.08.45-1.08 1.098 0 .63.468 1.08 1.08 1.08m-.702 10.17h1.422V50.91h-1.422zm7.69 0h2.34V58.47h-1.962c-.378 0-.522-.18-.522-.54v-5.778h2.88V50.91h-2.88v-3.132h-1.422v3.132h-2.646v1.242h2.646v6.012c0 .954.558 1.548 1.566 1.548m8.789.252c2.358 0 3.402-1.314 3.942-2.43l-1.224-.594c-.432.972-1.17 1.764-2.682 1.764-1.746 0-3.006-1.134-3.06-3.024h7.164v-.648c0-2.682-1.728-4.374-4.23-4.374-2.574 0-4.374 1.836-4.374 4.554v.216c0 2.718 1.782 4.536 4.464 4.536m-3.006-5.454c.216-1.638 1.314-2.592 2.916-2.592 1.584 0 2.682.954 2.79 2.592zm13.397 5.454c1.836 0 2.754-.828 3.24-1.71h.252v1.458h1.386v-12.6h-1.422v5.184h-.252c-.45-.81-1.368-1.638-3.204-1.638-2.304 0-4.158 1.728-4.158 4.536v.234c0 2.826 1.872 4.536 4.158 4.536m.378-1.26c-1.818 0-3.096-1.224-3.096-3.312v-.162c0-2.088 1.278-3.312 3.096-3.312s3.078 1.224 3.078 3.312v.162c0 2.088-1.278 3.312-3.078 3.312" aria-label="Unlimited" style="font-size:18px;font-family:&quot;Space Grotesk&quot;"/><path d="M142.401 82.932c2.16 0 3.546-.972 3.546-2.7 0-1.71-1.458-2.286-3.312-2.61l-.738-.126c-1.116-.198-1.818-.522-1.818-1.368s.738-1.314 1.944-1.314c1.188 0 2.07.468 2.286 1.728l1.332-.342c-.36-1.638-1.638-2.574-3.618-2.574-2.016 0-3.348.936-3.348 2.52s1.35 2.286 3.078 2.592l.738.126c1.278.234 2.052.522 2.052 1.422s-.828 1.458-2.142 1.458c-1.332 0-2.52-.54-2.772-2.268l-1.35.306c.306 2.178 1.926 3.15 4.122 3.15m9.087-.252h2.34v-1.242h-1.962c-.378 0-.522-.18-.522-.54V75.12h2.88v-1.242h-2.88v-3.132h-1.422v3.132h-2.646v1.242h2.646v6.012c0 .954.558 1.548 1.566 1.548m5.144 0h1.422v-5.364c0-1.476.846-2.178 2.124-2.178h1.134v-1.296h-1.044c-1.062 0-1.692.342-1.998 1.116h-.252v-1.08h-1.386zm10.599.252c2.358 0 3.402-1.314 3.942-2.43l-1.224-.594c-.432.972-1.17 1.764-2.682 1.764-1.746 0-3.006-1.134-3.06-3.024h7.164V78c0-2.682-1.728-4.374-4.23-4.374-2.574 0-4.374 1.836-4.374 4.554v.216c0 2.718 1.782 4.536 4.464 4.536m-3.006-5.454c.216-1.638 1.314-2.592 2.916-2.592 1.584 0 2.682.954 2.79 2.592zm12.434 5.454c1.818 0 2.556-.864 2.934-1.566h.216v.09c0 .756.522 1.224 1.314 1.224h1.242v-1.206h-.81c-.324 0-.504-.18-.504-.54v-3.978c0-2.106-1.332-3.33-3.564-3.33-2.214 0-3.402 1.206-3.816 2.682l1.332.432c.27-1.134 1.044-1.89 2.466-1.89 1.458 0 2.178.774 2.178 2.016v.648h-2.97c-1.89 0-3.312.882-3.312 2.664 0 1.764 1.422 2.754 3.294 2.754m.162-1.224c-1.224 0-2.034-.576-2.034-1.566s.81-1.476 1.944-1.476h2.916v.198c0 1.8-1.134 2.844-2.826 2.844m7.592.972h1.422v-5.292c0-1.584.918-2.448 2.214-2.448 1.224 0 1.944.738 1.944 1.908v5.832h1.422v-5.292c0-1.584.918-2.448 2.214-2.448 1.224 0 1.944.738 1.944 1.908v5.832h1.422v-5.958c0-1.872-1.242-3.006-2.988-3.006-1.494 0-2.268.684-2.664 1.548h-.252c-.396-.864-1.224-1.548-2.592-1.548-1.386 0-2.106.63-2.448 1.26h-.252v-1.098h-1.386z" aria-label="stream" style="font-size:18px;font-family:&quot;Space Grotesk&quot;"/><path fill="none" d="M393.645 100.5H517.89" style="stroke:#000;stroke-width:3"/><path d="m526.89 100.5-13.5-6 6 6-6 6z" style="stroke:#000;stroke-width:3"/><path d="M429.315 59.712h7.884v-1.368h-6.372V47.112h-1.512zm10.638-10.17c.63 0 1.098-.45 1.098-1.08 0-.648-.468-1.098-1.098-1.098-.612 0-1.08.45-1.08 1.098 0 .63.468 1.08 1.08 1.08m-.702 10.17h1.422V50.91h-1.422zm4.464 0h1.422V54.42c0-1.584.918-2.448 2.214-2.448 1.224 0 1.944.738 1.944 1.908v5.832h1.422V54.42c0-1.584.918-2.448 2.214-2.448 1.224 0 1.944.738 1.944 1.908v5.832h1.422v-5.958c0-1.872-1.242-3.006-2.988-3.006-1.494 0-2.268.684-2.664 1.548h-.252c-.396-.864-1.224-1.548-2.592-1.548-1.386 0-2.106.63-2.448 1.26h-.252V50.91h-1.386zm16.236-10.17c.63 0 1.098-.45 1.098-1.08 0-.648-.468-1.098-1.098-1.098-.612 0-1.08.45-1.08 1.098 0 .63.468 1.08 1.08 1.08m-.702 10.17h1.422V50.91h-1.422zm7.704 0h2.34V58.47h-1.962c-.378 0-.522-.18-.522-.54v-5.778h2.88V50.91h-2.88v-3.132h-1.422v3.132h-2.646v1.242h2.646v6.012c0 .954.558 1.548 1.566 1.548m8.802.252c2.358 0 3.402-1.314 3.942-2.43l-1.224-.594c-.432.972-1.17 1.764-2.682 1.764-1.746 0-3.006-1.134-3.06-3.024h7.164v-.648c0-2.682-1.728-4.374-4.23-4.374-2.574 0-4.374 1.836-4.374 4.554v.216c0 2.718 1.782 4.536 4.464 4.536m-3.006-5.454c.216-1.638 1.314-2.592 2.916-2.592 1.584 0 2.682.954 2.79 2.592zm13.41 5.454c1.836 0 2.754-.828 3.24-1.71h.252v1.458h1.386v-12.6h-1.422v5.184h-.252c-.45-.81-1.368-1.638-3.204-1.638-2.304 0-4.158 1.728-4.158 4.536v.234c0 2.826 1.872 4.536 4.158 4.536m.378-1.26c-1.818 0-3.096-1.224-3.096-3.312v-.162c0-2.088 1.278-3.312 3.096-3.312s3.078 1.224 3.078 3.312v.162c0 2.088-1.278 3.312-3.078 3.312" aria-label="Limited" style="font-size:18px;font-family:&quot;Space Grotesk&quot;"/><path d="M434.724 82.932c2.16 0 3.546-.972 3.546-2.7 0-1.71-1.458-2.286-3.312-2.61l-.738-.126c-1.116-.198-1.818-.522-1.818-1.368s.738-1.314 1.944-1.314c1.188 0 2.07.468 2.286 1.728l1.332-.342c-.36-1.638-1.638-2.574-3.618-2.574-2.016 0-3.348.936-3.348 2.52s1.35 2.286 3.078 2.592l.738.126c1.278.234 2.052.522 2.052 1.422s-.828 1.458-2.142 1.458c-1.332 0-2.52-.54-2.772-2.268l-1.35.306c.306 2.178 1.926 3.15 4.122 3.15m9.086-.252h2.34v-1.242h-1.962c-.378 0-.522-.18-.522-.54V75.12h2.88v-1.242h-2.88v-3.132h-1.422v3.132h-2.646v1.242h2.646v6.012c0 .954.558 1.548 1.566 1.548m5.145 0h1.422v-5.364c0-1.476.846-2.178 2.124-2.178h1.134v-1.296h-1.044c-1.062 0-1.692.342-1.998 1.116h-.252v-1.08h-1.386zm10.598.252c2.358 0 3.402-1.314 3.942-2.43l-1.224-.594c-.432.972-1.17 1.764-2.682 1.764-1.746 0-3.006-1.134-3.06-3.024h7.164V78c0-2.682-1.728-4.374-4.23-4.374-2.574 0-4.374 1.836-4.374 4.554v.216c0 2.718 1.782 4.536 4.464 4.536m-3.006-5.454c.216-1.638 1.314-2.592 2.916-2.592 1.584 0 2.682.954 2.79 2.592zm12.435 5.454c1.818 0 2.556-.864 2.934-1.566h.216v.09c0 .756.522 1.224 1.314 1.224h1.242v-1.206h-.81c-.324 0-.504-.18-.504-.54v-3.978c0-2.106-1.332-3.33-3.564-3.33-2.214 0-3.402 1.206-3.816 2.682l1.332.432c.27-1.134 1.044-1.89 2.466-1.89 1.458 0 2.178.774 2.178 2.016v.648H469c-1.89 0-3.312.882-3.312 2.664 0 1.764 1.422 2.754 3.294 2.754m.162-1.224c-1.224 0-2.034-.576-2.034-1.566s.81-1.476 1.944-1.476h2.916v.198c0 1.8-1.134 2.844-2.826 2.844m7.592.972h1.422v-5.292c0-1.584.918-2.448 2.214-2.448 1.224 0 1.944.738 1.944 1.908v5.832h1.422v-5.292c0-1.584.918-2.448 2.214-2.448 1.224 0 1.944.738 1.944 1.908v5.832h1.422v-5.958c0-1.872-1.242-3.006-2.988-3.006-1.494 0-2.268.684-2.664 1.548h-.252c-.396-.864-1.224-1.548-2.592-1.548-1.386 0-2.106.63-2.448 1.26h-.252v-1.098h-1.386z" aria-label="stream" style="font-size:18px;font-family:&quot;Space Grotesk&quot;"/></svg>