<svg xmlns="http://www.w3.org/2000/svg" width="777" height="258" preserveAspectRatio="none" style="width:777px;height:258px"><circle cx="58.173" cy="81.75" r="12" fill="#DEDEDE" style="stroke:#000;stroke-width:3"/><path fill="none" d="M58.173 93.75v40.5m-19.5-28.5h39m-19.5 28.5-19.5 22.5m19.5-22.5 19.5 22.5" style="stroke:#000;stroke-width:3"/><path d="M38.994 186.714c2.97 0 4.626-1.782 4.626-4.644v-.234h-1.494v.288c0 1.89-.99 3.24-3.132 3.24s-3.402-1.386-3.402-3.726v-2.952c0-2.34 1.26-3.726 3.402-3.726s3.132 1.35 3.132 3.24v.144h1.494v-.09c0-2.862-1.656-4.644-4.626-4.644-2.988 0-4.914 1.782-4.914 5.112v2.88c0 3.33 1.926 5.112 4.914 5.112m7.106-.252h1.422v-12.6H46.1zm5.163-10.17c.63 0 1.098-.45 1.098-1.08 0-.648-.468-1.098-1.098-1.098-.612 0-1.08.45-1.08 1.098 0 .63.468 1.08 1.08 1.08m-.702 10.17h1.422v-8.802H50.56zm8.492.252c2.358 0 3.402-1.314 3.942-2.43l-1.224-.594c-.432.972-1.17 1.764-2.682 1.764-1.746 0-3.006-1.134-3.06-3.024h7.164v-.648c0-2.682-1.728-4.374-4.23-4.374-2.574 0-4.374 1.836-4.374 4.554v.216c0 2.718 1.782 4.536 4.464 4.536m-3.006-5.454c.216-1.638 1.314-2.592 2.916-2.592 1.584 0 2.682.954 2.79 2.592zm9.68 5.202h1.423v-4.428c0-2.178 1.188-3.294 2.88-3.294 1.476 0 2.43.756 2.43 2.502v5.22h1.422v-5.328c0-2.358-1.548-3.636-3.492-3.636-1.8 0-2.646.81-3.024 1.656h-.252v-1.494h-1.386zm14.073 0h2.34v-1.242h-1.962c-.378 0-.522-.18-.522-.54v-5.778h2.88v-1.242h-2.88v-3.132h-1.422v3.132h-2.646v1.242h2.646v6.012c0 .954.558 1.548 1.566 1.548" aria-label="Client" style="font-size:18px;font-family:&quot;Space Grotesk&quot;"/><rect width="109.008" height="67.968" x="643.5" y="99" fill="#FFF" rx="18.75" ry="18.75" style="stroke:#000;stroke-width:3"/><path d="M671.634 139.464c2.736 0 4.518-1.458 4.518-3.69 0-2.214-1.71-3.042-3.888-3.546l-.936-.234c-1.674-.414-2.664-.864-2.664-2.214s1.08-2.106 2.754-2.106c1.728 0 2.988.756 2.988 2.574v.756h1.494v-.756c0-2.574-1.944-3.888-4.482-3.888s-4.248 1.314-4.248 3.438 1.512 2.988 3.744 3.528l.936.234c1.692.396 2.808.864 2.808 2.25 0 1.35-1.062 2.34-3.024 2.34-1.926 0-3.276-.99-3.276-3.096v-.378h-1.494v.378c0 2.952 2.016 4.41 4.77 4.41m10.926 0c2.358 0 3.402-1.314 3.942-2.43l-1.224-.594c-.432.972-1.17 1.764-2.682 1.764-1.746 0-3.006-1.134-3.06-3.024h7.164v-.648c0-2.682-1.728-4.374-4.23-4.374-2.574 0-4.374 1.836-4.374 4.554v.216c0 2.718 1.782 4.536 4.464 4.536m-3.006-5.454c.216-1.638 1.314-2.592 2.916-2.592 1.584 0 2.682.954 2.79 2.592zm9.63 5.202h1.422v-5.364c0-1.476.846-2.178 2.124-2.178h1.134v-1.296h-1.044c-1.062 0-1.692.342-1.998 1.116h-.252v-1.08h-1.386zm9.018 0h2.268l3.15-8.802h-1.512l-2.646 7.74h-.252l-2.646-7.74h-1.512zm8.172-10.17c.63 0 1.098-.45 1.098-1.08 0-.648-.468-1.098-1.098-1.098-.612 0-1.08.45-1.08 1.098 0 .63.468 1.08 1.08 1.08m-.702 10.17h1.422v-8.802h-1.422zm8.46.252c2.538 0 3.906-1.584 4.284-3.348l-1.404-.306c-.216 1.35-1.116 2.376-2.862 2.376s-3.078-1.242-3.078-3.294v-.162c0-2.052 1.332-3.294 3.078-3.294s2.628 1.08 2.808 2.376l1.386-.288c-.288-1.782-1.674-3.366-4.212-3.366-2.574 0-4.482 1.728-4.482 4.554v.198c0 2.826 1.908 4.554 4.482 4.554m10.746 0c2.358 0 3.402-1.314 3.942-2.43l-1.224-.594c-.432.972-1.17 1.764-2.682 1.764-1.746 0-3.006-1.134-3.06-3.024h7.164v-.648c0-2.682-1.728-4.374-4.23-4.374-2.574 0-4.374 1.836-4.374 4.554v.216c0 2.718 1.782 4.536 4.464 4.536m-3.006-5.454c.216-1.638 1.314-2.592 2.916-2.592 1.584 0 2.682.954 2.79 2.592z" aria-label="Service" style="font-size:18px;font-family:&quot;Space Grotesk&quot;"/><path fill="#FFAE03" d="M279 33h177.367c7.5 0 7.5 26.484 7.5 26.484s0 26.484-7.5 26.484H279c-7.5 0-7.5-26.484-7.5-26.484S271.5 33 279 33" style="stroke:#000;stroke-width:3"/><path fill="none" d="M456.367 33c-7.5 0-7.5 26.484-7.5 26.484 0 26.484 7.5 26.484 7.5 26.484" style="stroke:#000;stroke-width:3"/><path d="M287.688 65.712h2.376V60.96h3.312c.702 0 .972.396.972.972v3.78h2.376V61.59c0-1.008-.558-1.656-1.512-1.71v-.324c1.062-.432 1.872-1.35 1.872-2.862v-.216c0-2.034-1.566-3.366-3.924-3.366h-5.472zm2.376-6.912v-3.528h2.844c1.152 0 1.8.666 1.8 1.674v.18c0 1.008-.684 1.674-1.8 1.674zm13.153 7.164c2.448 0 3.51-1.386 4.014-2.34l-1.854-.972c-.306.684-.828 1.332-2.088 1.332s-2.214-.846-2.268-2.07h6.498v-.774c0-2.736-1.71-4.608-4.338-4.608-2.664 0-4.464 1.8-4.464 4.608v.216c0 2.808 1.818 4.608 4.5 4.608m-2.178-5.742c.162-1.026.9-1.71 2.124-1.71 1.17 0 1.944.684 2.052 1.71zm15.205 9.09h2.268V56.784h-2.232v1.08h-.324c-.414-.684-1.188-1.332-2.808-1.332-2.142 0-4.032 1.656-4.032 4.572v.288c0 2.916 1.872 4.572 4.032 4.572 1.62 0 2.394-.648 2.772-1.278h.324zm-2.412-5.328c-1.404 0-2.448-.918-2.448-2.646v-.18c0-1.728 1.062-2.646 2.448-2.646s2.448.918 2.448 2.646v.18c0 1.728-1.044 2.646-2.448 2.646m10.615 1.872c1.602 0 2.322-.702 2.61-1.314h.324v1.17h2.232v-8.928h-2.268v4.536c0 1.656-.81 2.628-2.196 2.628-1.224 0-1.908-.666-1.908-2.016v-5.148h-2.268v5.328c0 2.214 1.386 3.744 3.474 3.744m11.767.108c2.448 0 3.51-1.386 4.014-2.34l-1.854-.972c-.306.684-.828 1.332-2.088 1.332s-2.214-.846-2.268-2.07h6.498v-.774c0-2.736-1.71-4.608-4.338-4.608-2.664 0-4.464 1.8-4.464 4.608v.216c0 2.808 1.818 4.608 4.5 4.608m-2.178-5.742c.162-1.026.9-1.71 2.124-1.71 1.17 0 1.944.684 2.052 1.71zm12.217 5.742c2.268 0 3.744-1.062 3.744-2.934s-1.584-2.448-3.6-2.808l-.504-.09c-.828-.144-1.332-.378-1.332-.954 0-.522.468-.846 1.332-.846s1.476.342 1.674 1.26l2.106-.648c-.414-1.44-1.782-2.412-3.78-2.412-2.124 0-3.528.99-3.528 2.754s1.548 2.466 3.42 2.808l.504.09c1.062.198 1.512.45 1.512 1.008s-.504.972-1.548.972-1.89-.396-2.124-1.656l-2.088.54c.306 1.872 1.872 2.916 4.212 2.916m8.977-.252h2.52V63.84h-1.728c-.324 0-.504-.18-.504-.54v-4.644h2.448v-1.872h-2.448v-2.772h-2.268v2.772h-2.232v1.872h2.232v5.04c0 1.224.792 2.016 1.98 2.016m14.102.252c3.096 0 4.86-1.8 4.86-4.752v-.252h-2.34v.324c0 1.476-.828 2.556-2.52 2.556s-2.7-1.116-2.7-2.88v-3.096c0-1.764 1.008-2.88 2.7-2.88s2.52 1.08 2.52 2.556v.18h2.34v-.108c0-2.952-1.764-4.752-4.86-4.752-3.132 0-5.076 1.8-5.076 5.04v3.024c0 3.24 1.944 5.04 5.076 5.04m6.888-.252h2.268v-4.536c0-1.656.81-2.628 2.196-2.628 1.224 0 1.908.666 1.908 2.016v5.148h2.268v-5.328c0-2.214-1.386-3.744-3.474-3.744-1.584 0-2.286.666-2.574 1.242h-.324v-4.77h-2.268zm13.873.252c1.872 0 2.43-1.008 2.592-1.458h.342v.018c0 .72.648 1.188 1.53 1.188h1.512V63.84h-.72c-.324 0-.504-.18-.504-.54v-3.33c0-2.232-1.476-3.438-3.816-3.438-2.322 0-3.492 1.17-3.924 2.52l2.088.702c.162-.81.666-1.386 1.8-1.386 1.152 0 1.656.612 1.656 1.44v.504h-2.448c-2.016 0-3.456.954-3.456 2.79s1.44 2.862 3.348 2.862m.396-1.836c-.972 0-1.476-.45-1.476-1.098s.504-1.026 1.35-1.026h2.286v.18c0 1.188-.9 1.944-2.16 1.944m7.25 1.584h2.267v-4.536c0-1.656.81-2.628 2.196-2.628 1.224 0 1.908.666 1.908 2.016v5.148h2.268v-5.328c0-2.214-1.386-3.744-3.474-3.744-1.602 0-2.322.702-2.61 1.314h-.324v-1.17h-2.232zm11.1 0h2.268v-4.536c0-1.656.81-2.628 2.196-2.628 1.224 0 1.908.666 1.908 2.016v5.148h2.268v-5.328c0-2.214-1.386-3.744-3.474-3.744-1.602 0-2.322.702-2.61 1.314h-.324v-1.17h-2.232zm15.17.252c2.447 0 3.51-1.386 4.013-2.34l-1.854-.972c-.306.684-.828 1.332-2.088 1.332s-2.214-.846-2.268-2.07h6.498v-.774c0-2.736-1.71-4.608-4.338-4.608-2.664 0-4.464 1.8-4.464 4.608v.216c0 2.808 1.818 4.608 4.5 4.608m-2.179-5.742c.162-1.026.9-1.71 2.124-1.71 1.17 0 1.944.684 2.052 1.71zm8.51 5.49h2.267v-12.6h-2.268z" aria-label="Request Channel" style="font-weight:700;font-size:18px;font-family:&quot;Space Grotesk&quot;"/><path fill="#FFAE03" d="M290.25 178.5h154.129c7.5 0 7.5 26.484 7.5 26.484s0 26.484-7.5 26.484H290.25c-7.5 0-7.5-26.484-7.5-26.484s0-26.484 7.5-26.484" style="stroke:#000;stroke-width:3"/><path fill="none" d="M444.379 178.5c-7.5 0-7.5 26.484-7.5 26.484 0 26.484 7.5 26.484 7.5 26.484" style="stroke:#000;stroke-width:3"/><path d="M298.938 211.212h2.376v-4.752h3.312c.702 0 .972.396.972.972v3.78h2.376v-4.122c0-1.008-.558-1.656-1.512-1.71v-.324c1.062-.432 1.872-1.35 1.872-2.862v-.216c0-2.034-1.566-3.366-3.924-3.366h-5.472zm2.376-6.912v-3.528h2.844c1.152 0 1.8.666 1.8 1.674v.18c0 1.008-.684 1.674-1.8 1.674zm13.14 7.164c2.448 0 3.51-1.386 4.014-2.34l-1.854-.972c-.306.684-.828 1.332-2.088 1.332s-2.214-.846-2.268-2.07h6.498v-.774c0-2.736-1.71-4.608-4.338-4.608-2.664 0-4.464 1.8-4.464 4.608v.216c0 2.808 1.818 4.608 4.5 4.608m-2.178-5.742c.162-1.026.9-1.71 2.124-1.71 1.17 0 1.944.684 2.052 1.71zm8.496 9.09h2.268v-4.626h.324c.378.63 1.152 1.278 2.772 1.278 2.16 0 4.032-1.656 4.032-4.572v-.288c0-2.916-1.89-4.572-4.032-4.572-1.62 0-2.394.648-2.808 1.332h-.324v-1.08h-2.232zm4.68-5.328c-1.404 0-2.448-.918-2.448-2.646v-.18c0-1.728 1.062-2.646 2.448-2.646s2.448.918 2.448 2.646v.18c0 1.728-1.044 2.646-2.448 2.646m6.804 1.728h2.268v-12.6h-2.268zm5.76 3.6h5.616c1.188 0 1.98-.792 1.98-2.016v-10.512h-2.268v4.536c0 1.656-.81 2.628-2.196 2.628-1.224 0-1.908-.666-1.908-2.016v-5.148h-2.268v5.328c0 2.214 1.386 3.744 3.474 3.744 1.602 0 2.322-.702 2.61-1.314h.324v2.25c0 .36-.18.54-.504.54h-4.86zm19.404-3.348c3.096 0 4.86-1.8 4.86-4.752v-.252h-2.34v.324c0 1.476-.828 2.556-2.52 2.556s-2.7-1.116-2.7-2.88v-3.096c0-1.764 1.008-2.88 2.7-2.88s2.52 1.08 2.52 2.556v.18h2.34v-.108c0-2.952-1.764-4.752-4.86-4.752-3.132 0-5.076 1.8-5.076 5.04v3.024c0 3.24 1.944 5.04 5.076 5.04m6.877-.252h2.268v-4.536c0-1.656.81-2.628 2.196-2.628 1.224 0 1.908.666 1.908 2.016v5.148h2.268v-5.328c0-2.214-1.386-3.744-3.474-3.744-1.584 0-2.286.666-2.574 1.242h-.324v-4.77h-2.268zm13.86.252c1.872 0 2.43-1.008 2.592-1.458h.342v.018c0 .72.648 1.188 1.53 1.188h1.512v-1.872h-.72c-.324 0-.504-.18-.504-.54v-3.33c0-2.232-1.476-3.438-3.816-3.438-2.322 0-3.492 1.17-3.924 2.52l2.088.702c.162-.81.666-1.386 1.8-1.386 1.152 0 1.656.612 1.656 1.44v.504h-2.448c-2.016 0-3.456.954-3.456 2.79s1.44 2.862 3.348 2.862m.396-1.836c-.972 0-1.476-.45-1.476-1.098s.504-1.026 1.35-1.026h2.286v.18c0 1.188-.9 1.944-2.16 1.944m7.236 1.584h2.268v-4.536c0-1.656.81-2.628 2.196-2.628 1.224 0 1.908.666 1.908 2.016v5.148h2.268v-5.328c0-2.214-1.386-3.744-3.474-3.744-1.602 0-2.322.702-2.61 1.314h-.324v-1.17h-2.232zm11.088 0h2.268v-4.536c0-1.656.81-2.628 2.196-2.628 1.224 0 1.908.666 1.908 2.016v5.148h2.268v-5.328c0-2.214-1.386-3.744-3.474-3.744-1.602 0-2.322.702-2.61 1.314h-.324v-1.17h-2.232zm15.156.252c2.448 0 3.51-1.386 4.014-2.34l-1.854-.972c-.306.684-.828 1.332-2.088 1.332s-2.214-.846-2.268-2.07h6.498v-.774c0-2.736-1.71-4.608-4.338-4.608-2.664 0-4.464 1.8-4.464 4.608v.216c0 2.808 1.818 4.608 4.5 4.608m-2.178-5.742c.162-1.026.9-1.71 2.124-1.71 1.17 0 1.944.684 2.052 1.71zm8.496 5.49h2.268v-12.6h-2.268z" aria-label="Reply Channel" style="font-weight:700;font-size:18px;font-family:&quot;Space Grotesk&quot;"/><path fill="none" d="M91.59 125.16c42-10.08 109.299-26.248 170.694-40.993" style="stroke:#000;stroke-width:3"/><path d="m271.035 82.065-14.528-2.681 7.235 4.432-4.433 7.236z" style="stroke:#000;stroke-width:3"/><path d="M146.94 81.462h1.512v-5.166h4.356c.81 0 1.188.396 1.188 1.116v4.05h1.494v-4.23c0-1.08-.63-1.602-1.494-1.638v-.252c1.08-.342 1.998-1.278 1.998-2.934v-.198c0-2.088-1.638-3.348-3.96-3.348h-5.094zm1.512-6.534V70.23h3.438c1.674 0 2.592.828 2.592 2.286v.126c0 1.44-.954 2.286-2.592 2.286zm13.965 6.786c2.358 0 3.402-1.314 3.942-2.43l-1.224-.594c-.432.972-1.17 1.764-2.682 1.764-1.746 0-3.006-1.134-3.06-3.024h7.164v-.648c0-2.682-1.728-4.374-4.23-4.374-2.574 0-4.374 1.836-4.374 4.554v.216c0 2.718 1.782 4.536 4.464 4.536m-3.006-5.454c.216-1.638 1.314-2.592 2.916-2.592 1.584 0 2.682.954 2.79 2.592zm16.845 8.802h1.422V72.66h-1.386v1.458h-.252c-.486-.882-1.404-1.71-3.24-1.71-2.286 0-4.158 1.71-4.158 4.536v.234c0 2.808 1.854 4.536 4.158 4.536 1.836 0 2.754-.828 3.204-1.638h.252zm-3.078-4.608c-1.818 0-3.096-1.224-3.096-3.312v-.162c0-2.088 1.278-3.312 3.096-3.312 1.8 0 3.078 1.224 3.078 3.312v.162c0 2.088-1.26 3.312-3.078 3.312m10.887 1.17c1.8 0 2.646-.81 3.042-1.656h.252v1.494h1.386V72.66h-1.422v4.428c0 2.178-1.206 3.294-2.88 3.294-1.494 0-2.43-.756-2.43-2.502v-5.22h-1.422v5.328c0 2.358 1.53 3.636 3.474 3.636m11.715.09c2.358 0 3.402-1.314 3.942-2.43l-1.224-.594c-.432.972-1.17 1.764-2.682 1.764-1.746 0-3.006-1.134-3.06-3.024h7.164v-.648c0-2.682-1.728-4.374-4.23-4.374-2.574 0-4.374 1.836-4.374 4.554v.216c0 2.718 1.782 4.536 4.464 4.536m-3.006-5.454c.216-1.638 1.314-2.592 2.916-2.592 1.584 0 2.682.954 2.79 2.592zm13.21 5.454c2.16 0 3.545-.972 3.545-2.7 0-1.71-1.458-2.286-3.312-2.61l-.738-.126c-1.116-.198-1.818-.522-1.818-1.368s.738-1.314 1.944-1.314c1.188 0 2.07.468 2.286 1.728l1.332-.342c-.36-1.638-1.638-2.574-3.618-2.574-2.016 0-3.348.936-3.348 2.52s1.35 2.286 3.078 2.592l.738.126c1.278.234 2.052.522 2.052 1.422s-.828 1.458-2.142 1.458c-1.332 0-2.52-.54-2.772-2.268l-1.35.306c.306 2.178 1.926 3.15 4.122 3.15m9.015-.252h2.34V80.22h-1.962c-.378 0-.522-.18-.522-.54v-5.778h2.88V72.66h-2.88v-3.132h-1.422v3.132h-2.646v1.242h2.646v6.012c0 .954.558 1.548 1.566 1.548" aria-label="Request" style="font-size:18px;font-family:&quot;Space Grotesk&quot;"/><path fill="none" d="M463.8 80.505c58.41 13.11 122.394 27.444 170.904 38.334" style="stroke:#000;stroke-width:3"/><path d="m643.485 120.81-11.858-8.811 4.54 7.168-7.168 4.54z" style="stroke:#000;stroke-width:3"/><path d="M518.94 78.462h1.512v-5.166h4.356c.81 0 1.188.396 1.188 1.116v4.05h1.494v-4.23c0-1.08-.63-1.602-1.494-1.638v-.252c1.08-.342 1.998-1.278 1.998-2.934v-.198c0-2.088-1.638-3.348-3.96-3.348h-5.094zm1.512-6.534V67.23h3.438c1.674 0 2.592.828 2.592 2.286v.126c0 1.44-.954 2.286-2.592 2.286zm13.965 6.786c2.358 0 3.402-1.314 3.942-2.43l-1.224-.594c-.432.972-1.17 1.764-2.682 1.764-1.746 0-3.006-1.134-3.06-3.024h7.164v-.648c0-2.682-1.728-4.374-4.23-4.374-2.574 0-4.374 1.836-4.374 4.554v.216c0 2.718 1.782 4.536 4.464 4.536m-3.006-5.454c.216-1.638 1.314-2.592 2.916-2.592 1.584 0 2.682.954 2.79 2.592zm16.845 8.802h1.422V69.66h-1.386v1.458h-.252c-.486-.882-1.404-1.71-3.24-1.71-2.286 0-4.158 1.71-4.158 4.536v.234c0 2.808 1.854 4.536 4.158 4.536 1.836 0 2.754-.828 3.204-1.638h.252zm-3.078-4.608c-1.818 0-3.096-1.224-3.096-3.312v-.162c0-2.088 1.278-3.312 3.096-3.312 1.8 0 3.078 1.224 3.078 3.312v.162c0 2.088-1.26 3.312-3.078 3.312m10.887 1.17c1.8 0 2.646-.81 3.042-1.656h.252v1.494h1.386V69.66h-1.422v4.428c0 2.178-1.206 3.294-2.88 3.294-1.494 0-2.43-.756-2.43-2.502v-5.22h-1.422v5.328c0 2.358 1.53 3.636 3.474 3.636m11.715.09c2.358 0 3.402-1.314 3.942-2.43l-1.224-.594c-.432.972-1.17 1.764-2.682 1.764-1.746 0-3.006-1.134-3.06-3.024h7.164v-.648c0-2.682-1.728-4.374-4.23-4.374-2.574 0-4.374 1.836-4.374 4.554v.216c0 2.718 1.782 4.536 4.464 4.536m-3.006-5.454c.216-1.638 1.314-2.592 2.916-2.592 1.584 0 2.682.954 2.79 2.592zm13.21 5.454c2.16 0 3.545-.972 3.545-2.7 0-1.71-1.458-2.286-3.312-2.61l-.738-.126c-1.116-.198-1.818-.522-1.818-1.368s.738-1.314 1.944-1.314c1.188 0 2.07.468 2.286 1.728l1.332-.342c-.36-1.638-1.638-2.574-3.618-2.574-2.016 0-3.348.936-3.348 2.52s1.35 2.286 3.078 2.592l.738.126c1.278.234 2.052.522 2.052 1.422s-.828 1.458-2.142 1.458c-1.332 0-2.52-.54-2.772-2.268l-1.35.306c.306 2.178 1.926 3.15 4.122 3.15m9.015-.252h2.34V77.22h-1.962c-.378 0-.522-.18-.522-.54v-5.778h2.88V69.66h-2.88v-3.132h-1.422v3.132h-2.646v1.242h2.646v6.012c0 .954.558 1.548 1.566 1.548" aria-label="Request" style="font-size:18px;font-family:&quot;Space Grotesk&quot;"/><path fill="none" d="M461.441 199.516c44.04-3.825 89.659-10.141 137.059-23.266 14.925-4.14 30.495-10.155 44.73-16.41" style="stroke:#000;stroke-width:3"/><path d="m452.475 200.295 13.968 4.81-6.496-5.459 5.458-6.497z" style="stroke:#000;stroke-width:3"/><path d="M530.94 162.462h1.512v-5.166h4.356c.81 0 1.188.396 1.188 1.116v4.05h1.494v-4.23c0-1.08-.63-1.602-1.494-1.638v-.252c1.08-.342 1.998-1.278 1.998-2.934v-.198c0-2.088-1.638-3.348-3.96-3.348h-5.094zm1.512-6.534v-4.698h3.438c1.674 0 2.592.828 2.592 2.286v.126c0 1.44-.954 2.286-2.592 2.286zm13.932 6.786c2.358 0 3.402-1.314 3.942-2.43l-1.224-.594c-.432.972-1.17 1.764-2.682 1.764-1.746 0-3.006-1.134-3.06-3.024h7.164v-.648c0-2.682-1.728-4.374-4.23-4.374-2.574 0-4.374 1.836-4.374 4.554v.216c0 2.718 1.782 4.536 4.464 4.536m-3.006-5.454c.216-1.638 1.314-2.592 2.916-2.592 1.584 0 2.682.954 2.79 2.592zm9.63 8.802h1.422v-4.986h.252c.432.81 1.368 1.638 3.204 1.638 2.304 0 4.158-1.728 4.158-4.536v-.234c0-2.826-1.872-4.536-4.158-4.536-1.836 0-2.772.828-3.24 1.71h-.252v-1.458h-1.386zm4.5-4.608c-1.818 0-3.096-1.224-3.096-3.312v-.162c0-2.088 1.278-3.312 3.096-3.312 1.8 0 3.078 1.224 3.078 3.312v.162c0 2.088-1.26 3.312-3.078 3.312m7.092 1.008h1.422v-12.6H564.6zm5.472 3.6h5.4c1.008 0 1.584-.594 1.584-1.548V153.66h-1.422v4.428c0 2.196-1.206 3.294-2.88 3.294-1.494 0-2.43-.738-2.43-2.484v-5.238h-1.422v5.346c0 2.358 1.53 3.618 3.474 3.618 1.8 0 2.628-.792 3.006-1.566h.252v3.204c0 .36-.144.54-.522.54h-5.04z" aria-label="Reply" style="font-size:18px;font-family:&quot;Space Grotesk&quot;"/><path fill="none" d="M99.87 159.469c13.2 8.01 21.255 11.681 36.63 16.781 46.875 15.555 101.685 22.74 145.98 26.01" style="stroke:#000;stroke-width:3"/><path d="m92.175 154.8 8.429 12.133-2.017-8.242 8.242-2.017z" style="stroke:#000;stroke-width:3"/><path d="M158.94 162.462h1.512v-5.166h4.356c.81 0 1.188.396 1.188 1.116v4.05h1.494v-4.23c0-1.08-.63-1.602-1.494-1.638v-.252c1.08-.342 1.998-1.278 1.998-2.934v-.198c0-2.088-1.638-3.348-3.96-3.348h-5.094zm1.512-6.534v-4.698h3.438c1.674 0 2.592.828 2.592 2.286v.126c0 1.44-.954 2.286-2.592 2.286zm13.932 6.786c2.358 0 3.402-1.314 3.942-2.43l-1.224-.594c-.432.972-1.17 1.764-2.682 1.764-1.746 0-3.006-1.134-3.06-3.024h7.164v-.648c0-2.682-1.728-4.374-4.23-4.374-2.574 0-4.374 1.836-4.374 4.554v.216c0 2.718 1.782 4.536 4.464 4.536m-3.006-5.454c.216-1.638 1.314-2.592 2.916-2.592 1.584 0 2.682.954 2.79 2.592zm9.63 8.802h1.422v-4.986h.252c.432.81 1.368 1.638 3.204 1.638 2.304 0 4.158-1.728 4.158-4.536v-.234c0-2.826-1.872-4.536-4.158-4.536-1.836 0-2.772.828-3.24 1.71h-.252v-1.458h-1.386zm4.5-4.608c-1.818 0-3.096-1.224-3.096-3.312v-.162c0-2.088 1.278-3.312 3.096-3.312 1.8 0 3.078 1.224 3.078 3.312v.162c0 2.088-1.26 3.312-3.078 3.312m7.092 1.008h1.422v-12.6H192.6zm5.472 3.6h5.4c1.008 0 1.584-.594 1.584-1.548V153.66h-1.422v4.428c0 2.196-1.206 3.294-2.88 3.294-1.494 0-2.43-.738-2.43-2.484v-5.238h-1.422v5.346c0 2.358 1.53 3.618 3.474 3.618 1.8 0 2.628-.792 3.006-1.566h.252v3.204c0 .36-.144.54-.522.54h-5.04z" aria-label="Reply" style="font-size:18px;font-family:&quot;Space Grotesk&quot;"/></svg>