<svg xmlns="http://www.w3.org/2000/svg" width="820.5" height="331.5" preserveAspectRatio="none" style="width:820px;height:331px" viewBox="0 0 820 331"><path fill="#DEDEDE" d="m133.5 60 18 18-18 18-18-18z" style="stroke:#000;stroke-width:3"/><rect width="171.877" height="75.936" x="204.75" y="39.75" fill="#FFF" rx="18.75" ry="18.75" style="stroke:#000;stroke-width:3"/><path d="M243.591 72.462h1.512v-5.166h4.356c.81 0 1.188.396 1.188 1.116v4.05h1.494v-4.23c0-1.08-.63-1.602-1.494-1.638v-.252c1.08-.342 1.998-1.278 1.998-2.934v-.198c0-2.088-1.638-3.348-3.96-3.348h-5.094zm1.512-6.534V61.23h3.438c1.674 0 2.592.828 2.592 2.286v.126c0 1.44-.954 2.286-2.592 2.286zm13.99 6.786c2.358 0 3.402-1.314 3.942-2.43l-1.224-.594c-.432.972-1.17 1.764-2.682 1.764-1.746 0-3.006-1.134-3.06-3.024h7.164v-.648c0-2.682-1.728-4.374-4.23-4.374-2.574 0-4.374 1.836-4.374 4.554v.216c0 2.718 1.782 4.536 4.464 4.536m-3.006-5.454c.216-1.638 1.314-2.592 2.916-2.592 1.584 0 2.682.954 2.79 2.592zm16.87 8.802h1.422V63.66h-1.386v1.458h-.252c-.486-.882-1.404-1.71-3.24-1.71-2.286 0-4.158 1.71-4.158 4.536v.234c0 2.808 1.854 4.536 4.158 4.536 1.836 0 2.754-.828 3.204-1.638h.252zm-3.078-4.608c-1.818 0-3.096-1.224-3.096-3.312v-.162c0-2.088 1.278-3.312 3.096-3.312 1.8 0 3.078 1.224 3.078 3.312v.162c0 2.088-1.26 3.312-3.078 3.312m10.912 1.17c1.8 0 2.646-.81 3.042-1.656h.252v1.494h1.386V63.66h-1.422v4.428c0 2.178-1.206 3.294-2.88 3.294-1.494 0-2.43-.756-2.43-2.502v-5.22h-1.422v5.328c0 2.358 1.53 3.636 3.474 3.636m11.74.09c2.359 0 3.403-1.314 3.943-2.43l-1.224-.594c-.432.972-1.17 1.764-2.682 1.764-1.746 0-3.006-1.134-3.06-3.024h7.164v-.648c0-2.682-1.728-4.374-4.23-4.374-2.574 0-4.374 1.836-4.374 4.554v.216c0 2.718 1.782 4.536 4.464 4.536m-3.005-5.454c.216-1.638 1.314-2.592 2.916-2.592 1.584 0 2.682.954 2.79 2.592zm13.234 5.454c2.16 0 3.546-.972 3.546-2.7 0-1.71-1.458-2.286-3.312-2.61l-.738-.126c-1.116-.198-1.818-.522-1.818-1.368s.738-1.314 1.944-1.314c1.188 0 2.07.468 2.286 1.728l1.332-.342c-.36-1.638-1.638-2.574-3.618-2.574-2.016 0-3.348.936-3.348 2.52s1.35 2.286 3.078 2.592l.738.126c1.278.234 2.052.522 2.052 1.422s-.828 1.458-2.142 1.458c-1.332 0-2.52-.54-2.772-2.268l-1.35.306c.306 2.178 1.926 3.15 4.122 3.15m9.04-.252h2.34V71.22h-1.962c-.378 0-.522-.18-.522-.54v-5.778h2.88V63.66h-2.88v-3.132h-1.422v3.132h-2.646v1.242h2.646v6.012c0 .954.558 1.548 1.566 1.548m13.022 0h2.34V71.22H325.2c-.378 0-.522-.18-.522-.54v-5.778h2.88V63.66h-2.88v-3.132h-1.422v3.132h-2.646v1.242h2.646v6.012c0 .954.558 1.548 1.566 1.548m8.842.252c2.664 0 4.5-1.782 4.5-4.536v-.234c0-2.754-1.836-4.536-4.5-4.536s-4.5 1.782-4.5 4.536v.234c0 2.754 1.836 4.536 4.5 4.536m0-1.278c-1.854 0-3.078-1.278-3.078-3.294v-.162c0-2.016 1.206-3.294 3.078-3.294 1.854 0 3.078 1.278 3.078 3.294v.162c0 2.016-1.224 3.294-3.078 3.294" aria-label="Request to" style="font-size:18px;font-family:&quot;Space Grotesk&quot;"/><path d="M225.276 95.682c2.358 0 3.402-1.314 3.942-2.43l-1.224-.594c-.432.972-1.17 1.764-2.682 1.764-1.746 0-3.006-1.134-3.06-3.024h7.164v-.648c0-2.682-1.728-4.374-4.23-4.374-2.574 0-4.374 1.836-4.374 4.554v.216c0 2.718 1.782 4.536 4.464 4.536m-3.006-5.454c.216-1.638 1.314-2.592 2.916-2.592 1.584 0 2.682.954 2.79 2.592zm8.419 5.202h1.746l2.7-3.51h.252l2.7 3.51h1.728l-3.528-4.464 3.438-4.338h-1.728l-2.61 3.402h-.252l-2.628-3.402h-1.71l3.42 4.338zm14.737 0h2.34v-1.242h-1.962c-.378 0-.522-.18-.522-.54V87.87h2.88v-1.242h-2.88v-3.132h-1.422v3.132h-2.646v1.242h2.646v6.012c0 .954.558 1.548 1.566 1.548m8.85.252c2.359 0 3.403-1.314 3.943-2.43l-1.224-.594c-.432.972-1.17 1.764-2.682 1.764-1.746 0-3.006-1.134-3.06-3.024h7.164v-.648c0-2.682-1.728-4.374-4.23-4.374-2.574 0-4.374 1.836-4.374 4.554v.216c0 2.718 1.782 4.536 4.464 4.536m-3.005-5.454c.216-1.638 1.314-2.592 2.916-2.592 1.584 0 2.682.954 2.79 2.592zm9.733 5.202h1.422v-5.364c0-1.476.846-2.178 2.124-2.178h1.134v-1.296h-1.044c-1.062 0-1.692.342-1.998 1.116h-.252v-1.08h-1.386zm6.889 0h1.422v-4.428c0-2.178 1.188-3.294 2.88-3.294 1.476 0 2.43.756 2.43 2.502v5.22h1.422v-5.328c0-2.358-1.548-3.636-3.492-3.636-1.8 0-2.646.81-3.024 1.656h-.252v-1.494h-1.386zm13.837.252c1.818 0 2.556-.864 2.934-1.566h.216v.09c0 .756.522 1.224 1.314 1.224h1.242v-1.206h-.81c-.324 0-.504-.18-.504-.54v-3.978c0-2.106-1.332-3.33-3.564-3.33-2.214 0-3.402 1.206-3.816 2.682l1.332.432c.27-1.134 1.044-1.89 2.466-1.89 1.458 0 2.178.774 2.178 2.016v.648h-2.97c-1.89 0-3.312.882-3.312 2.664 0 1.764 1.422 2.754 3.294 2.754m.162-1.224c-1.224 0-2.034-.576-2.034-1.566s.81-1.476 1.944-1.476h2.916v.198c0 1.8-1.134 2.844-2.826 2.844m7.59.972h1.423v-12.6h-1.422zm12.788.252c2.16 0 3.546-.972 3.546-2.7 0-1.71-1.458-2.286-3.312-2.61l-.738-.126c-1.116-.198-1.818-.522-1.818-1.368s.738-1.314 1.944-1.314c1.188 0 2.07.468 2.286 1.728l1.332-.342c-.36-1.638-1.638-2.574-3.618-2.574-2.016 0-3.348.936-3.348 2.52s1.35 2.286 3.078 2.592l.738.126c1.278.234 2.052.522 2.052 1.422s-.828 1.458-2.142 1.458c-1.332 0-2.52-.54-2.772-2.268l-1.35.306c.306 2.178 1.926 3.15 4.122 3.15m7.105 3.348h5.4c1.008 0 1.584-.594 1.584-1.548V86.628h-1.422v4.428c0 2.196-1.206 3.294-2.88 3.294-1.494 0-2.43-.738-2.43-2.484v-5.238h-1.422v5.346c0 2.358 1.53 3.618 3.474 3.618 1.8 0 2.628-.792 3.006-1.566h.252v3.204c0 .36-.144.54-.522.54h-5.04zm13.603-3.348c2.16 0 3.546-.972 3.546-2.7 0-1.71-1.458-2.286-3.312-2.61l-.738-.126c-1.116-.198-1.818-.522-1.818-1.368s.738-1.314 1.944-1.314c1.188 0 2.07.468 2.286 1.728l1.332-.342c-.36-1.638-1.638-2.574-3.618-2.574-2.016 0-3.348.936-3.348 2.52s1.35 2.286 3.078 2.592l.738.126c1.278.234 2.052.522 2.052 1.422s-.828 1.458-2.142 1.458c-1.332 0-2.52-.54-2.772-2.268l-1.35.306c.306 2.178 1.926 3.15 4.122 3.15m9.085-.252h2.34v-1.242h-1.962c-.378 0-.522-.18-.522-.54V87.87h2.88v-1.242h-2.88v-3.132h-1.422v3.132h-2.646v1.242h2.646v6.012c0 .954.558 1.548 1.566 1.548m8.851.252c2.358 0 3.402-1.314 3.942-2.43l-1.224-.594c-.432.972-1.17 1.764-2.682 1.764-1.746 0-3.006-1.134-3.06-3.024h7.164v-.648c0-2.682-1.728-4.374-4.23-4.374-2.574 0-4.374 1.836-4.374 4.554v.216c0 2.718 1.782 4.536 4.464 4.536m-3.006-5.454c.216-1.638 1.314-2.592 2.916-2.592 1.584 0 2.682.954 2.79 2.592zm9.733 5.202h1.422v-5.292c0-1.584.918-2.448 2.214-2.448 1.224 0 1.944.738 1.944 1.908v5.832h1.422v-5.292c0-1.584.918-2.448 2.214-2.448 1.224 0 1.944.738 1.944 1.908v5.832h1.422v-5.958c0-1.872-1.242-3.006-2.988-3.006-1.494 0-2.268.684-2.664 1.548h-.252c-.396-.864-1.224-1.548-2.592-1.548-1.386 0-2.106.63-2.448 1.26h-.252v-1.098h-1.386z" aria-label="external system" style="font-size:18px;font-family:&quot;Space Grotesk&quot;"/><rect width="101.442" height="60" x="82.5" y="246.75" fill="#FFAE03" rx="18.75" ry="18.75" style="stroke:#000;stroke-width:3"/><path d="M101.604 282.978h2.376v-10.44h3.672v-2.16h-9.72v2.16h3.672zm8.694-9.972c.828 0 1.458-.576 1.458-1.44s-.63-1.44-1.458-1.44-1.458.576-1.458 1.44.63 1.44 1.458 1.44m-1.134 9.972h2.268v-8.928h-2.268zm4.824 0h2.268v-5.274c0-1.224.576-1.908 1.62-1.908.9 0 1.44.504 1.44 1.476v5.706h2.268v-5.274c0-1.224.576-1.908 1.62-1.908.9 0 1.44.504 1.44 1.476v5.706h2.268v-5.868c0-2.16-1.332-3.204-2.988-3.204-1.368 0-2.052.576-2.448 1.332h-.324c-.414-.792-1.134-1.332-2.412-1.332-1.188 0-1.89.522-2.196 1.116h-.324v-.972h-2.232zm19.476.252c2.448 0 3.51-1.386 4.014-2.34l-1.854-.972c-.306.684-.828 1.332-2.088 1.332s-2.214-.846-2.268-2.07h6.498v-.774c0-2.736-1.71-4.608-4.338-4.608-2.664 0-4.464 1.8-4.464 4.608v.216c0 2.808 1.818 4.608 4.5 4.608m-2.178-5.742c.162-1.026.9-1.71 2.124-1.71 1.17 0 1.944.684 2.052 1.71zm12.78 5.742c2.664 0 4.68-1.692 4.68-4.572v-.288c0-2.88-2.016-4.572-4.68-4.572s-4.68 1.692-4.68 4.572v.288c0 2.88 2.016 4.572 4.68 4.572m0-2.016c-1.386 0-2.412-.936-2.412-2.61v-.18c0-1.674 1.008-2.61 2.412-2.61s2.412.936 2.412 2.61v.18c0 1.674-1.026 2.61-2.412 2.61m10.206 1.908c1.602 0 2.322-.702 2.61-1.314h.324v1.17h2.232v-8.928h-2.268v4.536c0 1.656-.81 2.628-2.196 2.628-1.224 0-1.908-.666-1.908-2.016v-5.148h-2.268v5.328c0 2.214 1.386 3.744 3.474 3.744m11.143-.144h2.52v-1.872h-1.728c-.324 0-.504-.18-.504-.54v-4.644h2.448v-1.872h-2.448v-2.772h-2.268v2.772h-2.232v1.872h2.232v5.04c0 1.224.792 2.016 1.98 2.016" aria-label="Timeout" style="font-weight:700;font-size:18px;font-family:&quot;Space Grotesk&quot;"/><path fill="#DEDEDE" d="m448.5 60 18 18-18 18-18-18zM448.5 258.75l18 18-18 18-18-18z" style="stroke:#000;stroke-width:3"/><circle cx="757.5" cy="78" r="16.5" fill="none" style="stroke:#000;stroke-width:1.5"/><circle cx="757.5" cy="78" r="9" style="stroke:#000;stroke-width:1.5"/><path fill="#FF6153" d="M720 246.75h75v60h-75z" style="stroke:#000;stroke-width:3"/><path d="M737.502 282.978h8.208v-2.16h-5.832v-3.114h5.22v-2.16h-5.22v-3.006h5.724v-2.16h-8.1zm10.125 0h2.268v-5.076c0-1.26.828-1.872 1.98-1.872h1.116v-2.016h-1.08c-.828 0-1.476.324-1.728 1.044h-.324v-1.008h-2.232zm7.21 0h2.267v-5.076c0-1.26.828-1.872 1.98-1.872h1.116v-2.016h-1.08c-.828 0-1.476.324-1.728 1.044h-.324v-1.008h-2.232zm11.132.252c2.664 0 4.68-1.692 4.68-4.572v-.288c0-2.88-2.016-4.572-4.68-4.572s-4.68 1.692-4.68 4.572v.288c0 2.88 2.016 4.572 4.68 4.572m0-2.016c-1.386 0-2.412-.936-2.412-2.61v-.18c0-1.674 1.008-2.61 2.412-2.61s2.412.936 2.412 2.61v.18c0 1.674-1.026 2.61-2.412 2.61m6.85 1.764h2.267v-5.076c0-1.26.828-1.872 1.98-1.872h1.116v-2.016h-1.08c-.828 0-1.476.324-1.728 1.044h-.324v-1.008h-2.232z" aria-label="Error" style="font-weight:700;font-size:18px;font-family:&quot;Space Grotesk&quot;"/><circle cx="48" cy="78" r="15" style="stroke:#000;stroke-width:1.5"/><path fill="none" d="M63.36 78h43.065" style="stroke:#000;stroke-width:3"/><path d="m115.425 78-13.5-6 6 6-6 6z" style="stroke:#000;stroke-width:3"/><path fill="none" d="M151.95 78h43.695" style="stroke:#000;stroke-width:3"/><path d="m204.645 78-13.5-6 6 6-6 6z" style="stroke:#000;stroke-width:3"/><path fill="none" d="M377.745 78h43.515" style="stroke:#000;stroke-width:3"/><path d="m430.26 78-13.5-6 6 6-6 6z" style="stroke:#000;stroke-width:3"/><path fill="none" d="M466.905 78H731.34" style="stroke:#000;stroke-width:3"/><path d="m740.34 78-13.5-6 6 6-6 6z" style="stroke:#000;stroke-width:3"/><path d="M568.217 63.942h2.79V62.7h-2.34q-.486 0-.486-.54V48.084q0-.54.486-.54h2.34v-1.242h-2.79c-.828 0-1.404.612-1.404 1.422V62.52c0 .81.576 1.422 1.404 1.422m7.454-3.978c2.16 0 3.546-.972 3.546-2.7 0-1.71-1.458-2.286-3.312-2.61l-.738-.126c-1.116-.198-1.818-.522-1.818-1.368s.738-1.314 1.944-1.314c1.188 0 2.07.468 2.286 1.728l1.332-.342c-.36-1.638-1.638-2.574-3.618-2.574-2.016 0-3.348.936-3.348 2.52s1.35 2.286 3.078 2.592l.738.126c1.278.234 2.052.522 2.052 1.422s-.828 1.458-2.142 1.458c-1.332 0-2.52-.54-2.772-2.268l-1.35.306c.306 2.178 1.926 3.15 4.122 3.15m8.588-.09c1.8 0 2.646-.81 3.042-1.656h.252v1.494h1.386V50.91h-1.422v4.428c0 2.178-1.206 3.294-2.88 3.294-1.494 0-2.43-.756-2.43-2.502v-5.22h-1.422v5.328c0 2.358 1.53 3.636 3.474 3.636m10.982.09c2.538 0 3.906-1.584 4.284-3.348l-1.404-.306c-.216 1.35-1.116 2.376-2.862 2.376s-3.078-1.242-3.078-3.294v-.162c0-2.052 1.332-3.294 3.078-3.294s2.628 1.08 2.808 2.376l1.386-.288c-.288-1.782-1.674-3.366-4.212-3.366-2.574 0-4.482 1.728-4.482 4.554v.198c0 2.826 1.908 4.554 4.482 4.554m10.046 0c2.538 0 3.906-1.584 4.284-3.348l-1.404-.306c-.216 1.35-1.116 2.376-2.862 2.376s-3.078-1.242-3.078-3.294v-.162c0-2.052 1.332-3.294 3.078-3.294s2.628 1.08 2.808 2.376l1.386-.288c-.288-1.782-1.674-3.366-4.212-3.366-2.574 0-4.482 1.728-4.482 4.554v.198c0 2.826 1.908 4.554 4.482 4.554m10.028 0c2.358 0 3.402-1.314 3.942-2.43l-1.224-.594c-.432.972-1.17 1.764-2.682 1.764-1.746 0-3.006-1.134-3.06-3.024h7.164v-.648c0-2.682-1.728-4.374-4.23-4.374-2.574 0-4.374 1.836-4.374 4.554v.216c0 2.718 1.782 4.536 4.464 4.536m-3.006-5.454c.216-1.638 1.314-2.592 2.916-2.592 1.584 0 2.682.954 2.79 2.592zm12.457 5.454c2.16 0 3.546-.972 3.546-2.7 0-1.71-1.458-2.286-3.312-2.61l-.738-.126c-1.116-.198-1.818-.522-1.818-1.368s.738-1.314 1.944-1.314c1.188 0 2.07.468 2.286 1.728l1.332-.342c-.36-1.638-1.638-2.574-3.618-2.574-2.016 0-3.348.936-3.348 2.52s1.35 2.286 3.078 2.592l.738.126c1.278.234 2.052.522 2.052 1.422s-.828 1.458-2.142 1.458c-1.332 0-2.52-.54-2.772-2.268l-1.35.306c.306 2.178 1.926 3.15 4.122 3.15m8.768 0c2.16 0 3.546-.972 3.546-2.7 0-1.71-1.458-2.286-3.312-2.61l-.738-.126c-1.116-.198-1.818-.522-1.818-1.368s.738-1.314 1.944-1.314c1.188 0 2.07.468 2.286 1.728l1.332-.342c-.36-1.638-1.638-2.574-3.618-2.574-2.016 0-3.348.936-3.348 2.52s1.35 2.286 3.078 2.592l.738.126c1.278.234 2.052.522 2.052 1.422s-.828 1.458-2.142 1.458c-1.332 0-2.52-.54-2.772-2.268l-1.35.306c.306 2.178 1.926 3.15 4.122 3.15m4.07 3.978h2.808c.81 0 1.404-.612 1.404-1.422V47.724c0-.81-.594-1.422-1.404-1.422h-2.808v1.242h2.34q.486 0 .486.54V62.16q0 .54-.486.54h-2.34z" aria-label="[success]" style="font-size:18px;font-family:&quot;Space Grotesk&quot;"/><path fill="none" d="M448.5 96.195V249.6" style="stroke:#000;stroke-width:3"/><path d="m448.5 258.6 6-13.5-6 6-6-6z" style="stroke:#000;stroke-width:3"/><path d="M460.596 192.39h3.06v-1.944h-2.214q-.486 0-.486-.54v-13.068q0-.54.486-.54h2.214v-1.944h-3.06c-1.08 0-1.836.756-1.836 1.836v14.364c0 1.08.756 1.836 1.836 1.836m6.109-4.428h2.268v-7.056h2.34v-1.872h-2.34v-1.26c0-.36.18-.54.504-.54h1.548v-1.872h-2.34c-1.188 0-1.98.792-1.98 2.016v1.656h-2.268v1.872h2.268zm9.024.252c1.872 0 2.43-1.008 2.592-1.458h.342v.018c0 .72.648 1.188 1.53 1.188h1.512v-1.872h-.72c-.324 0-.504-.18-.504-.54v-3.33c0-2.232-1.476-3.438-3.816-3.438-2.322 0-3.492 1.17-3.924 2.52l2.088.702c.162-.81.666-1.386 1.8-1.386 1.152 0 1.656.612 1.656 1.44v.504h-2.448c-2.016 0-3.456.954-3.456 2.79s1.44 2.862 3.348 2.862m.396-1.836c-.972 0-1.476-.45-1.476-1.098s.504-1.026 1.35-1.026h2.286v.18c0 1.188-.9 1.944-2.16 1.944m8.395-8.388c.828 0 1.458-.576 1.458-1.44s-.63-1.44-1.458-1.44-1.458.576-1.458 1.44.63 1.44 1.458 1.44m-1.134 9.972h2.268v-8.928h-2.268zm4.813 0h2.268v-12.6h-2.268zm8.215.144c1.602 0 2.322-.702 2.61-1.314h.324v1.17h2.232v-8.928h-2.268v4.536c0 1.656-.81 2.628-2.196 2.628-1.224 0-1.908-.666-1.908-2.016v-5.148h-2.268v5.328c0 2.214 1.386 3.744 3.474 3.744m7.71-.144h2.268v-5.076c0-1.26.828-1.872 1.98-1.872h1.116v-2.016h-1.08c-.828 0-1.476.324-1.728 1.044h-.324v-1.008h-2.232zm10.897.252c2.448 0 3.51-1.386 4.014-2.34l-1.854-.972c-.306.684-.828 1.332-2.088 1.332s-2.214-.846-2.268-2.07h6.498v-.774c0-2.736-1.71-4.608-4.338-4.608-2.664 0-4.464 1.8-4.464 4.608v.216c0 2.808 1.818 4.608 4.5 4.608m-2.178-5.742c.162-1.026.9-1.71 2.124-1.71 1.17 0 1.944.684 2.052 1.71zm17.365 5.742c2.664 0 4.68-1.692 4.68-4.572v-.288c0-2.88-2.016-4.572-4.68-4.572s-4.68 1.692-4.68 4.572v.288c0 2.88 2.016 4.572 4.68 4.572m0-2.016c-1.386 0-2.412-.936-2.412-2.61v-.18c0-1.674 1.008-2.61 2.412-2.61s2.412.936 2.412 2.61v.18c0 1.674-1.026 2.61-2.412 2.61m6.793 1.764h2.268v-5.076c0-1.26.828-1.872 1.98-1.872h1.116v-2.016h-1.08c-.828 0-1.476.324-1.728 1.044h-.324v-1.008h-2.232zm15.17 0h2.52v-1.872h-1.729c-.324 0-.504-.18-.504-.54v-4.644h2.448v-1.872h-2.448v-2.772h-2.268v2.772h-2.232v1.872h2.232v5.04c0 1.224.792 2.016 1.98 2.016m5.946-9.972c.828 0 1.458-.576 1.458-1.44s-.63-1.44-1.458-1.44-1.458.576-1.458 1.44.63 1.44 1.458 1.44m-1.134 9.972h2.268v-8.928h-2.268zm4.813 0h2.268v-5.274c0-1.224.576-1.908 1.62-1.908.9 0 1.44.504 1.44 1.476v5.706h2.268v-5.274c0-1.224.576-1.908 1.62-1.908.9 0 1.44.504 1.44 1.476v5.706h2.268v-5.868c0-2.16-1.332-3.204-2.988-3.204-1.368 0-2.052.576-2.448 1.332h-.324c-.414-.792-1.134-1.332-2.412-1.332-1.188 0-1.89.522-2.196 1.116h-.324v-.972h-2.232zm19.464.252c2.448 0 3.51-1.386 4.014-2.34l-1.854-.972c-.306.684-.828 1.332-2.088 1.332s-2.214-.846-2.268-2.07h6.498v-.774c0-2.736-1.71-4.608-4.338-4.608-2.664 0-4.464 1.8-4.464 4.608v.216c0 2.808 1.818 4.608 4.5 4.608m-2.178-5.742c.162-1.026.9-1.71 2.124-1.71 1.17 0 1.944.684 2.052 1.71zm12.77 5.742c2.663 0 4.68-1.692 4.68-4.572v-.288c0-2.88-2.017-4.572-4.68-4.572-2.665 0-4.68 1.692-4.68 4.572v.288c0 2.88 2.015 4.572 4.68 4.572m0-2.016c-1.387 0-2.413-.936-2.413-2.61v-.18c0-1.674 1.008-2.61 2.412-2.61s2.412.936 2.412 2.61v.18c0 1.674-1.026 2.61-2.412 2.61m10.194 1.908c1.602 0 2.322-.702 2.61-1.314h.324v1.17h2.232v-8.928h-2.268v4.536c0 1.656-.81 2.628-2.196 2.628-1.224 0-1.908-.666-1.908-2.016v-5.148h-2.268v5.328c0 2.214 1.386 3.744 3.474 3.744m11.13-.144h2.52v-1.872h-1.727c-.324 0-.504-.18-.504-.54v-4.644h2.448v-1.872h-2.448v-2.772h-2.268v2.772h-2.232v1.872h2.232v5.04c0 1.224.792 2.016 1.98 2.016m3.841 4.428h3.06c1.08 0 1.836-.756 1.836-1.836V176.19c0-1.08-.756-1.836-1.836-1.836h-3.06v1.944h2.214q.486 0 .486.54v13.068q0 .54-.486.54h-2.214z" aria-label="[failure or timeout]" style="font-weight:700;font-size:18px;font-family:&quot;Space Grotesk&quot;"/><path fill="none" d="M466.905 276.75H710.88" style="stroke:#000;stroke-width:3"/><path d="m719.88 276.75-13.5-6 6 6-6 6z" style="stroke:#000;stroke-width:3"/><path d="M518.148 262.692h2.79v-1.242h-2.34q-.486 0-.486-.54v-14.076q0-.54.486-.54h2.34v-1.242h-2.79c-.828 0-1.404.612-1.404 1.422v14.796c0 .81.576 1.422 1.404 1.422m7.934-4.23h2.34v-1.242h-1.962c-.378 0-.522-.18-.522-.54v-5.778h2.88v-1.242h-2.88v-3.132h-1.422v3.132h-2.646v1.242h2.646v6.012c0 .954.558 1.548 1.566 1.548m8.852.252c2.664 0 4.5-1.782 4.5-4.536v-.234c0-2.754-1.836-4.536-4.5-4.536s-4.5 1.782-4.5 4.536v.234c0 2.754 1.836 4.536 4.5 4.536m0-1.278c-1.854 0-3.078-1.278-3.078-3.294v-.162c0-2.016 1.206-3.294 3.078-3.294 1.854 0 3.078 1.278 3.078 3.294v.162c0 2.016-1.224 3.294-3.078 3.294m11.191 1.278c2.664 0 4.5-1.782 4.5-4.536v-.234c0-2.754-1.836-4.536-4.5-4.536s-4.5 1.782-4.5 4.536v.234c0 2.754 1.836 4.536 4.5 4.536m0-1.278c-1.854 0-3.078-1.278-3.078-3.294v-.162c0-2.016 1.206-3.294 3.078-3.294 1.854 0 3.078 1.278 3.078 3.294v.162c0 2.016-1.224 3.294-3.078 3.294m11.818 1.026h1.422v-5.292c0-1.584.918-2.448 2.214-2.448 1.224 0 1.944.738 1.944 1.908v5.832h1.422v-5.292c0-1.584.918-2.448 2.214-2.448 1.224 0 1.944.738 1.944 1.908v5.832h1.422v-5.958c0-1.872-1.242-3.006-2.988-3.006-1.494 0-2.268.684-2.664 1.548h-.252c-.396-.864-1.224-1.548-2.592-1.548-1.386 0-2.106.63-2.448 1.26h-.252v-1.098h-1.386zm18.248.252c1.818 0 2.556-.864 2.934-1.566h.216v.09c0 .756.522 1.224 1.314 1.224h1.242v-1.206h-.81c-.324 0-.504-.18-.504-.54v-3.978c0-2.106-1.332-3.33-3.564-3.33-2.214 0-3.402 1.206-3.816 2.682l1.332.432c.27-1.134 1.044-1.89 2.466-1.89 1.458 0 2.178.774 2.178 2.016v.648h-2.97c-1.89 0-3.312.882-3.312 2.664 0 1.764 1.422 2.754 3.294 2.754m.162-1.224c-1.224 0-2.034-.576-2.034-1.566s.81-1.476 1.944-1.476h2.916v.198c0 1.8-1.134 2.844-2.826 2.844m7.556.972h1.422v-4.428c0-2.178 1.188-3.294 2.88-3.294 1.476 0 2.43.756 2.43 2.502v5.22h1.422v-5.328c0-2.358-1.548-3.636-3.492-3.636-1.8 0-2.646.81-3.024 1.656h-.252v-1.494h-1.386zm12.02 3.6h5.4c1.008 0 1.584-.594 1.584-1.548V249.66h-1.422v4.428c0 2.196-1.206 3.294-2.88 3.294-1.494 0-2.43-.738-2.43-2.484v-5.238h-1.422v5.346c0 2.358 1.53 3.618 3.474 3.618 1.8 0 2.628-.792 3.006-1.566h.252v3.204c0 .36-.144.54-.522.54h-5.04zm14.715-3.6h1.422v-5.364c0-1.476.846-2.178 2.124-2.178h1.134v-1.296h-1.044c-1.062 0-1.692.342-1.998 1.116h-.252v-1.08h-1.386zm10.562.252c2.358 0 3.402-1.314 3.942-2.43l-1.224-.594c-.432.972-1.17 1.764-2.682 1.764-1.746 0-3.006-1.134-3.06-3.024h7.164v-.648c0-2.682-1.728-4.374-4.23-4.374-2.574 0-4.374 1.836-4.374 4.554v.216c0 2.718 1.782 4.536 4.464 4.536m-3.006-5.454c.216-1.638 1.314-2.592 2.916-2.592 1.584 0 2.682.954 2.79 2.592zm12.578 5.202h2.34v-1.242h-1.962c-.378 0-.522-.18-.522-.54v-5.778h2.88v-1.242h-2.88v-3.132h-1.422v3.132h-2.646v1.242h2.646v6.012c0 .954.558 1.548 1.566 1.548m5.108 0h1.422v-5.364c0-1.476.846-2.178 2.124-2.178h1.134v-1.296h-1.044c-1.062 0-1.692.342-1.998 1.116h-.252v-1.08h-1.386zm7.556-10.17c.63 0 1.098-.45 1.098-1.08 0-.648-.468-1.098-1.098-1.098-.612 0-1.08.45-1.08 1.098 0 .63.468 1.08 1.08 1.08m-.702 10.17h1.422v-8.802h-1.422zm8.51.252c2.357 0 3.401-1.314 3.941-2.43l-1.224-.594c-.432.972-1.17 1.764-2.682 1.764-1.746 0-3.006-1.134-3.06-3.024h7.164v-.648c0-2.682-1.728-4.374-4.23-4.374-2.574 0-4.374 1.836-4.374 4.554v.216c0 2.718 1.782 4.536 4.464 4.536m-3.007-5.454c.216-1.638 1.314-2.592 2.916-2.592 1.584 0 2.682.954 2.79 2.592zm13.244 5.454c2.16 0 3.546-.972 3.546-2.7 0-1.71-1.458-2.286-3.312-2.61l-.738-.126c-1.116-.198-1.818-.522-1.818-1.368s.738-1.314 1.944-1.314c1.188 0 2.07.468 2.286 1.728l1.332-.342c-.36-1.638-1.638-2.574-3.618-2.574-2.016 0-3.348.936-3.348 2.52s1.35 2.286 3.078 2.592l.738.126c1.278.234 2.052.522 2.052 1.422s-.828 1.458-2.142 1.458c-1.332 0-2.52-.54-2.772-2.268l-1.35.306c.306 2.178 1.926 3.15 4.122 3.15m4.856 3.978h2.808c.81 0 1.404-.612 1.404-1.422v-14.796c0-.81-.594-1.422-1.404-1.422h-2.808v1.242h2.34q.486 0 .486.54v14.076q0 .54-.486.54h-2.34z" aria-label="[too many retries]" style="font-size:18px;font-family:&quot;Space Grotesk&quot;"/><path fill="none" d="M757.5 103.86v142.41" style="stroke:#000;stroke-width:3"/><path d="m757.5 94.86-6 13.5 6-6 6 6z" style="stroke:#000;stroke-width:3"/><path fill="none" d="M193.815 276.75H430.47" style="stroke:#000;stroke-width:3"/><path d="m184.815 276.75 13.5 6-6-6 6-6z" style="stroke:#000;stroke-width:3"/><path d="M282.648 262.692h2.79v-1.242h-2.34q-.486 0-.486-.54v-14.076q0-.54.486-.54h2.34v-1.242h-2.79c-.828 0-1.404.612-1.404 1.422v14.796c0 .81.576 1.422 1.404 1.422m4.74-4.23h1.422v-5.364c0-1.476.846-2.178 2.124-2.178h1.134v-1.296h-1.044c-1.062 0-1.692.342-1.998 1.116h-.252v-1.08h-1.386zm10.608.252c2.358 0 3.402-1.314 3.942-2.43l-1.224-.594c-.432.972-1.17 1.764-2.682 1.764-1.746 0-3.006-1.134-3.06-3.024h7.164v-.648c0-2.682-1.728-4.374-4.23-4.374-2.574 0-4.374 1.836-4.374 4.554v.216c0 2.718 1.782 4.536 4.464 4.536m-3.006-5.454c.216-1.638 1.314-2.592 2.916-2.592 1.584 0 2.682.954 2.79 2.592zm12.624 5.202h2.34v-1.242h-1.962c-.378 0-.522-.18-.522-.54v-5.778h2.88v-1.242h-2.88v-3.132h-1.422v3.132h-2.646v1.242h2.646v6.012c0 .954.558 1.548 1.566 1.548m5.154 0h1.422v-5.364c0-1.476.846-2.178 2.124-2.178h1.134v-1.296h-1.044c-1.062 0-1.692.342-1.998 1.116h-.252v-1.08h-1.386zm7.962 3.6h5.4c1.008 0 1.584-.594 1.584-1.548V249.66h-1.422v4.428c0 2.196-1.206 3.294-2.88 3.294-1.494 0-2.43-.738-2.43-2.484v-5.238h-1.422v5.346c0 2.358 1.53 3.618 3.474 3.618 1.8 0 2.628-.792 3.006-1.566h.252v3.204c0 .36-.144.54-.522.54h-5.04zm8.916.63h2.808c.81 0 1.404-.612 1.404-1.422v-14.796c0-.81-.594-1.422-1.404-1.422h-2.808v1.242h2.34q.486 0 .486.54v14.076q0 .54-.486.54h-2.34z" aria-label="[retry]" style="font-size:18px;font-family:&quot;Space Grotesk&quot;"/><path fill="none" d="M133.5 105.195v140.88" style="stroke:#000;stroke-width:3"/><path d="m133.5 96.195-6 13.5 6-6 6 6z" style="stroke:#000;stroke-width:3"/></svg>